<svg width="684" height="633" viewBox="0 0 684 633" fill="none" xmlns="http://www.w3.org/2000/svg">
<g clip-path="url(#clip0)">
<path d="M576.824 624.461H577.326C577.661 624.461 578.08 624.461 578.415 624.461C577.829 624.544 572.47 624.628 572.303 624.461C572.386 624.461 572.47 624.461 572.554 624.461C572.972 624.461 573.81 624.461 575.149 624.461H576.824ZM526.837 622.535H526.92C527.59 622.535 529.014 622.703 530.521 622.87L531.107 622.954C531.525 623.037 532.028 623.037 532.447 623.121C533.033 623.121 533.702 623.205 534.289 623.456C531.777 623.372 529.181 623.121 526.669 622.703C526.669 622.703 526.669 622.703 527.004 622.703L526.837 622.535ZM583.523 621.614C584.862 621.53 586.286 621.614 587.625 621.782C588.546 621.949 588.546 622.033 588.546 622.033C588.546 622.033 588.546 622.033 588.463 622.117C587.793 622.368 583.104 622.2 582.936 621.782C583.104 621.698 583.188 621.614 583.523 621.614ZM544.253 620.358C546.011 620.358 547.686 620.526 549.444 620.944C550.198 621.112 550.7 621.279 550.784 621.363C550.951 621.865 544.336 621.112 543.834 620.526C543.667 620.442 543.834 620.358 544.253 620.358ZM616.345 620.275C617.434 620.107 618.438 620.107 619.527 620.191C620.113 620.275 620.113 620.275 620.113 620.358C619.946 620.693 616.094 620.777 615.926 620.442C615.926 620.358 616.01 620.358 616.345 620.275ZM497.614 614.917C499.708 615.084 501.801 615.503 503.894 616.089C504.815 616.424 505.401 616.675 505.485 616.759C505.569 617.512 497.698 615.921 497.112 615.084C496.945 615 497.196 614.917 497.614 614.917ZM471.741 614.247C473.918 614.582 476.095 615 478.189 615.503C479.026 615.67 479.78 615.921 480.533 616.172C480.366 616.34 478.356 616.005 476.263 615.503L475.761 615.419C474.337 615.168 472.914 614.749 471.574 614.247H471.741ZM558.319 612.656C559.994 612.489 561.752 612.824 563.343 613.41C564.432 613.912 564.181 614.163 564.013 614.247L563.929 614.331C562.841 614.917 559.241 614.331 557.985 613.577L557.817 613.493C557.65 613.326 557.063 612.824 558.319 612.656ZM594.91 613.075C596.25 612.907 597.673 613.075 598.929 613.577C599.348 613.745 599.431 613.912 599.431 613.996C599.515 614.833 595.58 614.749 594.324 613.912C594.24 613.745 593.654 613.326 594.91 613.075ZM627.23 611.484C628.319 611.233 629.407 611.317 630.412 611.735C630.496 611.819 630.579 611.903 630.663 611.987C630.831 612.74 627.816 612.991 626.728 612.321C626.393 612.07 626.142 611.735 627.23 611.484ZM516.789 609.14C518.882 609.14 520.892 609.559 522.734 610.396C523.404 610.731 524.157 611.149 523.655 611.568C522.483 612.154 517.542 611.149 516.203 610.061C515.951 609.81 515.533 609.307 516.789 609.14ZM436.993 607.382H437.16C437.998 607.549 440.091 608.135 443.775 609.14L445.45 609.559L445.701 609.642C446.287 609.81 446.371 609.81 446.455 609.894C446.036 609.81 444.026 609.307 442.017 608.721L441.514 608.554C439.337 608.052 437.244 607.466 436.993 607.382ZM443.105 602.945C444.947 603.029 448.548 604.201 450.39 604.954C451.646 605.456 452.4 605.875 452.316 606.126C452.148 606.88 444.11 604.452 442.854 603.28C442.436 602.945 442.938 602.945 443.105 602.945ZM469.648 601.187C472.076 601.354 474.505 602.024 476.682 603.196C477.519 603.615 477.938 604.033 477.938 604.284C477.938 605.456 470.904 603.698 469.062 602.108C468.811 601.857 468.308 601.271 469.648 601.187ZM407.855 596.415C407.938 596.415 408.022 596.415 408.106 596.415C410.534 597.001 412.878 597.838 415.223 598.759C416.144 599.094 417.065 599.512 417.819 600.015C417.819 600.015 417.819 600.015 417.819 600.098C416.897 600.266 408.357 597.168 407.855 596.415ZM571.633 596.75C573.391 596.415 575.149 596.833 576.657 597.838C576.824 598.005 576.992 598.173 577.075 598.424C577.578 599.847 573.475 600.182 571.298 598.843C570.126 598.089 569.874 597.168 571.633 596.75ZM532.028 595.326C534.121 595.159 536.214 595.661 537.889 596.75C538.475 597.168 538.643 597.503 538.643 597.754C538.81 599.261 534.289 599.01 531.777 597.419C530.521 596.666 530.27 595.661 532.028 595.326ZM608.307 595.661C610.316 595.243 611.991 595.912 612.494 596.498C612.577 596.582 612.661 596.75 612.661 596.917C612.912 598.173 609.814 598.759 607.888 597.754C606.884 597.168 606.465 596.164 608.307 595.661ZM642.386 592.731C644.144 592.313 645.484 592.815 645.735 593.401C645.735 593.401 645.735 593.485 645.818 593.485C646.153 594.657 643.223 595.41 641.716 594.573C640.878 594.238 640.711 593.317 642.386 592.731ZM488.906 590.554C491.335 590.471 493.679 591.14 495.689 592.564C496.107 592.815 496.442 593.233 496.693 593.736C497.196 595.494 491.586 594.824 488.739 592.731C487.567 591.894 487.064 590.806 488.906 590.554ZM416.563 586.452H416.646C418.488 586.536 422.173 587.875 424.433 589.299C425.522 589.968 426.108 590.554 426.024 590.889C425.689 592.145 417.651 589.299 415.893 587.289C415.39 586.703 415.642 586.369 416.646 586.369L416.563 586.452ZM381.982 581.345H382.065C383.991 581.596 388.01 583.355 390.104 584.527C391.443 585.28 392.197 585.866 392.197 586.117C392.029 587.122 383.07 583.271 381.73 581.68C381.479 581.345 381.647 581.262 381.898 581.262L381.982 581.345ZM441.933 581.01C444.361 580.927 447.962 582.434 449.72 583.773C450.39 584.359 450.809 584.862 450.892 585.28C450.976 587.038 444.445 585.531 441.598 583.02C440.51 582.182 440.091 581.094 441.933 581.01ZM363.896 580.592H363.979C365.319 581.094 369.673 583.02 371.264 583.773C372.353 584.276 372.939 584.61 373.357 584.778L373.525 584.862C373.943 585.029 373.943 585.113 373.943 585.113C373.525 585.029 371.431 584.108 369.338 583.187L368.836 582.936C367.077 582.266 365.487 581.429 363.896 580.592ZM544.169 571.215C546.932 570.713 549.528 571.969 550.365 573.141C550.532 573.308 550.616 573.56 550.7 573.811C551.119 575.904 547.016 576.49 544.085 574.732C542.411 573.811 541.49 571.969 544.169 571.215ZM502.555 569.625C505.15 569.29 507.746 570.211 509.588 571.969C509.839 572.22 510.007 572.555 510.09 572.973C510.509 575.15 505.82 575.401 502.638 573.308C500.796 572.136 499.791 570.211 502.555 569.625ZM584.109 570.127C586.704 569.541 588.965 570.713 589.467 571.801C589.467 571.885 589.551 571.969 589.551 571.969C590.137 573.894 586.704 574.983 584.025 573.643C582.183 572.806 581.513 570.964 584.109 570.127ZM338.525 565.188H338.609C340.367 565.606 344.638 567.95 346.48 569.122C348.489 570.294 348.824 570.713 348.824 570.88C347.903 571.215 338.274 565.941 338.274 565.188C338.441 565.188 338.525 565.188 338.525 565.188ZM390.941 564.35C393.202 564.434 397.137 566.192 399.398 568.118C400.319 568.955 400.821 569.625 400.737 570.127C400.402 571.885 393.034 569.29 390.355 566.443C389.099 565.104 389.35 564.35 390.941 564.35ZM622.541 566.862C624.969 566.192 626.644 567.28 626.979 568.118C627.733 569.876 624.467 571.299 622.039 570.211C620.448 569.541 620.029 567.783 622.541 566.862ZM458.847 564.35C461.777 564.183 464.624 565.271 466.718 567.364C467.136 567.699 467.387 568.201 467.471 568.704C467.806 571.048 462.447 570.629 459.014 568.118C456.921 566.611 456.335 564.769 458.847 564.35ZM358.537 561.839C360.798 562.006 364.649 564.016 366.994 565.69C368.836 567.029 369.003 567.699 369.003 567.867C368.92 569.374 361.216 566.025 358.537 563.262C357.783 562.676 357.281 561.839 358.537 561.839ZM659.383 561.923C661.56 561.253 662.9 562.174 663.067 563.095C663.318 564.685 660.471 565.941 658.629 565.104C657.29 564.518 657.039 562.843 659.383 561.923ZM412.795 553.969C415.725 553.802 419.409 555.727 421.252 557.569C421.838 558.071 422.173 558.657 422.34 559.411C422.675 561.839 416.814 560.918 413.046 557.988C410.869 556.23 410.199 554.304 412.795 553.969ZM317.425 546.518C319.769 546.937 324.123 549.783 325.965 551.206C327.556 552.462 328.059 553.216 327.975 553.467C327.724 554.555 320.104 550.453 317.592 547.774C316.42 546.518 317.174 546.518 317.425 546.518ZM345.056 538.816H345.224C348.489 539.235 352.341 541.83 354.015 543.504C355.02 544.509 355.606 545.43 355.523 546.016C355.188 548.193 348.07 545.262 344.805 541.662C344.386 541.16 342.209 538.649 345.224 538.732L345.056 538.816ZM289.459 537.393C289.542 537.393 289.626 537.393 289.626 537.477C291.05 538.23 292.473 539.067 293.729 539.988L294.231 540.323C295.236 540.993 296.157 541.662 296.911 542.249C297.748 542.835 298.502 543.421 299.255 544.09L299.339 544.174C299.339 544.258 299.423 544.258 299.423 544.341V544.425C298.25 543.923 297.246 543.337 296.241 542.583C292.975 540.323 289.877 538.063 289.459 537.393ZM509.672 536.891C513.188 536.221 516.203 538.146 517.04 539.821C517.124 539.904 517.124 540.072 517.207 540.156C518.212 542.918 514.109 544.341 510.425 542.5C507.578 541.076 506.155 538.063 509.672 536.891ZM467.136 535.635C470.234 535.216 473.332 536.472 475.258 538.983C475.426 539.318 475.593 539.653 475.677 539.988C476.263 542.751 471.909 543.504 468.057 541.411C465.21 539.821 463.536 536.639 467.136 535.635ZM551.872 535.3C554.719 534.714 557.315 536.053 558.068 537.644C558.152 537.811 558.236 538.063 558.236 538.23C558.738 540.909 554.384 542.165 551.202 540.239C548.858 538.816 548.607 536.137 551.872 535.3ZM373.776 530.277C376.958 530.193 380.977 532.537 382.819 534.797C383.405 535.384 383.824 536.221 383.991 537.058C384.242 539.904 378.465 538.9 374.362 535.467C371.683 533.123 370.845 530.528 373.776 530.277ZM423.931 530.695C427.615 530.277 431.383 532.705 432.723 534.63C433.058 535.049 433.225 535.551 433.393 536.137C433.811 538.983 429.039 539.318 425.019 536.639C422.089 534.798 420.247 531.533 423.931 530.695ZM593.152 531.449C595.831 530.779 598.176 532.119 598.594 533.625C598.678 533.877 598.678 534.211 598.678 534.463C598.259 536.807 594.826 537.477 592.566 536.388C590.137 535.132 589.97 532.37 593.152 531.449ZM300.344 524.584C303.023 524.919 307.377 527.933 309.47 530.026C310.559 531.114 311.229 532.119 311.145 532.621C311.061 534.211 305.954 531.867 302.102 528.519C302.018 528.351 297.916 524.751 300.344 524.584ZM633.845 525.672C636.189 525.002 638.199 526.091 638.534 527.43C639.036 529.691 635.52 531.449 633.008 530.277C630.831 529.272 630.914 526.677 633.845 525.672ZM271.122 519.142C270.619 518.389 271.122 518.472 271.373 518.472C273.047 519.058 276.732 521.654 279.16 523.83C280.751 525.254 281.588 526.258 281.504 526.593C280.918 527.514 272.796 521.57 271.122 519.142ZM673.868 518.305C676.129 517.635 677.72 518.64 677.804 519.979C677.804 520.147 677.804 520.314 677.72 520.482C677.134 522.491 674.371 523.412 672.696 522.658C670.854 521.737 671.105 519.31 673.868 518.305ZM323.872 508.342H324.04C326.887 508.51 331.324 511.189 333.585 514.203C334.171 514.872 334.59 515.793 334.674 516.714C334.757 519.896 328.142 517.803 324.04 513.449C321.36 510.603 321.444 508.342 324.123 508.426L323.872 508.342ZM382.233 499.97C386.419 499.552 390.522 502.649 391.862 505.077C392.113 505.496 392.281 505.998 392.364 506.417C393.034 509.766 388.596 510.519 384.159 507.756C380.474 505.412 378.13 500.975 382.233 499.97ZM287.449 499.217C290.715 499.384 295.152 502.984 297.078 505.496C298.25 507.087 298.418 508.007 298.418 508.259C298.418 510.268 294.901 509.347 291.05 506.417C287.617 503.821 284.435 499.635 287.449 499.217ZM239.304 498.129C239.387 498.129 239.471 498.212 239.471 498.212C240.225 498.715 242.151 500.389 244.076 502.063L244.579 502.482C245.165 502.984 245.667 503.487 246.17 503.905C248.514 506.082 248.598 506.249 248.598 506.333C246.923 505.161 245.249 503.821 243.741 502.398L243.323 501.98C241.816 500.891 240.476 499.552 239.304 498.129ZM423.094 495.115C426.862 494.612 430.797 497.208 431.885 499.803C432.053 500.138 432.137 500.389 432.22 500.724C432.974 504.24 428.201 505.328 423.847 502.649C419.912 500.222 418.823 495.952 423.094 495.115ZM465.127 495.198C468.643 494.612 472.16 496.705 473.165 499.133C473.249 499.384 473.416 499.719 473.416 499.97C474.086 503.487 469.062 504.826 465.043 502.231C461.694 500.054 461.108 496.203 465.127 495.198ZM340.032 491.18C344.051 491.012 348.405 494.445 349.913 496.956C350.499 497.794 350.75 498.715 350.75 499.719C350.08 502.984 345.14 501.394 342.042 499.133C338.358 496.622 335.846 491.933 340.032 491.18ZM507.662 492.687C511.011 492.017 514.109 493.859 514.947 495.952C515.03 496.119 515.03 496.203 515.114 496.37C516.203 499.887 511.263 501.812 507.327 499.384C504.062 497.459 503.727 493.775 507.662 492.687ZM249.603 491.766C249.184 491.18 247.844 489.171 249.519 489.422C251.612 489.924 255.464 493.022 257.641 495.617C258.897 497.04 259.567 498.212 259.567 498.798C259.483 500.808 252.617 495.952 249.603 491.766ZM550.532 487.999C553.798 487.245 556.645 489.003 557.231 491.096C558.068 494.194 553.882 496.287 550.281 494.612C547.016 493.022 546.597 489.254 550.532 487.999ZM225.404 479.543C225.237 479.124 225.404 479.041 225.823 479.208C227.414 479.962 230.931 483.227 233.108 485.654C234.615 487.412 235.117 488.333 235.033 488.501C234.866 489.087 232.438 487.329 229.507 484.399C226.158 481.05 225.488 479.794 225.404 479.543ZM593.654 481.385C596.919 480.548 599.18 482.389 599.515 484.064C600.185 486.994 596.333 489.087 593.068 487.664C590.221 486.324 589.97 482.641 593.654 481.385ZM278.657 470.585C282.509 470.669 287.03 474.771 288.873 477.701C289.291 478.371 289.626 479.124 289.794 479.878C290.547 483.143 286.947 483.227 282.676 480.129C278.322 477.031 274.638 471.255 278.657 470.585ZM636.776 473.097C639.455 472.343 641.632 473.599 641.883 475.357C642.302 478.036 638.785 480.129 635.938 478.957C633.343 477.785 633.343 474.436 636.776 473.097ZM246.923 472.259C244.83 469.497 243.993 466.901 246.421 467.152C247.258 467.32 249.603 467.99 253.119 471.59C253.705 472.176 254.292 472.845 254.794 473.515L255.045 473.85C255.882 474.855 256.469 476.11 256.636 477.366C256.385 480.129 250.691 477.031 246.923 472.259ZM679.646 463.301C682.158 462.464 683.832 463.636 684 465.227C684.251 467.655 681.069 469.748 678.557 468.659C676.38 467.739 676.548 464.557 679.646 463.301ZM330.403 453.841C334.339 454.009 337.772 456.855 339.362 459.618C339.949 460.539 340.283 461.543 340.367 462.548C340.535 466.566 334.925 466.65 330.571 462.715C326.886 459.534 325.463 454.26 330.403 453.841ZM295.32 453.171C299.171 453.506 302.772 456.771 304.614 459.618C305.284 460.706 305.703 461.878 305.786 463.134C305.786 466.901 300.595 466.399 296.157 462.297C292.389 458.781 290.547 453.339 295.32 453.171ZM367.999 452.669C371.599 452.753 374.864 454.762 376.623 457.86C377.041 458.613 377.293 459.367 377.46 460.204C377.879 464.306 372.52 465.143 368.166 461.711C364.231 458.781 362.723 453.255 367.999 452.669ZM407.771 449.739C411.12 449.572 414.302 451.413 415.893 454.427C416.228 455.013 416.395 455.599 416.563 456.269C417.232 460.539 411.706 461.878 407.352 458.613C403.668 455.85 402.579 450.576 407.771 449.739ZM193.084 449.488C193.168 449.488 193.252 449.571 193.335 449.655C194.842 451.162 196.35 452.753 197.689 454.427L198.108 454.93C198.359 455.264 198.61 455.599 198.862 455.85C200.452 457.86 201.29 458.948 201.206 459.115C200.201 458.613 193 450.074 193.084 449.488ZM449.636 445.051C452.734 444.799 455.581 446.474 457.005 449.237C457.256 449.655 457.423 450.158 457.507 450.576C458.344 454.678 453.321 456.688 449.05 453.925C445.282 451.497 444.026 445.972 449.385 444.967L449.636 445.051ZM205.979 440.111C208.323 440.697 211.924 444.799 213.682 447.395C214.436 448.399 214.938 449.488 215.105 450.744C215.105 452.585 211.924 450.66 208.742 446.976C206.146 443.962 203.885 439.944 205.979 440.111ZM492.423 438.855C495.354 438.353 498.2 439.944 499.456 442.623C499.54 442.874 499.708 443.209 499.791 443.544C500.964 447.646 495.856 450.074 491.669 447.479C488.153 445.302 487.232 440.028 492.423 438.855ZM254.878 431.153C258.394 431.321 262.497 435.172 264.256 438.688C264.758 439.609 265.009 440.53 265.177 441.534C265.512 445.218 261.409 445.134 257.138 441.367C252.617 437.349 250.691 431.321 254.878 431.153ZM187.809 435.004C187.139 433.916 186.218 432.074 187.139 432.325C188.814 433.079 191.996 436.93 193.67 439.441C194.34 440.279 194.842 441.283 195.261 442.288C195.596 443.376 195.01 443.125 194.759 442.958L194.591 442.874C192.498 441.451 189.316 437.432 187.809 435.004ZM536.884 430.986C539.48 430.567 541.992 431.907 543.08 434.335C543.164 434.669 543.332 435.004 543.415 435.256C544.336 439.107 539.48 441.534 535.628 439.19C532.363 437.181 531.609 432.242 536.633 430.986H536.884ZM219.292 425.209H219.459C222.39 425.628 226.409 429.814 228.084 433.246C228.586 434.167 228.921 435.256 228.921 436.344C228.837 439.023 225.153 437.851 221.636 434C218.12 430.149 216.361 425.209 219.459 425.293L219.292 425.209ZM581.513 421.693C584.611 421.107 586.704 422.781 587.29 424.623C587.542 425.544 587.542 425.544 587.625 425.628C588.295 429.144 583.69 431.656 580.341 429.563C577.661 427.888 576.657 423.033 581.513 421.693ZM295.739 412.903C300.009 412.735 303.86 416.837 305.116 419.935C305.368 420.521 305.535 421.107 305.619 421.777C306.121 425.963 301.935 427.219 297.664 424.037C292.64 420.437 290.798 413.656 295.739 412.903ZM626.895 410.977C629.993 410.307 631.668 412.149 632.003 413.572L632.087 413.823V413.991C633.175 417.256 629.156 420.186 625.807 418.595C623.211 417.34 623.63 414.242 623.63 414.242C623.714 413.74 624.132 411.814 626.895 410.977ZM329.65 400.763C333.585 400.428 337.353 403.861 338.525 407.126C338.693 407.545 338.776 407.879 338.86 408.298C339.697 412.903 335.092 414.744 330.571 411.563C325.798 408.298 324.542 401.6 329.65 400.763ZM376.79 400.763C380.809 400.261 384.494 403.61 385.331 406.875C385.331 407.042 385.415 407.293 385.415 407.461C386.084 412.065 381.144 413.991 376.707 410.893C372.436 407.879 371.766 401.6 376.79 400.763ZM221.888 393.563C224.986 393.815 228.67 397.833 230.177 401.349C230.679 402.438 230.931 403.61 230.931 404.782C230.679 408.047 227.079 407.545 223.562 403.861C219.543 399.675 218.036 393.563 221.888 393.563ZM156.41 395.824C156.494 395.824 156.494 395.824 156.577 395.908C157.666 396.745 160.178 400.512 161.852 403.359C163.527 406.289 163.36 406.624 163.276 406.707C162.606 406.624 155.74 396.912 156.41 395.824ZM671.775 398.921C674.622 397.917 676.297 399.591 676.632 401.014C676.883 402.103 677.134 403.61 675.794 404.949C674.622 406.121 672.864 406.54 671.357 406.038C669.096 405.2 669.18 402.605 669.18 402.103C669.347 400.596 670.352 399.424 671.775 398.921ZM183.957 389.461C186.721 389.964 190.07 394.484 191.409 397.582C191.828 398.503 192.079 399.424 192.163 400.428C192.247 402.605 190.656 402.689 188.395 400.68C184.292 397.08 180.859 389.629 183.957 389.461ZM252.533 388.457C256.217 388.457 259.985 392.391 261.325 395.991C262.832 400.01 261.241 402.605 257.808 401.852C256.72 401.517 255.715 401.014 254.878 400.345C249.938 396.661 247.677 389.126 252.533 388.457ZM418.07 390.884C421.838 390.298 425.271 393.229 426.024 396.159C426.024 396.326 426.108 396.494 426.108 396.661C426.862 401.349 421.67 403.526 417.316 400.428C413.465 397.666 413.13 391.805 418.07 390.884ZM163.276 389.964C161.35 386.698 160.261 383.35 161.769 383.768C163.527 384.522 166.374 388.54 167.881 391.805C168.635 393.563 169.053 394.819 168.802 395.405C168.3 396.661 165.62 393.982 163.276 389.964ZM461.694 380.587C465.127 380.001 468.392 382.178 469.146 385.61C469.983 389.964 465.043 392.559 460.94 389.964C456.754 387.284 457.172 381.592 461.694 380.587ZM507.076 369.536C509.504 369.034 512.016 370.122 513.356 372.299C513.607 372.717 513.774 373.22 513.942 373.722C514.947 378.075 510.174 380.922 506.071 378.327C502.052 375.815 502.722 370.541 507.076 369.536ZM277.234 359.322C281.588 358.987 285.105 363.425 285.942 366.857C287.114 371.545 283.681 374.224 279.578 371.88C274.387 368.783 272.043 360.662 277.234 359.322ZM333.585 354.634C335.595 354.467 337.604 355.136 339.111 356.56C340.451 357.732 341.456 359.322 341.958 361.08C343.214 366.104 339.028 368.95 334.506 366.187C329.566 363.257 328.226 355.806 333.585 354.634ZM553.547 357.313C556.226 356.56 558.989 358.234 559.743 360.913C559.743 360.997 559.743 360.997 559.827 361.08C560.58 365.015 555.975 367.778 552.375 365.434C550.281 364.262 549.444 361.583 550.7 359.406C551.202 358.401 552.291 357.648 553.547 357.313ZM191.828 352.708C194.591 353.043 197.773 357.146 198.945 360.662C199.28 361.583 199.448 362.587 199.448 363.592C199.364 367.024 196.433 367.108 193.419 363.676C189.651 359.573 188.144 352.625 191.828 352.708ZM130.872 353.881C131.374 354.55 132.128 356.057 132.965 357.648L133.216 358.15C133.719 359.155 134.221 360.16 134.64 360.997C136.063 363.843 136.231 364.429 136.231 364.597C136.063 364.345 134.807 362.085 133.551 359.657L133.3 359.155C131.96 356.643 130.788 354.215 130.872 353.881ZM226.911 341.406C230.679 341.992 233.443 346.43 234.196 349.36C234.782 351.536 234.782 355.22 231.349 355.136C229.758 354.885 228.335 354.132 227.246 352.876C223.144 348.774 222.306 341.406 226.911 341.406ZM134.891 347.267C133.97 344.923 133.384 342.495 134.305 342.913C135.645 343.751 137.822 347.769 139.077 350.95C139.329 351.62 139.496 352.122 139.58 352.541C139.831 353.211 139.915 353.881 139.831 354.55C139.412 355.806 136.733 351.788 134.891 347.267ZM153.814 340.486C156.159 341.072 158.754 345.676 159.675 348.69C160.01 349.695 160.261 350.783 160.261 351.871C160.01 354.969 157.498 352.457 156.996 351.955C153.563 348.188 150.967 340.402 153.814 340.486ZM600.687 344.169C603.032 343.499 605.46 344.755 606.214 347.099C606.297 347.267 606.297 347.434 606.297 347.602C606.8 351.118 602.948 353.629 599.683 351.955C597.673 350.867 596.836 348.355 597.924 346.346C598.51 345.258 599.515 344.504 600.687 344.169ZM373.608 338.058C377.46 337.472 380.809 340.653 381.479 344.002C382.568 349.025 377.963 351.871 373.525 349.025C369.087 346.178 368.417 339.23 373.608 338.058ZM647.996 329.769C649.921 329.1 652.098 330.104 652.768 332.03C652.852 332.281 652.936 332.532 652.936 332.783C653.019 333.286 652.936 333.788 652.768 334.29C651.847 337.555 647.074 338.644 645.232 335.211C644.395 333.118 645.4 330.774 647.409 329.937C647.661 329.937 647.828 329.853 647.996 329.769ZM417.149 322.57C419.326 322.235 421.503 322.988 422.926 324.663C423.763 325.583 424.266 326.672 424.517 327.844C425.522 332.365 421.335 335.462 417.149 333.202C412.711 330.858 411.957 323.825 417.149 322.57ZM284.1 318.049C288.37 317.546 291.468 321.984 292.054 325.416C292.892 330.104 289.375 332.867 285.523 330.607C280.583 327.676 278.909 319.556 284.1 318.049ZM165.453 308.84C167.965 309.258 170.477 313.361 171.314 316.877C171.565 317.798 171.649 318.802 171.649 319.807C171.481 322.905 169.221 323.239 166.793 320.393C163.36 316.458 161.936 308.589 165.453 308.84ZM462.95 307.333C466.466 306.579 469.481 309.426 469.899 312.356C470.569 316.626 466.466 319.388 462.615 317.295C458.596 315.035 458.093 308.672 462.95 307.333ZM235.703 296.868C239.136 296.784 241.983 300.635 242.653 304.235C242.653 304.403 242.737 304.737 242.737 304.905C243.323 309.677 239.974 311.937 236.373 309.175C232.103 305.826 230.847 297.621 235.703 296.868ZM112.116 297.956H112.2C113.205 298.793 114.879 303.063 115.716 305.826C116.135 307.082 116.638 309.342 116.219 309.677C115.047 309.342 111.195 298.626 112.116 297.956ZM129.532 296.7C131.207 297.286 133.133 301.305 133.97 304.57C134.305 305.742 134.472 306.914 134.389 308.17C134.221 309.761 133.384 309.844 132.212 308.505C129.448 305.323 127.02 296.449 129.532 296.7ZM194.424 293.687H194.591C197.187 293.938 200.118 297.789 200.704 301.807C200.787 302.393 200.871 303.063 200.787 303.649C200.62 307.668 197.606 308.421 194.675 305.324C190.656 300.886 190.572 293.352 194.508 293.687H194.424ZM321.109 292.682C325.379 292.096 328.059 296.114 328.561 299.045C329.398 303.9 325.547 306.83 321.528 304.403C317.006 301.724 316.001 294.105 321.109 292.682ZM510.341 291.845C513.188 291.175 516.035 293.017 516.705 295.863C516.705 295.947 516.705 295.947 516.705 296.031C517.207 298.542 515.617 301.054 513.105 301.556C511.932 301.807 510.76 301.64 509.755 301.054C506.071 299.045 505.736 293.184 510.341 291.845ZM558.571 275.938C561.083 275.268 563.678 276.775 564.348 279.371C564.432 279.538 564.432 279.705 564.432 279.873C564.85 282.301 563.26 284.561 560.915 284.98C559.91 285.147 558.822 284.98 557.985 284.477C554.635 282.552 554.384 277.278 558.571 275.938ZM363.31 270.748C367.329 270.078 370.008 273.678 370.343 276.524C371.013 280.961 367.077 283.891 363.393 281.798C359.123 279.454 358.286 272.171 363.31 270.748ZM143.348 263.129H143.515C145.609 263.631 147.534 267.566 148.12 270.831C148.204 271.585 148.288 272.338 148.288 273.092C148.12 276.189 146.362 276.859 144.436 274.599C141.506 271.082 140.333 262.794 143.599 263.129H143.348ZM267.27 260.869C270.703 260.618 273.299 264.134 273.801 267.566C274.471 272.422 270.787 275.185 267.186 272.589C262.832 269.575 262.246 261.706 267.27 260.869ZM607.218 259.194C609.395 258.525 611.656 259.78 612.326 261.957C612.41 262.208 612.494 262.459 612.494 262.71C612.828 264.971 611.238 266.98 608.977 267.315C608.223 267.399 607.47 267.315 606.8 266.98C603.618 265.557 603.367 260.534 607.218 259.194ZM110.693 250.571C112.2 251.325 113.539 255.511 113.958 258.273C114.209 259.445 114.209 260.701 114.042 261.873C113.791 262.878 113.121 262.794 112.367 261.538C110.274 258.441 108.851 250.153 110.693 250.571ZM408.859 250.655C412.627 249.901 415.139 253.167 415.474 255.762C416.144 260.115 412.125 262.962 408.441 260.869C404.505 258.525 404.087 252.078 408.859 250.655ZM95.8722 250.069C96.6258 250.906 97.6306 255.008 98.1329 257.436C98.3841 258.776 98.8028 261.036 98.5516 261.204C97.7143 260.785 95.2024 250.571 95.8722 250.069ZM174.245 245.799C176.505 246.134 178.682 249.483 179.101 253.25C179.185 253.836 179.185 254.422 179.101 255.008C178.766 258.859 176.003 259.78 173.658 256.85C170.393 252.748 170.728 245.464 174.245 245.799ZM216.613 245.046C219.711 244.962 222.055 248.646 222.39 252.162C222.892 256.766 219.962 259.362 216.78 257.101C212.845 254.171 212.007 245.799 216.613 245.046ZM306.372 230.897C310.308 230.311 312.652 234.162 312.82 237.176C313.071 241.278 309.889 243.874 306.624 242.283C302.27 240.106 301.348 232.572 306.372 230.897ZM456.251 231.4C457.926 230.981 459.6 231.483 460.856 232.655C461.694 233.493 462.28 234.581 462.447 235.753C463.117 239.688 459.684 242.534 456.167 240.944C452.148 239.185 451.562 232.906 456.251 231.4ZM126.602 227.465C124.341 224.116 124.006 216.414 126.685 216.832C128.444 217.335 129.783 221.018 129.951 224.116C130.035 224.953 129.951 225.79 129.867 226.628C129.448 229.139 128.025 229.474 126.602 227.465ZM504.732 212.563C507.243 211.977 509.755 213.484 510.425 215.995C510.509 216.163 510.509 216.414 510.509 216.581C510.928 218.925 509.337 221.102 506.992 221.521C506.155 221.688 505.318 221.521 504.48 221.186C500.964 219.679 500.461 213.986 504.732 212.563ZM251.11 205.028C254.208 204.861 256.301 208.126 256.469 211.307C256.72 215.66 253.705 218.256 250.691 216.33C246.756 213.902 246.337 205.865 251.11 205.028ZM350.331 204.777C354.099 204.107 356.36 207.707 356.444 210.386C356.611 214.321 353.178 216.832 349.996 215.074C346.061 212.981 345.642 206.284 350.331 204.777ZM98.4679 213.902C97.0444 211.223 96.2071 203.019 97.798 203.521C98.8865 204.275 99.6401 208.293 99.8076 210.888C99.8913 211.977 99.8913 213.065 99.6401 214.07C99.3052 214.907 98.8865 214.823 98.4679 213.902ZM85.657 201.261C86.2431 203.605 86.6618 205.949 86.8292 208.293C86.9967 209.8 87.0804 210.553 87.0804 210.972V211.14C87.0804 211.307 87.0804 211.391 86.9967 211.558C86.7455 211.14 85.2383 202.014 85.657 201.261ZM157.08 208.544C154.233 204.944 154.986 197.577 158.168 197.912C160.178 198.247 161.936 201.679 161.852 205.279C161.852 205.614 161.852 206.033 161.769 206.368C161.266 209.967 159.006 211.056 157.08 208.544ZM200.871 194.061C203.802 194.479 205.141 198.331 205.058 200.926C205.058 205.363 201.876 207.54 199.364 204.861C196.35 201.596 196.768 194.061 200.871 194.061ZM553.714 193.559C555.891 192.889 558.152 194.145 558.822 196.321C558.906 196.489 558.906 196.656 558.906 196.824C559.408 198.917 558.068 201.093 555.975 201.596C555.138 201.763 554.3 201.679 553.463 201.344C550.281 200.005 549.863 194.982 553.714 193.559ZM396.886 181.001C400.486 180.247 402.496 183.345 402.663 185.94C402.831 189.54 399.649 191.968 396.635 190.545C392.867 188.787 392.448 182.424 396.886 181.001ZM292.389 171.206C293.059 171.122 293.813 171.206 294.399 171.54C296.325 172.712 297.497 174.805 297.413 176.982C297.413 181.001 294.315 183.345 291.468 181.587C287.784 179.41 287.784 172.126 292.389 171.206ZM114.628 180.247C112.786 177.401 112.87 169.531 115.214 170.033C116.638 170.619 117.475 173.968 117.391 176.815C117.391 177.484 117.307 178.07 117.224 178.74C116.721 181.252 115.633 181.838 114.628 180.247ZM444.78 158.564C448.046 157.81 449.971 160.489 450.139 162.75C450.39 166.182 447.208 168.61 444.361 167.187C441.096 165.513 440.761 159.987 444.78 158.564ZM90.1785 165.596C89.2574 163.085 89.2574 155.634 90.4297 156.22C91.0995 156.89 91.5182 160.071 91.4344 162.582C91.5182 163.755 91.3507 164.927 90.9321 166.015C90.5971 166.685 90.2622 165.931 90.1785 165.596ZM237.545 150.946C240.308 150.778 241.899 153.876 241.816 156.806C241.732 160.071 239.722 162.331 237.462 161.829C237.043 161.745 236.708 161.494 236.373 161.327C233.108 158.899 233.359 151.699 237.545 150.946ZM81.2192 152.118C81.303 152.62 81.3867 154.127 81.3867 155.634V156.387C81.3867 157.057 81.4704 157.727 81.4704 158.313C81.4704 159.234 81.4704 159.903 81.4704 160.406V160.824C81.4704 161.076 81.4704 161.243 81.4704 161.494C81.4704 160.992 81.1355 152.62 81.2192 152.118ZM145.022 160.322C142.594 157.141 143.683 149.941 146.53 150.276C148.372 150.694 149.376 154.127 149.125 156.973C149.042 158.229 148.623 160.406 147.032 161.159C146.278 161.41 145.441 161.076 145.022 160.322ZM188.395 144.081H188.563C190.572 144.248 192.079 147.346 191.661 150.694C191.242 154.629 188.479 156.387 186.469 154.043C183.79 150.862 185.213 143.913 188.479 144.164L188.395 144.081ZM336.934 141.653C340.283 141.067 342.042 144.164 341.958 146.76C341.958 150.192 339.111 152.536 336.432 151.28C332.999 149.606 332.664 143.16 336.934 141.653ZM493.26 136.964C495.437 136.378 497.614 137.718 498.117 139.895C498.201 140.062 498.2 140.313 498.2 140.481C498.619 143.662 495.605 146.09 492.842 144.667C489.911 143.16 489.66 138.304 493.26 136.964ZM107.846 133.03C106.506 131.02 107.008 122.983 109.018 123.486C110.106 123.988 110.525 127.086 110.19 129.681C110.107 130.099 110.023 130.686 109.939 131.02C109.52 133.281 108.599 134.118 107.846 133.03ZM280.081 114.109C282.676 113.858 284.267 116.621 284.1 119.467C283.932 122.314 281.839 124.825 279.327 123.904C279.076 123.821 278.825 123.653 278.657 123.486C275.727 121.476 276.229 114.946 280.081 114.109ZM383.656 114.863C384.577 114.611 385.582 114.779 386.419 115.281C387.759 116.202 388.513 117.709 388.513 119.3C388.513 122.565 385.666 124.825 383.154 123.486C379.972 121.811 379.888 116.286 383.656 114.863ZM87.4991 117.039C87.1642 114.444 87.7503 108.416 88.5039 108.919C88.9225 109.505 88.9225 112.435 88.6713 114.779C88.6713 115.867 88.4201 116.872 88.0015 117.876C87.6665 118.295 87.5828 117.542 87.4991 117.039ZM137.905 112.518C135.979 109.839 137.487 102.807 139.915 103.226C141.422 103.644 141.924 106.658 141.506 109.253C140.92 112.518 139.161 114.193 137.905 112.518ZM227.498 98.7048C230.01 98.6211 230.931 101.886 230.679 104.23C230.261 107.579 227.833 109.588 225.907 108.165C223.227 106.24 223.813 99.3746 227.498 98.7048ZM180.608 95.1049C182.283 95.2723 183.288 98.035 182.785 100.882C182.199 104.314 179.938 106.072 178.347 104.314C176.003 101.635 177.678 94.8537 180.608 95.1049ZM431.048 89.9143C433.811 89.2445 435.402 91.5887 435.486 93.5979C435.653 96.5281 433.141 98.6211 430.713 97.6165C427.783 96.3607 427.448 91.3375 431.048 89.9143ZM325.379 81.7935C325.965 81.7098 326.552 81.7935 327.054 82.0447C329.231 83.3005 329.231 85.7283 329.147 86.4818C328.896 89.7469 326.217 91.7561 324.04 90.3329C321.277 88.4911 321.695 82.6307 325.379 81.7935ZM106.339 85.7283C105.501 83.8865 106.59 76.6867 108.181 77.2727C109.018 77.775 109.018 80.6215 108.516 82.8819C108.348 83.9702 107.929 85.0586 107.343 85.9795C107.343 85.9795 106.757 86.6493 106.339 85.7283ZM91.5182 62.6219C91.6856 62.2033 91.7694 62.1196 91.8531 62.287C92.1043 62.873 91.8531 65.4683 91.4344 67.5613C91.3507 68.4822 91.0158 69.4031 90.5971 70.2403C90.011 70.6589 90.5971 65.0497 91.5182 62.6219ZM271.122 59.608C273.382 59.3568 274.471 62.0358 274.052 64.5474C273.55 67.5613 271.205 69.4031 269.447 68.1473C266.935 66.473 267.605 60.3615 271.122 59.608ZM135.979 65.3009C134.472 63.1242 136.398 56.4267 138.324 56.8453C139.496 57.1801 139.664 59.9429 139.077 62.2033C138.408 65.0497 136.9 66.5567 135.979 65.3009ZM371.18 52.743C373.776 52.157 375.032 54.6686 374.948 56.6778C374.864 59.4405 372.604 61.3661 370.51 60.3615C367.831 59.1894 367.831 54.0825 371.18 52.743ZM221.72 48.3059C223.897 48.2222 224.4 51.3198 223.813 53.4965C223.144 56.2592 221.134 57.8499 219.711 56.8453C217.534 55.2546 218.455 48.9757 221.72 48.3059ZM177.091 47.4687C177.175 47.4687 177.259 47.4687 177.426 47.4687C178.766 47.6362 179.352 49.9803 178.682 52.4919C178.012 55.1709 176.422 56.8453 175.166 56.0918C173.072 54.9197 173.993 48.0548 177.091 47.4687ZM110.19 39.2643C109.688 37.5899 111.362 31.3109 112.451 31.8133C113.037 32.3156 112.786 34.7434 112.116 36.7527C111.949 37.4224 111.697 38.0085 111.362 38.6782C111.028 39.5154 110.441 40.1852 110.19 39.2643ZM316.253 25.3669C318.346 25.1157 319.351 27.3761 319.016 29.5528C318.597 32.2318 316.42 33.9062 314.745 32.9016C312.485 31.5621 312.987 26.2041 316.253 25.3669ZM139.412 19.088C138.24 17.4136 140.501 11.2184 142.092 11.637C143.013 11.9718 142.845 14.316 142.176 16.3252C141.255 18.6694 139.999 20.0089 139.412 19.088ZM266.265 7.86959C268.107 7.70216 268.777 9.87885 268.275 11.9718C267.689 14.5671 265.679 16.3252 264.256 15.4043C262.33 14.1485 263.251 8.53935 266.265 7.86959ZM179.017 1.25579C180.106 1.50694 180.357 3.68364 179.436 6.02777C178.515 8.45563 176.924 9.71141 176.087 8.62307C174.663 6.78125 177.008 1.00463 179.017 1.25579ZM220.883 0C222.474 0.251157 222.474 2.76273 221.971 4.43711C221.134 7.0324 219.292 8.53935 218.203 7.36728C216.529 5.77662 218.12 0 220.883 0Z" fill="url(#paint0_linear)"/>
<path opacity="0.3" d="M326.217 632.916H326.803C327.054 632.916 327.305 632.916 327.556 632.916C327.138 632.916 323.621 633 323.537 632.916C323.621 632.916 323.621 632.916 323.705 632.916C323.956 632.916 324.458 632.916 325.212 632.916H326.217ZM293.562 631.661C294.315 631.661 295.99 631.828 297.246 631.995C298.418 632.163 298.418 632.163 298.418 632.163C296.743 632.079 295.069 631.912 293.394 631.661C293.394 631.661 293.394 631.661 293.562 631.661ZM330.906 631.074C331.827 630.991 332.748 631.075 333.585 631.158C334.171 631.242 334.171 631.326 334.255 631.326C333.836 631.493 330.738 631.409 330.654 631.074C330.654 631.074 330.654 631.074 330.906 631.074ZM305.033 630.237C306.205 630.237 307.293 630.321 308.466 630.572C308.968 630.656 309.303 630.823 309.303 630.907C309.387 631.242 305.033 630.74 304.698 630.405C304.614 630.321 304.781 630.237 305.033 630.237ZM352.508 630.154C353.178 630.07 353.932 630.07 354.602 630.07C354.936 630.07 355.02 630.154 355.02 630.154C354.099 630.405 353.178 630.405 352.257 630.237C352.257 630.237 352.257 630.237 352.508 630.154ZM274.303 626.637C275.727 626.721 277.066 626.972 278.406 627.391C278.992 627.558 279.411 627.726 279.411 627.893C279.495 628.395 274.303 627.307 273.885 626.805C273.885 626.721 273.968 626.637 274.303 626.637ZM257.138 626.219C257.222 626.219 257.222 626.219 257.306 626.219C258.729 626.47 260.153 626.721 261.492 627.056C261.995 627.14 262.581 627.307 263.083 627.558C262.832 627.726 257.306 626.47 257.138 626.219ZM314.327 625.13C315.415 625.047 316.588 625.214 317.592 625.633C318.262 625.968 318.095 626.135 318.095 626.219C317.509 626.637 314.829 626.219 313.992 625.716C313.824 625.633 313.406 625.298 314.327 625.13ZM338.441 625.382C339.362 625.214 340.284 625.382 341.121 625.716C341.372 625.8 341.456 625.968 341.456 626.051C341.539 626.554 338.944 626.554 338.107 625.968C337.939 625.884 337.52 625.633 338.441 625.382ZM359.709 624.377C360.379 624.209 361.133 624.293 361.802 624.544C361.886 624.544 361.886 624.628 361.97 624.712C362.137 625.214 360.044 625.382 359.374 624.879C359.123 624.796 358.956 624.544 359.709 624.377ZM286.947 622.87C288.286 622.87 289.626 623.121 290.882 623.707C291.301 623.958 291.803 624.21 291.468 624.461C290.715 624.879 287.449 624.21 286.528 623.456C286.444 623.289 286.109 622.954 286.947 622.87ZM234.447 621.614H234.531C235.117 621.782 236.457 622.117 238.885 622.786C240.476 623.205 240.56 623.289 240.643 623.289C240.057 623.205 234.699 621.782 234.447 621.614ZM238.383 618.768C240.057 619.019 241.648 619.438 243.155 620.107C243.993 620.442 244.495 620.777 244.411 620.861C244.328 621.363 239.053 619.772 238.131 619.019C237.964 618.768 238.299 618.768 238.383 618.768ZM255.882 617.596C257.473 617.679 259.064 618.182 260.488 618.935C260.99 619.186 261.325 619.521 261.325 619.689C261.325 620.442 256.636 619.27 255.464 618.265C255.296 618.014 254.961 617.596 255.882 617.596ZM215.189 614.414C215.273 614.414 215.273 614.414 215.357 614.414C216.948 614.833 218.538 615.335 220.046 616.005C220.632 616.172 221.218 616.507 221.804 616.842C221.134 616.926 215.524 614.917 215.189 614.414ZM323.035 614.666C324.207 614.498 325.379 614.749 326.3 615.419C326.468 615.503 326.552 615.67 326.552 615.838C326.887 616.758 324.207 617.01 322.7 616.089C322.114 615.586 321.946 614.917 323.035 614.666ZM296.911 613.745C298.25 613.577 299.674 613.912 300.762 614.666C301.097 614.917 301.265 615.168 301.265 615.335C301.349 616.34 298.418 616.172 296.743 615.168C295.99 614.582 295.739 613.996 296.911 613.745ZM347.233 613.912C348.154 613.661 349.243 613.828 349.996 614.498C350.08 614.582 350.08 614.666 350.164 614.749C350.331 615.586 348.238 615.921 346.982 615.335C346.228 615 345.977 614.331 347.233 613.912ZM369.673 612.07C370.845 611.735 371.683 612.154 371.85 612.573V612.656C372.018 613.41 370.176 613.912 369.171 613.41C368.668 612.991 368.501 612.405 369.673 612.07ZM268.61 610.563C270.201 610.48 271.791 610.982 273.131 611.903C273.382 612.07 273.633 612.321 273.801 612.656C274.136 613.828 270.452 613.326 268.526 611.987C267.689 611.484 267.354 610.731 268.61 610.563ZM220.883 607.801H220.967C222.809 608.052 224.567 608.721 226.074 609.642C226.828 610.061 227.163 610.48 227.163 610.731C226.911 611.568 221.636 609.642 220.548 608.387C220.213 607.968 220.38 607.801 221.05 607.801H220.883ZM197.94 604.703C197.689 604.368 198.024 604.452 198.192 604.452C200.034 604.87 201.792 605.624 203.467 606.545C204.388 607.047 204.89 607.466 204.806 607.633C204.723 608.303 198.778 605.791 197.94 604.703ZM237.629 604.284C239.471 604.368 241.23 605.038 242.737 606.126C243.239 606.461 243.49 606.88 243.49 607.131C243.49 608.303 239.22 607.298 237.378 605.624C236.708 605.038 236.373 604.368 237.629 604.284ZM186.218 603.95C186.721 604.117 187.558 604.536 188.479 604.87L188.981 605.122C189.819 605.456 190.572 605.875 191.075 606.042C191.661 606.294 192.247 606.545 192.833 606.88C190.572 606.042 188.395 605.038 186.218 603.95ZM304.949 597.838C306.456 597.503 307.963 598.005 309.052 599.094C309.136 599.261 309.219 599.345 309.219 599.512C309.47 600.852 306.791 601.27 304.865 600.098C303.777 599.512 303.191 598.34 304.949 597.838ZM277.569 596.75C279.243 596.582 281.002 597.085 282.174 598.34C282.342 598.508 282.425 598.759 282.509 599.01C282.844 600.433 279.746 600.601 277.569 599.261C276.397 598.424 275.727 597.168 277.569 596.75ZM331.241 597.085C332.999 596.666 334.422 597.503 334.757 598.173C334.757 598.257 334.757 598.257 334.841 598.34C335.26 599.596 332.999 600.35 331.157 599.429C329.985 598.926 329.566 597.671 331.241 597.085ZM169.556 593.819C171.398 594.489 173.156 595.41 174.831 596.415C176.422 597.336 176.422 597.587 176.422 597.587C175.835 597.754 169.472 594.322 169.472 593.819H169.556ZM356.527 594.992C358.118 594.573 359.207 595.243 359.458 595.829C359.96 597.001 357.783 597.922 356.192 597.168C355.188 596.75 354.853 595.578 356.527 594.992ZM204.053 593.233C206.146 593.485 208.072 594.406 209.663 595.661C210.249 596.164 210.584 596.666 210.584 597.001C210.333 598.173 205.476 596.498 203.718 594.573C202.881 593.82 202.964 593.233 204.053 593.233ZM248.765 593.233C250.691 593.15 252.533 593.82 253.957 595.159C254.208 595.41 254.375 595.745 254.459 596.08C254.627 597.587 251.194 597.336 248.849 595.661C247.509 594.74 247.091 593.568 248.765 593.233ZM182.701 591.643C184.209 591.727 186.721 593.066 188.228 594.238C189.4 595.159 189.567 595.578 189.567 595.661C189.484 596.666 184.46 594.489 182.618 592.647C182.199 592.145 181.864 591.643 182.701 591.643ZM380.809 591.726C382.233 591.308 383.154 591.894 383.238 592.48C383.405 593.485 381.479 594.322 380.307 593.819C379.47 593.401 379.302 592.313 380.809 591.726ZM218.455 586.452C220.548 586.536 222.474 587.373 223.981 588.796C224.316 589.131 224.567 589.55 224.734 589.968C224.986 591.559 221.05 590.973 218.622 589.047C217.199 587.959 216.696 586.62 218.455 586.452ZM155.656 581.513C157.163 581.764 160.094 583.689 161.266 584.61C162.355 585.448 162.69 585.95 162.606 586.117C162.438 586.871 157.415 584.108 155.74 582.35C154.986 581.596 155.321 581.513 155.656 581.513ZM173.742 576.406H173.91C176.003 576.657 178.599 578.415 179.687 579.504C180.357 580.173 180.692 580.759 180.692 581.178C180.524 582.601 175.835 580.676 173.658 578.331C173.324 577.997 171.984 576.322 173.91 576.406H173.742ZM137.235 575.485C137.319 575.485 137.319 575.485 137.319 575.485C138.994 576.406 140.585 577.494 142.176 578.666C142.762 579.085 143.348 579.503 143.85 580.006C143.097 579.671 142.427 579.252 141.757 578.75L141.506 578.583C139.999 577.662 138.575 576.573 137.235 575.401V575.485ZM282.258 575.234C284.1 574.815 286.026 575.569 287.114 577.159C287.114 577.243 287.198 577.327 287.198 577.411C287.868 579.252 285.188 580.173 282.676 578.917C280.834 577.997 279.913 575.987 282.258 575.234ZM254.208 574.397C256.217 574.145 258.311 574.983 259.567 576.573C259.734 576.825 259.818 576.992 259.818 577.243C260.237 579.085 257.39 579.587 254.794 578.164C252.952 577.076 251.863 575.066 254.208 574.397ZM309.973 574.145C311.815 573.727 313.573 574.648 314.076 575.736C314.159 575.82 314.159 575.987 314.243 576.155C314.578 577.913 311.647 578.75 309.554 577.494C307.963 576.406 307.88 574.732 309.973 574.145ZM192.749 570.797C194.842 570.713 197.438 572.304 198.694 573.727C199.113 574.145 199.364 574.648 199.448 575.234C199.615 577.076 195.847 576.49 193.084 574.145C191.326 572.722 190.823 570.964 192.749 570.797ZM225.739 571.048C228 570.964 230.093 571.885 231.517 573.643C231.768 573.894 231.852 574.229 231.935 574.648C232.27 576.573 229.089 576.741 226.409 574.983C224.567 573.727 223.311 571.634 225.739 571.048ZM337.185 571.634C338.944 571.215 340.451 572.053 340.786 573.057C340.87 573.225 340.87 573.392 340.87 573.643C340.618 575.15 338.358 575.652 336.851 574.899C335.176 574.062 335.092 572.22 337.185 571.634ZM144.353 567.029C146.111 567.197 148.958 569.29 150.381 570.629C151.135 571.383 151.553 571.969 151.47 572.304C151.386 573.308 148.037 571.801 145.525 569.625C145.441 569.541 142.762 567.113 144.353 567.029ZM363.979 567.783C365.57 567.364 366.826 568.034 367.077 568.955C367.412 570.462 365.068 571.634 363.393 570.797C361.97 570.211 362.054 568.453 363.979 567.783ZM125.094 563.429C124.759 562.927 125.094 563.011 125.262 563.011C126.35 563.346 128.779 565.104 130.369 566.527C131.374 567.448 131.96 568.118 131.877 568.369C131.625 568.955 126.183 565.02 125.094 563.429ZM390.355 562.927C391.862 562.509 392.867 563.178 392.95 564.015C392.95 564.099 392.95 564.267 392.95 564.35C392.448 565.606 391.025 566.276 389.685 565.774C388.345 565.188 388.513 563.597 390.355 562.927ZM159.843 556.313H160.01C161.936 556.397 164.867 558.239 166.29 560.164C166.709 560.667 166.96 561.169 167.044 561.839C167.127 563.932 162.773 562.592 160.01 559.662C158.252 557.82 158.252 556.313 160.01 556.397L159.843 556.313ZM198.275 550.788C201.039 550.453 203.718 552.546 204.639 554.137C204.806 554.388 204.89 554.723 204.974 555.058C205.393 557.318 202.462 557.737 199.531 555.895C197.103 554.388 195.596 551.541 198.275 550.788ZM135.896 550.286C138.073 550.453 141.003 552.797 142.259 554.472C142.762 554.974 143.013 555.644 143.18 556.313C143.18 557.653 140.836 556.983 138.324 555.058C135.979 553.383 133.886 550.537 135.896 550.286ZM104.162 549.532C104.245 549.532 104.245 549.532 104.329 549.616C104.999 550.118 107.176 551.96 108.767 553.383C109.269 553.802 109.604 554.137 109.772 554.388L109.939 554.555C110.358 554.974 110.358 555.058 110.358 555.058C109.688 554.806 104.162 549.951 104.162 549.532ZM225.153 547.607C227.498 547.355 229.842 548.611 230.931 550.704C231.014 550.872 231.098 551.123 231.098 551.29C231.6 553.634 228.419 554.388 225.572 552.546C223.144 550.955 222.39 548.193 225.153 547.607ZM252.868 547.69C255.045 547.355 257.138 548.36 258.227 550.286C258.311 550.453 258.394 550.62 258.394 550.872C258.813 553.216 255.548 554.053 252.868 552.295C250.607 550.872 250.273 548.36 252.868 547.69ZM170.477 545.011C173.156 544.844 176.003 547.188 177.008 548.862C177.426 549.365 177.594 550.034 177.594 550.704C177.175 552.797 173.91 551.793 171.816 550.369C169.388 548.611 167.797 545.514 170.477 545.011ZM280.834 546.016C282.76 545.597 284.686 546.434 285.691 548.193C285.691 548.276 285.775 548.36 285.775 548.444C286.444 550.788 283.263 552.044 280.667 550.453C278.574 549.197 278.239 546.769 280.834 546.016ZM110.944 545.346C110.609 544.928 109.772 543.588 110.944 543.755C112.367 544.09 114.795 546.183 116.303 547.858C116.889 548.444 117.307 549.197 117.559 549.951C117.475 551.374 112.953 548.193 110.944 545.346ZM309.136 542.918C311.313 542.416 313.155 543.588 313.573 545.011C314.076 547.104 311.396 548.444 309.052 547.272C306.791 546.267 306.54 543.755 309.136 542.918ZM95.0349 537.309C94.9512 537.058 95.0349 536.974 95.2861 537.058C96.2909 537.56 98.6353 539.653 100.059 541.328C101.064 542.5 101.398 543.086 101.315 543.253C101.147 543.588 99.6401 542.416 97.7143 540.574C95.4535 538.314 95.1186 537.477 95.0349 537.309ZM337.52 538.649C339.697 538.063 341.121 539.318 341.372 540.407C341.791 542.332 339.279 543.755 337.102 542.751C335.26 541.83 335.092 539.486 337.52 538.649ZM130.035 531.365C132.63 531.449 135.561 534.128 136.733 536.053C136.984 536.472 137.235 536.974 137.319 537.477C137.822 539.653 135.477 539.737 132.63 537.644C129.867 535.635 127.439 531.867 130.035 531.365ZM365.905 533.123C367.664 532.621 369.087 533.458 369.254 534.63C369.589 536.388 367.245 537.811 365.319 536.974C363.645 536.221 363.645 534.044 365.905 533.123ZM109.185 532.453C107.762 530.695 107.26 528.937 108.851 529.105C109.437 529.188 110.944 529.691 113.288 532.035C113.707 532.453 114.042 532.872 114.377 533.291L114.544 533.542C115.13 534.211 115.465 535.049 115.549 535.886C115.382 537.728 111.614 535.635 109.185 532.453ZM394.123 526.677C395.714 526.174 396.886 526.928 396.97 527.933C397.137 529.523 395.044 530.946 393.369 530.193C391.946 529.607 392.113 527.514 394.123 526.677ZM164.113 520.398C166.625 520.649 168.802 522.072 170.058 524.249C170.393 524.835 170.644 525.505 170.728 526.174C170.812 528.853 167.127 528.937 164.281 526.258C161.852 524.081 160.848 520.649 164.113 520.398ZM141.087 519.979C143.599 520.23 146.027 522.323 147.199 524.249C147.618 524.919 147.953 525.756 148.037 526.593C148.037 529.021 144.604 528.77 141.673 526.007C139.077 523.663 137.905 520.063 141.087 519.979ZM188.898 519.644C191.242 519.728 193.419 520.984 194.591 523.077C194.842 523.579 195.01 524.081 195.094 524.668C195.345 527.347 191.828 527.933 188.981 525.672C186.386 523.663 185.465 520.063 188.898 519.644ZM215.105 517.719C217.366 517.635 219.459 518.807 220.464 520.816C220.632 521.235 220.799 521.654 220.883 522.072C221.301 524.835 217.701 525.756 214.854 523.579C212.426 521.737 211.672 518.221 215.105 517.719ZM73.7672 517.468C73.8509 517.468 73.8509 517.551 73.9346 517.551C75.1906 518.807 76.4466 520.23 77.6188 521.654C78.2049 522.323 78.791 522.993 79.2097 523.83C78.4561 523.495 73.6834 517.803 73.7672 517.468ZM242.737 514.621C244.746 514.538 246.588 515.626 247.509 517.384C247.677 517.635 247.761 517.97 247.844 518.305C248.43 520.984 245.081 522.323 242.234 520.565C239.722 518.975 238.885 515.375 242.486 514.705L242.737 514.621ZM82.1403 511.272C83.8149 511.691 86.1594 514.37 87.2479 516.128C87.7503 516.798 88.0852 517.551 88.1689 518.305C88.1689 519.477 86.0757 518.221 83.9824 515.793C82.3078 513.868 80.8006 511.189 82.1403 511.272ZM270.87 510.519C272.796 510.184 274.722 511.189 275.559 513.031C275.643 513.198 275.727 513.449 275.811 513.617C276.564 516.296 273.215 517.97 270.452 516.212C268.023 514.789 267.354 511.272 270.87 510.519ZM114.377 505.412C116.721 505.58 119.401 508.091 120.573 510.352C120.908 510.938 121.075 511.607 121.159 512.277C121.41 514.705 118.647 514.621 115.884 512.11C112.953 509.514 111.614 505.496 114.377 505.412ZM70.2505 507.924C69.8318 507.17 69.162 505.998 69.8318 506.166C70.9203 506.668 73.0136 509.179 74.1021 510.854C74.5208 511.44 74.8557 512.026 75.1069 512.696C75.3581 513.449 74.9394 513.198 74.7719 513.114L74.6045 513.031C72.9299 511.607 71.4227 509.849 70.2505 507.924ZM300.176 505.328C301.851 505.077 303.526 505.998 304.195 507.505C304.279 507.673 304.363 507.924 304.363 508.175C304.949 510.686 301.767 512.361 299.255 510.77C297.162 509.431 296.66 506.166 299.925 505.328H300.176ZM90.9321 501.477H91.0158C92.9416 501.728 95.5373 504.491 96.7095 506.752C97.0444 507.338 97.2119 508.091 97.2956 508.761C97.2119 510.519 94.7837 509.766 92.523 507.17C90.1785 504.575 89.09 501.394 91.0995 501.394L90.9321 501.477ZM329.482 499.217C331.073 498.798 332.664 499.635 333.334 501.142L333.501 501.561V501.645V501.728C333.92 504.073 330.906 505.663 328.729 504.324C326.97 503.319 326.3 500.138 329.482 499.217ZM141.338 493.357C144.101 493.189 146.697 495.952 147.534 497.961C147.702 498.38 147.786 498.715 147.869 499.133C148.204 501.896 145.441 502.733 142.594 500.64C139.245 498.38 138.073 493.859 141.338 493.357ZM359.374 492.185C361.467 491.766 362.556 492.938 362.723 493.859C362.723 493.943 362.723 494.026 362.807 494.11C363.561 496.287 360.881 498.212 358.704 497.124C357.7 496.538 357.113 495.366 357.281 494.278C357.448 493.189 358.286 492.352 359.374 492.185ZM163.694 485.403C166.29 485.152 168.802 487.413 169.556 489.589C169.639 489.84 169.723 490.092 169.723 490.343C170.225 493.44 167.211 494.612 164.281 492.519C161.099 490.343 160.261 485.906 163.694 485.403ZM194.675 485.403C197.354 485.068 199.783 487.329 200.285 489.422C200.285 489.505 200.369 489.673 200.369 489.757C200.787 492.771 197.522 494.026 194.675 492.017C191.828 490.092 191.409 485.906 194.675 485.403ZM92.6904 480.548C94.7837 480.715 97.1282 483.394 98.1329 485.738C98.4679 486.408 98.6353 487.245 98.6353 487.999C98.4679 490.092 96.0397 489.84 93.7789 487.413C91.1833 484.65 90.1785 480.548 92.6904 480.548ZM49.5689 482.054C49.5689 482.054 49.6526 482.055 49.6526 482.138C50.9923 483.645 52.1645 485.32 53.1693 487.078C54.2578 489.003 54.1741 489.171 54.0903 489.254C53.588 489.171 49.1502 482.808 49.5689 482.054ZM388.931 484.231C390.773 483.561 391.946 484.65 392.113 485.654C392.448 486.575 392.197 487.58 391.527 488.25C390.773 489.003 389.601 489.338 388.596 489.003C387.592 488.585 387.005 487.496 387.173 486.408C387.34 485.32 388.01 484.566 388.931 484.231ZM67.6548 477.869C69.4969 478.203 71.6739 481.217 72.5112 483.227C72.7624 483.813 72.9299 484.482 73.0136 485.068C73.0973 486.492 72.0088 486.575 70.5017 485.236C67.906 482.892 65.6452 478.036 67.6548 477.869ZM112.786 477.282C115.214 477.282 117.726 479.878 118.563 482.306C119.568 484.901 118.48 486.659 116.303 486.157C115.633 485.989 114.963 485.654 114.377 485.152C111.111 482.641 109.688 477.617 112.786 477.282ZM221.888 478.873C224.232 478.622 226.409 480.129 227.163 482.389C227.163 482.473 227.246 482.641 227.246 482.724C227.749 485.822 224.316 487.245 221.469 485.152C218.79 483.31 218.622 479.543 221.888 478.873ZM54.0903 478.203C52.8344 476.027 52.0808 473.85 53.0856 474.101C54.2578 474.603 56.0999 477.282 57.1047 479.375C57.5233 480.129 57.7745 480.882 57.6908 481.72C57.4396 482.641 55.5975 480.882 54.0903 478.203ZM250.607 472.092C252.868 471.757 255.045 473.18 255.548 475.357C256.134 478.203 252.868 479.962 250.189 478.203C247.342 476.529 247.593 472.762 250.607 472.092ZM280.416 464.808C282.007 464.473 283.681 465.227 284.519 466.566C284.686 466.901 284.853 467.153 284.937 467.487C285.607 470.334 282.425 472.176 279.746 470.501C277.15 468.911 277.569 465.478 280.416 464.808ZM129.113 458.027C131.96 457.776 134.305 460.79 134.807 462.967C135.561 466.064 133.3 467.822 130.621 466.232C127.188 464.222 125.68 458.948 129.113 458.027ZM166.206 454.93C167.546 454.762 168.886 455.264 169.807 456.185C170.728 457.023 171.314 458.027 171.649 459.199C172.486 462.548 169.723 464.39 166.709 462.548C163.611 460.622 162.69 455.767 166.206 454.93ZM311.061 456.771C312.82 456.269 314.662 457.357 315.164 459.115V459.199C315.667 461.794 312.652 463.636 310.224 462.129C308.801 461.376 308.298 459.534 309.136 458.195C309.554 457.441 310.224 456.939 311.061 456.771ZM72.8461 453.674C74.6882 453.925 76.7815 456.604 77.5351 458.948C77.7863 459.534 77.87 460.204 77.87 460.874C77.87 463.134 75.9442 463.218 73.9346 460.957C71.4227 458.195 70.4179 453.59 72.8461 453.674ZM32.7389 454.427C33.2413 455.097 34.4972 457.609 35.2508 459.115C36.2556 461.208 36.3393 461.46 36.2556 461.543C36.0881 461.376 35.2508 459.785 34.4135 458.111L34.1623 457.692C33.5762 456.604 33.0738 455.516 32.7389 454.427ZM95.9559 446.223H96.2071C98.5516 446.725 100.31 449.572 100.812 451.413C101.147 452.837 101.231 455.264 98.9703 455.264C97.8817 455.097 96.9607 454.595 96.2909 453.757C93.5277 451.078 92.9416 446.223 95.9559 446.223ZM35.4183 450.074C34.7484 448.483 34.4135 446.976 35.0834 447.227C35.9207 447.73 37.4278 450.409 38.1814 452.502C38.3489 452.92 38.4326 453.255 38.5163 453.506V453.59C38.6838 454.009 38.6838 454.427 38.6838 454.846C38.3489 455.683 36.5905 453.004 35.4183 450.074ZM47.8105 445.553C49.3177 445.972 51.076 448.985 51.6621 450.995C51.9133 451.664 51.9971 452.334 52.0808 453.088C51.9133 455.097 50.2387 453.506 49.9038 453.088C47.643 450.66 45.9684 445.553 47.8105 445.553ZM342.126 448.148C343.633 447.646 345.307 448.567 345.726 450.074C345.726 450.158 345.81 450.241 345.81 450.409C345.977 451.999 344.805 453.423 343.214 453.59C342.628 453.674 342.042 453.506 341.456 453.255C340.116 452.585 339.614 450.911 340.284 449.571C340.702 448.818 341.288 448.316 342.126 448.148ZM192.582 444.046C195.094 443.711 197.271 445.804 197.773 447.981C198.527 451.246 195.429 453.171 192.582 451.246C189.651 449.32 189.149 444.8 192.582 444.046ZM373.274 438.604C374.53 438.186 375.953 438.855 376.455 440.111C376.539 440.279 376.539 440.446 376.539 440.614C376.539 440.948 376.539 441.283 376.455 441.618C376.037 443.041 374.613 443.879 373.19 443.46C372.52 443.293 371.934 442.79 371.515 442.204C370.929 440.865 371.599 439.274 372.939 438.772C373.022 438.688 373.19 438.688 373.274 438.604ZM221.218 433.832C222.641 433.581 224.065 434.167 224.986 435.256C225.488 435.842 225.907 436.595 226.074 437.349C226.744 440.362 223.981 442.372 221.218 440.865C218.371 439.274 217.785 434.67 221.218 433.832ZM133.551 430.818C136.398 430.484 138.408 433.414 138.826 435.674C139.329 438.772 137.068 440.614 134.472 439.107C131.29 437.181 130.202 431.823 133.551 430.818ZM55.3463 424.707H55.43C57.1047 425.042 58.7793 427.721 59.2817 430.065C59.4491 430.735 59.5329 431.321 59.4491 431.99C59.2817 434.083 57.8582 434.251 56.2674 432.409C54.0066 429.814 53.0856 424.623 55.3463 424.791V424.707ZM251.445 423.786C253.622 423.451 255.631 424.874 256.05 426.967V427.051C256.385 428.725 255.213 430.4 253.538 430.735C252.784 430.902 251.947 430.735 251.277 430.316C248.514 428.893 248.179 424.623 251.445 423.786ZM101.733 416.837C103.994 416.754 105.92 419.349 106.339 421.693C106.339 421.86 106.422 422.028 106.422 422.112C106.757 425.293 104.58 426.716 102.236 424.958C99.3889 422.698 98.5516 417.34 101.733 416.837ZM20.3467 417.507H20.4304C21.1003 418.009 22.1888 420.856 22.6912 422.698C22.9423 423.535 23.361 425.042 23.0261 425.209C22.2725 425.042 19.7606 417.926 20.3467 417.507ZM31.7341 416.67C32.9064 417.089 34.1623 419.684 34.7484 421.86C34.9996 422.614 35.0834 423.451 34.9996 424.205C34.9159 425.209 34.3298 425.293 33.5762 424.456C31.8179 422.279 30.227 416.502 31.7341 416.67ZM74.5208 414.744H74.6882C76.4466 414.912 78.2887 417.423 78.7073 420.102C78.791 420.521 78.791 420.94 78.791 421.358C78.6236 423.953 76.6978 424.539 74.7719 422.447C72.0926 419.516 72.0925 414.577 74.6882 414.744H74.5208ZM157.917 414.075C160.68 413.656 162.522 416.335 162.857 418.261C163.443 421.442 160.848 423.367 158.252 421.777C155.321 420.019 154.651 414.996 157.917 414.075ZM282.593 413.572C284.519 413.154 286.361 414.326 286.779 416.251V416.335C287.114 418.009 286.109 419.6 284.435 420.019C283.681 420.186 282.928 420.019 282.258 419.684C279.83 418.344 279.578 414.409 282.593 413.572ZM314.411 403.107C316.085 402.689 317.76 403.693 318.262 405.368C318.262 405.452 318.346 405.619 318.346 405.703C318.597 407.293 317.592 408.8 316.001 409.051C315.332 409.135 314.662 409.051 314.076 408.717C311.731 407.461 311.647 403.945 314.411 403.107ZM185.799 399.591C188.395 399.173 190.154 401.517 190.488 403.442C190.907 406.372 188.395 408.298 185.883 406.958C182.953 405.368 182.45 400.596 185.799 399.591ZM40.8608 394.568H40.9446C42.368 394.903 43.6239 397.498 43.9589 399.675C44.0426 400.177 44.0426 400.68 44.0426 401.182C43.9589 403.191 42.7866 403.61 41.5307 402.186C39.6049 399.842 38.8513 394.401 40.9446 394.652L40.8608 394.568ZM122.499 393.061C124.759 392.894 126.518 395.238 126.769 397.498C127.188 400.68 124.759 402.521 122.415 400.847C119.652 398.838 119.233 393.647 122.499 393.061ZM346.396 392.056C347.819 391.638 349.326 392.391 349.745 393.898C349.829 394.066 349.829 394.233 349.829 394.401C349.996 395.908 348.992 397.247 347.484 397.415C346.982 397.498 346.48 397.415 346.061 397.247C344.638 396.577 344.051 394.903 344.721 393.48C345.14 392.81 345.642 392.308 346.396 392.056ZM19.4256 386.28C20.4304 386.782 21.3515 389.545 21.6026 391.387C21.7701 392.14 21.7701 392.977 21.6026 393.731C21.4352 394.401 21.0165 394.317 20.5141 393.563C19.1744 391.387 18.2534 386.029 19.4256 386.28ZM215.775 386.364C218.287 385.861 219.878 388.038 220.129 389.712C220.548 392.559 217.952 394.484 215.524 393.061C212.845 391.638 212.593 387.368 215.775 386.364ZM9.62909 385.945C10.1315 386.531 10.8013 389.21 11.1363 390.801C11.3037 391.638 11.5549 393.145 11.3874 393.312C11.1363 393.145 10.6339 391.722 10.2152 390.131L10.1315 389.629C9.71282 387.871 9.46163 386.112 9.62909 385.945ZM61.1238 383.099H61.2075C62.7147 383.266 64.1381 385.526 64.3893 388.038C64.3893 388.457 64.3893 388.791 64.3893 389.21C64.1381 391.722 62.3797 392.391 60.7888 390.382C58.6118 387.619 58.863 382.931 61.2075 383.099H61.1238ZM89.1737 382.68C91.267 382.68 92.7741 385.108 93.0253 387.368C93.3603 390.382 91.4344 392.056 89.3412 390.633C86.7455 388.708 86.1594 383.099 89.1737 382.68ZM148.288 373.387C150.884 372.969 152.391 375.564 152.558 377.489C152.726 380.168 150.632 381.926 148.455 380.838C145.609 379.415 144.939 374.392 148.288 373.387ZM246.923 373.722C248.012 373.471 249.184 373.806 249.938 374.559C250.524 375.145 250.859 375.815 251.026 376.568C251.445 379.164 249.184 381.006 246.84 380.001C244.244 378.829 243.825 374.727 246.923 373.722ZM29.8083 364.011H29.892C31.0643 364.345 31.9016 366.773 32.069 368.866C32.069 369.452 32.069 369.955 31.9853 370.541C31.6504 372.131 30.7293 372.383 29.892 371.043C28.3849 368.866 28.1337 363.759 29.892 364.011H29.8083ZM278.909 361.332C280.583 360.913 282.258 361.918 282.676 363.592C282.676 363.759 282.76 363.843 282.76 364.011C283.011 365.518 282.007 367.024 280.499 367.276C279.913 367.359 279.411 367.276 278.825 367.108C276.397 365.936 276.062 362.252 278.909 361.332ZM111.865 356.308C113.874 356.141 115.298 358.318 115.382 360.411C115.549 363.257 113.539 365.015 111.53 363.759C109.018 362.085 108.683 356.811 111.865 356.308ZM177.175 356.141C179.687 355.722 181.111 358.067 181.194 359.908C181.278 362.504 179.017 364.178 176.924 363.006C174.412 361.499 174.161 357.146 177.175 356.141ZM10.8851 355.22C11.6386 355.722 12.2248 358.401 12.3085 360.076C12.3922 360.746 12.3085 361.499 12.141 362.169C11.9736 362.671 11.7224 362.671 11.3874 362.085C10.3827 360.327 9.88029 354.885 10.8851 355.22ZM2.9306 353.713C3.26552 354.969 3.51672 356.225 3.60045 357.564L3.68418 357.983C3.68418 358.15 3.68418 358.234 3.76791 358.401C3.85164 359.322 3.93537 359.825 3.93537 360.16V360.243C3.93537 360.327 3.93537 360.411 3.93537 360.494C3.60045 360.243 2.6794 354.215 2.9306 353.713ZM50.5736 351.536H50.6574C51.9971 351.788 53.1693 354.048 53.0856 356.392C53.0856 356.643 53.0856 356.894 53.0018 357.146C52.6669 359.49 51.1598 360.16 49.9038 358.569C48.0617 356.141 48.4804 351.369 50.5736 351.536ZM78.791 349.025C80.7169 349.36 81.5542 351.871 81.5542 353.546C81.5542 356.476 79.4609 357.899 77.7863 356.141C75.8605 353.964 76.1116 349.025 78.791 349.025ZM311.145 348.774C312.569 348.355 314.076 349.192 314.494 350.616C314.494 350.699 314.578 350.867 314.578 350.95C314.913 352.374 314.076 353.797 312.652 354.048C312.066 354.215 311.564 354.132 310.978 353.881C309.554 353.295 308.884 351.62 309.554 350.197C309.889 349.611 310.391 349.025 311.145 348.774ZM207.821 340.402C210.165 339.899 211.505 341.992 211.589 343.667C211.672 346.011 209.579 347.685 207.57 346.681C205.225 345.592 204.974 341.406 207.821 340.402ZM138.994 333.955C139.412 333.872 139.915 333.955 140.333 334.123C141.589 334.876 142.343 336.216 142.343 337.723C142.343 340.318 140.333 341.909 138.408 340.737C136.063 339.397 135.979 334.625 138.994 333.955ZM22.0213 339.899C20.8491 338.058 20.8491 332.867 22.44 333.202C23.361 333.537 23.9471 335.797 23.8634 337.723C23.8634 338.141 23.7797 338.56 23.7797 338.979C23.361 340.486 22.6074 340.904 22.0213 339.899ZM239.387 325.667C240.978 325.332 242.569 326.337 242.904 327.928C242.904 328.095 242.988 328.263 242.988 328.43C243.155 330.69 241.062 332.281 239.22 331.36C236.959 330.272 236.708 326.588 239.387 325.667ZM5.86119 330.188C5.27507 328.514 5.27507 323.658 6.02865 323.993C6.44731 324.411 6.6985 326.504 6.6985 328.179C6.6985 328.932 6.61477 329.686 6.36358 330.439C6.19611 330.942 5.94492 330.439 5.86119 330.188ZM102.906 320.56C104.664 320.477 105.752 322.486 105.669 324.411C105.585 326.588 104.329 328.095 102.822 327.676C102.571 327.593 102.32 327.509 102.068 327.342C99.975 325.835 100.142 321.063 102.906 320.56ZM6.48201e-06 321.314C0.0837377 321.649 0.0837377 322.57 0.167469 323.574V323.993C0.167469 324.495 0.167469 324.998 0.2512 325.416C0.2512 326.002 0.2512 326.421 0.2512 326.756V327.09C0.2512 327.258 0.2512 327.342 0.2512 327.509C0.167469 327.09 -0.0837247 321.649 6.48201e-06 321.314ZM42.9541 320.142H43.0378C44.2938 320.393 44.9636 322.653 44.7962 324.579C44.7125 325.416 44.4613 326.839 43.4565 327.342C42.9541 327.509 42.368 327.258 42.1168 326.756C40.5259 324.663 41.2795 319.891 43.1216 320.142H42.9541ZM70.5854 316.04H70.6691C72.0088 316.207 72.9299 318.216 72.7624 320.393C72.5112 322.988 70.6691 324.16 69.3294 322.57C67.5711 320.477 68.4921 315.872 70.6691 316.04H70.5854ZM168.383 314.449C170.56 314.03 171.733 316.123 171.733 317.798C171.733 320.058 169.891 321.565 168.132 320.812C165.788 319.723 165.537 315.454 168.383 314.449ZM271.289 311.435C272.712 311.1 274.136 311.937 274.471 313.361C274.471 313.444 274.555 313.612 274.555 313.695C274.806 315.035 273.968 316.374 272.629 316.626C272.126 316.709 271.54 316.709 271.038 316.458C269.112 315.454 268.945 312.272 271.289 311.435ZM17.5836 308.672C16.6625 307.333 16.9974 302.058 18.3371 302.393C19.007 302.728 19.3419 304.821 19.0907 306.496C19.0907 306.747 19.007 307.165 18.9233 307.333C18.5883 308.84 18.0022 309.426 17.5836 308.672ZM130.956 296.282C132.714 296.114 133.719 297.956 133.551 299.798C133.384 301.64 132.044 303.314 130.369 302.728C130.202 302.645 130.035 302.561 129.951 302.477C128.109 301.138 128.36 296.784 130.956 296.282ZM199.113 296.868C199.699 296.7 200.369 296.784 200.871 297.119C201.708 297.705 202.211 298.71 202.211 299.714C202.211 301.891 200.369 303.314 198.694 302.477C196.768 301.389 196.601 297.789 199.113 296.868ZM4.10283 298.207C3.85164 296.533 4.2703 292.514 4.77268 292.849C5.10761 293.268 5.10761 295.193 4.94015 296.7C4.94015 297.37 4.77268 298.124 4.43776 298.71C4.2703 298.961 4.18656 298.459 4.10283 298.207ZM38.5163 289.082H38.6001C39.6049 289.333 39.9398 291.342 39.6886 293.101C39.3537 295.277 38.1814 296.366 37.3441 295.194C36.0881 293.435 37.0092 288.831 38.6001 289.082H38.5163ZM96.2909 286.068C97.9655 285.984 98.5516 288.161 98.3841 289.752C98.1329 291.928 96.542 293.268 95.2023 292.347C93.444 291.091 93.8627 286.57 96.2909 286.068ZM65.3103 283.724H65.3941C66.4826 283.891 67.1524 285.65 66.8175 287.575C66.3988 289.835 64.8917 291.008 63.8869 289.835C62.3797 288.077 63.4682 283.557 65.3941 283.724H65.3103ZM230.344 280.375C231.684 280.124 232.94 280.961 233.275 282.217C233.275 282.384 233.359 282.552 233.359 282.803C233.443 284.729 231.852 286.152 230.261 285.482C228.837 284.812 228.335 283.138 229.005 281.715C229.172 281.129 229.675 280.626 230.344 280.375ZM160.764 275.017C161.099 274.933 161.517 275.017 161.852 275.185C162.857 275.854 163.36 276.943 163.192 278.115C163.025 280.292 161.266 281.547 159.843 280.626C158.084 279.454 158.336 275.52 160.764 275.017ZM16.5788 277.529C15.9927 276.273 16.7462 271.585 17.751 271.92C18.2534 272.254 18.2534 274.096 18.0022 275.603C17.9185 276.357 17.6673 277.026 17.1649 277.612C17.1649 277.696 16.83 278.115 16.5788 277.529ZM6.78223 262.292C6.86596 262.041 6.94969 261.957 7.03342 262.041C7.11716 263.213 7.03342 264.385 6.6985 265.473C6.61477 266.059 6.44731 266.729 6.11238 267.231C5.77746 267.566 6.11238 263.883 6.78223 262.292ZM125.011 260.366C126.518 260.199 127.188 261.957 126.936 263.631C126.602 265.641 125.094 266.813 123.922 265.976C122.248 264.887 122.75 260.869 125.011 260.366ZM37.5116 258.441C38.3489 258.692 38.4326 260.45 38.0977 261.957C37.679 263.799 36.5905 264.803 36.0881 263.966C35.0834 262.627 36.3393 258.19 37.5116 258.441ZM190.907 255.846C192.665 255.427 193.503 257.101 193.419 258.441C193.335 260.283 191.828 261.538 190.488 260.869C188.73 260.031 188.646 256.683 190.907 255.846ZM92.523 252.915C93.9464 252.915 94.2813 254.841 93.9464 256.348C93.5277 258.19 92.188 259.278 91.1833 258.525C89.7598 257.52 90.3459 253.334 92.523 252.915ZM63.0496 252.329C63.1333 252.329 63.217 252.329 63.217 252.329C64.0544 252.497 64.473 254.004 64.0544 255.678C63.6357 257.436 62.5472 258.525 61.7099 258.106C60.4539 257.269 61.04 252.664 63.0496 252.329ZM19.007 246.888C18.6721 245.799 19.7606 241.613 20.5141 241.948C20.9328 242.283 20.6816 243.874 20.3467 245.213C20.2629 245.632 20.0955 246.05 19.8443 246.469C19.5931 247.055 19.1744 247.474 19.007 246.888ZM154.735 237.762C156.075 237.595 156.828 239.102 156.577 240.525C156.326 242.283 154.903 243.371 153.814 242.702C152.223 241.864 152.558 238.265 154.735 237.762ZM39.9398 228.637C40.6096 228.888 40.4422 230.395 40.0235 231.734C39.5211 233.325 38.6001 234.162 38.1814 233.576C37.5116 232.488 39.0187 228.386 39.9398 228.637ZM121.829 226.209C123.001 226.125 123.42 227.548 123.169 228.888C122.834 230.646 121.494 231.734 120.573 231.148C119.233 230.311 119.819 226.628 121.829 226.209ZM64.3055 221.772H64.3893C65.1429 221.939 65.2266 223.363 64.7242 224.869C64.1381 226.46 63.0496 227.297 62.4635 226.628C61.5424 225.372 63.0496 221.604 64.3893 221.772H64.3055ZM91.9368 221.018H92.0206C92.9416 221.27 92.9416 222.86 92.6067 223.865C92.1043 225.539 90.8483 226.544 90.0947 225.79C89.09 224.786 90.0947 221.018 91.9368 221.018Z" fill="#E1E1E1"/>
<path d="M442.1 30.84C442.1 32.88 441.78 34.4 441.14 35.4C440.5 36.4 439.48 37.12 438.08 37.56C439.48 38 440.5 38.72 441.14 39.72C441.78 40.72 442.1 42.24 442.1 44.28V53.88C442.1 55.32 442.46 56.42 443.18 57.18C443.94 57.94 445.04 58.32 446.48 58.32H447.56V65.64H444.08C440.36 65.64 437.54 64.72 435.62 62.88C433.7 61.04 432.74 58.38 432.74 54.9V44.04C432.74 43.12 432.5 42.42 432.02 41.94C431.58 41.46 430.94 41.22 430.1 41.22H428.12V33.9H430.1C430.94 33.9 431.58 33.66 432.02 33.18C432.5 32.7 432.74 32 432.74 31.08V20.22C432.74 16.74 433.7 14.08 435.62 12.24C437.54 10.4 440.36 9.48 444.08 9.48H447.56V16.8H446.48C445.04 16.8 443.94 17.18 443.18 17.94C442.46 18.7 442.1 19.8 442.1 21.24V30.84Z" fill="#F53D8B"/>
<path d="M583.34 96.9V104.22H581.36C580.52 104.22 579.86 104.46 579.38 104.94C578.94 105.42 578.72 106.12 578.72 107.04V117.9C578.72 121.38 577.76 124.04 575.84 125.88C573.92 127.72 571.1 128.64 567.38 128.64H563.9V121.32H564.98C566.42 121.32 567.5 120.94 568.22 120.18C568.98 119.42 569.36 118.32 569.36 116.88V107.28C569.36 105.24 569.68 103.72 570.32 102.72C570.96 101.72 571.98 101 573.38 100.56C571.98 100.12 570.96 99.4 570.32 98.4C569.68 97.4 569.36 95.88 569.36 93.84V84.24C569.36 82.8 568.98 81.7 568.22 80.94C567.5 80.18 566.42 79.8 564.98 79.8H563.9V72.48H567.38C571.1 72.48 573.92 73.4 575.84 75.24C577.76 77.08 578.72 79.74 578.72 83.22V94.08C578.72 95 578.94 95.7 579.38 96.18C579.86 96.66 580.52 96.9 581.36 96.9H583.34Z" fill="#F53D8B"/>
<path d="M500.724 50.08V58H468.984V51.7L485.184 36.4C486.904 34.76 488.064 33.36 488.664 32.2C489.264 31 489.564 29.82 489.564 28.66C489.564 26.98 488.984 25.7 487.824 24.82C486.704 23.9 485.044 23.44 482.844 23.44C481.004 23.44 479.344 23.8 477.864 24.52C476.384 25.2 475.144 26.24 474.144 27.64L467.064 23.08C468.704 20.64 470.964 18.74 473.844 17.38C476.724 15.98 480.024 15.28 483.744 15.28C486.864 15.28 489.584 15.8 491.904 16.84C494.264 17.84 496.084 19.28 497.364 21.16C498.684 23 499.344 25.18 499.344 27.7C499.344 29.98 498.864 32.12 497.904 34.12C496.944 36.12 495.084 38.4 492.324 40.96L482.664 50.08H500.724ZM522.617 58.72C519.137 58.72 516.037 57.86 513.317 56.14C510.597 54.42 508.457 51.94 506.897 48.7C505.377 45.42 504.617 41.52 504.617 37C504.617 32.48 505.377 28.6 506.897 25.36C508.457 22.08 510.597 19.58 513.317 17.86C516.037 16.14 519.137 15.28 522.617 15.28C526.097 15.28 529.197 16.14 531.917 17.86C534.637 19.58 536.757 22.08 538.277 25.36C539.837 28.6 540.617 32.48 540.617 37C540.617 41.52 539.837 45.42 538.277 48.7C536.757 51.94 534.637 54.42 531.917 56.14C529.197 57.86 526.097 58.72 522.617 58.72ZM522.617 50.5C525.177 50.5 527.177 49.4 528.617 47.2C530.097 45 530.837 41.6 530.837 37C530.837 32.4 530.097 29 528.617 26.8C527.177 24.6 525.177 23.5 522.617 23.5C520.097 23.5 518.097 24.6 516.617 26.8C515.177 29 514.457 32.4 514.457 37C514.457 41.6 515.177 45 516.617 47.2C518.097 49.4 520.097 50.5 522.617 50.5Z" fill="#F53D8B"/>
<path d="M517.833 112.08V120H486.093V113.7L502.293 98.4C504.013 96.76 505.173 95.36 505.773 94.2C506.373 93 506.673 91.82 506.673 90.66C506.673 88.98 506.093 87.7 504.933 86.82C503.813 85.9 502.153 85.44 499.953 85.44C498.113 85.44 496.453 85.8 494.973 86.52C493.493 87.2 492.253 88.24 491.253 89.64L484.173 85.08C485.813 82.64 488.073 80.74 490.953 79.38C493.833 77.98 497.133 77.28 500.853 77.28C503.973 77.28 506.693 77.8 509.013 78.84C511.373 79.84 513.193 81.28 514.473 83.16C515.793 85 516.453 87.18 516.453 89.7C516.453 91.98 515.973 94.12 515.013 96.12C514.053 98.12 512.193 100.4 509.433 102.96L499.773 112.08H517.833ZM538.044 78V120H528.324V85.8H519.924V78H538.044Z" fill="#F53D8B"/>
</g>
<defs>
<linearGradient id="paint0_linear" x1="622.042" y1="164.034" x2="112.075" y2="485.435" gradientUnits="userSpaceOnUse">
<stop stop-color="#F8F8F8"/>
<stop offset="1" stop-color="#F53D8B"/>
</linearGradient>
<clipPath id="clip0">
<rect width="684" height="633" fill="white"/>
</clipPath>
</defs>
</svg>
