<svg width="48" height="188" viewBox="0 0 48 188" fill="none" xmlns="http://www.w3.org/2000/svg">
<path d="M26.4 79.4C26.4 83.8 25.7333 87.1333 24.4 89.4C23.0667 91.5333 21 93.1333 18.2 94.2C21 95.2667 23.0667 96.9333 24.4 99.2C25.7333 101.333 26.4 104.6 26.4 109V163C26.4 173.8 31.4667 179.2 41.6 179.2H47.4V187.8H41C24.6 187.8 16.4 179.8 16.4 163.8V108.8C16.4 101.867 13.4 98.4 7.4 98.4H0.400001V89.8H7.4C13.4 89.8 16.4 86.4 16.4 79.6V24.6C16.4 8.59999 24.6 0.599991 41 0.599991H47.4V9.19999H41.6C31.4667 9.19999 26.4 14.6 26.4 25.4V79.4Z" fill="#7A7A7A"/>
</svg>
