<svg xmlns="http://www.w3.org/2000/svg" width="666.667" height="666.667" viewBox="0 0 500 500" preserveAspectRatio="xMidYMid meet" xmlns:v="https://vecta.io/nano"><path d="M221.5 1.6c-49.7 6.2-94.5 25.5-132 56.7-9.4 7.8-28.3 27.4-35.6 36.7-17.3 22.3-32.1 49.3-40.3 73.8l-5.1 16-2.9 12.7c-2.4 10.6-2.8 13.6-4.4 27.5-1.4 13-.6 54.7 1.3 60.2.2.7.6 3.1.9 5.4.8 6.4 5.4 26.2 7.7 33.4 10.1 30.5 23.8 56.5 42.8 81 9.1 11.8 31.6 34 43.8 43.3 32.2 24.5 72.3 42.1 109.8 48.1 1.7.2 6.6 1 11 1.7 10.3 1.7 52.4 1.7 62.5.1 4.1-.7 8.9-1.4 10.5-1.6 1.7-.3 5-.9 7.5-1.5l7-1.4c1.4-.3 4.5-1 7-1.7s5-1.3 5.5-1.4c7.1-1.4 31.7-11.3 45-18.1 24.9-12.7 45-27.4 64-46.8 6.1-6.2 12.1-12.6 13.5-14.2 4.2-5 16.5-21.8 19-26 1.3-2.2 2.8-4.2 3.2-4.3.4-.2.8-.8.8-1.3 0-.4 1.9-4.1 4.3-8.1 12.9-22 25.6-59.2 29.1-85.3 2.9-20.9 2.9-54.7.1-72.5-7.6-47.8-26.3-89-57.4-126.5-3-3.6-24.4-25-28.6-28.5-28-23.7-64.6-42.5-100.4-51.5C301.1 5 298.7 4.6 288 3l-9.5-1.6c-6.4-1.2-47.2-1.1-57 .2z"/></svg>