<?xml version="1.0" encoding="utf-8"?>
<!-- Generator: Adobe Illustrator 23.0.1, SVG Export Plug-In . SVG Version: 6.00 Build 0)  -->
<svg version="1.1" id="Capa_1" xmlns:v="https://vecta.io/nano"
	 xmlns="http://www.w3.org/2000/svg" xmlns:xlink="http://www.w3.org/1999/xlink" x="0px" y="0px" viewBox="0 0 160.8 48"
	 style="enable-background:new 0 0 160.8 48;" xml:space="preserve">
<style type="text/css">
	.st0{clip-path:url(#SVGID_2_);}
	.st1{fill:#3F3F3F;}
</style>
<g>
	<defs>
		<rect id="SVGID_1_" x="3.4" width="155.3" height="48"/>
	</defs>
	<clipPath id="SVGID_2_">
		<use xlink:href="#SVGID_1_"  style="overflow:visible;"/>
	</clipPath>
	<g class="st0">
		<path class="st1" d="M110.8,33.7h-4.6v-4.5h0.6v3.8h4L110.8,33.7L110.8,33.7z M98.4,23.3h-9.6v-8.9h9.6v1.4h-8.3V22h8.3V23.3z"/>
		<path class="st1" d="M96.6,18.2h-7.9v1.4h7.9V18.2z M158.7,23.4h-9.5v-9.2h1.4V22h8.1V23.4z M115.8,14.2h-1.4v9.1h1.4V14.2z
			 M131.1,14.2l-5.4,4.4l-5.4-4.4h-1.2v9.2h1.4v-7.3l4.9,3.9h0.8l4.9-3.9v7.3h1.3v-9.2H131.1L131.1,14.2z M143.1,19.2h-6v1.3h6V19.2
			z"/>
		<path class="st1" d="M135.6,23.4l4.5-7.5l4.5,7.5h1.6l-5.5-9.2h-1.1l-5.5,9.2C134,23.4,135.6,23.4,135.6,23.4z M74.8,31.7h-3v0.6
			h3V31.7z"/>
		<path class="st1" d="M71.2,33.8l2.2-3.7l2.2,3.7h0.7l-2.7-4.5h-0.6l-2.7,4.5H71.2L71.2,33.8z M101.7,31.7h-3v0.6h3V31.7z"/>
		<path class="st1" d="M98.1,33.8l2.2-3.7l2.2,3.7h0.8l-2.7-4.5H100l-2.7,4.5C97.3,33.8,98.1,33.8,98.1,33.8z M69.9,23.4h-4.3
			c-1.5,0-2.8-1.3-2.8-2.8c0-1.5,1.3-2.8,2.8-2.8h4.3c1.5,0,2.8,1.3,2.8,2.8C72.7,22.1,71.5,23.4,69.9,23.4z M65.7,19.2
			c-0.8,0-1.5,0.6-1.5,1.5c0,0.8,0.6,1.5,1.5,1.5h4.3c0.8,0,1.5-0.6,1.5-1.5c0-0.8-0.6-1.5-1.5-1.5H65.7z"/>
		<path class="st1" d="M69.9,19.2h-4.2c-1.4,0-2.5-1.1-2.5-2.5c0-1.4,1.1-2.5,2.5-2.5c0,0,0,0,0,0h4.2c1.4,0,2.5,1.1,2.5,2.5
			C72.4,18.1,71.3,19.2,69.9,19.2C69.9,19.2,69.9,19.2,69.9,19.2z M65.7,15.6c-0.6,0-1.1,0.5-1.1,1.1c0,0,0,0,0,0
			c0,0.6,0.5,1.1,1.1,1.1h4.2c0.6,0,1.1-0.5,1.1-1.1c0,0,0,0,0,0c0-0.6-0.5-1.1-1.1-1.1H65.7z M82.9,23.4h-7.5v-9.2h7.5
			c1.7,0,3.1,1.4,3.1,3.1v2.9C86,22,84.6,23.4,82.9,23.4z M76.8,22.1h6.1c1,0,1.8-0.8,1.8-1.8v-2.9c0-1-0.8-1.8-1.8-1.8h-6.1V22.1
			L76.8,22.1z M110.8,23.4h-7.4c-1.4,0-2.6-1.2-2.6-2.6v-4c0-1.4,1.2-2.6,2.6-2.6h7.4v1.4h-7.4c-0.7,0-1.3,0.6-1.3,1.3v4
			c0,0.7,0.6,1.3,1.3,1.3h7.4V23.4z M95.7,29.3h-5.1v0.6h5.1V29.3z M79.7,29.5H79v4.3h0.6C79.7,33.8,79.7,29.5,79.7,29.5z"/>
		<path class="st1" d="M82.6,29.9c0.5,0,0.9,0.4,0.9,0.9s-0.4,0.9-0.9,0.9h-2.9v-1.8C79.7,29.9,82.6,29.9,82.6,29.9z M82.6,29.3H79
			v3.1h3.5c0.9,0,1.6-0.7,1.6-1.6c0,0,0,0,0,0C84.1,29.9,83.4,29.3,82.6,29.3z M87.7,29.3h-0.6v4.5h0.6V29.3z M93.5,29.4h-0.6v4.4
			h0.6C93.5,33.7,93.5,29.4,93.5,29.4z M67.9,33.8h-3.5c-0.7,0-1.3-0.6-1.3-1.3v-1.9c0-0.7,0.6-1.3,1.3-1.3h3.5v0.6h-3.5
			c-0.4,0-0.6,0.3-0.6,0.6v1.9c0,0.4,0.3,0.6,0.6,0.6h3.5V33.8L67.9,33.8z M28.1,32.6L3.4,16.3L28.1,0l24.7,16.2L28.1,32.6z M6,16.3
			l22.1,14.5l22.1-14.6L28.1,1.7L6,16.3z"/>
		<path class="st1" d="M28.1,48L3.4,31.7l24.7-16.3l24.7,16.2L28.1,48z M6,31.7l22.1,14.6l22.1-14.6L28.1,17.1L6,31.7z"/>
		<path class="st1" d="M28.8,0.8h-1.4v46.3h1.4V0.8z M52.8,16.2h-1.4v15.4h1.4V16.2z M4.8,16.3H3.4v15.4h1.4
			C4.8,31.7,4.8,16.3,4.8,16.3z"/>
	</g>
</g>
</svg>
