<svg xmlns="http://www.w3.org/2000/svg" width="203" height="63" fill="none" xmlns:v="https://vecta.io/nano"><g clip-path="url(#A)" fill="#3f3f3f"><path d="M140.032 43.994h-6.055v-5.832h.847v4.987h5.208v.845zm-16.175-13.566h-12.576V18.806h12.576v1.775h-10.798v8.114h10.798v1.733z"/><path d="M121.57 23.751h-10.289v1.775h10.289v-1.775zm80.921 6.761h-12.365V18.51h1.778v10.227h10.587v1.775zM146.638 18.51h-1.778v11.917h1.778V18.51zm19.944 0l-7.071 5.705-7.072-5.705h-1.609v12.002h1.779v-9.466l6.394 5.071h1.016l6.436-5.071v9.466h1.736V18.51h-1.609zm15.583 6.551h-7.833v1.648h7.833v-1.648z"/><path d="M172.384 30.512l5.843-9.72 5.886 9.72h2.032l-7.156-12.002h-1.482l-7.156 12.002h2.033zM93.158 41.373h-3.853v.803h3.853v-.803z"/><path d="M88.372 44.036l2.879-4.775 2.879 4.775h.974l-3.515-5.874h-.72l-3.515 5.874h1.016zm39.889-2.663h-3.854v.803h3.854v-.803z"/><path d="M123.476 44.036l2.879-4.775 2.837 4.775h1.016l-3.514-5.874h-.72l-3.515 5.874h1.017zM86.763 30.512h-5.547a3.67 3.67 0 0 1-3.642-3.634 3.67 3.67 0 0 1 3.642-3.634h5.547a3.67 3.67 0 0 1 3.642 3.634 3.67 3.67 0 0 1-3.642 3.634zm-5.547-5.536c-1.059 0-1.906.845-1.906 1.902s.847 1.902 1.906 1.902h5.547c1.059 0 1.905-.845 1.905-1.902s-.847-1.902-1.905-1.902h-5.547z"/><path d="M86.722 25.018h-5.505a3.26 3.26 0 0 1-3.261-3.254 3.23 3.23 0 0 1 3.261-3.254h5.505a3.26 3.26 0 0 1 3.26 3.254 3.23 3.23 0 0 1-3.26 3.254zm-5.462-4.733a1.47 1.47 0 0 0-1.482 1.479 1.5 1.5 0 0 0 1.482 1.479h5.505a1.47 1.47 0 0 0 1.482-1.479 1.5 1.5 0 0 0-1.482-1.479H81.26zm22.399 10.227h-9.74V18.51h9.74a4.11 4.11 0 0 1 4.107 4.099v3.761c0 2.282-1.821 4.142-4.107 4.142zm-7.961-1.733h7.961c1.312 0 2.371-1.056 2.371-2.367v-3.761c0-1.31-1.059-2.367-2.371-2.367h-7.961v8.494zm44.334 1.733h-9.696a3.44 3.44 0 0 1-3.43-3.423v-5.156a3.44 3.44 0 0 1 3.43-3.423h9.696v1.775h-9.696c-.932 0-1.652.761-1.652 1.648v5.198c0 .93.762 1.648 1.652 1.648h9.696v1.733zm-19.647 7.65h-6.606v.803h6.606v-.803zm-20.876.338h-.847v5.578h.847V38.5z"/><path d="M103.278 39.007c.635 0 1.143.507 1.143 1.141s-.508 1.141-1.143 1.141h-3.769v-2.282h3.769zm0-.845h-4.616v4.015h4.616a2.03 2.03 0 0 0 2.032-2.029c0-1.099-.931-1.986-2.032-1.986zm6.69 0h-.847v5.874h.847v-5.874zm7.538.126h-.847v5.705h.847v-5.705zm-33.325 5.748H79.65a1.7 1.7 0 0 1-1.694-1.69V39.81a1.7 1.7 0 0 1 1.694-1.69h4.531v.845H79.65c-.466 0-.805.38-.805.803v2.536c0 .465.381.803.805.803h4.531v.93zm-51.957-1.564L0 21.257 32.182 0l32.224 21.173-32.182 21.299zM3.388 21.257L32.224 40.19l28.794-19.017L32.182 2.24 3.388 21.257z"/><path d="M32.224 62.588L0 41.373l32.182-21.257 32.224 21.173-32.182 21.299zM3.388 41.373l28.836 18.975 28.794-19.017-28.836-18.975L3.388 41.373z"/><path d="M33.156 1.099h-1.863v60.348h1.863V1.099zm31.25 20.073h-1.863v20.116h1.863V21.172zm-62.543.085H0v20.116h1.863V21.257z"/></g><defs><clipPath id="A"><path fill="#fff" d="M0 0h202.49v62.588H0z"/></clipPath></defs></svg>