<?xml version="1.0" encoding="utf-8"?>
<!-- Generator: Adobe Illustrator 23.0.1, SVG Export Plug-In . SVG Version: 6.00 Build 0)  -->
<svg version="1.1" id="Capa_1" xmlns="http://www.w3.org/2000/svg" xmlns:xlink="http://www.w3.org/1999/xlink" x="0px" y="0px"
	 viewBox="0 0 507 135" style="enable-background:new 0 0 507 135;" xml:space="preserve">
<style type="text/css">
	.st0{fill:#EFEFEF;}
	.st1{fill:#EDEDED;}
</style>
<path class="st0" d="M99.3,97.4c-6.8-2-13.8-3-20.9-2.9c-11.6,0-23.1,2.8-33.3,8.2l6.7-11.3l5.9-10l15.9-27.2l15,25L63.8,38
	L37.2,83.3l-26.6,46h19.2c12-10.7,27.5-16.6,43.6-16.8c17.6-0.1,33.5,6.3,45,16.8L99.3,97.4z"/>
<path d="M64.3,5.1L32.1,59.5L0,114l5.3,7.3l5.3,8l26.6-46L63.8,38l24.7,41.3c-3.5-0.5-7.1-0.7-10.6-0.7c-6.9,0-13.7,1-20.3,2.8
	l-5.9,10L45,102.7c10.3-5.4,21.7-8.2,33.3-8.2c7.1,0,14.1,0.9,20.9,2.9l19.1,31.9h20.3L64.3,5.1z"/>
<path class="st1" d="M64.3,5.1l73.4,124.2l11.4-15.9L82.9,5L64.3,5.1z"/>
<path d="M240.8,89.6h-26.7l-5.4,17.4h-20.2l27.1-77.2h24.1l27,77.2H246L240.8,89.6z M236.6,75.9L231,57.4l-3.4-12.2h-0.2l-3.2,12.1
	l-5.9,18.6H236.6z M300.6,47.3c8.8,0,15.4,1.7,19.9,5s7.2,7.7,8.3,13.1l-18.5,6.1c-0.8-6.7-3.8-10.1-9-10.1
	c-7.7,0-11.6,5.5-11.6,16.5c0,10.7,3.9,16,11.6,16c5.5,0,8.8-3.2,9.7-9.5l17.9,5.7c-0.9,5.3-3.7,9.6-8.5,13
	c-4.8,3.3-11.1,4.9-19,4.9c-10.1,0-17.9-2.7-23.4-8s-8.2-12.8-8.2-22.5c0-9.6,2.7-17,8.1-22.3C283.3,50,290.9,47.3,300.6,47.3z
	 M396,95.7c1.5,0,2.7-0.2,3.6-0.5l-1.5,11.1c-2.3,1.2-4.9,1.9-8,1.9c-8.4,0-13.5-3-15.1-9c-3.5,6-10.5,9-20.8,9
	c-5.9,0-10.3-1.2-13.5-3.7s-4.7-6.1-4.7-10.9c0-5,1.8-9,5.3-12.1c3.6-3.1,9.4-5.5,17.6-7.1l13.2-2.6v-2.1c0-2.7-0.7-4.8-2.2-6.3
	s-3.5-2.3-6.1-2.3c-3,0-5.4,0.7-7.3,2.1c-1.9,1.4-3.1,3.7-3.6,6.9l-16.1-4.7c1-5.7,3.8-10.1,8.4-13.2c4.6-3.2,10.8-4.8,18.6-4.8
	c9.1,0,16.1,1.9,20.8,5.6c4.8,3.7,7.1,9.4,7.1,16.8v21.3C391.7,94.1,393.1,95.7,396,95.7z M361.4,95.3c2.7,0,5.2-0.7,7.4-2.2
	c2.2-1.6,3.3-3.6,3.3-6.1v-5l-9.5,2.2c-2.5,0.6-4.3,1.4-5.4,2.3c-1,0.9-1.5,2.1-1.5,3.7s0.5,2.9,1.5,3.7S359.6,95.3,361.4,95.3z
	 M427.1,86.8c0,2.7,0.4,4.5,1.2,5.6s2.2,1.6,4.2,1.6c1.9,0,3.9-0.4,6-1.1l-1.3,12.3c-1.4,0.9-3.2,1.6-5.5,2.1s-4.5,0.8-6.7,0.8
	c-6.2,0-10.8-1.4-13.6-4.3c-2.8-3-4.2-7.7-4.2-14.2v-66h19.9V86.8z M502.4,95.7c1.5,0,2.7-0.2,3.6-0.5l-1.5,11.1
	c-2.3,1.2-4.9,1.9-8,1.9c-8.4,0-13.5-3-15.1-9c-3.5,6-10.5,9-20.8,9c-5.8,0-10.3-1.2-13.5-3.7s-4.7-6.1-4.7-10.9c0-5,1.8-9,5.3-12.1
	c3.6-3.1,9.4-5.5,17.6-7.1l13.2-2.6v-2.1c0-2.7-0.7-4.8-2.2-6.3s-3.5-2.3-6.1-2.3c-3,0-5.4,0.7-7.3,2.1c-1.9,1.4-3.1,3.7-3.6,6.9
	l-16.1-4.7c1-5.7,3.8-10.1,8.4-13.2c4.6-3.2,10.8-4.8,18.6-4.8c9.1,0,16.1,1.9,20.8,5.6c4.8,3.7,7.1,9.4,7.1,16.8v21.3
	C498.2,94.1,499.6,95.7,502.4,95.7z M467.9,95.3c2.7,0,5.2-0.7,7.4-2.2c2.2-1.6,3.3-3.6,3.3-6.1v-5l-9.5,2.2
	c-2.5,0.6-4.3,1.4-5.4,2.3c-1,0.9-1.5,2.1-1.5,3.7s0.5,2.9,1.5,3.7C464.7,94.9,466.1,95.3,467.9,95.3z"/>
</svg>
