<?xml version="1.0" encoding="utf-8"?>
<!-- Generator: Adobe Illustrator 23.0.1, SVG Export Plug-In . SVG Version: 6.00 Build 0)  -->
<svg version="1.1" id="Capa_1" xmlns="http://www.w3.org/2000/svg" xmlns:xlink="http://www.w3.org/1999/xlink" x="0px" y="0px"
	 viewBox="0 0 388.5 141.6" style="enable-background:new 0 0 388.5 141.6;" xml:space="preserve">
<style type="text/css">
	.st0{fill:none;stroke:#000000;stroke-width:4;stroke-miterlimit:10;}
	.st1{fill:none;stroke:#000000;stroke-width:3;stroke-miterlimit:10;}
</style>
<g>
	<circle class="st0" cx="185.7" cy="50.4" r="45"/>
	<g>
		<path d="M30.5,135.6h-1.9l-2.3-5.5H17c-0.3,0.9-0.7,1.8-1.1,2.8c-0.4,1-0.8,1.9-1.1,2.7h-1.9l8.1-19.3h1.4L30.5,135.6z
			 M17.8,128.4h7.8l-3.9-9.2L17.8,128.4z"/>
		<path d="M52,134v1.6H39.2v-19.3H41V134H52z"/>
		<path d="M77.6,135.6h-1.9l-2.3-5.5h-9.3c-0.3,0.9-0.7,1.8-1.1,2.8c-0.4,1-0.8,1.9-1.1,2.7h-1.9l8.1-19.3h1.4L77.6,135.6z
			 M64.8,128.4h7.8l-3.9-9.2L64.8,128.4z"/>
		<path d="M94.4,132.2L88,120.3v15.2h-1.7v-19.2h1.5l7.2,13.3l7.4-13.2h1.4v19.2h-1.7v-15.4c-1.1,2-2.2,4-3.4,6c-1.2,2-2.3,4-3.3,6
			H94.4z"/>
		<path d="M126.1,123.9v1.7h-9.9v8.3h10.9v1.7h-12.7v-19.3h12.7v1.7h-10.9v5.9H126.1z"/>
		<path d="M141.9,116.3c1.3,0,2.4,0.3,3.5,0.8c1.1,0.5,2.1,1.2,2.9,2.1c0.8,0.9,1.5,1.9,2,3.1c0.5,1.2,0.7,2.4,0.7,3.7
			c0,1.3-0.2,2.6-0.7,3.7c-0.5,1.2-1.1,2.2-2,3.1c-0.8,0.9-1.8,1.6-2.9,2.1c-1.1,0.5-2.3,0.8-3.5,0.8h-5.2v-19.3H141.9z
			 M141.9,133.9c1,0,2-0.2,2.9-0.6c0.9-0.4,1.7-1,2.4-1.7c0.7-0.7,1.2-1.5,1.6-2.5c0.4-1,0.6-2,0.6-3.1s-0.2-2.1-0.6-3.1
			c-0.4-1-0.9-1.8-1.6-2.5c-0.7-0.7-1.5-1.3-2.4-1.7c-0.9-0.4-1.9-0.6-2.9-0.6h-3.5v15.8H141.9z"/>
		<path d="M177.1,135.6h-1.9l-2.3-5.5h-9.3c-0.3,0.9-0.7,1.8-1.1,2.8c-0.4,1-0.8,1.9-1.1,2.7h-1.9l8.1-19.3h1.4L177.1,135.6z
			 M164.3,128.4h7.8l-3.9-9.2L164.3,128.4z"/>
		<path d="M213.2,122.9c0,1.3-0.3,2.4-1,3.5c-0.7,1-1.5,1.8-2.6,2.4l4.1,6.9h-1.9l-3.8-6.3c-0.4,0.1-0.9,0.2-1.4,0.2h-4.9v6.1H200
			v-19.3h6.6c0.9,0,1.8,0.2,2.6,0.5c0.8,0.3,1.5,0.8,2.1,1.4c0.6,0.6,1.1,1.3,1.4,2.1C213,121.1,213.2,122,213.2,122.9z
			 M201.7,127.8h0.7c0.3,0,0.7,0,1,0s0.7,0,1,0h2.2c0.7,0,1.3-0.1,1.9-0.4c0.6-0.3,1.1-0.6,1.6-1.1c0.4-0.4,0.8-1,1.1-1.6
			c0.3-0.6,0.4-1.2,0.4-1.9c0-0.7-0.1-1.3-0.4-1.9c-0.3-0.6-0.6-1.1-1.1-1.5c-0.4-0.4-1-0.8-1.6-1c-0.6-0.3-1.2-0.4-1.9-0.4h-2.2
			c-0.3,0-0.7,0-1,0c-0.3,0-0.7,0-1,0h-0.7V127.8z"/>
		<path d="M235.2,123.9v1.7h-9.9v8.3h10.9v1.7h-12.7v-19.3h12.7v1.7h-10.9v5.9H235.2z"/>
		<path d="M254.3,120.7c-0.3-0.8-0.8-1.5-1.4-2.1c-0.7-0.6-1.4-0.9-2.3-0.9c-0.5,0-1,0.1-1.5,0.3c-0.5,0.2-0.9,0.5-1.3,0.8
			c-0.4,0.3-0.7,0.7-0.9,1.2c-0.2,0.5-0.3,0.9-0.3,1.4c0,1,0.3,1.8,0.9,2.4c0.6,0.6,1.5,1,2.5,1.2c0.8,0.1,1.6,0.2,2.1,0.4
			c0.6,0.2,1.1,0.4,1.4,0.6c0.4,0.2,0.7,0.4,0.9,0.7c0.2,0.2,0.4,0.4,0.5,0.5c0,0,0,0.1,0.1,0.1c0,0,0,0,0.1,0
			c0.4,0.5,0.7,1.1,0.9,1.6c0.2,0.6,0.2,1.2,0.2,1.9c0,1.6-0.6,2.9-1.7,3.8c-1.1,0.9-2.7,1.4-4.6,1.4c-0.6,0-1.1-0.1-1.7-0.3
			c-0.6-0.2-1.1-0.4-1.7-0.7c-0.5-0.3-1-0.7-1.4-1.2c-0.4-0.5-0.7-1-1-1.6l1.4-1c0.3,0.6,0.6,1.1,1,1.5c0.4,0.4,0.8,0.7,1.2,0.9
			c0.4,0.2,0.8,0.4,1.3,0.5c0.4,0.1,0.8,0.2,1.2,0.2c1.5,0,2.6-0.3,3.3-1c0.7-0.7,1.1-1.5,1.1-2.6c0-1.2-0.4-2.1-1.3-2.7
			c-0.9-0.7-2.2-1.1-3.8-1.3c-0.8-0.2-1.6-0.4-2.2-0.8c-0.6-0.4-1.1-0.8-1.4-1.3c-0.4-0.5-0.6-1-0.8-1.6c-0.2-0.6-0.2-1.1-0.2-1.7
			c0-0.8,0.2-1.5,0.5-2.2c0.3-0.7,0.7-1.2,1.3-1.7c0.5-0.5,1.2-0.8,1.9-1.1c0.7-0.3,1.5-0.4,2.2-0.4c1.1,0,2.2,0.4,3.1,1.2
			c0.9,0.7,1.6,1.7,2,2.9L254.3,120.7z"/>
		<path d="M277.8,123.9v1.7h-9.9v8.3h10.9v1.7h-12.7v-19.3h12.7v1.7h-10.9v5.9H277.8z"/>
		<path d="M304.5,135.6h-1.9l-2.3-5.5H291c-0.3,0.9-0.7,1.8-1.1,2.8s-0.8,1.9-1.1,2.7h-1.9l8.1-19.3h1.4L304.5,135.6z M291.7,128.4
			h7.8l-3.9-9.2L291.7,128.4z"/>
		<path d="M326.4,122.9c0,1.3-0.3,2.4-1,3.5c-0.7,1-1.5,1.8-2.6,2.4l4.1,6.9H325l-3.8-6.3c-0.4,0.1-0.9,0.2-1.4,0.2h-4.9v6.1h-1.7
			v-19.3h6.6c0.9,0,1.8,0.2,2.6,0.5c0.8,0.3,1.5,0.8,2.1,1.4c0.6,0.6,1.1,1.3,1.4,2.1C326.2,121.1,326.4,122,326.4,122.9z
			 M314.9,127.8h0.7c0.3,0,0.7,0,1,0c0.3,0,0.7,0,1,0h2.2c0.7,0,1.3-0.1,1.9-0.4c0.6-0.3,1.1-0.6,1.6-1.1c0.4-0.4,0.8-1,1.1-1.6
			c0.3-0.6,0.4-1.2,0.4-1.9c0-0.7-0.1-1.3-0.4-1.9c-0.3-0.6-0.6-1.1-1.1-1.5c-0.4-0.4-1-0.8-1.6-1c-0.6-0.3-1.2-0.4-1.9-0.4h-2.2
			c-0.3,0-0.7,0-1,0c-0.3,0-0.7,0-1,0h-0.7V127.8z"/>
		<path d="M345.8,134.2c1.2,0,2.3-0.2,3.3-0.7c1-0.5,2-1.2,2.9-2.1l1.2,1.2c-1,1.1-2.2,1.9-3.4,2.4c-1.3,0.6-2.6,0.8-4,0.8
			c-1.4,0-2.7-0.3-3.8-0.8c-1.2-0.5-2.2-1.2-3.1-2.1c-0.9-0.9-1.6-1.9-2.1-3.1c-0.5-1.2-0.8-2.5-0.8-3.8c0-1.4,0.3-2.6,0.8-3.8
			c0.5-1.2,1.2-2.3,2.1-3.2c0.9-0.9,1.9-1.6,3.1-2.1c1.2-0.5,2.5-0.8,3.8-0.8c1.3,0,2.6,0.3,3.9,0.9c1.3,0.6,2.4,1.4,3.5,2.5
			l-1.3,1.1c-0.9-0.8-1.8-1.5-2.8-2c-1-0.5-2.1-0.7-3.3-0.7c-1.1,0-2.2,0.2-3.2,0.6c-1,0.4-1.8,1-2.6,1.7c-0.7,0.7-1.3,1.6-1.8,2.6
			c-0.4,1-0.6,2.1-0.6,3.2c0,1.1,0.2,2.2,0.6,3.2c0.4,1,1,1.9,1.8,2.6c0.7,0.7,1.6,1.3,2.6,1.7C343.6,134,344.6,134.2,345.8,134.2z"
			/>
		<path d="M376.8,116.3v19.3h-1.7v-8.7h-10.6v8.7h-1.7v-19.3h1.7v9h10.6v-9H376.8z"/>
	</g>
	<path class="st1" d="M186.7,38.4"/>
	<path class="st1" d="M186.7,38.4"/>
	<g>
		<polygon class="st1" points="182.9,30.2 164.5,65.1 163.6,64.7 183,28.8 		"/>
		<rect x="176.4" y="65" class="st1" width="30" height="0.5"/>
		<polygon class="st1" points="187.1,30.1 206.4,65.4 207.7,65.4 187,28.7 		"/>
		<polyline points="185,29 186.5,31.3 185,23.4 183.4,31.6 		"/>
	</g>
</g>
</svg>
