<?xml version="1.0" encoding="utf-8"?>
<!-- Generator: Adobe Illustrator 23.0.1, SVG Export Plug-In . SVG Version: 6.00 Build 0)  -->
<svg version="1.1" id="brand-logo-type" xmlns="http://www.w3.org/2000/svg" xmlns:xlink="http://www.w3.org/1999/xlink" x="0px"
	 y="0px" viewBox="0 0 162.6 39.7" style="enable-background:new 0 0 162.6 39.7;" xml:space="preserve">
<style type="text/css">
	.st0{fill:#222222;}
</style>
<title>Astar Network</title>
<polygon class="st0" points="111.4,9.3 106.3,23.8 106.3,23.8 111.5,9.4 "/>
<polygon class="st0" points="19.2,9.3 14,23.8 14,23.8 19.2,9.4 "/>
<polygon class="st0" points="20.5,12.9 24.4,23.8 16.6,23.8 14.6,29.3 26.4,29.3 29.7,38.5 37.2,38.5 23.6,4.4 "/>
<polygon class="st0" points="14,23.8 19.2,9.3 19.2,9.4 21.4,3.3 15.7,3.3 1.7,38.5 8.7,38.5 14,23.8 "/>
<path class="st0" d="M59.8,20.4c-2.1-1.2-4.4-2.1-6.8-2.8c-1.3-0.4-2.6-0.9-3.8-1.5c-0.8-0.3-1.4-0.9-1.9-1.5
	c-0.4-0.6-0.6-1.3-0.5-2c-0.1-1.3,0.5-2.4,1.6-3.2c1.3-0.8,2.8-1.2,4.4-1.1c1.6,0,3.3,0.2,4.8,0.7c1.6,0.4,3.1,1.1,4.5,1.9l1-5.7
	c-1.5-0.9-3.1-1.5-4.8-1.9c-1.9-0.5-3.8-0.7-5.7-0.7c-2.3-0.1-4.6,0.4-6.7,1.2c-1.8,0.8-3.3,2-4.4,3.6c-1.1,1.6-1.6,3.5-1.6,5.5
	c0,1.6,0.3,3.2,1,4.7c0.8,1.4,2,2.6,3.4,3.4c2,1.1,4,2,6.2,2.6c1.5,0.4,2.9,0.9,4.3,1.6c0.8,0.3,1.6,0.9,2.1,1.6
	c0.4,0.6,0.6,1.4,0.6,2.2c0,1.4-0.6,2.7-1.8,3.4c-1.5,0.9-3.2,1.3-4.9,1.2c-1.9,0-3.9-0.3-5.7-0.9c-1.8-0.5-3.6-1.2-5.2-2.2
	l-0.6,5.9c1,0.7,2.1,1.2,3.2,1.5c2.8,0.9,5.7,1.4,8.7,1.4c4.2,0,7.4-0.9,9.8-2.9c2.4-1.9,3.6-4.5,3.6-7.9c0-1.6-0.4-3.2-1.2-4.7
	C62.6,22.4,61.3,21.2,59.8,20.4z"/>
<rect x="67" y="3.3" class="st0" width="29.8" height="5.7"/>
<rect x="78.4" y="11.4" class="st0" width="7.1" height="27.1"/>
<polygon class="st0" points="106.3,23.8 111.4,9.3 111.5,9.4 113.7,3.3 107.9,3.3 93.9,38.5 101,38.5 104.3,29.3 104.3,29.3 
	106.3,23.8 "/>
<polygon class="st0" points="112.8,13 116.6,23.8 108.8,23.8 106.9,29.3 118.6,29.3 122,38.5 129.4,38.5 115.8,4.4 "/>
<path class="st0" d="M152.4,24.2c1.7-0.9,3.1-2.3,4.1-3.9c1.1-1.7,1.7-3.7,1.6-5.7c0.1-2.1-0.5-4.2-1.6-6.1
	c-1.1-1.7-2.6-3.1-4.5-3.9c-2.2-1-4.6-1.4-7-1.4h-2.5v5.3h1.5c4.7,0,7,2,7,6s-2.4,6-7.2,6h-1.3V26h3.6l7.4,12.5h7.9L152.4,24.2z"/>
<rect x="133.6" y="3.3" class="st0" width="6.7" height="35.2"/>
</svg>
