<svg xmlns="http://www.w3.org/2000/svg" width="157" height="28" fill="#000" xmlns:v="https://vecta.io/nano"><path d="M0 0h3.325v9.427h.092c.185-.187.369-.467.646-.653.277-.28.554-.467.924-.653s.831-.373 1.293-.467c.462-.187 1.016-.187 1.662-.187.924 0 1.847.187 2.586.56.831.373 1.478.84 2.032 1.493s1.016 1.4 1.293 2.24.462 1.773.462 2.8-.185 1.96-.462 2.8-.739 1.587-1.293 2.24-1.293 1.12-2.124 1.493-1.755.56-2.771.56c-.924 0-1.847-.187-2.678-.56a3.98 3.98 0 0 1-1.939-1.773h.092v2.053H0V0zm11.452 14.467c0-.56-.092-1.027-.277-1.493a5.97 5.97 0 0 0-.739-1.307c-.369-.373-.739-.653-1.201-.933-.462-.187-1.016-.373-1.662-.373s-1.201.093-1.662.373a3.01 3.01 0 0 0-1.201.933c-.369.373-.646.84-.739 1.307-.277.467-.369 1.027-.369 1.493 0 .56.092 1.027.277 1.493a5.97 5.97 0 0 0 .739 1.307c.369.373.739.653 1.201.933.462.187 1.016.373 1.662.373a3.35 3.35 0 0 0 1.662-.373 3.01 3.01 0 0 0 1.201-.933c.369-.373.554-.84.739-1.307.277-.467.369-.933.369-1.493zm4.71-6.72h3.325v2.147h.092a5.13 5.13 0 0 1 1.57-1.867c.646-.373 1.385-.56 2.309-.56.185 0 .369 0 .554.093.185 0 .369.093.554.093v3.267c-.277-.093-.554-.093-.831-.187s-.554-.093-.831-.093c-.739 0-1.385.187-1.847.467a3.95 3.95 0 0 0-1.108 1.027c-.277.373-.369.747-.462 1.12s-.092.653-.092.84v7.187H16.07l.092-13.533zm12.652 7.933c.092 1.027.462 1.773 1.201 2.333.646.56 1.478.84 2.401.84.831 0 1.57-.187 2.124-.56s1.016-.747 1.478-1.307l2.401 1.867c-.739.933-1.662 1.68-2.586 2.053s-1.939.653-3.048.653c-1.016 0-1.939-.187-2.863-.467-.924-.373-1.662-.84-2.309-1.4-.646-.653-1.201-1.4-1.57-2.24s-.554-1.867-.554-2.893.185-2.053.554-2.893.924-1.587 1.57-2.24 1.385-1.12 2.309-1.4c.924-.373 1.847-.467 2.863-.467.924 0 1.755.187 2.586.467.739.373 1.385.84 1.939 1.4.554.653 1.016 1.4 1.293 2.333s.462 1.96.462 3.173v.933H28.814v-.187zm6.834-2.613a2.95 2.95 0 0 0-.923-2.24c-.554-.56-1.385-.84-2.401-.84s-1.755.28-2.401.84c-.554.56-.924 1.213-1.108 2.24h6.834zm3.232-5.32h3.694l3.694 9.333h.092l3.325-9.333h3.509l-6.28 16.427c-.277.653-.462 1.213-.831 1.68-.277.467-.647.84-1.016 1.213s-.831.56-1.385.747c-.554.093-1.201.187-1.939.187-.831 0-1.755-.093-2.586-.373l.462-3.08.831.28c.277.093.554.093.831.093.37 0 .739 0 1.016-.093s.554-.187.739-.373.369-.373.462-.653.277-.56.369-.933l.646-1.587L38.88 7.747zm17.548 7.933c.092 1.027.462 1.773 1.201 2.333.646.56 1.478.84 2.401.84.831 0 1.57-.187 2.124-.56s1.016-.747 1.478-1.307l2.401 1.867c-.739.933-1.662 1.68-2.586 2.053s-1.939.653-3.048.653c-1.016 0-1.939-.187-2.863-.467-.924-.373-1.662-.84-2.309-1.4-.646-.653-1.2-1.4-1.57-2.24s-.554-1.867-.554-2.893.185-2.053.554-2.893.924-1.587 1.57-2.24 1.385-1.12 2.309-1.4c.923-.373 1.847-.467 2.863-.467.924 0 1.755.187 2.586.467.739.373 1.385.84 1.939 1.4.554.653 1.016 1.4 1.293 2.333s.462 1.96.462 3.173v.933H56.428v-.187zm6.834-2.613a2.95 2.95 0 0 0-.924-2.24c-.554-.56-1.385-.84-2.493-.84-1.016 0-1.755.28-2.401.84-.554.56-.924 1.213-1.108 2.24h6.926zm5.079-5.32h3.325v2.147h.092a5.13 5.13 0 0 1 1.57-1.867c.646-.373 1.478-.56 2.309-.56.185 0 .369 0 .554.093.185 0 .369.093.554.093v3.267c-.277-.093-.554-.093-.831-.187s-.554-.093-.831-.093c-.739 0-1.385.187-1.847.467a3.94 3.94 0 0 0-1.108 1.027c-.277.374-.462.747-.462 1.12-.092.373-.092.653-.092.84v7.187h-3.232V7.747zm21.795 11.48A5.68 5.68 0 0 1 87.92 21c-.831.373-1.755.56-2.771.56s-2.032-.187-2.863-.56c-.924-.373-1.662-.84-2.216-1.493-.646-.653-1.108-1.4-1.478-2.24s-.554-1.867-.554-2.893.185-2.053.554-2.893.831-1.68 1.478-2.24c.647-.653 1.385-1.12 2.216-1.493.924-.373 1.847-.56 2.863-.56s1.939.187 2.771.653c.831.373 1.57 1.027 2.309 1.773l-1.385 1.027c-.554-.56-1.108-1.027-1.662-1.307-.646-.28-1.293-.467-1.939-.467a5.53 5.53 0 0 0-2.217.467c-.646.28-1.2.653-1.662 1.213-.462.467-.831 1.12-1.108 1.773s-.37 1.4-.37 2.147.092 1.493.37 2.147.646 1.307 1.108 1.773 1.016.933 1.662 1.213a5.53 5.53 0 0 0 2.217.467c.739 0 1.385-.187 2.032-.56s1.108-.84 1.57-1.4l1.293 1.12zm12.93-3.734v1.773 1.493c0 .467 0 .84.092 1.307 0 .373.093.747.093 1.213h-1.663c-.092-.653-.184-1.4-.184-2.24h-.093c-.462.933-1.108 1.493-1.847 1.96-.739.373-1.662.653-2.863.653-.554 0-1.201-.093-1.755-.187-.554-.187-1.108-.373-1.57-.747-.462-.28-.831-.747-1.108-1.213s-.462-1.12-.462-1.867c0-1.027.277-1.867.831-2.52s1.201-1.027 1.939-1.4c.739-.28 1.57-.467 2.494-.56.831-.093 1.662-.093 2.309-.093h2.032v-.933c0-1.213-.369-2.053-1.108-2.52s-1.662-.747-2.678-.747c-1.57 0-2.955.467-4.156 1.493l-1.016-1.213c.647-.653 1.478-1.12 2.401-1.4s1.847-.467 2.771-.467c1.662 0 2.955.373 3.971 1.213 1.016.747 1.478 2.053 1.478 3.733v3.267h.092zm-3.51-1.12c-.739 0-1.478.093-2.124.187-.739.093-1.293.28-1.847.467-.554.28-1.016.56-1.293.933-.369.373-.462.933-.462 1.493 0 .373.092.747.277 1.12.185.28.462.56.739.84a3.4 3.4 0 0 0 1.016.467c.37.094.739.187 1.108.187.924 0 1.662-.093 2.309-.373s1.109-.653 1.478-1.12.647-.933.739-1.493.185-1.12.185-1.68v-.933h-2.124v-.093zm6.373-6.813h1.754v2.427h.093c.277-.467.646-.84 1.016-1.213s.831-.653 1.293-.84 1.015-.373 1.477-.467c.554-.093 1.016-.187 1.57-.187 1.016 0 1.478.187 2.401.56.832.373 1.478.84 2.125 1.493s1.108 1.4 1.477 2.24.554 1.867.554 2.893-.184 2.053-.554 2.893-.831 1.68-1.477 2.24c-.647.653-1.201 1.12-2.125 1.493-.831.373-1.293.56-2.401.56-.554 0-1.016-.093-1.57-.187s-1.016-.28-1.477-.467-.924-.56-1.293-.84c-.37-.373-.739-.747-1.016-1.213h-.093V28h-1.754V7.56zm1.57 6.813a5.59 5.59 0 0 0 .461 2.147c.277.654.647 1.307 1.109 1.773s1.016.933 1.662 1.213 1.385.467 2.124.467 1.478-.187 2.124-.467 1.201-.653 1.663-1.213c.461-.467.831-1.12 1.016-1.773.277-.653.369-1.4.369-2.147s-.092-1.493-.369-2.147-.555-1.307-1.016-1.773-1.016-.933-1.663-1.213-1.293-.467-2.124-.467c-.739 0-1.477.187-2.124.467s-1.201.653-1.662 1.213c-.462.467-.831 1.12-1.109 1.773s-.461 1.4-.461 2.147zM121.352 4.2c0-.373.092-.653.369-.933s.554-.373.924-.373.646.093.923.373.369.56.369.933-.092.653-.369.933-.554.373-.923.373-.647-.093-.924-.373-.369-.56-.369-.933zm.461 3.36h1.755v13.72h-1.755V7.56zm13.022 1.587h-3.879v8.867c0 .653.185 1.12.462 1.4.37.373.831.467 1.386.467.369 0 .646 0 1.015-.093s.647-.187 1.016-.373L135.02 21l-1.108.28c-.462.093-.831.187-1.108.187-.647 0-1.201-.093-1.57-.28a3.32 3.32 0 0 1-1.109-.747c-.277-.28-.461-.653-.554-1.12s-.185-.84-.185-1.4V9.147h-2.955V7.56h2.955V3.64h1.755v3.92h3.879v1.587h-.185zm13.022 6.346v1.773 1.493c0 .467 0 .84.092 1.307 0 .373.093.747.093 1.213h-1.663c-.092-.653-.184-1.4-.184-2.24h-.093c-.462.933-1.108 1.493-1.847 1.96-.739.373-1.662.653-2.863.653-.554 0-1.2-.093-1.755-.187-.554-.187-1.108-.373-1.477-.747-.462-.28-.831-.747-1.108-1.213s-.462-1.12-.462-1.867c0-1.027.277-1.867.831-2.52s1.201-1.027 1.939-1.4c.739-.28 1.57-.467 2.494-.56.831-.093 1.662-.093 2.309-.093h2.032v-.933c0-1.213-.37-2.053-1.109-2.52s-1.662-.747-2.77-.747c-1.57 0-2.956.467-4.156 1.493l-1.016-1.213c.646-.653 1.478-1.12 2.401-1.4s1.847-.467 2.771-.467c1.662 0 2.955.373 3.971 1.213 1.016.747 1.478 2.053 1.478 3.733l.092 3.267zm-3.509-1.12c-.739 0-1.478.093-2.125.187s-1.293.28-1.847.467c-.554.28-1.016.56-1.293.933-.369.373-.461.933-.461 1.493 0 .373.092.747.277 1.12.184.28.461.56.738.84.278.187.647.373 1.016.467s.739.187 1.109.187c.923 0 1.754-.093 2.308-.373a3.67 3.67 0 0 0 1.478-1.12c.37-.467.647-.933.739-1.493s.185-1.12.185-1.68v-.933h-2.124v-.093zM150.72 0h1.755v21.28h-1.755V0z"/></svg>