<svg id="chainnews-logo" xmlns="http://www.w3.org/2000/svg" xmlns:xlink="http://www.w3.org/1999/xlink"  viewBox="0 0 277 32"><path d="M23.146 15.132h-2.337c-1.169 0-2.371 0.2-2.671 0.534-0.2-0.735-0.768-2.471-1.169-3.439 0.601-0.167 1.035-1.002 1.536-2.17 0.2-0.467 0.568-1.503 0.968-2.805h-2.671v-3.473h3.539c0.267-1.202 0.501-2.438 0.668-3.673l3.94 0.701c-0.234 1.002-0.467 1.97-0.768 2.972h6.912v3.473h-8.047c-0.601 1.636-1.269 3.239-1.87 4.641h1.97v-3.506h3.706v3.506h3.673v3.239h-3.673v3.139h4.575v3.473h-4.575v4.474h-3.706v-4.474h-6.177v-3.473h6.177zM16 7.686l-3.439 1.102c-0.334-1.837-1.169-4.675-1.937-6.778l3.272-0.968c0.801 2.104 1.703 4.808 2.104 6.645zM7.452 24.548l2.438-1.803c0.234 0.968 0.735 2.371 1.135 3.039-5.276 3.907-6.211 4.742-6.745 5.443l-0.033-0.2c-0.033 0.067-0.033 0.134-0.033 0.2-0.334-0.701-1.302-2.037-1.903-2.538 1.024-0.859 1.67-2.139 1.67-3.57 0-0.001 0-0.002 0-0.003v0-5.242h-2.972v-3.373h2.972v-3.473h-1.536v-2.271c-0.167 0.301-0.401 0.568-0.601 0.768-0.267-0.801-1.202-2.738-1.77-3.573 1.536-1.903 2.705-4.742 3.439-7.613l3.272 0.935c-0.272 0.996-0.512 1.741-0.776 2.475l0.075-0.238h4.408v3.406h-5.743c-0.501 1.002-1.002 1.903-1.569 2.771h6.511v3.339h-2.237v3.473h3.172v3.373h-3.172zM16.033 11.058v13.624c0.568 0.301 1.169 0.768 1.97 1.235 1.67 1.002 3.74 1.302 6.311 1.302 2.003 0 5.409-0.2 7.58-0.501-0.334 1.035-0.835 2.972-0.868 3.974-1.67 0.134-4.675 0.234-6.745 0.234-2.872 0-4.875-0.501-6.678-1.603-1.169-0.701-2.17-1.536-2.805-1.536-0.801 0-2.104 1.97-3.072 3.64l-2.438-3.706c1.002-1.069 2.104-2.003 3.172-2.605v-10.485h-1.937v-3.573zM35.033 31.393v-23.14h4.040v23.14zM35.634 2.376l2.872-1.97c1.569 1.369 3.439 3.306 4.307 4.708l-3.105 2.204c-0.768-1.369-2.571-3.506-4.074-4.942zM46.119 20.074v2.237c1.97-0.134 4.107-0.267 6.278-0.434v-1.803zM52.397 10.858h-6.278v1.77h6.278zM46.119 15.399v1.903h6.278v-1.903zM58.507 24.481l-2.571 0.234v3.773h-3.539v-3.506c-4.441 0.367-8.682 0.668-11.987 0.935l-0.334-3.239c0.768-0.033 1.603-0.1 2.504-0.134v-11.687h-1.803v-3.039h17.030v3.039h-1.87v10.752l2.538-0.167zM63.883 1.475v25.678c0 1.903-0.334 2.838-1.469 3.473-1.102 0.601-2.738 0.701-5.009 0.701-0.134-1.002-0.634-2.638-1.102-3.606 1.235 0.067 2.605 0.067 3.039 0.067 0.467-0.033 0.601-0.167 0.601-0.634v-22.138h-15.761v-3.539zM90.001 22.227c0.134 0 0.267 0.025 0.401 0.075s0.262 0.136 0.384 0.259l2.237 2.354c-0.979 1.28-2.207 2.246-3.681 2.897s-3.219 0.977-5.234 0.977c-1.848 0-3.503-0.314-4.967-0.943s-2.705-1.497-3.723-2.605-1.8-2.421-2.346-3.94-0.818-3.169-0.818-4.95c0-1.814 0.312-3.481 0.935-5s1.494-2.83 2.613-3.932c1.119-1.102 2.457-1.959 4.015-2.571s3.278-0.918 5.159-0.918c0.913 0 1.773 0.081 2.579 0.242s1.561 0.384 2.262 0.668 1.347 0.623 1.937 1.018 1.113 0.832 1.569 1.311l-1.903 2.554c-0.122 0.156-0.267 0.298-0.434 0.426s-0.401 0.192-0.701 0.192c-0.2 0-0.39-0.045-0.568-0.134s-0.367-0.198-0.568-0.326-0.42-0.267-0.659-0.417-0.523-0.289-0.851-0.417-0.712-0.237-1.152-0.326-0.954-0.134-1.544-0.134c-1.024 0-1.959 0.181-2.805 0.543s-1.572 0.879-2.179 1.553-1.080 1.489-1.419 2.446-0.509 2.031-0.509 3.222c0 1.247 0.17 2.354 0.509 3.322s0.801 1.784 1.386 2.446 1.266 1.166 2.045 1.511 1.614 0.518 2.504 0.518c0.512 0 0.979-0.025 1.402-0.075s0.815-0.136 1.177-0.259 0.707-0.281 1.035-0.476 0.659-0.437 0.993-0.726c0.134-0.111 0.278-0.203 0.434-0.275s0.317-0.109 0.484-0.109zM116.831 28.522h-5.677v-10.285h-9.884v10.285h-5.677v-24.326h5.677v10.168h9.884v-10.168h5.677zM143.477 28.522h-4.374c-0.49 0-0.893-0.114-1.21-0.342s-0.537-0.52-0.659-0.877l-1.436-4.241h-9.249l-1.436 4.241c-0.111 0.312-0.328 0.593-0.651 0.843s-0.718 0.376-1.185 0.376h-4.408l9.416-24.326h5.777zM127.85 19.222h6.645l-2.237-6.662-0.509-1.494c-0.132-0.346-0.329-0.966-0.51-1.593l-0.066-0.268c-0.178 0.679-0.362 1.308-0.551 1.887s-0.367 1.080-0.534 1.503zM151.624 28.522h-5.677v-24.326h5.677zM159.104 4.196c0.245 0 0.451 0.011 0.618 0.033s0.317 0.064 0.451 0.125 0.262 0.147 0.384 0.259 0.262 0.262 0.417 0.451l11.553 14.609c-0.045-0.467-0.078-0.921-0.1-1.361s-0.033-0.854-0.033-1.244v-12.872h4.975v24.326h-2.938c-0.434 0-0.801-0.067-1.102-0.2s-0.59-0.378-0.868-0.735l-11.47-14.492c0.033 0.423 0.061 0.838 0.083 1.244s0.033 0.787 0.033 1.144v13.039h-4.975v-24.326z" fill="currentColor"></path><path d="M184.57 4.196c0.245 0 0.451 0.011 0.618 0.033s0.317 0.064 0.451 0.125 0.262 0.147 0.384 0.259 0.262 0.262 0.417 0.451l11.553 14.609c-0.045-0.467-0.078-0.921-0.1-1.361s-0.033-0.854-0.033-1.244v-12.872h4.975v24.326h-2.938c-0.434 0-0.801-0.067-1.102-0.2s-0.59-0.378-0.868-0.735l-11.47-14.492c0.033 0.423 0.061 0.838 0.083 1.244s0.033 0.787 0.033 1.144v13.039h-4.975v-24.326zM222.503 4.196v4.341h-9.984v5.677h7.647v4.174h-7.647v5.793h9.984v4.341h-15.661v-24.326zM223.872 4.196h4.742c0.49 0 0.899 0.111 1.227 0.334s0.543 0.518 0.643 0.885l3.339 12.689c0.111 0.412 0.223 0.851 0.334 1.319s0.195 0.957 0.25 1.469c0.111-0.523 0.234-1.016 0.367-1.478s0.262-0.899 0.384-1.311l3.94-12.689c0.1-0.312 0.314-0.593 0.643-0.843s0.726-0.376 1.194-0.376h1.67c0.49 0 0.893 0.109 1.21 0.326s0.537 0.515 0.659 0.893l3.907 12.689c0.122 0.39 0.25 0.804 0.384 1.244s0.25 0.91 0.351 1.411c0.089-0.49 0.181-0.957 0.275-1.402s0.192-0.863 0.292-1.252l3.339-12.689c0.089-0.323 0.301-0.607 0.634-0.851s0.735-0.367 1.202-0.367h4.441l-7.513 24.326h-5.109l-4.575-15.076c-0.078-0.234-0.159-0.49-0.242-0.768s-0.164-0.573-0.242-0.885c-0.078 0.312-0.159 0.607-0.242 0.885s-0.164 0.534-0.242 0.768l-4.641 15.076h-5.109zM275.027 9.138c-0.167 0.267-0.342 0.467-0.526 0.601s-0.42 0.2-0.71 0.2c-0.256 0-0.531-0.081-0.826-0.242s-0.629-0.342-1.002-0.543-0.799-0.381-1.277-0.543-1.024-0.242-1.636-0.242c-1.057 0-1.845 0.225-2.362 0.676s-0.776 1.060-0.776 1.828c0 0.49 0.156 0.896 0.467 1.219s0.721 0.601 1.227 0.835 1.085 0.448 1.736 0.643 1.316 0.412 1.995 0.651 1.344 0.52 1.995 0.843 1.23 0.735 1.736 1.235 0.915 1.11 1.227 1.828 0.467 1.583 0.467 2.596c0 1.124-0.195 2.176-0.584 3.155s-0.954 1.834-1.695 2.563-1.653 1.302-2.738 1.72-2.318 0.626-3.698 0.626c-0.757 0-1.528-0.078-2.312-0.234s-1.544-0.376-2.279-0.659-1.425-0.621-2.070-1.010-1.208-0.824-1.686-1.302l1.67-2.638c0.122-0.2 0.295-0.362 0.518-0.484s0.462-0.184 0.718-0.184c0.334 0 0.671 0.106 1.010 0.317s0.723 0.445 1.152 0.701 0.921 0.49 1.478 0.701 1.213 0.317 1.97 0.317c1.024 0 1.82-0.225 2.387-0.676s0.851-1.166 0.851-2.145c0-0.568-0.156-1.030-0.467-1.386s-0.721-0.651-1.227-0.885-1.082-0.44-1.728-0.618-1.308-0.376-1.987-0.593-1.341-0.484-1.987-0.801-1.222-0.735-1.728-1.252-0.915-1.163-1.227-1.937-0.467-1.728-0.467-2.863c0-0.913 0.184-1.803 0.551-2.671s0.907-1.642 1.619-2.321 1.586-1.222 2.621-1.628 2.221-0.609 3.556-0.609c0.746 0 1.472 0.058 2.179 0.175s1.377 0.289 2.012 0.518 1.227 0.501 1.778 0.818 1.043 0.676 1.478 1.077z" fill="currentColor" opacity=".5"></path></svg>