<?xml version="1.0" encoding="utf-8"?>
<!-- Generator: Adobe Illustrator 23.0.1, SVG Export Plug-In . SVG Version: 6.00 Build 0)  -->
<svg version="1.1" id="Capa_1" xmlns="http://www.w3.org/2000/svg" xmlns:xlink="http://www.w3.org/1999/xlink" x="0px" y="0px"
	 viewBox="0 0 411.6 72.3" style="enable-background:new 0 0 411.6 72.3;" xml:space="preserve">
<style type="text/css">
	.st0{display:none;opacity:5.206377e-05;}
	.st1{display:inline;}
	.st2{fill:#62D0FF;}
	.st3{fill-opacity:0;stroke:#FFFFFF;stroke-width:2;stroke-linecap:round;stroke-linejoin:round;}
	.st4{fill-opacity:0;stroke:#000000;stroke-width:2;stroke-linecap:round;stroke-linejoin:round;}
</style>
<g>
	<g transform="matrix(1.4500000476837158,0,0,1.4500000476837158,578.0073852539062,512)" class="st0">
		<g transform="matrix(1,0,0,1,0,0)" class="st1">
			<path class="st2" d="M-356.3-494c38.7,0,70,31.3,70,70s-31.3,70-70,70s-70-31.3-70-70S-394.9-494-356.3-494z"/>
		</g>
	</g>
	<g transform="matrix(1.4500000476837158,0,0,1.4500000476837158,578,512)">
		<g transform="matrix(1,0,0,1,0,0)">
			<path class="st3" d="M-357.7-328.1"/>
		</g>
	</g>
	<g transform="matrix(1.4500000476837158,0,0,1.4500000476837158,578,512)">
		<g transform="matrix(1,0,0,1,0,0)">
			<path class="st3" d="M-357.7-328.1"/>
		</g>
	</g>
	<g transform="matrix(1.4500000476837158,0,0,1.4500000476837158,578,512)">
		<g transform="matrix(1,0,0,1,0,0)">
			<path class="st3" d="M-357.7-328.1"/>
		</g>
	</g>
	<g transform="matrix(1.4500000476837158,0,0,1.4500000476837158,578,512)">
		<g transform="matrix(1,0,0,1,0,0)">
			<path class="st3" d="M-357.7-328.1"/>
		</g>
	</g>
	<g transform="matrix(1.4500000476837158,0,0,1.4500000476837158,578,512)">
		<g transform="matrix(1,0,0,1,0,0)">
			<path d="M-324.5-314.4c-7.9-8.9-13.5-19.8-16.2-31.7c-2.6,11.8-8.2,22.7-16.2,31.6l-4,4.4c12.9-5.2,27.3-5.3,40.2,0L-324.5-314.4
				z"/>
		</g>
	</g>
	<g transform="matrix(1.4500000476837158,0,0,1.4500000476837158,578,512)">
		<g transform="matrix(1,0,0,1,0,0)">
		</g>
		<g transform="matrix(1,0,0,1,0,0)">
			<path d="M-394.7-346.1h18.3h0c4.5,0,8.9,1.9,12.1,5.3c3.2,3.4,5,8,5,12.7s-1.8,9.4-5,12.7c-3.2,3.4-7.6,5.3-12.1,5.3h-18.3
				C-383.6-319.3-383.6-336.9-394.7-346.1z"/>
		</g>
	</g>
	<g transform="matrix(1.4500000476837158,0,0,1.4500000476837158,578,512)">
		<g transform="matrix(1,0,0,1,0,0)">
			<path class="st4" d="M-357.7-328.1"/>
		</g>
	</g>
	<g transform="matrix(1.4500000476837158,0,0,1.4500000476837158,578,512)">
		<g transform="matrix(1,0,0,1,0,0)">
			<path class="st4" d="M-357.7-328.1"/>
		</g>
	</g>
	<g transform="matrix(1.4500000476837158,0,0,1.4500000476837158,578,512)">
		<g transform="matrix(1,0,0,1,0,0)">
			<path class="st4" d="M-357.7-328.1"/>
		</g>
	</g>
	<g transform="matrix(1,0,0,1,720,512)">
		<g transform="matrix(1,0,0,1,0,0)">
			<path d="M-348.7-471.2l3.3,2.4l-0.2,0.2c-1.1,1.6-2.5,2.8-4.2,3.6c-1.7,0.9-3.6,1.3-5.7,1.3c-3.5,0-6.4-1.1-8.7-3.4h0
				c-2.3-2.3-3.4-5.2-3.4-8.6c0-3.5,1.1-6.4,3.4-8.6c2.3-2.3,5.2-3.4,8.7-3.4c2.1,0,4.1,0.4,5.8,1.3c1.8,0.9,3.1,2.2,4.1,3.8
				l0.1,0.2l-3.4,2.1l-0.1-0.2c-0.7-1-1.6-1.9-2.7-2.4c-1.1-0.6-2.4-0.9-3.8-0.9c-2.3,0-4.2,0.8-5.7,2.3c-1.5,1.5-2.2,3.4-2.2,5.8
				c0,2.4,0.8,4.4,2.2,5.9c1.5,1.5,3.4,2.2,5.6,2.2c1.4,0,2.6-0.3,3.8-0.9c1.1-0.6,2-1.4,2.7-2.4L-348.7-471.2z"/>
		</g>
		<g transform="matrix(1,0,0,1,0,0)">
			<path d="M-553.4-483.6v5.9h13.8v3.8h-13.8v6h13.8v3.8h-17.9v-23.3h17.9v3.8H-553.4z"/>
		</g>
		<g transform="matrix(1,0,0,1,0,0)">
			<path d="M-530.2-483.6v6h13.5v3.8h-13.5v9.7h-4.1v-23.3h17.6v3.8H-530.2z"/>
		</g>
		<g transform="matrix(1,0,0,1,0,0)">
			<path d="M-337.2-483.6v5.9h13.8v3.8h-13.8v6h13.8v3.8h-17.9v-23.3h17.9v3.8H-337.2z"/>
		</g>
		<g transform="matrix(1,0,0,1,0,0)">
			<path d="M-565.3-484.2c-2.2-2.1-5.2-3.2-8.8-3.2h-9.5v23.3h9.5c3.7,0,6.6-1.1,8.8-3.2c2.2-2.1,3.4-5,3.4-8.4
				C-562-479.2-563.1-482.1-565.3-484.2z M-574.2-468h-5.3v-15.6h5.3c2.6,0,4.5,0.7,5.9,2.1c1.4,1.4,2.1,3.3,2.1,5.7
				c0,2.4-0.7,4.2-2.1,5.6C-569.7-468.7-571.6-468-574.2-468z"/>
		</g>
		<g transform="matrix(1,0,0,1,0,0)">
			<path d="M-429.8-468v3.9h-17.5v-23.3h4.1v19.4H-429.8z"/>
		</g>
		<g transform="matrix(1,0,0,1,0,0)">
			<path d="M-463.7-468h13.5v3.9h-17.6v-23.3h4.1V-468z"/>
		</g>
		<g transform="matrix(1,0,0,1,0,0)">
			<path d="M-371.9-487.4v23.3h-3.7l-13.4-16.4v16.4h-4.1v-23.3h3.7L-376-471v-16.4H-371.9z"/>
		</g>
		<g transform="matrix(1,0,0,1,0,0)">
			<path d="M-422.8-487.4v23.3h-4.1v-23.3H-422.8z"/>
		</g>
		<g transform="matrix(1,0,0,1,0,0)">
			<path d="M-405.6-487.4h-4.6l-10,23.3h4.3l2.4-5.8h11.1l2.4,5.8h4.4L-405.6-487.4z M-412-473.7l3.9-9.4l3.9,9.4H-412z"/>
		</g>
		<g transform="matrix(1,0,0,1,0,0)">
			<path d="M-508.1-487.4v23.3h-4.1v-23.3H-508.1z"/>
		</g>
		<g transform="matrix(1,0,0,1,0,0)">
			<path d="M-480.3-487.4h-4.6l-10,23.3h4.3l2.5-5.8h11l2.4,5.8h4.4L-480.3-487.4z M-486.6-473.7l3.9-9.4l3.9,9.4H-486.6z"/>
		</g>
	</g>
</g>
</svg>
