<?xml version="1.0" encoding="utf-8"?>
<!-- Generator: Adobe Illustrator 23.0.1, SVG Export Plug-In . SVG Version: 6.00 Build 0)  -->
<svg version="1.1" id="Capa_1" xmlns="http://www.w3.org/2000/svg" xmlns:xlink="http://www.w3.org/1999/xlink" x="0px" y="0px"
	 viewBox="0 0 233 44.7" style="enable-background:new 0 0 233 44.7;" xml:space="preserve">
<style type="text/css">
	.st0{fill-rule:evenodd;clip-rule:evenodd;fill:#222222;}
</style>
<path class="st0" d="M45.5,13.7c0.4,0,0.5,0.2,0.5,0.5v8.1h15.2v-8c0-0.4,0.2-0.5,0.5-0.5h2.6c0.4,0,0.6,0.2,0.6,0.5v19.6
	c0,0.4-0.2,0.5-0.6,0.5h-2.6c-0.4,0-0.5-0.2-0.5-0.5v-8.3H46v8.3c0,0.4-0.2,0.5-0.5,0.5h-2.6c-0.4,0-0.5-0.2-0.5-0.5V14.3
	c0-0.4,0.2-0.5,0.5-0.5h2.6V13.7z"/>
<path class="st0" d="M76.5,27.1h11.8l-5.5-9.7c-0.1-0.2-0.2-0.2-0.4-0.2h-0.2c-0.1,0-0.2,0-0.4,0.2L76.5,27.1z M83,13.7
	c1.3,0,2,0.4,2.8,1.9l10.3,18.2c0.2,0.4,0.1,0.6-0.3,0.6h-3c-0.3,0-0.4-0.1-0.6-0.3l-2.3-4.2h-15L72.6,34c-0.1,0.2-0.3,0.3-0.6,0.3
	h-3c-0.4,0-0.5-0.2-0.3-0.6l10.2-18.1c0.8-1.5,1.6-1.9,2.6-1.9H83z"/>
<path class="st0" d="M101.8,13.7c0.4,0,0.5,0.2,0.5,0.5v12c0,3.6,1.1,4.7,4.6,4.7h11.9c0.4,0,0.6,0.2,0.6,0.5v2.4
	c0,0.4-0.2,0.5-0.6,0.5h-12.1c-5.9,0-8.2-2.1-8.2-7.8V14.3c0-0.4,0.2-0.5,0.5-0.5h2.8V13.7z"/>
<path class="st0" d="M127.1,25.2v5.5c0,0.3,0.1,0.4,0.4,0.4h13c1.9,0,2.7-0.7,2.7-2.3v-1.3c0-1.5-0.7-2.3-3.3-2.3
	C139.9,25.2,127.1,25.2,127.1,25.2z M127.1,22.6h12.8c2.6,0,3.2-0.8,3.2-2.2v-1.1c0-1.5-0.8-2.2-2.7-2.2h-12.9
	c-0.2,0-0.4,0.1-0.4,0.4C127.1,17.5,127.1,22.6,127.1,22.6z M141.1,13.7c4,0,5.5,1.6,5.5,4.8V20c0,1.7-0.7,3-2.1,3.8
	c1.5,0.8,2.2,2.1,2.2,3.9v1.8c0,3.1-1.4,5-5.2,5h-17.2c-0.6,0-0.9-0.3-0.9-0.9v-19c0-0.6,0.3-0.9,0.9-0.9H141.1z"/>
<path class="st0" d="M154.4,26.3c0,3.6,1.1,4.7,4.6,4.7h8.7c3.5,0,4.6-1.1,4.6-4.7v-4.5c0-3.6-1.1-4.7-4.6-4.7H159
	c-3.5,0-4.6,1.1-4.6,4.7V26.3z M167.9,13.7c5.9,0,8.2,2.1,8.2,7.8v5.1c0,5.7-2.2,7.8-8.2,7.8h-9c-5.9,0-8.2-2.1-8.2-7.8v-5.1
	c0-5.7,2.2-7.8,8.2-7.8C158.9,13.7,167.9,13.7,167.9,13.7z"/>
<path class="st0" d="M184.1,24.7h12.2c2.4,0,3.3-1.1,3.3-3.2v-1.3c0-2.1-0.9-3.2-3.3-3.2h-11.8c-0.2,0-0.4,0.1-0.4,0.4V24.7z
	 M197,13.7c4.4,0,6.2,2.1,6.2,6v1.6c0,3.4-1.4,5.4-4.6,5.9l5.3,6.5c0.2,0.2,0.1,0.6-0.3,0.6h-3.1c-0.4,0-0.6-0.1-0.7-0.3l-5-6.4
	h-10.7v6.2c0,0.4-0.2,0.5-0.5,0.5H181c-0.4,0-0.5-0.2-0.5-0.5V14.6c0-0.6,0.3-0.9,0.9-0.9H197z"/>
<path class="st0" d="M212.6,13.7c1.6,0,1.9,0.3,2.9,1.4l12.8,15.5c0.1,0.1,0.2,0.2,0.4,0.2h0.3c0.2,0,0.3-0.1,0.3-0.3V14.3
	c0-0.4,0.1-0.5,0.5-0.5h2.5c0.4,0,0.5,0.2,0.5,0.5v17.5c0,2-0.7,2.6-2.3,2.6h-2.1c-1.5,0-1.9-0.3-2.9-1.4l-12.8-15.6
	c-0.1-0.1-0.2-0.2-0.4-0.2H212c-0.2,0-0.2,0.1-0.2,0.3v16.3c0,0.4-0.2,0.5-0.6,0.5h-2.5c-0.4,0-0.5-0.2-0.5-0.5V16.3
	c0-2,0.7-2.6,2.2-2.6C210.4,13.7,212.6,13.7,212.6,13.7z"/>
<path class="st0" d="M4.9,38H0.7c-0.4,0-0.7-0.4-0.5-0.8l13.5-27c0.1-0.1,0.3-0.2,0.5-0.2h4.2c0.4,0,0.7,0.4,0.5,0.8l-13.5,27
	C5.2,37.9,5.1,38,4.9,38z"/>
<path class="st0" d="M17.8,38h-4.3c-0.3,0-0.6-0.4-0.4-0.7l13.6-27c0-0.2,0.2-0.3,0.3-0.3h4.3c0.3,0,0.6,0.4,0.4,0.7L18.2,37.8
	C18.1,38,18,38,17.8,38z"/>
</svg>
