<svg xmlns="http://www.w3.org/2000/svg" width="161" height="33" fill="none" xmlns:v="https://vecta.io/nano"><g fill="#000"><path d="M49.337 13.012a2.18 2.18 0 0 1-1.539-.635c-.408-.407-.637-.958-.637-1.533s.229-1.127.637-1.533a2.18 2.18 0 0 1 1.539-.635 2.16 2.16 0 0 1 .854.138c.272.103.521.26.73.461a2.15 2.15 0 0 1 .489.71 2.14 2.14 0 0 1 .17.845 2.18 2.18 0 0 1-.173.846 2.19 2.19 0 0 1-.489.714 2.2 2.2 0 0 1-1.582.622zm101.518 13.401c-2.654 0-4.692-2.472-4.692-5.632a6.42 6.42 0 0 1 .446-2.522 6.43 6.43 0 0 1 1.398-2.148 6.46 6.46 0 0 1 2.129-1.434 6.47 6.47 0 0 1 2.522-.493 5.79 5.79 0 0 1 2.307.513l.088.04v-2.581c0-1.2-.144-1.28-.761-1.426l-.187-.045-.801-.234 5.474-1.772v14.574c0 1.306.174 1.634.972 1.862l.486.122-.146.343-5.032.827v-2.456l-.112.141c-1.159 1.458-2.683 2.32-4.091 2.32zm1.976-11.533c-1.8 0-2.67 1.575-2.67 4.818 0 2.841 1.055 4.605 2.75 4.605a2.17 2.17 0 0 0 1.48-.604 2.15 2.15 0 0 0 .657-1.452v-5.151c.002-1.673-1.493-2.216-2.217-2.216zM46.127 26.022l.059-.332.852-.133c.161-.012.311-.084.42-.202a.63.63 0 0 0 .167-.434v-7.138c0-1.349-.62-1.689-1.159-1.836l-.32-.08 5.197-1.684v10.722c-.005.154.047.305.145.424a.64.64 0 0 0 .389.225l.892.138.059.333-6.7-.003zm57.964 6.335l.058-.333.852-.133a.63.63 0 0 0 .588-.636V17.889c0-.907-.409-1.689-.972-1.862l-.534-.136 5.226-1.716v2.466l.112-.141c1.151-1.455 2.571-2.325 3.979-2.325 2.651.008 4.473 2.727 4.473 5.885 0 4.211-3.232 6.348-6.409 6.348a4.94 4.94 0 0 1-2.094-.399l-.088-.04v5.278c-.002.161.058.317.168.435s.261.19.422.201l.849.133.059.333-6.689.008zm7.33-16.13a2.23 2.23 0 0 0-1.474.636c-.395.387-.631.907-.662 1.458v5.342c.003.534.213 1.045.587 1.427s.883.605 1.418.621c1.22 0 2.783-.976 2.783-5.116-.008-2.841-.956-4.368-2.652-4.368z"/><path d="M76.657 24.923v-6.46a2.03 2.03 0 0 0-.166-.785c-.107-.248-.263-.473-.458-.661a2.04 2.04 0 0 0-.679-.433 2.05 2.05 0 0 0-.794-.138 2 2 0 0 0-1.363.582 1.99 1.99 0 0 0-.586 1.357v6.523a.63.63 0 0 0 .15.414.64.64 0 0 0 .384.217l.892.138.059.333h-6.468l.059-.333.66-.138c.149-.024.284-.1.382-.214a.63.63 0 0 0 .152-.409V11.998a1.48 1.48 0 0 0-.256-.835c-.167-.247-.406-.437-.684-.546l-.582-.229 5.29-1.716v7.896l.115-.173c.016-.021 1.509-2.213 4.153-2.213.913.022 1.784.387 2.438 1.022.612.636.98 1.756.98 2.99l.027 6.731a.63.63 0 0 0 .15.414c.098.116.234.193.384.217l.892.138.059.333h-6.454l.059-.333.66-.138c.149-.024.284-.1.382-.214a.63.63 0 0 0 .152-.409M31.973 9.777a.63.63 0 0 0-.167-.434c-.109-.118-.259-.19-.42-.202l-.852-.133-.059-.333h7.349l-.064.333-.852.133c-.161.012-.311.084-.42.202a.63.63 0 0 0-.167.434V24.75c0 .705.927.599.927.599 2.649 0 4.291-.99 6.067-4.845l.291-.633h.831l-.742 6.151h-13.22l.059-.333.852-.133c.161-.012.311-.084.42-.202a.63.63 0 0 0 .167-.434V9.777zm55.991 16.636a3.41 3.41 0 0 1-2.379-1.008c-.629-.635-.98-1.492-.978-2.384v-6.829h-2.622l1.629-1.596h.553a.44.44 0 0 0 .169-.034c.053-.022.102-.055.143-.096a.44.44 0 0 0 .127-.312v-1.418l3.471-1.147v3.012h3.333l-1.525 1.596h-1.797v6.409c0 1.642 1.178 2.237 1.971 2.237.339-.003.672-.084.975-.237l.045-.019.328.38c-.948.843-1.904 1.445-3.442 1.445zm35.96-7.338l7.143.109c.027-.221.032-.926.021-1.173-.08-1.799-1.335-3.828-4.617-3.828-3.709 0-6.508 2.706-6.508 6.385 0 3.349 2.433 5.853 5.662 5.853 2.59 0 4.409-1.149 5.418-3.483l-.267-.229c-.323.504-.771.916-1.3 1.198a3.51 3.51 0 0 1-1.723.409c-2.313 0-3.824-1.862-3.851-4.759a4.08 4.08 0 0 1 .022-.482zm0-.889c.181-2.243.958-3.262 2.181-3.262a1.21 1.21 0 0 1 .487.091 1.22 1.22 0 0 1 .411.277c.507.514.753 1.33.729 2.873v.061l-3.811.027.003-.067z"/><path d="M136.886 19.075l7.143.109c.027-.221.032-.926.022-1.173-.08-1.799-1.335-3.828-4.617-3.828-3.71 0-6.508 2.706-6.508 6.385 0 3.349 2.433 5.853 5.661 5.853 2.59 0 4.409-1.149 5.418-3.483l-.267-.229a3.49 3.49 0 0 1-1.304 1.211 3.51 3.51 0 0 1-1.735.412c-2.312 0-3.824-1.862-3.85-4.76.002-.166.014-.332.037-.498zm0-.889c.182-2.243.959-3.262 2.182-3.262a1.22 1.22 0 0 1 .487.091c.154.063.294.157.41.277.507.514.753 1.33.729 2.873v.061l-3.811.027.003-.067zm-37.947.527c-1.578-.604-2.766-1.064-2.766-2.227 0-1.064.745-1.684 1.819-1.684.529 0 1.047.146 1.498.42l1.998 2.889.683-.027-.133-3.903-1.287.418c-.886-.272-1.808-.413-2.735-.418-2.839 0-4.732 1.492-4.732 3.823 0 2.147 1.629 2.961 3.629 3.725 1.471.577 2.841.99 2.841 2.469 0 .843-.801 1.668-2.104 1.668-1.367 0-2.078-.681-2.969-1.99l-.732-1.516-.702.17-.248 3.073a14 14 0 0 0 4.58.809c3.523 0 5.128-1.862 5.128-3.903-.006-2.304-1.953-3.062-3.766-3.796zM62.472 23.8h-4.179a1.01 1.01 0 0 1-.656-.309c-.173-.18-.272-.418-.279-.668a.99.99 0 0 1 .064-.389c.047-.124.119-.237.211-.333s.202-.173.324-.225a1 1 0 0 1 .387-.082 1.16 1.16 0 0 1 .171 0 6.49 6.49 0 0 0 1.204.104c3.172 0 5.322-1.647 5.322-3.969 0-.692-.115-1.195-.507-1.634l1.455-1.33-.353-1.024-2.489 1.022c-1.002-.517-2.116-.783-3.244-.774-3.092 0-5.191 1.979-5.191 4.068 0 1.801 1.023 2.796 2.518 3.318v.027c-1.546.444-2.961 1.49-2.961 2.9 0 1.253 1.258 2.376 2.807 2.559-1.573.601-3.119 1.306-3.119 2.69 0 1.751 1.677 2.613 5.074 2.613 4.326 0 7.394-2.394 7.394-5.198.005-2.096-1.618-3.363-3.952-3.363zm-3.811-8.141a1.37 1.37 0 0 1 1.215-.734c.985 0 1.602.838 1.602 3.222s-.462 3.192-1.602 3.192c-.964 0-1.519-.95-1.519-3.222-.003-1.112.059-1.942.304-2.458zm.716 15.803c-1.65 0-2.62-.968-2.62-2.378 0-1.064 1.164-1.993 2.222-1.993h2.232c1.869.13 2.753.532 2.753 1.862 0 1.482-2.462 2.509-4.574 2.509h-.013z"/></g><path d="M17.414 17.349H8.708V8.676L0 0v8.676 8.673 8.676h8.708 8.706 8.708l-8.708-8.676z" fill="#ed6d5b"/></svg>