<?xml version="1.0" encoding="utf-8"?>
<!-- Generator: Adobe Illustrator 23.0.1, SVG Export Plug-In . SVG Version: 6.00 Build 0)  -->
<svg version="1.1" id="Capa_1" xmlns:v="https://vecta.io/nano"
	 xmlns="http://www.w3.org/2000/svg" xmlns:xlink="http://www.w3.org/1999/xlink" x="0px" y="0px" viewBox="0 0 161 33"
	 style="enable-background:new 0 0 161 33;" xml:space="preserve">
<style type="text/css">
	.st0{fill:#222222;}
</style>
<g>
	<path d="M49.3,13c-0.6,0-1.1-0.2-1.5-0.6c-0.4-0.4-0.6-1-0.6-1.5s0.2-1.1,0.6-1.5c0.4-0.4,1-0.6,1.5-0.6c0.3,0,0.6,0,0.9,0.1
		c0.3,0.1,0.5,0.3,0.7,0.5c0.2,0.2,0.4,0.4,0.5,0.7c0.1,0.3,0.2,0.6,0.2,0.8c0,0.3-0.1,0.6-0.2,0.8c-0.1,0.3-0.3,0.5-0.5,0.7
		C50.5,12.8,49.9,13,49.3,13L49.3,13z M150.9,26.4c-2.7,0-4.7-2.5-4.7-5.6c0-0.9,0.1-1.7,0.4-2.5c0.3-0.8,0.8-1.5,1.4-2.1
		c0.6-0.6,1.3-1.1,2.1-1.4c0.8-0.3,1.7-0.5,2.5-0.5c0.8,0,1.6,0.2,2.3,0.5l0.1,0v-2.6c0-1.2-0.1-1.3-0.8-1.4l-0.2,0l-0.8-0.2
		l5.5-1.8v14.6c0,1.3,0.2,1.6,1,1.9l0.5,0.1l-0.1,0.3l-5,0.8V24l-0.1,0.1C153.8,25.6,152.3,26.4,150.9,26.4L150.9,26.4z M152.8,14.9
		c-1.8,0-2.7,1.6-2.7,4.8c0,2.8,1.1,4.6,2.8,4.6c0.6,0,1.1-0.2,1.5-0.6c0.4-0.4,0.6-0.9,0.7-1.5v-5.2
		C155,15.4,153.6,14.9,152.8,14.9z M46.1,26l0.1-0.3l0.9-0.1c0.2,0,0.3-0.1,0.4-0.2c0.1-0.1,0.2-0.3,0.2-0.4v-7.1
		c0-1.3-0.6-1.7-1.2-1.8l-0.3-0.1l5.2-1.7v10.7c0,0.2,0,0.3,0.1,0.4c0.1,0.1,0.2,0.2,0.4,0.2l0.9,0.1l0.1,0.3L46.1,26L46.1,26z
		 M104.1,32.4l0.1-0.3l0.9-0.1c0.3,0,0.6-0.3,0.6-0.6V17.9c0-0.9-0.4-1.7-1-1.9l-0.5-0.1l5.2-1.7v2.5l0.1-0.1c1.2-1.5,2.6-2.3,4-2.3
		c2.7,0,4.5,2.7,4.5,5.9c0,4.2-3.2,6.3-6.4,6.3c-0.7,0-1.4-0.1-2.1-0.4l-0.1,0v5.3c0,0.2,0.1,0.3,0.2,0.4s0.3,0.2,0.4,0.2l0.8,0.1
		l0.1,0.3L104.1,32.4L104.1,32.4z M111.4,16.2c-0.6,0-1.1,0.2-1.5,0.6c-0.4,0.4-0.6,0.9-0.7,1.5v5.3c0,0.5,0.2,1,0.6,1.4
		s0.9,0.6,1.4,0.6c1.2,0,2.8-1,2.8-5.1C114.1,17.8,113.1,16.2,111.4,16.2z"/>
	<path d="M76.7,24.9v-6.5c0-0.3-0.1-0.5-0.2-0.8c-0.1-0.2-0.3-0.5-0.5-0.7c-0.2-0.2-0.4-0.3-0.7-0.4c-0.3-0.1-0.5-0.1-0.8-0.1
		c-0.5,0-1,0.2-1.4,0.6c-0.4,0.4-0.6,0.8-0.6,1.4v6.5c0,0.2,0.1,0.3,0.2,0.4c0.1,0.1,0.2,0.2,0.4,0.2l0.9,0.1l0.1,0.3h-6.5l0.1-0.3
		l0.7-0.1c0.1,0,0.3-0.1,0.4-0.2c0.1-0.1,0.2-0.3,0.2-0.4V12c0-0.3-0.1-0.6-0.3-0.8c-0.2-0.2-0.4-0.4-0.7-0.5l-0.6-0.2l5.3-1.7v7.9
		l0.1-0.2c0,0,1.5-2.2,4.2-2.2c0.9,0,1.8,0.4,2.4,1c0.6,0.6,1,1.8,1,3l0,6.7c0,0.2,0.1,0.3,0.2,0.4c0.1,0.1,0.2,0.2,0.4,0.2l0.9,0.1
		l0.1,0.3h-6.5l0.1-0.3l0.7-0.1c0.1,0,0.3-0.1,0.4-0.2C76.6,25.2,76.6,25.1,76.7,24.9 M32,9.8c0-0.2-0.1-0.3-0.2-0.4
		c-0.1-0.1-0.3-0.2-0.4-0.2L30.5,9l-0.1-0.3h7.3L37.8,9l-0.9,0.1c-0.2,0-0.3,0.1-0.4,0.2c-0.1,0.1-0.2,0.3-0.2,0.4v15
		c0,0.7,0.9,0.6,0.9,0.6c2.6,0,4.3-1,6.1-4.8l0.3-0.6h0.8L43.7,26H30.5l0.1-0.3l0.9-0.1c0.2,0,0.3-0.1,0.4-0.2
		c0.1-0.1,0.2-0.3,0.2-0.4C32,24.9,32,9.8,32,9.8z M88,26.4c-0.9,0-1.7-0.4-2.4-1c-0.6-0.6-1-1.5-1-2.4v-6.8H82l1.6-1.6h0.6
		c0.1,0,0.1,0,0.2,0c0.1,0,0.1-0.1,0.1-0.1c0.1-0.1,0.1-0.2,0.1-0.3v-1.4l3.5-1.1v3h3.3l-1.5,1.6h-1.8v6.4c0,1.6,1.2,2.2,2,2.2
		c0.3,0,0.7-0.1,1-0.2l0,0l0.3,0.4C90.5,25.8,89.5,26.4,88,26.4L88,26.4z M123.9,19.1l7.1,0.1c0-0.2,0-0.9,0-1.2
		c-0.1-1.8-1.3-3.8-4.6-3.8c-3.7,0-6.5,2.7-6.5,6.4c0,3.3,2.4,5.9,5.7,5.9c2.6,0,4.4-1.1,5.4-3.5l-0.3-0.2c-0.3,0.5-0.8,0.9-1.3,1.2
		c-0.5,0.3-1.1,0.4-1.7,0.4c-2.3,0-3.8-1.9-3.9-4.8C123.9,19.4,123.9,19.2,123.9,19.1z M123.9,18.2c0.2-2.2,1-3.3,2.2-3.3
		c0.2,0,0.3,0,0.5,0.1c0.2,0.1,0.3,0.2,0.4,0.3c0.5,0.5,0.8,1.3,0.7,2.9v0.1L123.9,18.2C123.9,18.3,123.9,18.2,123.9,18.2z"/>
	<path d="M136.9,19.1l7.1,0.1c0-0.2,0-0.9,0-1.2c-0.1-1.8-1.3-3.8-4.6-3.8c-3.7,0-6.5,2.7-6.5,6.4c0,3.3,2.4,5.9,5.7,5.9
		c2.6,0,4.4-1.1,5.4-3.5l-0.3-0.2c-0.3,0.5-0.8,0.9-1.3,1.2c-0.5,0.3-1.1,0.4-1.7,0.4c-2.3,0-3.8-1.9-3.9-4.8
		C136.9,19.4,136.9,19.2,136.9,19.1L136.9,19.1z M136.9,18.2c0.2-2.2,1-3.3,2.2-3.3c0.2,0,0.3,0,0.5,0.1c0.2,0.1,0.3,0.2,0.4,0.3
		c0.5,0.5,0.8,1.3,0.7,2.9v0.1L136.9,18.2L136.9,18.2L136.9,18.2z M98.9,18.7c-1.6-0.6-2.8-1.1-2.8-2.2c0-1.1,0.7-1.7,1.8-1.7
		c0.5,0,1,0.1,1.5,0.4l2,2.9l0.7,0l-0.1-3.9l-1.3,0.4c-0.9-0.3-1.8-0.4-2.7-0.4c-2.8,0-4.7,1.5-4.7,3.8c0,2.1,1.6,3,3.6,3.7
		c1.5,0.6,2.8,1,2.8,2.5c0,0.8-0.8,1.7-2.1,1.7c-1.4,0-2.1-0.7-3-2l-0.7-1.5l-0.7,0.2L93,25.6c1.5,0.5,3,0.8,4.6,0.8
		c3.5,0,5.1-1.9,5.1-3.9C102.7,20.2,100.8,19.4,98.9,18.7L98.9,18.7z M62.5,23.8h-4.2c-0.2,0-0.5-0.1-0.7-0.3
		c-0.2-0.2-0.3-0.4-0.3-0.7c0-0.1,0-0.3,0.1-0.4c0-0.1,0.1-0.2,0.2-0.3s0.2-0.2,0.3-0.2c0.1-0.1,0.3-0.1,0.4-0.1c0.1,0,0.1,0,0.2,0
		c0.4,0.1,0.8,0.1,1.2,0.1c3.2,0,5.3-1.6,5.3-4c0-0.7-0.1-1.2-0.5-1.6L66,15l-0.4-1l-2.5,1c-1-0.5-2.1-0.8-3.2-0.8
		c-3.1,0-5.2,2-5.2,4.1c0,1.8,1,2.8,2.5,3.3v0c-1.5,0.4-3,1.5-3,2.9c0,1.3,1.3,2.4,2.8,2.6c-1.6,0.6-3.1,1.3-3.1,2.7
		c0,1.8,1.7,2.6,5.1,2.6c4.3,0,7.4-2.4,7.4-5.2C66.4,25.1,64.8,23.8,62.5,23.8L62.5,23.8z M58.7,15.7c0.2-0.5,0.7-0.7,1.2-0.7
		c1,0,1.6,0.8,1.6,3.2s-0.5,3.2-1.6,3.2c-1,0-1.5-1-1.5-3.2C58.4,17,58.4,16.2,58.7,15.7z M59.4,31.5c-1.7,0-2.6-1-2.6-2.4
		c0-1.1,1.2-2,2.2-2h2.2c1.9,0.1,2.8,0.5,2.8,1.9C64,30.4,61.5,31.5,59.4,31.5C59.4,31.5,59.4,31.5,59.4,31.5z"/>
</g>
<path class="st0" d="M17.4,17.3H8.7V8.7L0,0v8.7v8.7V26h8.7h8.7h8.7C26.1,26,17.4,17.3,17.4,17.3z"/>
</svg>
