<svg xmlns="http://www.w3.org/2000/svg" width="212" height="16" fill="none" xmlns:v="https://vecta.io/nano"><g clip-path="url(#A)" fill="#0e1429"><path d="M37.285 0l-8.36 15.814h2.716l1.834-3.565h10.829l1.834 3.565h2.716L40.495 0h-3.21zm-2.61 10.025l4.233-7.978.071.141 4.127 7.837h-8.431zM63.459 0v15.814h2.469V2.612l.141.141 12.134 13.061h3.21V0h-2.504v13.237l-.141-.141L66.598 0h-3.139zm40.107 4.907h-4.974v2.224h4.974v8.684h2.504V7.131h4.974V4.907h-4.974V2.224h7.619V0H95.946v2.224h7.62v2.683zm27.161 4.13h9.348V6.813h-9.348V2.224h14.074V0h-16.543v15.814h16.543V13.59h-14.074V9.037zM203.286 0h-3.245l-8.36 15.814h2.716l1.834-3.565h10.829l.036.035 1.799 3.53h2.716L203.286 0zm-5.82 10.025l4.233-7.978.07.141 4.127 7.837h-8.43zM12.946 0H0v15.814h2.504V9.707h10.441a4.88 4.88 0 0 0 4.868-4.871C17.778 2.189 15.627 0 12.946 0zm0 7.484H2.504v-5.26h10.441c1.446 0 2.61 1.165 2.61 2.612 0 1.483-1.164 2.647-2.61 2.647zM173.55 9.637a4.88 4.88 0 0 0 4.021-4.801c0-2.683-2.187-4.836-4.868-4.836h-12.946v15.814h2.505V9.707h8.183l.036.035 4.303 6.072h2.893l-4.198-6.177h.071zm-11.253-2.153v-5.26h10.441c1.447 0 2.611 1.165 2.611 2.612s-1.164 2.647-2.611 2.647h-10.441z"/></g><defs><clipPath id="A"><path fill="#fff" d="M0 0h211.611v15.814H0z"/></clipPath></defs></svg>