<?xml version="1.0" encoding="utf-8"?>
<!-- Generator: Adobe Illustrator 23.0.1, SVG Export Plug-In . SVG Version: 6.00 Build 0)  -->
<svg version="1.1" id="Capa_1" xmlns:v="https://vecta.io/nano"
	 xmlns="http://www.w3.org/2000/svg" xmlns:xlink="http://www.w3.org/1999/xlink" x="0px" y="0px" viewBox="0 0 143 29"
	 style="enable-background:new 0 0 143 29;" xml:space="preserve">
<style type="text/css">
	.st0{opacity:0.75;fill:#222222;}
	.st1{fill:#222222;}
	.st2{fill-rule:evenodd;clip-rule:evenodd;fill:#FFFFFF;}
</style>
<path class="st0" d="M13.4,11.3c1-0.5,2.2-0.5,3.3,0L33.8,19c1,0.4,1.5,1.6,1,2.5c-0.2,0.5-0.6,0.9-1,1.1l-11.1,5
	c-1,0.5-2.2,0.5-3.3,0L2.2,19.9c-1-0.4-1.5-1.6-1.1-2.5c0.2-0.5,0.6-0.9,1.1-1.1C2.2,16.3,13.4,11.3,13.4,11.3z"/>
<path class="st1" d="M13.4,1.3c1-0.5,2.2-0.5,3.3,0L33.9,9c1,0.4,1.5,1.6,1,2.6c-0.2,0.5-0.6,0.9-1,1.1l-11.1,5
	c-1,0.5-2.2,0.5-3.3,0L2.2,10c-1-0.4-1.5-1.6-1-2.6c0.2-0.5,0.6-0.9,1-1C2.2,6.4,13.4,1.3,13.4,1.3z"/>
<path class="st2" d="M17.1,0.4l17.2,7.7c2.3,1.1,2.3,4.4,0,5.4l-11.1,5c-1.3,0.6-2.8,0.6-4.1,0L1.8,10.9c-2.4-1-2.4-4.4,0-5.4
	L13,0.4C14.3-0.1,15.8-0.1,17.1,0.4z M16.7,1.3c-1-0.5-2.2-0.5-3.3,0L2.2,6.4C1.2,6.8,0.7,8,1.2,9c0.2,0.5,0.6,0.9,1,1l17.4,7.7
	c1,0.5,2.2,0.5,3.3,0l11.1-5c1-0.4,1.5-1.6,1-2.6c-0.2-0.5-0.6-0.9-1-1.1L16.7,1.3z"/>
<path class="st1" d="M46,24.7V5.5h7.2c1.5,0,2.8,0.3,3.8,0.8s1.8,1.2,2.3,2.1s0.7,1.9,0.7,3s-0.2,2-0.7,2.9s-1.2,1.6-2.2,2.1
	s-2.3,0.8-3.9,0.8h-3.6v7.4H46V24.7z M49.5,14.4h3.4c1.2,0,2.1-0.3,2.7-0.8s0.8-1.3,0.8-2.2s-0.3-1.7-0.8-2.2s-1.4-0.8-2.7-0.8h-3.4
	V14.4z M67.1,25c-1.2,0-2.1-0.2-2.9-0.5c-0.8-0.4-1.3-0.9-1.7-1.5s-0.6-1.3-0.6-2c0-1.3,0.5-2.3,1.5-3.1c1-0.8,2.5-1.2,4.5-1.2h3.5
	v-0.3c0-0.9-0.3-1.6-0.8-2c-0.6-0.5-1.3-0.7-2-0.7c-0.7,0-1.3,0.2-1.9,0.5c-0.5,0.3-0.9,0.8-1,1.5h-3.5c0.1-1,0.4-1.8,1-2.6
	c0.6-0.7,1.3-1.3,2.3-1.7c0.9-0.4,2-0.6,3.1-0.6c2,0,3.5,0.5,4.6,1.4c1.1,1,1.7,2.3,1.7,4.1v8.3h-3l-0.3-2.2c-0.4,0.7-1,1.3-1.7,1.8
	C69.2,24.8,68.3,25,67.1,25L67.1,25z M67.9,22.3c1,0,1.8-0.3,2.4-1s0.9-1.5,1.1-2.4h-3c-0.9,0-1.6,0.2-2,0.5s-0.6,0.7-0.6,1.2
	s0.2,0.9,0.6,1.2C66.7,22.1,67.3,22.3,67.9,22.3z M78.9,24.7V11.1h3.2l0.3,2.5c0.5-0.9,1.2-1.6,2-2.1c0.9-0.5,1.9-0.8,3-0.8v3.7h-1
	c-0.8,0-1.5,0.1-2.1,0.4c-0.6,0.2-1.1,0.6-1.4,1.2s-0.5,1.4-0.5,2.4v6.2h-3.5V24.7z M95.2,25c-1.2,0-2.1-0.2-2.9-0.5
	c-0.8-0.4-1.3-0.9-1.7-1.5S90,21.7,90,21c0-1.3,0.5-2.3,1.5-3.1s2.5-1.2,4.5-1.2h3.5v-0.3c0-0.9-0.3-1.6-0.8-2
	c-0.6-0.5-1.3-0.7-2-0.7c-0.7,0-1.3,0.2-1.9,0.5c-0.5,0.3-0.9,0.8-1,1.5h-3.5c0.1-1,0.4-1.8,1-2.6c0.6-0.7,1.3-1.3,2.3-1.7
	c0.9-0.4,2-0.6,3.1-0.6c2,0,3.5,0.5,4.6,1.4c1.1,1,1.7,2.3,1.7,4.1v8.3h-3l-0.3-2.2c-0.4,0.7-1,1.3-1.7,1.8
	C97.2,24.8,96.3,25,95.2,25z M96,22.3c1,0,1.8-0.3,2.4-1s0.9-1.5,1.1-2.4h-3c-0.9,0-1.6,0.2-2,0.5s-0.6,0.7-0.6,1.2s0.2,0.9,0.6,1.2
	C94.8,22.1,95.3,22.3,96,22.3z M107,24.7V5h3.5v19.7C110.5,24.7,107,24.7,107,24.7z M114.7,24.7V5h3.5v19.7
	C118.2,24.7,114.7,24.7,114.7,24.7z M129,25c-1.4,0-2.6-0.3-3.7-0.9s-1.9-1.4-2.5-2.5s-0.9-2.3-0.9-3.7s0.3-2.7,0.9-3.7
	c0.6-1.1,1.4-1.9,2.5-2.5s2.3-0.9,3.8-0.9c1.3,0,2.5,0.3,3.6,0.9c1,0.6,1.8,1.4,2.4,2.4s0.9,2.1,0.9,3.4v0.6v0.7h-10.4
	c0.1,1.1,0.4,1.9,1.1,2.5s1.5,0.9,2.5,0.9c0.7,0,1.3-0.2,1.8-0.5s0.9-0.7,1.1-1.3h3.6c-0.3,0.9-0.7,1.6-1.3,2.3s-1.3,1.2-2.2,1.6
	C131.2,24.8,130.1,25,129,25L129,25z M129.1,13.6c-0.9,0-1.6,0.2-2.3,0.7s-1.1,1.2-1.3,2.2h6.8c-0.1-0.9-0.4-1.6-1-2.1
	S130,13.6,129.1,13.6z M139.5,24.7V5h3.5v19.7C143,24.7,139.5,24.7,139.5,24.7z"/>
</svg>
