<svg xmlns="http://www.w3.org/2000/svg" viewBox="0 0 143 29" xmlns:v="https://vecta.io/nano"><linearGradient id="A" gradientUnits="userSpaceOnUse" x1="35.006" y1="19.461" x2=".992" y2="19.461"><stop offset="0" stop-color="#ef18ac"/><stop offset="1" stop-color="#fad972"/></linearGradient><path d="M13.4 11.3c1-.5 2.2-.5 3.3 0L33.8 19a1.95 1.95 0 0 1 0 3.6l-11.1 5c-1 .5-2.2.5-3.3 0L2.2 19.9a1.95 1.95 0 0 1 0-3.6l11.2-5z" fill="url(#A)"/><path d="M17.1 10.4l17.2 7.7c2.3 1.1 2.3 4.4 0 5.4l-11.1 5c-1.3.6-2.8.6-4.1 0L1.8 20.9c-2.4-1-2.4-4.4 0-5.4L13 10.4c1.3-.6 2.8-.6 4.1 0zm-.4.9c-1-.5-2.2-.5-3.3 0l-11.2 5a1.95 1.95 0 0 0 0 3.6l17.4 7.7c1 .5 2.2.5 3.3 0l11.1-5a1.95 1.95 0 0 0 0-3.6l-17.3-7.7z" fill-rule="evenodd" fill="#fff"/><linearGradient id="B" gradientUnits="userSpaceOnUse" x1="35.007" y1="9.539" x2=".993" y2="9.539"><stop offset="0" stop-color="#5314f1"/><stop offset="1" stop-color="#04e2ff"/></linearGradient><path d="M13.4 1.3c1-.5 2.2-.5 3.3 0L33.9 9a1.95 1.95 0 0 1 0 3.6l-11.1 5c-1 .5-2.2.5-3.3 0L2.2 10a1.95 1.95 0 0 1 0-3.6l11.2-5.1z" fill="url(#B)"/><path d="M17.1.4l17.2 7.7c2.3 1.1 2.3 4.4 0 5.4l-11.1 5c-1.3.6-2.8.6-4.1 0L1.8 10.9c-2.4-1-2.4-4.4 0-5.4L13 .4a5.79 5.79 0 0 1 4.1 0zm-.4.9c-1-.5-2.2-.5-3.3 0L2.2 6.4a1.95 1.95 0 0 0 0 3.6l17.4 7.7c1 .5 2.2.5 3.3 0l11.1-5a1.95 1.95 0 0 0 0-3.6L16.7 1.3z" fill-rule="evenodd" fill="#fff"/><path fill="#222" d="M46 24.7V5.5h7.2c1.5 0 2.8.3 3.8.8s1.8 1.2 2.3 2.1.7 1.9.7 3-.2 2-.7 2.9-1.2 1.6-2.2 2.1-2.3.8-3.9.8h-3.6v7.4H46zm3.5-10.3h3.4c1.2 0 2.1-.3 2.7-.8s.8-1.3.8-2.2-.3-1.7-.8-2.2-1.4-.8-2.7-.8h-3.4v6zM67.1 25c-1.2 0-2.1-.2-2.9-.5-.8-.4-1.3-.9-1.7-1.5s-.6-1.3-.6-2c0-1.3.5-2.3 1.5-3.1s2.5-1.2 4.5-1.2h3.5v-.3c0-.9-.3-1.6-.8-2a3.22 3.22 0 0 0-2-.7c-.7 0-1.3.2-1.9.5-.5.3-.9.8-1 1.5h-3.5c.1-1 .4-1.8 1-2.6.6-.7 1.3-1.3 2.3-1.7.9-.4 2-.6 3.1-.6 2 0 3.5.5 4.6 1.4 1.1 1 1.7 2.3 1.7 4.1v8.3h-3l-.3-2.2c-.4.7-1 1.3-1.7 1.8-.7.6-1.6.8-2.8.8zm.8-2.7c1 0 1.8-.3 2.4-1s.9-1.5 1.1-2.4h-3c-.9 0-1.6.2-2 .5s-.6.7-.6 1.2.2.9.6 1.2c.3.3.9.5 1.5.5zm11 2.4V11.1h3.2l.3 2.5c.5-.9 1.2-1.6 2-2.1.9-.5 1.9-.8 3-.8v3.7h-1c-.8 0-1.5.1-2.1.4-.6.2-1.1.6-1.4 1.2s-.5 1.4-.5 2.4v6.2h-3.5zm16.3.3c-1.2 0-2.1-.2-2.9-.5-.8-.4-1.3-.9-1.7-1.5s-.6-1.3-.6-2c0-1.3.5-2.3 1.5-3.1s2.5-1.2 4.5-1.2h3.5v-.3c0-.9-.3-1.6-.8-2a3.22 3.22 0 0 0-2-.7c-.7 0-1.3.2-1.9.5-.5.3-.9.8-1 1.5h-3.5c.1-1 .4-1.8 1-2.6.6-.7 1.3-1.3 2.3-1.7.9-.4 2-.6 3.1-.6 2 0 3.5.5 4.6 1.4 1.1 1 1.7 2.3 1.7 4.1v8.3h-3l-.3-2.2c-.4.7-1 1.3-1.7 1.8-.8.6-1.7.8-2.8.8zm.8-2.7c1 0 1.8-.3 2.4-1s.9-1.5 1.1-2.4h-3c-.9 0-1.6.2-2 .5s-.6.7-.6 1.2.2.9.6 1.2c.3.3.8.5 1.5.5zm11 2.4V5h3.5v19.7H107zm7.7 0V5h3.5v19.7h-3.5zm14.3.3c-1.4 0-2.6-.3-3.7-.9s-1.9-1.4-2.5-2.5-.9-2.3-.9-3.7.3-2.7.9-3.7c.6-1.1 1.4-1.9 2.5-2.5s2.3-.9 3.8-.9c1.3 0 2.5.3 3.6.9 1 .6 1.8 1.4 2.4 2.4s.9 2.1.9 3.4v.6.7h-10.4c.1 1.1.4 1.9 1.1 2.5s1.5.9 2.5.9c.7 0 1.3-.2 1.8-.5s.9-.7 1.1-1.3h3.6c-.3.9-.7 1.6-1.3 2.3s-1.3 1.2-2.2 1.6a7.41 7.41 0 0 1-3.2.7zm.1-11.4c-.9 0-1.6.2-2.3.7s-1.1 1.2-1.3 2.2h6.8c-.1-.9-.4-1.6-1-2.1s-1.3-.8-2.2-.8zm10.4 11.1V5h3.5v19.7h-3.5z"/></svg>