<svg xmlns="http://www.w3.org/2000/svg" viewBox="0 0 652 257" xmlns:v="https://vecta.io/nano"><path d="M49.8 115.3h9.1v4.3H26v-4.3h9.1v-2.4-54.2c0-1.8-.6-2.4-2.4-2.4H26v-4.9h1.8 33.5c4.3 0 8.5.6 12.2 1.8 7.9 3 12.8 10.3 12.2 18.9-.6 8.5-6.1 14.6-14.6 16.4-6.1 1.2-12.2 1.2-17.6 1.2-3 0-4.3.6-4.3 3v19.5c.6.7.6 1.9.6 3.1zm-.6-59.6v29.2c4.3 0 8.5.6 12.8 0 5.5-.6 7.3-3 7.9-8.5V64.2c-.6-4.3-3-6.7-7.3-7.3s-8.5-.6-13.4-1.2zM160 174.9c1.2-1.2 3-3 5.5-4.9.6-.6 1.8-1.2 2.4-.6.6 0 1.2 1.8 1.2 2.4v21.9c0 1.2 0 2.4-2.4 2.4-1.8 0-3 0-3.7-2.4-.6-3-1.2-6.7-3-9.7-3-6.7-7.9-11-15.8-10.3-7.9 0-14.6 3-18.9 11-1.2 1.8-1.8 4.3-2.4 6.7-1.2 9.7-1.8 19.5.6 29.2 2.4 10.3 11.6 16.4 22.5 15.2 9.1-1.2 16.4-8.5 17-18.9 0-1.8 1.2-2.4 3-2.4s1.8 1.2 1.8 3c-.6 10.3-8.5 19.5-18.9 22.5-11 2.4-28-.6-36.5-14.6-5.5-9.1-6.7-18.9-4.3-29.2 4.3-21.9 26.2-29.2 40.2-25.6 4.4.6 8 2.5 11.7 4.3zM397.9 53.2v4.3h-6.7c-1.8 0-2.4.6-2.4 2.4v20.7c0 1.2 0 2.4 1.8 2.4h21.9V57.4h-9.1v-4.3H435v4.3h-6.7c-1.8 0-2.4.6-2.4 2.4v53.6c0 1.8.6 2.4 2.4 1.8h4.9c1.8 0 1.8 1.2 1.8 2.4 0 1.8-.6 1.8-1.8 1.8H404h-.6c-1.2-4.3-.6-4.3 3-4.3h4.3.6v-1.8-23.1c0-1.8-.6-3-3-2.4h-18.9c-1.8 0-2.4.6-2.4 2.4v23.1c0 1.8.6 2.4 2.4 2.4h3c3.7 0 3.7 0 3.7 4.3h-31.6v-4.3h6.7c1.8 0 2.4-.6 2.4-2.4V59.7c0-1.8-.6-2.4-2.4-2.4h-6.7V53l33.4.2zm-300 32.9c.6-11 3-20.1 11.6-28 12.8-11.6 42-10.3 49.3 14.6 3 10.3 3 20.7-1.8 30.4-5.5 12.2-18.3 18.9-32.3 17-13.4-1.8-23.1-11-25.6-24.3-.6-3-1.2-6.1-1.2-9.7zm15.2-.6c0 3.7 0 7.3.6 11 .6 6.7 2.4 12.2 7.3 17 4.9 4.9 12.8 4.9 17 0 2.4-3 4.9-6.7 6.1-10.3 2.4-8.5 2.4-17 1.2-25.6-.6-4.3-1.2-8.5-3-12.2-2.4-5.5-6.7-9.1-13.4-9.1-6.1 0-10.3 3.7-12.8 9.1-3.6 5.5-3 12.8-3 20.1zm443-28v-4.3h4.3 15.2c2.4 0 4.3.6 5.5 3l29.2 40.2c0-.6 0 0 1.2.6 0-1.2.6-1.8.6-2.4V61.1c0-2.4-.6-3.7-3-3.7-1.8 0-3.6 0-6.1-.6v-4.3h23.1v4.3c-2.4 0-3.6.6-5.5.6-2.4 0-3.7 1.2-3.7 4.3v54.8c0 1.2-.6 3-1.8 3s-2.4-.6-3.7-1.2c-.6 0-.6-.6-.6-1.2l-33.5-45.6c-1.8-3-4.3-5.5-6.7-9.1v3V111c0 3 .6 4.3 3.6 4.3h1.8c3.6 0 3.6 0 3.6 4.3h-23.1c-1.2-3.7-1.2-4.3 3-4.3 5.5-.6 5.5-.6 5.5-6.1V60.5c0-2.4-.6-3.7-3-3h-5.9zm-278.7 177h7.3c1.8 0 1.8 1.2 1.8 2.4s0 2.4-1.8 2.4h-28.6c-1.8 0-1.8-.6-1.8-2.4 0-1.2 0-2.4 1.8-2.4h7.3v-3-51.1c0-2.4-.6-3.7-3-3.7h-3.7c-1.8 0-2.4-.6-2.4-2.4s.6-2.4 2.4-2.4h34.7c7.3 0 14.6 2.4 18.3 9.1 6.7 11 .6 24.3-12.2 26.8-5.5 1.2-11.6 1.2-17 1.2-2.4 0-3 .6-3 3l-.1 22.5zm-.6-43.8v12.2c0 1.2 0 2.4 1.8 2.4 3.7 0 7.3 0 11-.6 4.9-.6 7.3-3 7.3-7.9V184c-.6-4.9-2.4-7.3-7.3-7.9-3.7-.6-6.7 0-10.3-.6-1.8 0-2.4.6-2.4 2.4l-.1 12.8zm107.1-13.4c-3.7.6-7.9.6-11 1.8-3 .6-4.9 3-5.5 6.1-.6 2.4-1.2 5.5-1.2 7.9-.6 3.7-.6 3.7-4.9 3v-4.9c.6-5.5 1.2-11 1.2-16.4 0-1.2 0-2.4 1.8-2.4h54.2s.6 0 1.2.6l1.8 22.5c-4.3 1.2-4.3 1.2-4.9-3-.6-1.8-1.2-3.7-1.2-6.1-1.2-5.5-4.9-8.5-10.3-8.5h-6.7v56.6h12.8v4.3h-39.6v-4.3h12.8c-.5-18.8-.5-37.7-.5-57.2zm125.4-57.7h-29.8c-1.2-4.3-.6-4.3 3-4.3h4.3c-1.8-4.3-3-8.5-4.3-12.2 0-.6-1.2-.6-1.8-.6h-18.3c-.6 0-1.8.6-1.8 1.2l-3.7 11c1.8 0 3 .6 4.3.6 3.7 0 3.7 1.2 3 4.3h-21.3c-.6-4.3-.6-4.3 3-4.3 3.7 0 5.5-1.2 6.7-4.9 6.1-18.3 12.8-36.5 19.5-55.4.6-1.8 1.2-3.7 3.7-3.7 2.4 0 3.7 1.2 4.3 3.7l15.2 43.8c1.8 4.9 3.7 9.7 4.9 14.6.6 1.8 1.8 2.4 3.7 2.4h1.8c4.2-.5 4.2-.5 3.6 3.8zm-28-22.6c-3-8.5-6.1-16.4-8.5-25h-.6c-3 7.9-5.5 16.4-8.5 24.3 5.4.7 10.9.7 17.6.7zM216.6 234.5h7.9c-1.8-4.3-3-8.5-4.3-12.2 0-.6-1.2-1.2-1.8-1.2h-18.3c-.6 0-1.8.6-2.4 1.2-1.2 3.7-2.4 6.7-3.7 11 2.4.6 4.9.6 7.3 1.2v4.3H180c-1.2-4.3-1.2-4.3 3-4.3 4.9 0 4.9 0 6.7-4.9l19.5-55.4c.6-1.8 1.2-3.7 4.3-3.7 3 0 3.7 1.8 4.3 3.7l20.1 57.2c.6 2.4 1.8 3 4.3 3h3c1.8 0 1.8 1.2 1.8 2.4s-.6 2.4-1.8 2.4H219c-3.7-.4-1.8-2.8-2.4-4.7zm-16.5-18.2h18.3c-3-8.5-6.1-16.4-8.5-25h-.6l-9.2 25zm256.8 22.5v-4.3h7.9c-1.8-4.3-3-7.9-4.3-12.2 0-.6-1.2-1.2-2.4-1.2h-17.6c-.6 0-1.8.6-2.4 1.8-1.2 3-2.4 6.7-3.7 11 2.4.6 4.9.6 7.3 1.2v4.3h-21.3c-1.2-3.7-1.2-4.3 3-4.3 4.9 0 4.9 0 6.7-4.9l19.5-54.8c.6-1.8 1.2-3.7 4.3-3.7 3 0 3.7 1.8 4.3 3.7l20.1 57.2c.6 1.8 1.8 3 3.7 2.4h2.4c1.8 0 3 0 3 2.4s-1.2 2.4-3 2.4h-25c-.6-1-1.2-1-2.5-1zm-6.6-46.9h-.6c-3 7.9-5.5 16.4-8.5 24.3h18.3c-3.8-8.4-6.8-16.3-9.2-24.3zM259.1 86.1l15.8-28c-2.4-.6-4.3-.6-6.7-1.2v-4.3h21.3v3.7l-.6.6c-6.1-.6-9.1 2.4-11.6 7.3-4.3 9.1-9.7 17.6-14.6 26.2-.6 1.2-1.2 2.4-1.2 3.7v18.3c0 1.8.6 2.4 2.4 2.4h3c3.7 0 3.7 0 3 4.3h-31v-4.3h6.7c1.2 0 2.4-.6 2.4-1.8V94.1c0-1.2-.6-1.8-1.2-3-6.1-11-12.2-21.3-18.3-31.6-1.2-1.2-3-1.8-4.3-1.8-1.8-.6-3.7 0-5.5 0v-4.3h30.4v4.3c-2.4 0-4.3 0-7.3.6 6.4 8.9 11.3 18.1 17.3 27.8zm97.4-21.3v10.3c0 1.8 0 3-2.4 3-1.8 0-3-.6-3-2.4-.6-6.1-3-12.2-8.5-15.8-9.1-7.3-24.3-2.4-28.6 9.1-1.2 4.9-1.8 10.3-1.8 15.2 0 6.1.6 12.8 2.4 18.9 2.4 9.1 11.6 14 21.3 13.4 9.1-1.2 15.8-8.5 16.4-17.6 0-1.8.6-3 3-3s1.8 1.8 1.8 3c-.6 9.7-7.9 18.3-18.3 21.3-14 3.7-30.4-3-37.7-15.8-7.3-13.4-7.3-38.3 12.8-48.7 10.3-5.5 21.9-6.7 32.3.6.6.6 1.8 0 2.4 0 1.2-1.2 2.4-2.4 4.3-3.7.6 0 1.8-1.2 2.4-.6.6 0 1.2 1.8 1.2 2.4v10.4zm189.3 147.8c-1.2 8.5-1.8 16.4-3 25 0 .6-1.8 1.2-3 1.2h-36.5-5.5c-3.7 0-3.7 0-3-4.3h8.5v-3-51.7c0-2.4-.6-3.7-3-3h-2.4c-4.3 0-4.3 0-3-4.3h33.5c1.2 4.3.6 4.3-3 4.3h-7.9V234c11 2.4 19.5-2.4 21.9-12.8.6-1.8.6-3.7 1.2-5.5.9-3.7.9-4.3 5.2-3.1zm-325-119.2c-1.2 8.5-1.8 17.6-3 26.2h-48.1v-4.3h6.7c1.8 0 2.4-.6 2.4-2.4V58.7v-1.2h-8.5v-4.3H205v4.3h-11.6v3 51.7c0 2.4.6 3 3 3 12.2 0 17.6-4.9 20.1-17 0-.6.6-1.2.6-1.8-1.2-3.6.7-3.6 3.7-3zm99.8 83.3v-4.3h32.9v4.3h-7.3c-1.2 0-2.4.6-2.4 1.8v54.8c0 .6 0 .6.6 1.2h9.1v4.3h-32.9v-4.3h7.3c1.8 0 1.8-.6 1.8-1.8v-53.6c0-1.8-.6-2.4-2.4-2.4h-6.7zm196-119.2v-4.3h3 26.2c3.6-.6 3.6-.6 3.6 4.3h-4.9-4.9v3 51.7c0 3 .6 3.7 3.7 3h2.4c3.6 0 3.6 0 3.6 4.3h-32.9c-.6-4.3-.6-4.3 3.7-4.3 6.1 0 6.1 0 6.1-6.1V60.4c0-2.4-.6-3.7-3-3-2.4.1-4.8.1-6.6.1z"/></svg>