<?xml version="1.0" encoding="utf-8"?>
<!-- Generator: Adobe Illustrator 23.0.1, SVG Export Plug-In . SVG Version: 6.00 Build 0)  -->
<svg version="1.1" id="Layer_1" xmlns="http://www.w3.org/2000/svg" xmlns:xlink="http://www.w3.org/1999/xlink" x="0px" y="0px"
	 viewBox="0 0 665 205" style="enable-background:new 0 0 665 205;" xml:space="preserve">
<g>
	<path d="M98.6,64V49.4c0-5.3-3.2-10-8.1-12.1L0,0v8.1l80.7,33.3c2.8,1.1,2.8,5.1,0,6.2L0,80.9v32.5l48.6-20.1l32,13.2
		c2.8,1.1,2.8,5.1,0,6.2L0,146v51.5l90.5-37.3c4.9-2,8.1-6.8,8.1-12.1v-33.5c0-5.3-3.2-10-8.1-12.1L58.4,89.3l32.1-13.2
		C95.4,74.1,98.6,69.3,98.6,64z"/>
	<g>
		<g>
			<path d="M168.1,18.5v2.1c0.9-1.6,2.4-2.3,4.4-2.3c1.6,0,3,0.6,4.1,1.9c1.1,1.3,1.7,3,1.7,5.1c0,2.1-0.6,3.9-1.7,5.1
				c-1.1,1.3-2.5,1.9-4.1,1.9c-2,0-3.5-0.8-4.4-2.4v6.4h-2.3V18.5H168.1z M171.9,30.4c1.2,0,2.1-0.4,2.8-1.3c0.7-0.9,1-2.1,1-3.7
				s-0.3-2.8-1-3.7c-0.7-0.9-1.6-1.3-2.8-1.3c-1.1,0-2,0.4-2.8,1.3c-0.8,0.9-1.1,2.1-1.1,3.8s0.4,2.9,1.1,3.8
				C169.9,30,170.8,30.4,171.9,30.4z"/>
			<path d="M187.6,20.9c-0.6-0.1-1.1-0.1-1.3-0.1c-1.1,0-1.9,0.3-2.4,1c-0.5,0.7-0.8,1.7-0.8,3.2v7h-2.3V18.5h2.2v2.4
				c0.7-1.6,2-2.4,3.8-2.4c0.3,0,0.5,0,0.7,0V20.9z"/>
			<path d="M199.6,20.1c1.3,1.2,1.9,2.9,1.9,5.2s-0.6,4-1.9,5.2c-1.3,1.2-2.8,1.8-4.5,1.8s-3.2-0.6-4.5-1.8
				c-1.3-1.2-1.9-2.9-1.9-5.2s0.6-4,1.9-5.2c1.3-1.2,2.8-1.8,4.5-1.8S198.3,18.9,199.6,20.1z M195.1,30.3c1.1,0,2.1-0.4,2.9-1.3
				c0.8-0.9,1.2-2.1,1.2-3.7c0-1.7-0.4-2.9-1.2-3.8c-0.8-0.8-1.7-1.3-2.9-1.3c-1.1,0-2.1,0.4-2.9,1.2c-0.8,0.8-1.1,2.1-1.1,3.8
				c0,1.7,0.4,2.9,1.2,3.8C193,29.9,194,30.3,195.1,30.3z"/>
			<path d="M204.3,18.5h2.3v14.1c0,1.4-0.2,2.4-0.6,2.9s-1.3,0.8-2.5,0.8h-1.1v-1.9h0.6c0.6,0,1-0.1,1.1-0.3
				c0.2-0.2,0.3-0.7,0.3-1.4V18.5z M206.5,13.9v2.8h-2.3v-2.8H206.5z"/>
			<path d="M211.7,26c0,1.4,0.5,2.4,1.3,3.2c0.8,0.8,1.8,1.1,2.9,1.1c1.8,0,3-0.7,3.7-2.2h2.4c-0.3,1.2-1,2.2-2.1,3
				c-1.1,0.8-2.4,1.2-3.9,1.2c-2.1,0-3.7-0.7-4.9-2c-1.2-1.3-1.8-3-1.8-5c0-2.1,0.6-3.8,1.9-5s2.8-1.9,4.7-1.9c2,0,3.6,0.7,4.8,2.2
				c1.2,1.5,1.7,3.3,1.5,5.5H211.7z M211.7,24.1h7.9c0-1-0.4-1.9-1.1-2.7c-0.7-0.8-1.6-1.1-2.8-1.1c-1.1,0-2,0.3-2.8,0.9
				S211.8,22.8,211.7,24.1z"/>
			<path d="M236,23h-2.3c-0.2-0.8-0.6-1.5-1.2-2c-0.6-0.5-1.4-0.8-2.3-0.8c-1.1,0-2,0.4-2.7,1.3c-0.8,0.9-1.1,2.1-1.1,3.7
				c0,1.6,0.4,2.9,1.1,3.7s1.7,1.3,2.7,1.3c0.9,0,1.7-0.3,2.4-0.8c0.6-0.5,1.1-1.2,1.2-1.9h2.4c-0.2,1.3-0.9,2.4-2,3.3
				s-2.4,1.4-4,1.4c-1.9,0-3.4-0.7-4.6-2s-1.7-3-1.7-5.1c0-2,0.6-3.7,1.8-5c1.2-1.3,2.8-2,4.7-2c1.5,0,2.8,0.5,3.8,1.4
				C235.2,20.7,235.8,21.8,236,23z"/>
			<path d="M239.4,15.2h2.3v3.4h2.6v1.8h-2.6v8c0,0.7,0.1,1.2,0.2,1.4c0.2,0.2,0.5,0.3,1.2,0.3h1.2V32h-1.7c-1.3,0-2.2-0.2-2.6-0.7
				c-0.4-0.4-0.6-1.3-0.6-2.7v-8.3h-2.1v-1.8h2.1V15.2z"/>
			<path d="M260.5,22.5c-0.3-1.5-1.4-2.2-3.2-2.2c-0.8,0-1.4,0.1-2,0.4c-0.6,0.3-0.8,0.7-0.8,1.3c0,1,0.7,1.6,2,1.8l1.9,0.4
				c0.7,0.1,1.3,0.3,1.8,0.5c0.5,0.2,1,0.4,1.4,0.7c0.4,0.3,0.8,0.7,1,1.2c0.2,0.5,0.4,1,0.4,1.7c0,1.3-0.5,2.3-1.5,3
				s-2.3,1.1-3.9,1.1c-1.7,0-3-0.5-4-1.4c-1-0.9-1.6-2-1.7-3.3h2.4c0.4,1.8,1.5,2.8,3.4,2.8c0.9,0,1.6-0.2,2.2-0.6
				c0.6-0.4,0.9-0.8,0.9-1.4c0-1.1-0.9-1.8-2.7-2.2l-2-0.4c-2.6-0.5-3.8-1.8-3.8-3.7c0-1.1,0.5-2.1,1.5-2.7c1-0.7,2.3-1,3.8-1
				c1.4,0,2.6,0.4,3.6,1.1c0.9,0.8,1.5,1.8,1.7,3H260.5z"/>
			<path d="M274.2,30.1c-0.9,1.5-2.3,2.3-4.2,2.3c-2.9,0-4.3-1.7-4.3-5.2v-8.6h2.3v7.9c0,0.6,0,1.1,0.1,1.5c0.1,0.4,0.2,0.8,0.4,1.2
				c0.2,0.4,0.5,0.7,0.9,0.9c0.4,0.2,0.9,0.3,1.5,0.3c1.1,0,1.9-0.4,2.5-1.1c0.6-0.8,0.9-1.8,0.9-3.3v-7.4h2.3V32h-2.3V30.1z"/>
			<path d="M282.4,18.5v2.1c0.9-1.6,2.4-2.3,4.4-2.3c1.6,0,3,0.6,4.1,1.9c1.1,1.3,1.7,3,1.7,5.1c0,2.1-0.6,3.9-1.7,5.1
				c-1.1,1.3-2.5,1.9-4.1,1.9c-2,0-3.5-0.8-4.4-2.4v6.4h-2.3V18.5H282.4z M286.2,30.4c1.2,0,2.1-0.4,2.8-1.3c0.7-0.9,1-2.1,1-3.7
				s-0.3-2.8-1-3.7c-0.7-0.9-1.6-1.3-2.8-1.3c-1.1,0-2,0.4-2.8,1.3c-0.8,0.9-1.1,2.1-1.1,3.8s0.4,2.9,1.1,3.8
				C284.2,30,285.1,30.4,286.2,30.4z"/>
			<path d="M297.5,18.5v2.1c0.9-1.6,2.4-2.3,4.4-2.3c1.6,0,3,0.6,4.1,1.9c1.1,1.3,1.7,3,1.7,5.1c0,2.1-0.6,3.9-1.7,5.1
				c-1.1,1.3-2.5,1.9-4.1,1.9c-2,0-3.5-0.8-4.4-2.4v6.4h-2.3V18.5H297.5z M301.3,30.4c1.2,0,2.1-0.4,2.8-1.3c0.7-0.9,1-2.1,1-3.7
				s-0.3-2.8-1-3.7c-0.7-0.9-1.6-1.3-2.8-1.3c-1.1,0-2,0.4-2.8,1.3c-0.8,0.9-1.1,2.1-1.1,3.8s0.4,2.9,1.1,3.8
				C299.3,30,300.2,30.4,301.3,30.4z"/>
			<path d="M320.6,20.1c1.3,1.2,1.9,2.9,1.9,5.2s-0.6,4-1.9,5.2c-1.3,1.2-2.8,1.8-4.5,1.8s-3.2-0.6-4.5-1.8
				c-1.3-1.2-1.9-2.9-1.9-5.2s0.6-4,1.9-5.2s2.8-1.8,4.5-1.8S319.3,18.9,320.6,20.1z M316.1,30.3c1.1,0,2.1-0.4,2.8-1.3
				c0.8-0.9,1.2-2.1,1.2-3.7c0-1.7-0.4-2.9-1.2-3.8c-0.8-0.8-1.7-1.3-2.9-1.3c-1.2,0-2.1,0.4-2.9,1.2c-0.8,0.8-1.2,2.1-1.2,3.8
				c0,1.7,0.4,2.9,1.2,3.8C314,29.9,314.9,30.3,316.1,30.3z"/>
			<path d="M331.9,20.9c-0.6-0.1-1.1-0.1-1.3-0.1c-1.1,0-1.9,0.3-2.4,1c-0.5,0.7-0.8,1.7-0.8,3.2v7h-2.3V18.5h2.2v2.4
				c0.7-1.6,2-2.4,3.8-2.4c0.3,0,0.5,0,0.7,0V20.9z"/>
			<path d="M334.8,15.2h2.3v3.4h2.6v1.8H337v8c0,0.7,0.1,1.2,0.2,1.4c0.2,0.2,0.5,0.3,1.2,0.3h1.2V32h-1.7c-1.3,0-2.2-0.2-2.6-0.7
				c-0.4-0.4-0.6-1.3-0.6-2.7v-8.3h-2.1v-1.8h2.1V15.2z"/>
			<path d="M343.6,26c0,1.4,0.5,2.4,1.3,3.2s1.8,1.1,2.8,1.1c1.8,0,3-0.7,3.7-2.2h2.3c-0.3,1.2-1,2.2-2.1,3s-2.4,1.2-3.9,1.2
				c-2.1,0-3.7-0.7-4.8-2c-1.2-1.3-1.8-3-1.8-5c0-2.1,0.6-3.8,1.9-5s2.8-1.9,4.7-1.9c2,0,3.6,0.7,4.8,2.2s1.7,3.3,1.5,5.5H343.6z
				 M343.7,24.1h7.9c0-1-0.4-1.9-1.1-2.7c-0.7-0.8-1.6-1.1-2.8-1.1c-1.1,0-2,0.3-2.8,0.9S343.8,22.8,343.7,24.1z"/>
			<path d="M366,13.9h2.3V32H366v-2c-0.9,1.6-2.4,2.4-4.4,2.4c-1.6,0-3-0.6-4.1-1.9c-1.1-1.3-1.7-3-1.7-5.1c0-2.1,0.6-3.8,1.7-5.1
				c1.1-1.3,2.5-1.9,4.1-1.9c2,0,3.5,0.8,4.4,2.3V13.9z M362.2,20.3c-1.2,0-2.1,0.4-2.8,1.3c-0.7,0.9-1,2.1-1,3.7s0.3,2.8,1,3.7
				c0.7,0.9,1.6,1.3,2.8,1.3c1.1,0,2-0.4,2.8-1.3c0.8-0.8,1.1-2.1,1.1-3.8s-0.4-2.9-1.1-3.8C364.2,20.7,363.3,20.3,362.2,20.3z"/>
			<path d="M380.1,13.9v6.8c0.9-1.6,2.4-2.3,4.4-2.3c1.6,0,3,0.6,4.1,1.9c1.1,1.3,1.7,3,1.7,5.1c0,2.1-0.6,3.9-1.7,5.1
				c-1.1,1.3-2.5,1.9-4.1,1.9c-2,0-3.5-0.8-4.4-2.4v2h-2.3V13.9H380.1z M383.9,30.4c1.2,0,2.1-0.4,2.8-1.3c0.7-0.9,1-2.1,1-3.7
				s-0.3-2.8-1-3.7c-0.7-0.9-1.6-1.3-2.8-1.3c-1.1,0-2,0.4-2.8,1.3c-0.8,0.9-1.1,2.1-1.1,3.8s0.4,2.9,1.1,3.8
				C381.9,30,382.8,30.4,383.9,30.4z"/>
			<path d="M402.4,18.5l-4.8,14c-0.5,1.5-1,2.5-1.6,3c-0.6,0.5-1.6,0.8-3,0.8h-1.2v-1.9h0.9c0.9,0,1.5-0.1,1.8-0.4s0.7-0.9,1-1.8
				l0.1-0.3l-4.8-13.5h2.5l3.4,10.4l3.3-10.4H402.4z"/>
		</g>
		<g>
			<path d="M184.3,64h6.1l7,25.9l6.7-25.9h6.4l-10.1,35H195l-7.7-28.1L179.8,99h-5.4l-10.1-35h6.4l6.7,25.9L184.3,64z"/>
			<path d="M217.5,83.5c0.1,3.6,1.3,6.3,3.4,8.3c2.1,2,4.6,2.9,7.4,2.9c4.7,0,7.9-1.9,9.6-5.8h6.1c-0.9,3.2-2.7,5.8-5.4,7.9
				c-2.8,2.1-6.2,3.1-10.2,3.1c-5.4,0-9.6-1.7-12.6-5.1c-3-3.4-4.6-7.8-4.6-13.1c0-5.4,1.6-9.8,4.8-13.1c3.2-3.3,7.3-5,12.1-5
				c5.2,0,9.4,1.9,12.4,5.8s4.3,8.6,3.9,14.2H217.5z M217.6,78.4h20.6c-0.1-2.6-1-4.9-2.9-6.9c-1.8-2-4.2-3-7.2-3
				c-2.9,0-5.3,0.8-7.2,2.4C218.9,72.6,217.8,75.1,217.6,78.4z"/>
			<path d="M255.6,51.9v17.7c2.3-4.1,6.2-6.1,11.4-6.1c4.2,0,7.7,1.6,10.6,4.9c2.9,3.3,4.4,7.7,4.4,13.3c0,5.6-1.4,10-4.3,13.3
				c-2.9,3.3-6.4,4.9-10.6,4.9c-5.3,0-9.1-2-11.4-6.1V99h-5.9V51.9H255.6z M265.5,94.8c3.1,0,5.5-1.2,7.3-3.5
				c1.8-2.3,2.7-5.5,2.7-9.7c0-4.1-0.9-7.3-2.7-9.7c-1.8-2.3-4.2-3.5-7.3-3.5c-2.9,0-5.3,1.1-7.2,3.3c-2,2.2-3,5.5-3,9.8
				c0,4.3,1,7.6,3,9.8C260.3,93.7,262.7,94.8,265.5,94.8z"/>
			<path d="M311.4,85.8c0-6-4.5-9-13.6-9h-1v-5.4h0.8c8.4,0,12.5-2.6,12.5-7.8c0-2.4-0.9-4.3-2.6-5.7c-1.7-1.3-3.9-2-6.6-2
				c-3,0-5.4,0.8-7.2,2.5c-1.8,1.7-2.8,3.9-3.1,6.7h-6.1c0.3-4.2,2-7.7,4.9-10.2c2.9-2.6,6.8-3.9,11.6-3.9c4.5,0,8.1,1,11,2.9
				c2.9,1.9,4.3,5,4.3,9c0,2.4-0.7,4.6-2,6.5c-1.3,1.9-3.2,3.4-5.7,4.4c6,1.9,9,5.8,9,11.8c0,4.5-1.6,8-4.9,10.4
				c-3.3,2.4-7.3,3.7-12.1,3.7c-5.2,0-9.2-1.4-12-4.2c-2.8-2.8-4.4-6.3-4.7-10.6h6.1c0.3,3,1.4,5.4,3.2,7.2c1.8,1.8,4.3,2.6,7.5,2.6
				c3.2,0,5.8-0.8,7.7-2.4C310.4,90.9,311.4,88.7,311.4,85.8z"/>
			<path d="M352.7,61.5c0-3.8,0.6-6.3,1.8-7.6c1.2-1.3,3.7-2,7.6-2h3.1v4.9h-2.9c-1.6,0-2.6,0.3-3,0.8c-0.4,0.5-0.7,1.7-0.7,3.5V64
				h6.6v4.7h-6.6V99h-5.9V68.8h-4.9V64h4.9V61.5z"/>
			<path d="M394.9,68.1c3.3,3.1,5,7.6,5,13.5c0,5.9-1.7,10.4-5,13.5c-3.3,3.1-7.3,4.7-11.8,4.7s-8.4-1.6-11.8-4.7
				c-3.3-3.1-5-7.6-5-13.5c0-5.9,1.7-10.4,5-13.5c3.3-3.1,7.3-4.7,11.8-4.7S391.5,65,394.9,68.1z M383.1,94.6c2.9,0,5.4-1.1,7.4-3.3
				c2-2.2,3.1-5.4,3.1-9.7c0-4.3-1-7.6-3-9.8c-2-2.2-4.5-3.3-7.4-3.3c-3,0-5.5,1.1-7.5,3.2c-2,2.1-3,5.4-3,9.8c0,4.3,1,7.6,3,9.8
				C377.7,93.6,380.2,94.6,383.1,94.6z"/>
			<path d="M427,94c-2.4,3.9-6,5.8-11,5.8c-7.5,0-11.2-4.5-11.2-13.5V64h5.9v20.6c0,1.5,0.1,2.8,0.3,3.9c0.2,1.1,0.5,2.1,1,3.1
				s1.2,1.8,2.2,2.3c1,0.5,2.3,0.8,3.9,0.8c2.8,0,5-1,6.6-3c1.6-2,2.3-4.8,2.3-8.5V64h5.9v35H427V94z"/>
			<path d="M446.6,69.3c2.4-3.9,6.2-5.9,11.3-5.9c7.7,0,11.5,4.5,11.5,13.5V99h-5.9V78.7c0-3.2-0.5-5.7-1.5-7.4
				c-1-1.8-3.1-2.6-6.1-2.6c-2.9,0-5.2,1-6.8,3c-1.6,2-2.4,4.8-2.4,8.5v19h-5.9V64h5.9V69.3z"/>
			<path d="M500.6,51.9h5.9V99h-5.9v-5.3c-2.3,4.1-6.2,6.1-11.4,6.1c-4.2,0-7.7-1.6-10.6-4.9c-2.9-3.3-4.3-7.7-4.3-13.3
				c0-5.5,1.5-10,4.4-13.3c2.9-3.3,6.4-4.9,10.6-4.9c5.3,0,9.1,2,11.4,6.1V51.9z M490.6,68.5c-3.1,0-5.5,1.2-7.3,3.5
				c-1.8,2.3-2.7,5.5-2.7,9.7c0,4.1,0.9,7.3,2.7,9.7c1.8,2.3,4.2,3.5,7.3,3.5c2.9,0,5.3-1.1,7.2-3.3c2-2.2,3-5.5,3-9.8
				c0-4.3-1-7.6-3-9.8C495.9,69.6,493.5,68.5,490.6,68.5z"/>
			<path d="M512.1,89.8c0-2,0.5-3.7,1.6-5.1c1.1-1.4,2.7-2.6,4.9-3.5c2.2-0.9,4.7-1.6,7.3-2.2c2.6-0.5,5.9-1,9.8-1.5v-0.8
				c0-3-0.7-5.2-2.2-6.5c-1.5-1.3-3.4-2-5.8-2c-2.4,0-4.3,0.6-5.7,1.9c-1.4,1.2-2.1,2.9-2.3,5.1h-6.1c0.3-3.6,1.8-6.5,4.5-8.6
				c2.8-2.1,5.9-3.2,9.5-3.2c4.8,0,8.3,1.2,10.6,3.5c2.3,2.3,3.4,6,3.3,10.9l-0.1,8.1c0,5.4,0.3,9.8,0.9,13.2h-6
				c-0.3-1.7-0.4-3.3-0.5-4.8c-2.3,3.8-6.2,5.7-12,5.7c-3.4,0-6.3-0.9-8.6-2.7C513.3,95.3,512.1,92.9,512.1,89.8z M536.3,82.2
				c-2.9,0.3-5.3,0.6-7.3,1c-2,0.3-3.8,0.8-5.4,1.4c-1.6,0.6-2.9,1.3-3.6,2.1c-0.8,0.8-1.2,1.9-1.2,3c0,1.7,0.6,3,1.8,4
				c1.2,1,2.9,1.5,4.9,1.5c3.1,0,5.7-0.8,7.7-2.5c2-1.7,3.1-4.4,3.1-8.3V82.2z"/>
			<path d="M550.6,55.3h5.9V64h6.6v4.7h-6.6v20.7c0,1.9,0.2,3.1,0.6,3.7c0.4,0.6,1.4,0.8,3,0.8h3V99h-4.3c-3.4,0-5.6-0.6-6.7-1.7
				c-1.1-1.1-1.6-3.5-1.6-7.1V68.8h-5.5V64h5.5V55.3z"/>
			<path d="M575,51.9V59h-5.9v-7.1H575z M575,64v35h-5.9V64H575z"/>
			<path d="M609,68.1c3.3,3.1,5,7.6,5,13.5c0,5.9-1.7,10.4-5,13.5c-3.3,3.1-7.3,4.7-11.8,4.7s-8.4-1.6-11.8-4.7
				c-3.3-3.1-5-7.6-5-13.5c0-5.9,1.7-10.4,5-13.5c3.3-3.1,7.3-4.7,11.8-4.7S605.6,65,609,68.1z M597.2,94.6c2.9,0,5.4-1.1,7.4-3.3
				c2-2.2,3.1-5.4,3.1-9.7c0-4.3-1-7.6-3-9.8c-2-2.2-4.5-3.3-7.4-3.3c-3,0-5.5,1.1-7.5,3.2c-2,2.1-3,5.4-3,9.8c0,4.3,1,7.6,3,9.8
				C591.8,93.6,594.3,94.6,597.2,94.6z"/>
			<path d="M625.4,69.3c2.4-3.9,6.2-5.9,11.3-5.9c7.7,0,11.5,4.5,11.5,13.5V99h-5.9V78.7c0-3.2-0.5-5.7-1.5-7.4
				c-1-1.8-3.1-2.6-6.1-2.6c-2.9,0-5.2,1-6.8,3c-1.6,2-2.4,4.8-2.4,8.5v19h-5.9V64h5.9V69.3z"/>
		</g>
		<g>
			<path d="M192.2,125h5.9v30.3c0,3.3-0.3,5.9-0.8,7.7c-0.5,1.8-1.4,3.3-2.5,4.6c-2.7,3.1-6.7,4.6-12.1,4.6c-4,0-7.3-0.9-9.8-2.7
				c-2.5-1.8-4-4.5-4.6-8h6.3c0.9,3.7,3.6,5.5,8.1,5.5c3.2,0,5.5-0.9,7.1-2.6c1.5-1.6,2.3-4.2,2.3-7.7v-3.3c-2.3,4-6,6-11.1,6
				c-4.1,0-7.6-1.6-10.5-4.7c-2.9-3.1-4.4-7.4-4.4-12.8c0-5.4,1.5-9.6,4.4-12.8c2.9-3.1,6.4-4.7,10.5-4.7c5.1,0,8.8,2,11.1,6.1V125z
				 M182.6,129.5c-2.9,0-5.3,1.1-7.1,3.3s-2.7,5.2-2.7,9.1c0,3.9,0.9,7,2.7,9.2s4.2,3.3,7.1,3.3c2.9,0,5.2-1,7.1-3.1
				c1.9-2.1,2.8-5.2,2.8-9.4c0-4.2-0.9-7.3-2.8-9.3C187.8,130.5,185.5,129.5,182.6,129.5z"/>
			<path d="M223.3,131.2c-1.6-0.2-2.8-0.3-3.3-0.3c-2.8,0-4.8,0.8-6.2,2.5c-1.3,1.7-2,4.4-2,8.2V160h-5.9v-35h5.8v6.1
				c1.8-4.1,5.1-6.2,9.9-6.3c0.7,0,1.3,0,1.8,0.1V131.2z"/>
			<path d="M223.9,150.8c0-2,0.5-3.7,1.6-5.1c1.1-1.4,2.7-2.6,4.9-3.5c2.2-0.9,4.7-1.6,7.3-2.2c2.6-0.5,5.9-1,9.8-1.5v-0.8
				c0-3-0.7-5.2-2.2-6.5c-1.5-1.3-3.4-2-5.8-2c-2.4,0-4.3,0.6-5.7,1.9s-2.1,2.9-2.3,5.1h-6.1c0.3-3.6,1.8-6.5,4.5-8.6
				c2.8-2.1,5.9-3.2,9.5-3.2c4.8,0,8.3,1.2,10.6,3.5c2.3,2.3,3.4,6,3.3,10.9l-0.1,8.1c0,5.4,0.3,9.8,0.9,13.2h-6
				c-0.3-1.7-0.4-3.3-0.5-4.8c-2.3,3.8-6.2,5.7-12,5.7c-3.4,0-6.3-0.9-8.6-2.7C225.1,156.3,223.9,153.9,223.9,150.8z M248,143.2
				c-2.9,0.3-5.3,0.6-7.3,1c-2,0.3-3.8,0.8-5.4,1.4c-1.6,0.6-2.9,1.3-3.6,2.1c-0.8,0.8-1.2,1.9-1.2,3c0,1.7,0.6,3,1.8,4
				c1.2,1,2.9,1.5,4.9,1.5c3.1,0,5.7-0.8,7.7-2.5c2-1.7,3.1-4.4,3.1-8.3V143.2z"/>
			<path d="M266.6,130.3c2.4-3.9,6.2-5.9,11.3-5.9c7.7,0,11.5,4.5,11.5,13.5V160h-5.9v-20.3c0-3.2-0.5-5.7-1.5-7.4
				c-1-1.8-3.1-2.6-6.1-2.6c-2.9,0-5.2,1-6.8,3c-1.6,2-2.4,4.8-2.4,8.5v19h-5.9v-35h5.9V130.3z"/>
			<path d="M298.4,116.3h5.9v8.8h6.6v4.7h-6.6v20.7c0,1.9,0.2,3.1,0.6,3.7c0.4,0.6,1.4,0.8,3,0.8h3v4.9h-4.3c-3.4,0-5.6-0.6-6.7-1.7
				c-1.1-1.1-1.6-3.5-1.6-7.1v-21.4h-5.5V125h5.5V116.3z"/>
			<path d="M336.2,135.2c-0.8-3.9-3.6-5.8-8.3-5.8c-2,0-3.7,0.4-5.1,1.1c-1.5,0.7-2.2,1.8-2.2,3.3c0,2.5,1.8,4.1,5.3,4.7l4.9,1
				c1.7,0.3,3.3,0.8,4.6,1.2c1.3,0.5,2.6,1.1,3.7,1.9c1.2,0.8,2.1,1.8,2.7,3c0.6,1.2,0.9,2.6,0.9,4.3c0,3.3-1.3,6-4,7.9
				c-2.7,2-6.1,2.9-10.2,2.9c-4.3,0-7.8-1.2-10.5-3.6s-4.2-5.3-4.5-8.5h6.2c1,4.8,3.9,7.1,8.9,7.1c2.3,0,4.2-0.5,5.8-1.4
				c1.6-1,2.3-2.2,2.3-3.8c0-2.9-2.4-4.8-7.1-5.8l-5.2-1c-6.6-1.3-9.9-4.6-9.9-9.7c0-3,1.3-5.4,4-7.1c2.7-1.8,6-2.6,10-2.6
				c3.7,0,6.8,1,9.3,2.9c2.4,2,4,4.6,4.5,7.9H336.2z"/>
			<path d="M368.4,125v5.5c2.3-4.1,6.2-6.1,11.4-6.1c4.2,0,7.7,1.6,10.6,4.9c2.9,3.3,4.4,7.7,4.4,13.3c0,5.6-1.4,10-4.3,13.3
				c-2.9,3.3-6.4,4.9-10.6,4.9c-5.3,0-9.1-2-11.4-6.1v16.6h-5.9V125H368.4z M378.3,155.8c3.1,0,5.5-1.2,7.3-3.5
				c1.8-2.3,2.7-5.5,2.7-9.7c0-4.1-0.9-7.3-2.7-9.7c-1.8-2.3-4.2-3.5-7.3-3.5c-2.9,0-5.3,1.1-7.2,3.3c-2,2.2-3,5.5-3,9.8
				c0,4.3,1,7.6,3,9.8C373,154.7,375.4,155.8,378.3,155.8z"/>
			<path d="M417.5,131.2c-1.6-0.2-2.8-0.3-3.3-0.3c-2.8,0-4.8,0.8-6.2,2.5c-1.3,1.7-2,4.4-2,8.2V160h-5.9v-35h5.8v6.1
				c1.8-4.1,5.1-6.2,9.9-6.3c0.7,0,1.3,0,1.8,0.1V131.2z"/>
			<path d="M447.1,129.1c3.3,3.1,5,7.6,5,13.5c0,5.9-1.7,10.4-5,13.5c-3.3,3.1-7.3,4.7-11.8,4.7s-8.4-1.6-11.8-4.7
				c-3.3-3.1-5-7.6-5-13.5c0-5.9,1.7-10.4,5-13.5c3.3-3.1,7.3-4.7,11.8-4.7S443.8,126,447.1,129.1z M435.4,155.6
				c2.9,0,5.4-1.1,7.4-3.3c2-2.2,3.1-5.4,3.1-9.7c0-4.3-1-7.6-3-9.8c-2-2.2-4.5-3.3-7.4-3.3c-3,0-5.5,1.1-7.5,3.2
				c-2,2.1-3,5.4-3,9.8c0,4.3,1,7.6,3,9.8C429.9,154.6,432.4,155.6,435.4,155.6z"/>
			<path d="M481.7,125h5.9v30.3c0,3.3-0.3,5.9-0.8,7.7c-0.5,1.8-1.4,3.3-2.5,4.6c-2.7,3.1-6.7,4.6-12.1,4.6c-4,0-7.3-0.9-9.8-2.7
				c-2.5-1.8-4-4.5-4.6-8h6.3c0.9,3.7,3.6,5.5,8.1,5.5c3.2,0,5.5-0.9,7.1-2.6c1.5-1.6,2.3-4.2,2.3-7.7v-3.3c-2.3,4-6,6-11.1,6
				c-4.1,0-7.6-1.6-10.5-4.7c-2.9-3.1-4.4-7.4-4.4-12.8c0-5.4,1.5-9.6,4.4-12.8c2.9-3.1,6.4-4.7,10.5-4.7c5.1,0,8.8,2,11.1,6.1V125z
				 M472,129.5c-2.9,0-5.3,1.1-7.1,3.3c-1.8,2.2-2.7,5.2-2.7,9.1c0,3.9,0.9,7,2.7,9.2c1.8,2.2,4.2,3.3,7.1,3.3c2.9,0,5.2-1,7.1-3.1
				c1.9-2.1,2.8-5.2,2.8-9.4c0-4.2-0.9-7.3-2.8-9.3C477.3,130.5,474.9,129.5,472,129.5z"/>
			<path d="M512.7,131.2c-1.6-0.2-2.8-0.3-3.3-0.3c-2.8,0-4.8,0.8-6.2,2.5c-1.3,1.7-2,4.4-2,8.2V160h-5.9v-35h5.8v6.1
				c1.8-4.1,5.1-6.2,9.9-6.3c0.7,0,1.3,0,1.8,0.1V131.2z"/>
			<path d="M513.4,150.8c0-2,0.5-3.7,1.6-5.1c1.1-1.4,2.7-2.6,4.9-3.5c2.2-0.9,4.7-1.6,7.3-2.2c2.6-0.5,5.9-1,9.8-1.5v-0.8
				c0-3-0.7-5.2-2.2-6.5c-1.5-1.3-3.4-2-5.8-2c-2.4,0-4.3,0.6-5.7,1.9c-1.4,1.2-2.1,2.9-2.3,5.1H515c0.3-3.6,1.8-6.5,4.5-8.6
				c2.8-2.1,5.9-3.2,9.5-3.2c4.8,0,8.3,1.2,10.6,3.5c2.3,2.3,3.4,6,3.3,10.9l-0.1,8.1c0,5.4,0.3,9.8,0.9,13.2h-6
				c-0.3-1.7-0.4-3.3-0.5-4.8c-2.3,3.8-6.2,5.7-12,5.7c-3.4,0-6.3-0.9-8.6-2.7C514.5,156.3,513.4,153.9,513.4,150.8z M537.5,143.2
				c-2.9,0.3-5.3,0.6-7.3,1c-2,0.3-3.8,0.8-5.4,1.4c-1.6,0.6-2.9,1.3-3.6,2.1c-0.8,0.8-1.2,1.9-1.2,3c0,1.7,0.6,3,1.8,4
				c1.2,1,2.9,1.5,4.9,1.5c3.1,0,5.7-0.8,7.7-2.5c2-1.7,3.1-4.4,3.1-8.3V143.2z"/>
			<path d="M556.1,160h-5.9v-35h5.9v5.3c2.4-3.9,5.9-5.9,10.5-5.9c5,0,8.4,2.1,10.1,6.2c2.7-4.1,6.6-6.2,11.8-6.2
				c7.5,0,11.3,4.5,11.3,13.5V160h-5.9v-20.3c0-3.2-0.5-5.6-1.5-7.4c-1-1.8-3-2.7-5.9-2.7c-2.6,0-4.7,1-6.2,3
				c-1.5,2-2.3,4.8-2.3,8.5v19H572v-20.3c0-3.2-0.5-5.6-1.5-7.4c-1-1.8-3-2.7-5.9-2.7c-2.6,0-4.7,1-6.2,3c-1.5,2-2.3,4.8-2.3,8.5
				V160z"/>
		</g>
	</g>
</g>
</svg>
