<svg xmlns="http://www.w3.org/2000/svg" viewBox="0 0 198 55" xmlns:v="https://vecta.io/nano"><circle cx="27.5" cy="27.5" r="27.5" fill="#fd78b0"/><path d="M28.6 37c-.4 0-.6-.1-.9-.4-.2-.2-.4-.5-.4-.9V19.5c0-.4.1-.7.4-.9.2-.2.5-.4.9-.4h4.8c1.2 0 2.3.3 3.2.8s1.6 1.3 2.2 2.2c.5.9.8 2 .8 3.2s-.3 2.2-.8 3.1-1.2 1.6-2.2 2.1c-.9.5-2 .8-3.2.8h-3.6v5.3c0 .4-.1.6-.4.9-.1.3-.4.4-.8.4zm1.3-8.8h3.6c1.1 0 2-.3 2.7-1a3.69 3.69 0 0 0 1.1-2.7c0-.8-.2-1.4-.5-2s-.8-1.1-1.3-1.4c-.6-.3-1.2-.5-1.9-.5H30v7.6zm17.7 8.9c-1.3 0-2.4-.3-3.4-.8-1-.6-1.8-1.4-2.4-2.4s-.8-2.2-.8-3.5.3-2.5.8-3.5c.6-1 1.4-1.8 2.4-2.4s2.1-.9 3.4-.9 2.4.3 3.4.9 1.8 1.3 2.3 2.4c.6 1 .9 2.1.9 3.5 0 1.3-.3 2.4-.8 3.5-.6 1-1.3 1.8-2.3 2.4-1.1.5-2.2.8-3.5.8zm0-2.2c.8 0 1.6-.2 2.2-.6a4.63 4.63 0 0 0 1.5-1.6 4.38 4.38 0 0 0 .6-2.3c0-.9-.2-1.7-.6-2.3-.4-.7-.8-1.2-1.5-1.6-.6-.4-1.4-.6-2.2-.6s-1.6.2-2.2.6a4.63 4.63 0 0 0-1.5 1.6 4.38 4.38 0 0 0-.6 2.3c0 .9.2 1.7.6 2.3s.9 1.2 1.5 1.6 1.4.6 2.2.6zM61 37c-.7 0-1.3-.2-1.9-.6s-1-.9-1.3-1.6-.5-1.4-.5-2.3v-13c0-.4.1-.6.3-.9.2-.2.5-.3.9-.3s.6.1.9.3c.2.2.3.5.3.9v13.1c0 .6.1 1.1.3 1.5s.5.6.9.6h.6c.3 0 .6.1.8.3s.3.5.3.9-.2.6-.5.9c-.2.1-.6.2-1.1.2h0zm5.2 0c-.4 0-.6-.1-.9-.3-.2-.2-.3-.5-.3-.9V19.4c0-.4.1-.6.3-.8s.5-.3.9-.3.6.1.8.3.3.5.3.8v9.8l5.8-5.2c.2-.2.5-.3.8-.3s.6.1.8.4c.2.2.3.5.3.8s-.1.5-.4.8l-4.4 3.9 4.7 5.7c.2.3.3.5.3.8s-.2.5-.4.8c-.3.2-.5.3-.9.3-.3 0-.6-.2-.8-.4l-4.6-5.6-1.2 1.1V36c0 .4-.1.6-.3.9-.2 0-.4.1-.8.1zm16.8.1c-1.2 0-2.2-.3-3.1-.9s-1.7-1.4-2.2-2.4-.8-2.1-.8-3.4.3-2.4.9-3.4 1.4-1.8 2.4-2.4 2.1-.9 3.4-.9c1.2 0 2.4.3 3.4.9s1.8 1.4 2.4 2.4.9 2.1.9 3.4v5.4c0 .4-.1.6-.4.9-.2.2-.5.3-.9.3s-.6-.1-.9-.3c-.2-.2-.3-.5-.3-.9v-.9c-.6.7-1.2 1.2-2 1.6-1 .4-1.9.6-2.8.6zm.5-2.2c.8 0 1.5-.2 2.2-.6a4.63 4.63 0 0 0 1.5-1.6c.4-.7.6-1.5.6-2.3a4.38 4.38 0 0 0-.6-2.3 4.63 4.63 0 0 0-1.5-1.6c-.6-.4-1.4-.6-2.2-.6s-1.5.2-2.2.6c-.6.4-1.2.9-1.5 1.6a4.38 4.38 0 0 0-.6 2.3c0 .8.2 1.6.6 2.3a4.63 4.63 0 0 0 1.5 1.6c.6.4 1.4.6 2.2.6zm16.2 2.2c-1.2 0-2.4-.3-3.4-.9s-1.8-1.4-2.4-2.4-.9-2.1-.9-3.4.3-2.4.8-3.4 1.3-1.8 2.2-2.4 2-.9 3.1-.9c.9 0 1.8.2 2.6.6s1.5.9 2 1.6v-6.5c0-.4.1-.7.3-.9s.5-.3.9-.3.7.1.9.3.3.5.3.9v10.9c0 1.3-.3 2.4-.9 3.4s-1.4 1.8-2.4 2.4c-.8.7-1.9 1-3.1 1zm0-2.2c.8 0 1.5-.2 2.2-.6a4.63 4.63 0 0 0 1.5-1.6c.4-.7.6-1.5.6-2.3a4.38 4.38 0 0 0-.6-2.3 4.63 4.63 0 0 0-1.5-1.6c-.6-.4-1.4-.6-2.2-.6s-1.5.2-2.2.6c-.6.4-1.2.9-1.5 1.6a4.38 4.38 0 0 0-.6 2.3c0 .8.2 1.6.6 2.3a4.63 4.63 0 0 0 1.5 1.6c.6.4 1.4.6 2.2.6zm16.8 2.2c-1.3 0-2.4-.3-3.4-.8-1-.6-1.8-1.4-2.4-2.4s-.8-2.2-.8-3.5.3-2.5.8-3.5c.6-1 1.4-1.8 2.4-2.4s2.1-.9 3.4-.9 2.4.3 3.4.9 1.8 1.3 2.3 2.4c.6 1 .9 2.1.9 3.5 0 1.3-.3 2.4-.8 3.5-.6 1-1.3 1.8-2.3 2.4-1 .5-2.2.8-3.5.8zm0-2.2c.8 0 1.6-.2 2.2-.6a4.63 4.63 0 0 0 1.5-1.6 4.38 4.38 0 0 0 .6-2.3c0-.9-.2-1.7-.6-2.3-.4-.7-.8-1.2-1.5-1.6-.6-.4-1.4-.6-2.2-.6s-1.6.2-2.2.6a4.63 4.63 0 0 0-1.5 1.6 4.38 4.38 0 0 0-.6 2.3c0 .9.2 1.7.6 2.3a4.63 4.63 0 0 0 1.5 1.6c.6.4 1.4.6 2.2.6zm15 2.1c-.8 0-1.5-.2-2.2-.6-.6-.4-1.1-1-1.5-1.7s-.6-1.5-.6-2.4v-5.9h-1.1c-.3 0-.6-.1-.8-.3s-.3-.4-.3-.7.1-.6.3-.8.5-.3.8-.3h1.1v-3.5c0-.4.1-.6.3-.9.2-.2.5-.3.9-.3s.6.1.9.3c.2.2.3.5.3.9v3.5h2c.3 0 .6.1.8.3s.3.4.3.8c0 .3-.1.5-.3.7s-.5.3-.8.3h-2v5.9c0 .6.2 1.2.5 1.6.4.4.8.6 1.3.6h.8c.3 0 .5.1.7.3s.3.5.3.9-.1.6-.4.9a1.69 1.69 0 0 1-1 .3h-.3zm13.4 0c-.4 0-.6-.1-.9-.4-.2-.2-.4-.5-.4-.9V19.5c0-.4.1-.7.4-.9.2-.2.5-.4.9-.4h4.3c1.4 0 2.6.2 3.7.7 1.1.4 2.1 1.1 3 1.9.8.8 1.5 1.8 1.9 3s.7 2.4.7 3.8-.2 2.6-.7 3.8c-.4 1.1-1.1 2.1-1.9 3-.8.8-1.8 1.5-3 1.9-1.1.4-2.4.7-3.7.7h-4.3zm1.3-2.2h3.1c1.3 0 2.5-.3 3.6-.9 1-.6 1.9-1.5 2.4-2.5.6-1.1.9-2.3.9-3.7s-.3-2.6-.9-3.7a6.42 6.42 0 0 0-2.4-2.5c-1-.6-2.2-.9-3.6-.9h-3.1v14.2zm22.2 2.3c-1.3 0-2.5-.3-3.6-.8-1-.6-1.8-1.4-2.4-2.4s-.9-2.2-.9-3.5.3-2.5.8-3.5c.6-1 1.3-1.8 2.3-2.4s2.1-.9 3.4-.9c1.2 0 2.3.3 3.2.8s1.6 1.3 2 2.3c.5 1 .7 2.1.7 3.3 0 .3-.1.6-.3.8s-.5.3-.8.3h-9.1c.2 1.1.7 2 1.5 2.7s1.9 1 3.1 1c.5 0 1-.1 1.5-.3s1-.4 1.3-.6c.2-.2.5-.3.8-.3s.5.1.7.2c.3.2.4.5.4.8s-.1.5-.4.7c-.5.4-1.2.8-2 1.1-.7.6-1.5.7-2.2.7zm-.4-11.3c-1.2 0-2.1.3-2.9 1-.7.7-1.2 1.5-1.4 2.5h8c-.1-1-.5-1.9-1.2-2.5-.5-.6-1.4-1-2.5-1zm9.1 11.2c-.4 0-.6-.1-.9-.4-.2-.2-.4-.5-.4-.9V19.5c0-.4.1-.7.4-.9.2-.2.5-.4.9-.4H188c.4 0 .7.1.9.3s.3.5.3.8-.1.6-.3.8-.5.3-.9.3h-9.6v5.8h6.9c.4 0 .7.1.9.3s.3.5.3.8-.1.6-.3.8-.5.3-.9.3h-6.9v7.1c0 .4-.1.6-.4.9-.2.5-.5.6-.9.6zm16.5 0c-.4 0-.6-.1-.9-.3-.2-.2-.3-.5-.3-.9V25.1c0-.4.1-.7.3-.9s.5-.3.9-.3.7.1.9.3.3.5.3.9v10.7c0 .4-.1.6-.3.9-.2.2-.5.3-.9.3zm0-15.3c-.4 0-.8-.2-1.1-.5s-.5-.7-.5-1.1.2-.8.5-1.1.7-.5 1.1-.5.8.2 1.1.5.5.7.5 1.1-.2.8-.5 1.1c-.3.4-.7.5-1.1.5z"/></svg>