<?xml version="1.0" encoding="utf-8"?>
<!-- Generator: Adobe Illustrator 23.0.1, SVG Export Plug-In . SVG Version: 6.00 Build 0)  -->
<svg version="1.1" id="Capa_1" xmlns:v="https://vecta.io/nano"
	 xmlns="http://www.w3.org/2000/svg" xmlns:xlink="http://www.w3.org/1999/xlink" x="0px" y="0px" viewBox="0 0 323 32"
	 style="enable-background:new 0 0 323 32;" xml:space="preserve">
<style type="text/css">
	.st0{fill:#FFFFFF;}
</style>
<g>
	<circle class="st0" cx="16" cy="16" r="16"/>
	<path class="st0" d="M36.5,31.9c7.9-1,14-7.7,14-15.9s-6.1-14.9-14-15.9c-1.1-0.1-2,0.8-2,1.9v28C34.5,31.1,35.4,32,36.5,31.9z"/>
</g>
<path class="st0" d="M65.8,30.6c-0.5,0-0.9-0.2-1.3-0.5S64,29.3,64,28.8V5.5c0-0.5,0.2-1,0.5-1.3c0.3-0.3,0.8-0.5,1.3-0.5h6.9
	c1.7,0,3.3,0.4,4.6,1.1s2.4,1.8,3.1,3.2c0.8,1.3,1.1,2.9,1.1,4.6s-0.4,3.2-1.1,4.5s-1.8,2.4-3.1,3.1c-1.3,0.7-2.9,1.1-4.6,1.1h-5.1
	v7.5c0,0.5-0.2,0.9-0.5,1.3C66.8,30.4,66.3,30.6,65.8,30.6z M67.6,17.9h5.1c1.6,0,2.9-0.5,3.9-1.5s1.5-2.3,1.5-3.9
	c0-1.1-0.2-2.1-0.7-2.9c-0.4-0.8-1.1-1.5-1.9-2C74.7,7.2,73.8,7,72.7,7h-5.1V17.9z M94.5,30.7c-1.9,0-3.5-0.4-4.9-1.2
	c-1.4-0.8-2.6-2-3.4-3.4S85,23,85,21.1s0.4-3.5,1.2-5c0.8-1.4,2-2.6,3.4-3.4c1.4-0.8,3.1-1.2,4.9-1.2s3.5,0.4,4.9,1.2
	s2.5,1.9,3.4,3.4c0.8,1.4,1.2,3.1,1.2,5s-0.4,3.5-1.2,5c-0.8,1.4-2,2.6-3.4,3.4S96.4,30.7,94.5,30.7L94.5,30.7z M94.5,27.6
	c1.2,0,2.3-0.3,3.2-0.8s1.6-1.3,2.1-2.3s0.8-2.1,0.8-3.3s-0.3-2.4-0.8-3.3c-0.5-1-1.2-1.8-2.1-2.3c-0.9-0.6-2-0.8-3.2-0.8
	s-2.3,0.3-3.2,0.8c-0.9,0.5-1.6,1.3-2.2,2.3c-0.5,1-0.8,2.1-0.8,3.3s0.3,2.4,0.8,3.3s1.3,1.7,2.2,2.3C92.2,27.3,93.3,27.6,94.5,27.6
	z M115.1,30.6c-1,0-1.9-0.3-2.7-0.8s-1.4-1.3-1.8-2.2c-0.4-1-0.7-2.1-0.7-3.3V5.4c0-0.5,0.2-0.9,0.5-1.2s0.7-0.5,1.2-0.5
	s0.9,0.2,1.2,0.5c0.3,0.3,0.5,0.7,0.5,1.2v18.8c0,0.8,0.2,1.5,0.5,2.1s0.7,0.8,1.2,0.8h0.9c0.5,0,0.8,0.2,1.1,0.5
	c0.3,0.3,0.4,0.7,0.4,1.2s-0.2,0.9-0.7,1.2S115.9,30.6,115.1,30.6L115.1,30.6L115.1,30.6z M124.1,30.6c-0.5,0-0.9-0.1-1.2-0.4
	c-0.3-0.3-0.4-0.7-0.4-1.2V5.4c0-0.5,0.2-0.9,0.4-1.2c0.3-0.3,0.7-0.5,1.2-0.5s0.9,0.2,1.2,0.5c0.3,0.3,0.5,0.7,0.5,1.2v14l8.4-7.5
	c0.3-0.3,0.7-0.5,1.1-0.4c0.4,0,0.8,0.2,1.1,0.6c0.3,0.3,0.5,0.7,0.4,1.1s-0.2,0.8-0.6,1.1l-6.4,5.6l6.7,8.2
	c0.3,0.4,0.4,0.8,0.4,1.2c0,0.4-0.2,0.8-0.6,1.1c-0.4,0.3-0.8,0.4-1.2,0.4s-0.8-0.2-1.1-0.6l-6.6-8.1l-1.7,1.5v5.3
	c0,0.5-0.2,0.9-0.5,1.2C125,30.4,124.6,30.6,124.1,30.6L124.1,30.6z M149.6,30.7c-1.7,0-3.2-0.4-4.5-1.2c-1.3-0.8-2.4-2-3.2-3.4
	s-1.1-3.1-1.1-4.9s0.4-3.4,1.2-4.9c0.8-1.4,2-2.6,3.4-3.4c1.5-0.8,3.1-1.3,4.9-1.3s3.4,0.4,4.8,1.3c1.4,0.8,2.6,2,3.4,3.4
	c0.9,1.4,1.3,3.1,1.3,4.9v7.7c0,0.5-0.2,0.9-0.5,1.3c-0.3,0.3-0.7,0.5-1.2,0.5s-0.9-0.2-1.3-0.5c-0.3-0.3-0.5-0.8-0.5-1.3v-1.3
	c-0.8,1-1.8,1.7-2.9,2.3C152.3,30.4,151,30.7,149.6,30.7L149.6,30.7z M150.3,27.6c1.2,0,2.2-0.3,3.1-0.8c0.9-0.6,1.7-1.4,2.2-2.3
	c0.5-1,0.8-2.1,0.8-3.3c0-1.2-0.3-2.3-0.8-3.3s-1.3-1.8-2.2-2.3c-0.9-0.6-2-0.9-3.1-0.9c-1.2,0-2.2,0.3-3.1,0.9
	c-0.9,0.5-1.7,1.3-2.2,2.3s-0.8,2.1-0.8,3.3c0,1.2,0.3,2.3,0.8,3.3c0.5,0.9,1.3,1.7,2.2,2.3C148.1,27.3,149.2,27.6,150.3,27.6z
	 M175.1,30.7c-1.8,0-3.4-0.4-4.9-1.2c-1.4-0.8-2.6-2-3.4-3.4c-0.8-1.4-1.2-3.1-1.2-4.9s0.4-3.4,1.1-4.8c0.8-1.4,1.8-2.6,3.2-3.4
	c1.3-0.8,2.8-1.3,4.5-1.3c1.4,0,2.6,0.3,3.8,0.9c1.2,0.6,2.1,1.3,2.9,2.3V5.4c0-0.5,0.2-1,0.5-1.3s0.8-0.5,1.3-0.5s1,0.2,1.3,0.5
	c0.3,0.3,0.5,0.7,0.5,1.3v15.7c0,1.8-0.4,3.4-1.3,4.9c-0.8,1.4-2,2.6-3.4,3.4C178.5,30.3,176.9,30.7,175.1,30.7L175.1,30.7z
	 M175.1,27.6c1.2,0,2.2-0.3,3.1-0.8c0.9-0.6,1.7-1.4,2.2-2.3c0.5-1,0.8-2.1,0.8-3.3c0-1.2-0.3-2.3-0.8-3.3c-0.5-0.9-1.3-1.7-2.2-2.3
	c-0.9-0.6-2-0.9-3.1-0.9c-1.2,0-2.2,0.3-3.1,0.9c-0.9,0.5-1.7,1.3-2.2,2.3S169,20,169,21.2c0,1.2,0.3,2.3,0.8,3.3
	c0.6,1,1.3,1.8,2.2,2.3C172.9,27.3,173.9,27.6,175.1,27.6z M200.8,30.7c-1.9,0-3.5-0.4-4.9-1.2c-1.4-0.8-2.6-2-3.4-3.4
	c-0.8-1.4-1.2-3.1-1.2-5s0.4-3.5,1.2-5c0.8-1.4,2-2.6,3.4-3.4c1.4-0.8,3.1-1.2,4.9-1.2c1.8,0,3.5,0.4,4.9,1.2s2.5,1.9,3.4,3.4
	c0.8,1.4,1.2,3.1,1.2,5s-0.4,3.5-1.2,5c-0.8,1.4-2,2.6-3.4,3.4S202.6,30.7,200.8,30.7L200.8,30.7z M200.8,27.6
	c1.2,0,2.3-0.3,3.2-0.8s1.7-1.3,2.1-2.3c0.5-1,0.8-2.1,0.8-3.3s-0.3-2.4-0.8-3.3c-0.5-1-1.2-1.8-2.1-2.3c-0.9-0.6-2-0.8-3.2-0.8
	s-2.3,0.3-3.2,0.8c-0.9,0.5-1.6,1.3-2.2,2.3c-0.5,1-0.8,2.1-0.8,3.3s0.3,2.4,0.8,3.3s1.3,1.7,2.2,2.3
	C198.5,27.3,199.6,27.6,200.8,27.6z M223.8,30.6c-1.2,0-2.2-0.3-3.1-0.9c-0.9-0.6-1.6-1.4-2.2-2.4s-0.8-2.1-0.8-3.4v-8.5h-1.6
	c-0.5,0-0.9-0.1-1.2-0.4c-0.3-0.3-0.5-0.6-0.4-1c0-0.5,0.1-0.8,0.4-1.1s0.7-0.4,1.2-0.4h1.6v-5c0-0.5,0.2-0.9,0.5-1.2
	s0.7-0.5,1.2-0.5s0.9,0.2,1.2,0.5s0.5,0.7,0.5,1.2v5h2.9c0.5,0,0.9,0.1,1.2,0.4s0.4,0.6,0.4,1.1c0,0.4-0.2,0.8-0.4,1
	c-0.3,0.3-0.7,0.4-1.2,0.4h-2.9v8.5c0,0.9,0.3,1.7,0.8,2.3s1.1,0.9,1.9,0.9h1.2c0.4,0,0.8,0.2,1,0.5c0.3,0.3,0.4,0.7,0.4,1.2
	s-0.2,0.9-0.6,1.2c-0.4,0.3-0.9,0.5-1.5,0.5L223.8,30.6L223.8,30.6z M245.9,30.6c-0.5,0-0.9-0.2-1.3-0.5s-0.5-0.8-0.5-1.3V5.5
	c0-0.5,0.2-1,0.5-1.3c0.3-0.3,0.8-0.5,1.3-0.5h6.3c2,0,3.8,0.3,5.4,1c1.6,0.6,3.1,1.6,4.3,2.8c1.2,1.2,2.1,2.6,2.8,4.2s1,3.4,1,5.4
	s-0.3,3.8-1,5.4c-0.6,1.6-1.6,3-2.8,4.3c-1.2,1.2-2.7,2.2-4.3,2.8c-1.6,0.6-3.4,1-5.4,1L245.9,30.6L245.9,30.6z M247.7,27.4h4.5
	c1.9,0,3.6-0.4,5.1-1.3c1.5-0.9,2.7-2.1,3.5-3.6c0.9-1.6,1.3-3.3,1.3-5.3s-0.4-3.8-1.3-5.3c-0.8-1.5-2-2.8-3.5-3.6
	c-1.5-0.9-3.2-1.3-5.1-1.3h-4.5C247.7,6.9,247.7,27.4,247.7,27.4z M281.1,30.7c-1.9,0-3.6-0.4-5.1-1.2c-1.4-0.8-2.6-2-3.5-3.4
	c-0.8-1.4-1.2-3.1-1.2-5s0.4-3.5,1.2-5c0.8-1.4,1.9-2.6,3.3-3.4c1.4-0.8,3-1.2,4.8-1.2s3.3,0.4,4.6,1.2c1.3,0.8,2.3,1.9,2.9,3.3
	c0.7,1.4,1,3,1,4.8c0,0.4-0.2,0.8-0.5,1.1c-0.3,0.3-0.7,0.4-1.1,0.4h-13.1c0.3,1.6,1,2.9,2.2,3.9s2.7,1.5,4.5,1.5
	c0.7,0,1.5-0.1,2.2-0.4c0.8-0.3,1.4-0.6,1.8-0.9c0.3-0.3,0.7-0.4,1.1-0.4s0.8,0.1,1.1,0.3c0.4,0.3,0.6,0.7,0.6,1.1s-0.2,0.8-0.6,1.1
	c-0.8,0.6-1.8,1.1-2.9,1.5C283.3,30.5,282.1,30.7,281.1,30.7L281.1,30.7z M280.6,14.6c-1.7,0-3.1,0.5-4.1,1.4c-1,0.9-1.7,2.2-2,3.6
	H286c-0.2-1.5-0.8-2.7-1.7-3.6C283.4,15,282.1,14.6,280.6,14.6L280.6,14.6z M295,30.6c-0.5,0-0.9-0.2-1.3-0.5
	c-0.3-0.3-0.5-0.8-0.5-1.3V5.5c0-0.5,0.2-1,0.5-1.3c0.3-0.3,0.8-0.5,1.3-0.5h15.6c0.5,0,1,0.2,1.3,0.5c0.3,0.3,0.5,0.7,0.5,1.2
	s-0.2,0.9-0.5,1.2S311.2,7,310.7,7h-13.8v8.4h9.9c0.5,0,1,0.2,1.3,0.5c0.3,0.3,0.5,0.7,0.5,1.2s-0.2,0.9-0.5,1.2
	c-0.3,0.3-0.7,0.4-1.3,0.4h-9.9v10.1c0,0.5-0.2,0.9-0.5,1.3S295.5,30.6,295,30.6L295,30.6z M320.2,30.6c-0.5,0-0.9-0.2-1.3-0.5
	c-0.3-0.3-0.5-0.8-0.5-1.3V13.5c0-0.5,0.2-1,0.5-1.3s0.8-0.5,1.3-0.5s1,0.2,1.3,0.5s0.5,0.7,0.5,1.3v15.3c0,0.5-0.2,0.9-0.5,1.3
	C321.1,30.4,320.7,30.6,320.2,30.6L320.2,30.6z M320.2,8.7c-0.6,0-1.2-0.2-1.6-0.7s-0.7-1-0.7-1.6s0.2-1.2,0.7-1.6
	c0.5-0.5,1-0.7,1.6-0.7s1.2,0.2,1.6,0.7c0.5,0.4,0.7,1,0.7,1.6s-0.2,1.2-0.7,1.6C321.3,8.5,320.8,8.7,320.2,8.7z"/>
<path class="st0" d="M65.8,30.6c-0.5,0-0.9-0.2-1.3-0.5S64,29.3,64,28.8V5.5c0-0.5,0.2-1,0.5-1.3c0.3-0.3,0.8-0.5,1.3-0.5h6.9
	c1.7,0,3.3,0.4,4.6,1.1s2.4,1.8,3.1,3.2c0.8,1.3,1.1,2.9,1.1,4.6s-0.4,3.2-1.1,4.5s-1.8,2.4-3.1,3.1c-1.3,0.7-2.9,1.1-4.6,1.1h-5.1
	v7.5c0,0.5-0.2,0.9-0.5,1.3C66.8,30.4,66.3,30.6,65.8,30.6z M67.6,17.9h5.1c1.6,0,2.9-0.5,3.9-1.5s1.5-2.3,1.5-3.9
	c0-1.1-0.2-2.1-0.7-2.9c-0.4-0.8-1.1-1.5-1.9-2C74.7,7.2,73.8,7,72.7,7h-5.1V17.9z M94.5,30.7c-1.9,0-3.5-0.4-4.9-1.2
	c-1.4-0.8-2.6-2-3.4-3.4S85,23,85,21.1s0.4-3.5,1.2-5c0.8-1.4,2-2.6,3.4-3.4c1.4-0.8,3.1-1.2,4.9-1.2s3.5,0.4,4.9,1.2
	s2.5,1.9,3.4,3.4c0.8,1.4,1.2,3.1,1.2,5s-0.4,3.5-1.2,5c-0.8,1.4-2,2.6-3.4,3.4S96.4,30.7,94.5,30.7L94.5,30.7z M94.5,27.6
	c1.2,0,2.3-0.3,3.2-0.8s1.6-1.3,2.1-2.3s0.8-2.1,0.8-3.3s-0.3-2.4-0.8-3.3c-0.5-1-1.2-1.8-2.1-2.3c-0.9-0.6-2-0.8-3.2-0.8
	s-2.3,0.3-3.2,0.8c-0.9,0.5-1.6,1.3-2.2,2.3c-0.5,1-0.8,2.1-0.8,3.3s0.3,2.4,0.8,3.3s1.3,1.7,2.2,2.3C92.2,27.3,93.3,27.6,94.5,27.6
	z M115.1,30.6c-1,0-1.9-0.3-2.7-0.8s-1.4-1.3-1.8-2.2c-0.4-1-0.7-2.1-0.7-3.3V5.4c0-0.5,0.2-0.9,0.5-1.2s0.7-0.5,1.2-0.5
	s0.9,0.2,1.2,0.5c0.3,0.3,0.5,0.7,0.5,1.2v18.8c0,0.8,0.2,1.5,0.5,2.1s0.7,0.8,1.2,0.8h0.9c0.5,0,0.8,0.2,1.1,0.5
	c0.3,0.3,0.4,0.7,0.4,1.2s-0.2,0.9-0.7,1.2S115.9,30.6,115.1,30.6L115.1,30.6L115.1,30.6z M124.1,30.6c-0.5,0-0.9-0.1-1.2-0.4
	c-0.3-0.3-0.4-0.7-0.4-1.2V5.4c0-0.5,0.2-0.9,0.4-1.2c0.3-0.3,0.7-0.5,1.2-0.5s0.9,0.2,1.2,0.5c0.3,0.3,0.5,0.7,0.5,1.2v14l8.4-7.5
	c0.3-0.3,0.7-0.5,1.1-0.4c0.4,0,0.8,0.2,1.1,0.6c0.3,0.3,0.5,0.7,0.4,1.1s-0.2,0.8-0.6,1.1l-6.4,5.6l6.7,8.2
	c0.3,0.4,0.4,0.8,0.4,1.2c0,0.4-0.2,0.8-0.6,1.1c-0.4,0.3-0.8,0.4-1.2,0.4s-0.8-0.2-1.1-0.6l-6.6-8.1l-1.7,1.5v5.3
	c0,0.5-0.2,0.9-0.5,1.2C125,30.4,124.6,30.6,124.1,30.6L124.1,30.6z M149.6,30.7c-1.7,0-3.2-0.4-4.5-1.2c-1.3-0.8-2.4-2-3.2-3.4
	s-1.1-3.1-1.1-4.9s0.4-3.4,1.2-4.9c0.8-1.4,2-2.6,3.4-3.4c1.5-0.8,3.1-1.3,4.9-1.3s3.4,0.4,4.8,1.3c1.4,0.8,2.6,2,3.4,3.4
	c0.9,1.4,1.3,3.1,1.3,4.9v7.7c0,0.5-0.2,0.9-0.5,1.3c-0.3,0.3-0.7,0.5-1.2,0.5s-0.9-0.2-1.3-0.5c-0.3-0.3-0.5-0.8-0.5-1.3v-1.3
	c-0.8,1-1.8,1.7-2.9,2.3C152.3,30.4,151,30.7,149.6,30.7L149.6,30.7z M150.3,27.6c1.2,0,2.2-0.3,3.1-0.8c0.9-0.6,1.7-1.4,2.2-2.3
	c0.5-1,0.8-2.1,0.8-3.3c0-1.2-0.3-2.3-0.8-3.3s-1.3-1.8-2.2-2.3c-0.9-0.6-2-0.9-3.1-0.9c-1.2,0-2.2,0.3-3.1,0.9
	c-0.9,0.5-1.7,1.3-2.2,2.3s-0.8,2.1-0.8,3.3c0,1.2,0.3,2.3,0.8,3.3c0.5,0.9,1.3,1.7,2.2,2.3C148.1,27.3,149.2,27.6,150.3,27.6z
	 M175.1,30.7c-1.8,0-3.4-0.4-4.9-1.2c-1.4-0.8-2.6-2-3.4-3.4c-0.8-1.4-1.2-3.1-1.2-4.9s0.4-3.4,1.1-4.8c0.8-1.4,1.8-2.6,3.2-3.4
	c1.3-0.8,2.8-1.3,4.5-1.3c1.4,0,2.6,0.3,3.8,0.9c1.2,0.6,2.1,1.3,2.9,2.3V5.4c0-0.5,0.2-1,0.5-1.3s0.8-0.5,1.3-0.5s1,0.2,1.3,0.5
	c0.3,0.3,0.5,0.7,0.5,1.3v15.7c0,1.8-0.4,3.4-1.3,4.9c-0.8,1.4-2,2.6-3.4,3.4C178.5,30.3,176.9,30.7,175.1,30.7L175.1,30.7z
	 M175.1,27.6c1.2,0,2.2-0.3,3.1-0.8c0.9-0.6,1.7-1.4,2.2-2.3c0.5-1,0.8-2.1,0.8-3.3c0-1.2-0.3-2.3-0.8-3.3c-0.5-0.9-1.3-1.7-2.2-2.3
	c-0.9-0.6-2-0.9-3.1-0.9c-1.2,0-2.2,0.3-3.1,0.9c-0.9,0.5-1.7,1.3-2.2,2.3S169,20,169,21.2c0,1.2,0.3,2.3,0.8,3.3
	c0.6,1,1.3,1.8,2.2,2.3C172.9,27.3,173.9,27.6,175.1,27.6z M200.8,30.7c-1.9,0-3.5-0.4-4.9-1.2c-1.4-0.8-2.6-2-3.4-3.4
	c-0.8-1.4-1.2-3.1-1.2-5s0.4-3.5,1.2-5c0.8-1.4,2-2.6,3.4-3.4c1.4-0.8,3.1-1.2,4.9-1.2c1.8,0,3.5,0.4,4.9,1.2s2.5,1.9,3.4,3.4
	c0.8,1.4,1.2,3.1,1.2,5s-0.4,3.5-1.2,5c-0.8,1.4-2,2.6-3.4,3.4S202.6,30.7,200.8,30.7L200.8,30.7z M200.8,27.6
	c1.2,0,2.3-0.3,3.2-0.8s1.7-1.3,2.1-2.3c0.5-1,0.8-2.1,0.8-3.3s-0.3-2.4-0.8-3.3c-0.5-1-1.2-1.8-2.1-2.3c-0.9-0.6-2-0.8-3.2-0.8
	s-2.3,0.3-3.2,0.8c-0.9,0.5-1.6,1.3-2.2,2.3c-0.5,1-0.8,2.1-0.8,3.3s0.3,2.4,0.8,3.3s1.3,1.7,2.2,2.3
	C198.5,27.3,199.6,27.6,200.8,27.6z M223.8,30.6c-1.2,0-2.2-0.3-3.1-0.9c-0.9-0.6-1.6-1.4-2.2-2.4s-0.8-2.1-0.8-3.4v-8.5h-1.6
	c-0.5,0-0.9-0.1-1.2-0.4c-0.3-0.3-0.5-0.6-0.4-1c0-0.5,0.1-0.8,0.4-1.1s0.7-0.4,1.2-0.4h1.6v-5c0-0.5,0.2-0.9,0.5-1.2
	s0.7-0.5,1.2-0.5s0.9,0.2,1.2,0.5s0.5,0.7,0.5,1.2v5h2.9c0.5,0,0.9,0.1,1.2,0.4s0.4,0.6,0.4,1.1c0,0.4-0.2,0.8-0.4,1
	c-0.3,0.3-0.7,0.4-1.2,0.4h-2.9v8.5c0,0.9,0.3,1.7,0.8,2.3s1.1,0.9,1.9,0.9h1.2c0.4,0,0.8,0.2,1,0.5c0.3,0.3,0.4,0.7,0.4,1.2
	s-0.2,0.9-0.6,1.2c-0.4,0.3-0.9,0.5-1.5,0.5L223.8,30.6L223.8,30.6z M245.9,30.6c-0.5,0-0.9-0.2-1.3-0.5s-0.5-0.8-0.5-1.3V5.5
	c0-0.5,0.2-1,0.5-1.3c0.3-0.3,0.8-0.5,1.3-0.5h6.3c2,0,3.8,0.3,5.4,1c1.6,0.6,3.1,1.6,4.3,2.8c1.2,1.2,2.1,2.6,2.8,4.2s1,3.4,1,5.4
	s-0.3,3.8-1,5.4c-0.6,1.6-1.6,3-2.8,4.3c-1.2,1.2-2.7,2.2-4.3,2.8c-1.6,0.6-3.4,1-5.4,1L245.9,30.6L245.9,30.6z M247.7,27.4h4.5
	c1.9,0,3.6-0.4,5.1-1.3c1.5-0.9,2.7-2.1,3.5-3.6c0.9-1.6,1.3-3.3,1.3-5.3s-0.4-3.8-1.3-5.3c-0.8-1.5-2-2.8-3.5-3.6
	c-1.5-0.9-3.2-1.3-5.1-1.3h-4.5C247.7,6.9,247.7,27.4,247.7,27.4z M281.1,30.7c-1.9,0-3.6-0.4-5.1-1.2c-1.4-0.8-2.6-2-3.5-3.4
	c-0.8-1.4-1.2-3.1-1.2-5s0.4-3.5,1.2-5c0.8-1.4,1.9-2.6,3.3-3.4c1.4-0.8,3-1.2,4.8-1.2s3.3,0.4,4.6,1.2c1.3,0.8,2.3,1.9,2.9,3.3
	c0.7,1.4,1,3,1,4.8c0,0.4-0.2,0.8-0.5,1.1c-0.3,0.3-0.7,0.4-1.1,0.4h-13.1c0.3,1.6,1,2.9,2.2,3.9s2.7,1.5,4.5,1.5
	c0.7,0,1.5-0.1,2.2-0.4c0.8-0.3,1.4-0.6,1.8-0.9c0.3-0.3,0.7-0.4,1.1-0.4s0.8,0.1,1.1,0.3c0.4,0.3,0.6,0.7,0.6,1.1s-0.2,0.8-0.6,1.1
	c-0.8,0.6-1.8,1.1-2.9,1.5C283.3,30.5,282.1,30.7,281.1,30.7L281.1,30.7z M280.6,14.6c-1.7,0-3.1,0.5-4.1,1.4c-1,0.9-1.7,2.2-2,3.6
	H286c-0.2-1.5-0.8-2.7-1.7-3.6C283.4,15,282.1,14.6,280.6,14.6L280.6,14.6z M295,30.6c-0.5,0-0.9-0.2-1.3-0.5
	c-0.3-0.3-0.5-0.8-0.5-1.3V5.5c0-0.5,0.2-1,0.5-1.3c0.3-0.3,0.8-0.5,1.3-0.5h15.6c0.5,0,1,0.2,1.3,0.5c0.3,0.3,0.5,0.7,0.5,1.2
	s-0.2,0.9-0.5,1.2S311.2,7,310.7,7h-13.8v8.4h9.9c0.5,0,1,0.2,1.3,0.5c0.3,0.3,0.5,0.7,0.5,1.2s-0.2,0.9-0.5,1.2
	c-0.3,0.3-0.7,0.4-1.3,0.4h-9.9v10.1c0,0.5-0.2,0.9-0.5,1.3S295.5,30.6,295,30.6L295,30.6z M320.2,30.6c-0.5,0-0.9-0.2-1.3-0.5
	c-0.3-0.3-0.5-0.8-0.5-1.3V13.5c0-0.5,0.2-1,0.5-1.3s0.8-0.5,1.3-0.5s1,0.2,1.3,0.5s0.5,0.7,0.5,1.3v15.3c0,0.5-0.2,0.9-0.5,1.3
	C321.1,30.4,320.7,30.6,320.2,30.6L320.2,30.6z M320.2,8.7c-0.6,0-1.2-0.2-1.6-0.7s-0.7-1-0.7-1.6s0.2-1.2,0.7-1.6
	c0.5-0.5,1-0.7,1.6-0.7s1.2,0.2,1.6,0.7c0.5,0.4,0.7,1,0.7,1.6s-0.2,1.2-0.7,1.6C321.3,8.5,320.8,8.7,320.2,8.7z"/>
</svg>
