<svg xmlns="http://www.w3.org/2000/svg" width="323" height="32" fill="none" xmlns:v="https://vecta.io/nano"><g fill="#fd78b0"><circle cx="16" cy="16" r="16"/><path d="M36.458 31.877c7.895-.982 14.004-7.716 14.004-15.877S44.352 1.106 36.458.123C35.362-.013 34.462.895 34.462 2v28c0 1.105.9 2.013 1.996 1.877z"/></g><mask id="A" maskUnits="userSpaceOnUse" x="63" y="2.692" width="260" height="29" fill="#000"><path fill="#fff" d="M63 2.692h260v29H63z"/><path d="M65.799 30.554c-.507 0-.934-.172-1.28-.516S64 29.27 64 28.765V5.481c0-.527.173-.952.519-1.273.346-.344.773-.516 1.28-.516h6.919c1.73 0 3.263.378 4.601 1.135s2.376 1.811 3.114 3.164c.761 1.33 1.142 2.866 1.142 4.609 0 1.674-.381 3.164-1.142 4.471a7.82 7.82 0 0 1-3.114 3.061c-1.338.734-2.871 1.101-4.601 1.101h-5.12v7.532c0 .505-.173.929-.519 1.273-.323.344-.75.516-1.28.516zm1.799-12.622h5.12c1.568 0 2.86-.493 3.875-1.479 1.015-1.009 1.522-2.293 1.522-3.852 0-1.101-.231-2.064-.692-2.889a5.13 5.13 0 0 0-1.903-1.995c-.807-.482-1.741-.722-2.802-.722h-5.12v10.937zm26.898 12.759c-1.868 0-3.517-.401-4.947-1.204a9.16 9.16 0 0 1-3.39-3.371c-.807-1.445-1.211-3.095-1.211-4.953 0-1.88.404-3.531 1.211-4.953a8.84 8.84 0 0 1 3.39-3.371c1.43-.825 3.079-1.238 4.947-1.238 1.845 0 3.483.413 4.912 1.238 1.43.803 2.548 1.926 3.355 3.371.831 1.422 1.246 3.072 1.246 4.953 0 1.857-.404 3.508-1.211 4.953a8.91 8.91 0 0 1-3.356 3.371c-1.43.802-3.079 1.204-4.947 1.204zm0-3.095c1.199 0 2.26-.275 3.183-.826s1.638-1.307 2.145-2.27c.53-.963.796-2.075.796-3.336s-.266-2.373-.796-3.336a5.61 5.61 0 0 0-2.145-2.304c-.923-.55-1.984-.825-3.183-.825s-2.26.275-3.183.825-1.649 1.318-2.18 2.304c-.531.963-.796 2.075-.796 3.336s.265 2.373.796 3.336a5.91 5.91 0 0 0 2.18 2.27c.922.55 1.983.826 3.183.826zm20.647 2.958c-1.015 0-1.914-.275-2.699-.825s-1.395-1.296-1.833-2.236c-.438-.963-.657-2.064-.657-3.302V5.412c0-.504.161-.917.484-1.238s.738-.482 1.245-.482.923.161 1.246.482.484.734.484 1.238v18.779c0 .848.161 1.548.484 2.098s.738.825 1.246.825h.865c.461 0 .83.16 1.107.482.3.321.449.734.449 1.238s-.219.917-.657 1.238-1.003.482-1.695.482h-.069zm8.953 0c-.507 0-.922-.149-1.245-.447-.3-.321-.45-.734-.45-1.238V5.378c0-.504.15-.906.45-1.204.323-.321.738-.482 1.245-.482s.911.161 1.211.482c.323.298.484.699.484 1.204v13.998l8.407-7.463c.346-.321.726-.47 1.142-.447.438.023.807.206 1.107.55.323.344.472.722.449 1.135s-.207.779-.553 1.101l-6.366 5.64 6.712 8.186c.3.367.427.768.38 1.204-.023.413-.23.78-.622 1.101-.369.298-.784.424-1.246.378-.438-.023-.807-.218-1.107-.585l-6.573-8.082-1.73 1.513v5.262c0 .505-.161.917-.484 1.238-.3.298-.703.447-1.211.447zm25.55.137c-1.684 0-3.194-.413-4.532-1.238-1.338-.848-2.399-1.983-3.183-3.405-.761-1.445-1.142-3.073-1.142-4.884s.416-3.439 1.246-4.884a9.35 9.35 0 0 1 3.425-3.405c1.453-.848 3.079-1.273 4.878-1.273s3.413.424 4.843 1.273a9.08 9.08 0 0 1 3.39 3.405c.854 1.445 1.28 3.073 1.28 4.884v7.67c0 .505-.173.929-.519 1.273-.322.321-.738.482-1.245.482s-.934-.16-1.28-.482c-.323-.344-.484-.768-.484-1.273v-1.273a9.05 9.05 0 0 1-2.941 2.304c-1.13.55-2.375.825-3.736.825zm.692-3.095c1.176 0 2.225-.275 3.148-.826a6.17 6.17 0 0 0 2.179-2.304c.531-.986.796-2.087.796-3.302 0-1.238-.265-2.339-.796-3.302-.53-.986-1.257-1.754-2.179-2.304-.923-.573-1.972-.86-3.148-.86-1.153 0-2.203.287-3.148.86-.923.55-1.661 1.318-2.215 2.304-.53.963-.795 2.064-.795 3.302 0 1.215.265 2.316.795 3.302a6.45 6.45 0 0 0 2.215 2.304c.945.55 1.995.826 3.148.826zm24.729 3.095c-1.799 0-3.425-.413-4.878-1.238-1.43-.848-2.572-1.995-3.425-3.439-.831-1.445-1.246-3.073-1.246-4.884s.381-3.428 1.142-4.849c.784-1.445 1.845-2.579 3.183-3.405 1.337-.848 2.848-1.273 4.532-1.273 1.36 0 2.617.287 3.771.86 1.153.55 2.121 1.307 2.906 2.27V5.446c0-.527.161-.952.484-1.273a1.81 1.81 0 0 1 1.28-.482c.53 0 .957.161 1.28.482s.484.745.484 1.273V21.13c0 1.811-.426 3.439-1.28 4.884a9.35 9.35 0 0 1-3.39 3.439c-1.43.826-3.045 1.238-4.843 1.238zm0-3.095c1.176 0 2.225-.275 3.148-.826a6.1 6.1 0 0 0 2.179-2.339c.531-.986.796-2.087.796-3.302 0-1.238-.265-2.339-.796-3.302a5.91 5.91 0 0 0-2.179-2.27c-.923-.573-1.972-.86-3.148-.86-1.154 0-2.203.287-3.149.86-.922.55-1.66 1.307-2.214 2.27-.53.963-.795 2.064-.795 3.302 0 1.215.265 2.316.795 3.302.554.986 1.292 1.765 2.214 2.339.946.55 1.995.826 3.149.826zm25.708 3.095c-1.868 0-3.517-.401-4.947-1.204a9.16 9.16 0 0 1-3.39-3.371c-.808-1.445-1.211-3.095-1.211-4.953 0-1.88.403-3.531 1.211-4.953.83-1.445 1.96-2.568 3.39-3.371 1.43-.825 3.079-1.238 4.947-1.238 1.845 0 3.483.413 4.913 1.238 1.43.803 2.548 1.926 3.355 3.371.831 1.422 1.246 3.072 1.246 4.953 0 1.857-.404 3.508-1.211 4.953a8.91 8.91 0 0 1-3.356 3.371c-1.43.802-3.079 1.204-4.947 1.204zm0-3.095c1.199 0 2.26-.275 3.183-.826a5.67 5.67 0 0 0 2.145-2.27c.53-.963.795-2.075.795-3.336s-.265-2.373-.795-3.336c-.508-.986-1.223-1.754-2.145-2.304s-1.984-.825-3.183-.825-2.26.275-3.183.825-1.649 1.318-2.179 2.304c-.531.963-.796 2.075-.796 3.336s.265 2.373.796 3.336a5.91 5.91 0 0 0 2.179 2.27c.923.55 1.984.826 3.183.826zm23.034 2.958c-1.153 0-2.191-.287-3.114-.86-.922-.596-1.649-1.399-2.179-2.408s-.796-2.144-.796-3.405v-8.495h-1.591c-.485 0-.877-.138-1.177-.413a1.34 1.34 0 0 1-.449-1.032c0-.459.15-.825.449-1.101s.692-.413 1.177-.413h1.591V7.476c0-.504.161-.917.484-1.238s.738-.482 1.246-.482.922.16 1.245.482.485.734.485 1.238v4.953h2.94c.484 0 .877.138 1.176.413s.45.642.45 1.101a1.34 1.34 0 0 1-.45 1.032c-.299.275-.692.413-1.176.413h-2.94v8.495c0 .917.253 1.685.761 2.304s1.13.929 1.868.929h1.176a1.31 1.31 0 0 1 1.038.482c.3.321.45.734.45 1.238s-.196.917-.589 1.238c-.369.321-.853.482-1.453.482h-.622zm22.048 0c-.507 0-.934-.172-1.28-.516s-.518-.768-.518-1.273V5.481c0-.527.173-.952.518-1.273.346-.344.773-.516 1.28-.516h6.262c1.984 0 3.783.332 5.397.997 1.638.642 3.056 1.571 4.255 2.786 1.2 1.192 2.122 2.602 2.768 4.23s.969 3.428.969 5.4-.323 3.783-.969 5.434c-.646 1.628-1.568 3.05-2.768 4.265a12.78 12.78 0 0 1-4.255 2.786c-1.614.642-3.413.963-5.397.963h-6.262zm1.799-3.164h4.463c1.938 0 3.644-.436 5.12-1.307 1.499-.894 2.676-2.109 3.529-3.646.853-1.559 1.28-3.336 1.28-5.331 0-2.018-.427-3.795-1.28-5.331a9.34 9.34 0 0 0-3.529-3.611c-1.476-.871-3.182-1.307-5.12-1.307h-4.463V27.39zm33.426 3.301c-1.914 0-3.621-.401-5.12-1.204a9.28 9.28 0 0 1-3.494-3.371c-.83-1.445-1.245-3.095-1.245-4.953 0-1.88.392-3.531 1.176-4.953.807-1.445 1.914-2.568 3.321-3.371 1.407-.825 3.022-1.238 4.844-1.238 1.798 0 3.344.401 4.635 1.204 1.292.78 2.272 1.869 2.941 3.267.692 1.376 1.038 2.969 1.038 4.781a1.49 1.49 0 0 1-.45 1.101c-.3.275-.68.413-1.142.413H274.44c.254 1.582.98 2.878 2.18 3.887 1.222.986 2.71 1.479 4.462 1.479a6.72 6.72 0 0 0 2.18-.378c.761-.275 1.372-.585 1.833-.929.346-.252.715-.378 1.108-.378.415-.023.772.092 1.072.344.392.344.6.722.623 1.135s-.162.768-.554 1.066c-.784.619-1.764 1.124-2.94 1.513-1.154.39-2.261.585-3.322.585zm-.518-16.131c-1.707 0-3.079.47-4.117 1.41s-1.695 2.155-1.972 3.646h11.52c-.208-1.467-.773-2.671-1.695-3.611-.923-.963-2.168-1.444-3.736-1.444zm14.464 15.994a1.74 1.74 0 0 1-1.28-.516c-.346-.344-.519-.768-.519-1.273V5.481c0-.527.173-.952.519-1.273a1.74 1.74 0 0 1 1.28-.516h15.637c.53 0 .957.161 1.28.482.322.298.484.699.484 1.204 0 .482-.162.871-.484 1.169s-.75.447-1.28.447h-13.838v8.358h9.928c.531 0 .957.161 1.28.482.323.298.485.688.485 1.169s-.162.883-.485 1.204c-.323.298-.749.447-1.28.447h-9.928v10.112c0 .505-.173.929-.519 1.273s-.773.516-1.28.516zm25.15 0c-.507 0-.934-.16-1.28-.482-.323-.344-.484-.768-.484-1.273V13.495c0-.527.161-.952.484-1.273.346-.321.773-.482 1.28-.482.531 0 .957.161 1.28.482s.485.745.485 1.273V28.8a1.79 1.79 0 0 1-.485 1.273c-.323.321-.749.482-1.28.482zm0-21.874c-.622 0-1.164-.218-1.626-.653-.438-.459-.657-.997-.657-1.616a2.15 2.15 0 0 1 .657-1.582c.462-.459 1.004-.688 1.626-.688a2.12 2.12 0 0 1 1.592.688c.461.436.692.963.692 1.582s-.231 1.158-.692 1.616c-.439.436-.969.653-1.592.653z"/></mask><path d="M65.799 30.554c-.507 0-.934-.172-1.28-.516S64 29.27 64 28.765V5.481c0-.527.173-.952.519-1.273.346-.344.773-.516 1.28-.516h6.919c1.73 0 3.263.378 4.601 1.135s2.376 1.811 3.114 3.164c.761 1.33 1.142 2.866 1.142 4.609 0 1.674-.381 3.164-1.142 4.471a7.82 7.82 0 0 1-3.114 3.061c-1.338.734-2.871 1.101-4.601 1.101h-5.12v7.532c0 .505-.173.929-.519 1.273-.323.344-.75.516-1.28.516zm1.799-12.622h5.12c1.568 0 2.86-.493 3.875-1.479 1.015-1.009 1.522-2.293 1.522-3.852 0-1.101-.231-2.064-.692-2.889a5.13 5.13 0 0 0-1.903-1.995c-.807-.482-1.741-.722-2.802-.722h-5.12v10.937zm26.898 12.759c-1.868 0-3.517-.401-4.947-1.204a9.16 9.16 0 0 1-3.39-3.371c-.807-1.445-1.211-3.095-1.211-4.953 0-1.88.404-3.531 1.211-4.953a8.84 8.84 0 0 1 3.39-3.371c1.43-.825 3.079-1.238 4.947-1.238 1.845 0 3.483.413 4.912 1.238 1.43.803 2.548 1.926 3.355 3.371.831 1.422 1.246 3.072 1.246 4.953 0 1.857-.404 3.508-1.211 4.953a8.91 8.91 0 0 1-3.356 3.371c-1.43.802-3.079 1.204-4.947 1.204zm0-3.095c1.199 0 2.26-.275 3.183-.826s1.638-1.307 2.145-2.27c.53-.963.796-2.075.796-3.336s-.266-2.373-.796-3.336a5.61 5.61 0 0 0-2.145-2.304c-.923-.55-1.984-.825-3.183-.825s-2.26.275-3.183.825-1.649 1.318-2.18 2.304c-.531.963-.796 2.075-.796 3.336s.265 2.373.796 3.336a5.91 5.91 0 0 0 2.18 2.27c.922.55 1.983.826 3.183.826zm20.647 2.958c-1.015 0-1.914-.275-2.699-.825s-1.395-1.296-1.833-2.236c-.438-.963-.657-2.064-.657-3.302V5.412c0-.504.161-.917.484-1.238s.738-.482 1.245-.482.923.161 1.246.482.484.734.484 1.238v18.779c0 .848.161 1.548.484 2.098s.738.825 1.246.825h.865c.461 0 .83.16 1.107.482.3.321.449.734.449 1.238s-.219.917-.657 1.238-1.003.482-1.695.482h-.069zm8.953 0c-.507 0-.922-.149-1.245-.447-.3-.321-.45-.734-.45-1.238V5.378c0-.504.15-.906.45-1.204.323-.321.738-.482 1.245-.482s.911.161 1.211.482c.323.298.484.699.484 1.204v13.998l8.407-7.463c.346-.321.726-.47 1.142-.447.438.023.807.206 1.107.55.323.344.472.722.449 1.135s-.207.779-.553 1.101l-6.366 5.64 6.712 8.186c.3.367.427.768.38 1.204-.023.413-.23.78-.622 1.101-.369.298-.784.424-1.246.378-.438-.023-.807-.218-1.107-.585l-6.573-8.082-1.73 1.513v5.262c0 .505-.161.917-.484 1.238-.3.298-.703.447-1.211.447zm25.55.137c-1.684 0-3.194-.413-4.532-1.238-1.338-.848-2.399-1.983-3.183-3.405-.761-1.445-1.142-3.073-1.142-4.884s.416-3.439 1.246-4.884a9.35 9.35 0 0 1 3.425-3.405c1.453-.848 3.079-1.273 4.878-1.273s3.413.424 4.843 1.273a9.08 9.08 0 0 1 3.39 3.405c.854 1.445 1.28 3.073 1.28 4.884v7.67c0 .505-.173.929-.519 1.273-.322.321-.738.482-1.245.482s-.934-.16-1.28-.482c-.323-.344-.484-.768-.484-1.273v-1.273a9.05 9.05 0 0 1-2.941 2.304c-1.13.55-2.375.825-3.736.825zm.692-3.095c1.176 0 2.225-.275 3.148-.826a6.17 6.17 0 0 0 2.179-2.304c.531-.986.796-2.087.796-3.302 0-1.238-.265-2.339-.796-3.302-.53-.986-1.257-1.754-2.179-2.304-.923-.573-1.972-.86-3.148-.86-1.153 0-2.203.287-3.148.86-.923.55-1.661 1.318-2.215 2.304-.53.963-.795 2.064-.795 3.302 0 1.215.265 2.316.795 3.302a6.45 6.45 0 0 0 2.215 2.304c.945.55 1.995.826 3.148.826zm24.729 3.095c-1.799 0-3.425-.413-4.878-1.238-1.43-.848-2.572-1.995-3.425-3.439-.831-1.445-1.246-3.073-1.246-4.884s.381-3.428 1.142-4.849c.784-1.445 1.845-2.579 3.183-3.405 1.337-.848 2.848-1.273 4.532-1.273 1.36 0 2.617.287 3.771.86 1.153.55 2.121 1.307 2.906 2.27V5.446c0-.527.161-.952.484-1.273a1.81 1.81 0 0 1 1.28-.482c.53 0 .957.161 1.28.482s.484.745.484 1.273V21.13c0 1.811-.426 3.439-1.28 4.884a9.35 9.35 0 0 1-3.39 3.439c-1.43.826-3.045 1.238-4.843 1.238zm0-3.095c1.176 0 2.225-.275 3.148-.826a6.1 6.1 0 0 0 2.179-2.339c.531-.986.796-2.087.796-3.302 0-1.238-.265-2.339-.796-3.302a5.91 5.91 0 0 0-2.179-2.27c-.923-.573-1.972-.86-3.148-.86-1.154 0-2.203.287-3.149.86-.922.55-1.66 1.307-2.214 2.27-.53.963-.795 2.064-.795 3.302 0 1.215.265 2.316.795 3.302.554.986 1.292 1.765 2.214 2.339.946.55 1.995.826 3.149.826zm25.708 3.095c-1.868 0-3.517-.401-4.947-1.204a9.16 9.16 0 0 1-3.39-3.371c-.808-1.445-1.211-3.095-1.211-4.953 0-1.88.403-3.531 1.211-4.953.83-1.445 1.96-2.568 3.39-3.371 1.43-.825 3.079-1.238 4.947-1.238 1.845 0 3.483.413 4.913 1.238 1.43.803 2.548 1.926 3.355 3.371.831 1.422 1.246 3.072 1.246 4.953 0 1.857-.404 3.508-1.211 4.953a8.91 8.91 0 0 1-3.356 3.371c-1.43.802-3.079 1.204-4.947 1.204zm0-3.095c1.199 0 2.26-.275 3.183-.826a5.67 5.67 0 0 0 2.145-2.27c.53-.963.795-2.075.795-3.336s-.265-2.373-.795-3.336c-.508-.986-1.223-1.754-2.145-2.304s-1.984-.825-3.183-.825-2.26.275-3.183.825-1.649 1.318-2.179 2.304c-.531.963-.796 2.075-.796 3.336s.265 2.373.796 3.336a5.91 5.91 0 0 0 2.179 2.27c.923.55 1.984.826 3.183.826zm23.034 2.958c-1.153 0-2.191-.287-3.114-.86-.922-.596-1.649-1.399-2.179-2.408s-.796-2.144-.796-3.405v-8.495h-1.591c-.485 0-.877-.138-1.177-.413a1.34 1.34 0 0 1-.449-1.032c0-.459.15-.825.449-1.101s.692-.413 1.177-.413h1.591V7.476c0-.504.161-.917.484-1.238s.738-.482 1.246-.482.922.16 1.245.482.485.734.485 1.238v4.953h2.94c.484 0 .877.138 1.176.413s.45.642.45 1.101a1.34 1.34 0 0 1-.45 1.032c-.299.275-.692.413-1.176.413h-2.94v8.495c0 .917.253 1.685.761 2.304s1.13.929 1.868.929h1.176a1.31 1.31 0 0 1 1.038.482c.3.321.45.734.45 1.238s-.196.917-.589 1.238c-.369.321-.853.482-1.453.482h-.622zm22.048 0c-.507 0-.934-.172-1.28-.516s-.518-.768-.518-1.273V5.481c0-.527.173-.952.518-1.273.346-.344.773-.516 1.28-.516h6.262c1.984 0 3.783.332 5.397.997 1.638.642 3.056 1.571 4.255 2.786 1.2 1.192 2.122 2.602 2.768 4.23s.969 3.428.969 5.4-.323 3.783-.969 5.434c-.646 1.628-1.568 3.05-2.768 4.265a12.78 12.78 0 0 1-4.255 2.786c-1.614.642-3.413.963-5.397.963h-6.262zm1.799-3.164h4.463c1.938 0 3.644-.436 5.12-1.307 1.499-.894 2.676-2.109 3.529-3.646.853-1.559 1.28-3.336 1.28-5.331 0-2.018-.427-3.795-1.28-5.331a9.34 9.34 0 0 0-3.529-3.611c-1.476-.871-3.182-1.307-5.12-1.307h-4.463V27.39zm33.426 3.301c-1.914 0-3.621-.401-5.12-1.204a9.28 9.28 0 0 1-3.494-3.371c-.83-1.445-1.245-3.095-1.245-4.953 0-1.88.392-3.531 1.176-4.953.807-1.445 1.914-2.568 3.321-3.371 1.407-.825 3.022-1.238 4.844-1.238 1.798 0 3.344.401 4.635 1.204 1.292.78 2.272 1.869 2.941 3.267.692 1.376 1.038 2.969 1.038 4.781a1.49 1.49 0 0 1-.45 1.101c-.3.275-.68.413-1.142.413H274.44c.254 1.582.98 2.878 2.18 3.887 1.222.986 2.71 1.479 4.462 1.479a6.72 6.72 0 0 0 2.18-.378c.761-.275 1.372-.585 1.833-.929.346-.252.715-.378 1.108-.378.415-.023.772.092 1.072.344.392.344.6.722.623 1.135s-.162.768-.554 1.066c-.784.619-1.764 1.124-2.94 1.513-1.154.39-2.261.585-3.322.585zm-.518-16.131c-1.707 0-3.079.47-4.117 1.41s-1.695 2.155-1.972 3.646h11.52c-.208-1.467-.773-2.671-1.695-3.611-.923-.963-2.168-1.444-3.736-1.444zm14.464 15.994a1.74 1.74 0 0 1-1.28-.516c-.346-.344-.519-.768-.519-1.273V5.481c0-.527.173-.952.519-1.273a1.74 1.74 0 0 1 1.28-.516h15.637c.53 0 .957.161 1.28.482.322.298.484.699.484 1.204 0 .482-.162.871-.484 1.169s-.75.447-1.28.447h-13.838v8.358h9.928c.531 0 .957.161 1.28.482.323.298.485.688.485 1.169s-.162.883-.485 1.204c-.323.298-.749.447-1.28.447h-9.928v10.112c0 .505-.173.929-.519 1.273s-.773.516-1.28.516zm25.15 0c-.507 0-.934-.16-1.28-.482-.323-.344-.484-.768-.484-1.273V13.495c0-.527.161-.952.484-1.273.346-.321.773-.482 1.28-.482.531 0 .957.161 1.28.482s.485.745.485 1.273V28.8a1.79 1.79 0 0 1-.485 1.273c-.323.321-.749.482-1.28.482zm0-21.874c-.622 0-1.164-.218-1.626-.653-.438-.459-.657-.997-.657-1.616a2.15 2.15 0 0 1 .657-1.582c.462-.459 1.004-.688 1.626-.688a2.12 2.12 0 0 1 1.592.688c.461.436.692.963.692 1.582s-.231 1.158-.692 1.616c-.439.436-.969.653-1.592.653z" fill="#222"/><path d="M65.799 30.554c-.507 0-.934-.172-1.28-.516S64 29.27 64 28.765V5.481c0-.527.173-.952.519-1.273.346-.344.773-.516 1.28-.516h6.919c1.73 0 3.263.378 4.601 1.135s2.376 1.811 3.114 3.164c.761 1.33 1.142 2.866 1.142 4.609 0 1.674-.381 3.164-1.142 4.471a7.82 7.82 0 0 1-3.114 3.061c-1.338.734-2.871 1.101-4.601 1.101h-5.12v7.532c0 .505-.173.929-.519 1.273-.323.344-.75.516-1.28.516zm1.799-12.622h5.12c1.568 0 2.86-.493 3.875-1.479 1.015-1.009 1.522-2.293 1.522-3.852 0-1.101-.231-2.064-.692-2.889a5.13 5.13 0 0 0-1.903-1.995c-.807-.482-1.741-.722-2.802-.722h-5.12v10.937zm26.898 12.759c-1.868 0-3.517-.401-4.947-1.204a9.16 9.16 0 0 1-3.39-3.371c-.807-1.445-1.211-3.095-1.211-4.953 0-1.88.404-3.531 1.211-4.953a8.84 8.84 0 0 1 3.39-3.371c1.43-.825 3.079-1.238 4.947-1.238 1.845 0 3.483.413 4.912 1.238 1.43.803 2.548 1.926 3.355 3.371.831 1.422 1.246 3.072 1.246 4.953 0 1.857-.404 3.508-1.211 4.953a8.91 8.91 0 0 1-3.356 3.371c-1.43.802-3.079 1.204-4.947 1.204zm0-3.095c1.199 0 2.26-.275 3.183-.826s1.638-1.307 2.145-2.27c.53-.963.796-2.075.796-3.336s-.266-2.373-.796-3.336a5.61 5.61 0 0 0-2.145-2.304c-.923-.55-1.984-.825-3.183-.825s-2.26.275-3.183.825-1.649 1.318-2.18 2.304c-.531.963-.796 2.075-.796 3.336s.265 2.373.796 3.336a5.91 5.91 0 0 0 2.18 2.27c.922.55 1.983.826 3.183.826zm20.647 2.958c-1.015 0-1.914-.275-2.699-.825s-1.395-1.296-1.833-2.236c-.438-.963-.657-2.064-.657-3.302V5.412c0-.504.161-.917.484-1.238s.738-.482 1.245-.482.923.161 1.246.482.484.734.484 1.238v18.779c0 .848.161 1.548.484 2.098s.738.825 1.246.825h.865c.461 0 .83.16 1.107.482.3.321.449.734.449 1.238s-.219.917-.657 1.238-1.003.482-1.695.482h-.069zm8.953 0c-.507 0-.922-.149-1.245-.447-.3-.321-.45-.734-.45-1.238V5.378c0-.504.15-.906.45-1.204.323-.321.738-.482 1.245-.482s.911.161 1.211.482c.323.298.484.699.484 1.204v13.998l8.407-7.463c.346-.321.726-.47 1.142-.447.438.023.807.206 1.107.55.323.344.472.722.449 1.135s-.207.779-.553 1.101l-6.366 5.64 6.712 8.186c.3.367.427.768.38 1.204-.023.413-.23.78-.622 1.101-.369.298-.784.424-1.246.378-.438-.023-.807-.218-1.107-.585l-6.573-8.082-1.73 1.513v5.262c0 .505-.161.917-.484 1.238-.3.298-.703.447-1.211.447zm25.55.137c-1.684 0-3.194-.413-4.532-1.238-1.338-.848-2.399-1.983-3.183-3.405-.761-1.445-1.142-3.073-1.142-4.884s.416-3.439 1.246-4.884a9.35 9.35 0 0 1 3.425-3.405c1.453-.848 3.079-1.273 4.878-1.273s3.413.424 4.843 1.273a9.08 9.08 0 0 1 3.39 3.405c.854 1.445 1.28 3.073 1.28 4.884v7.67c0 .505-.173.929-.519 1.273-.322.321-.738.482-1.245.482s-.934-.16-1.28-.482c-.323-.344-.484-.768-.484-1.273v-1.273a9.05 9.05 0 0 1-2.941 2.304c-1.13.55-2.375.825-3.736.825zm.692-3.095c1.176 0 2.225-.275 3.148-.826a6.17 6.17 0 0 0 2.179-2.304c.531-.986.796-2.087.796-3.302 0-1.238-.265-2.339-.796-3.302-.53-.986-1.257-1.754-2.179-2.304-.923-.573-1.972-.86-3.148-.86-1.153 0-2.203.287-3.148.86-.923.55-1.661 1.318-2.215 2.304-.53.963-.795 2.064-.795 3.302 0 1.215.265 2.316.795 3.302a6.45 6.45 0 0 0 2.215 2.304c.945.55 1.995.826 3.148.826zm24.729 3.095c-1.799 0-3.425-.413-4.878-1.238-1.43-.848-2.572-1.995-3.425-3.439-.831-1.445-1.246-3.073-1.246-4.884s.381-3.428 1.142-4.849c.784-1.445 1.845-2.579 3.183-3.405 1.337-.848 2.848-1.273 4.532-1.273 1.36 0 2.617.287 3.771.86 1.153.55 2.121 1.307 2.906 2.27V5.446c0-.527.161-.952.484-1.273a1.81 1.81 0 0 1 1.28-.482c.53 0 .957.161 1.28.482s.484.745.484 1.273V21.13c0 1.811-.426 3.439-1.28 4.884a9.35 9.35 0 0 1-3.39 3.439c-1.43.826-3.045 1.238-4.843 1.238zm0-3.095c1.176 0 2.225-.275 3.148-.826a6.1 6.1 0 0 0 2.179-2.339c.531-.986.796-2.087.796-3.302 0-1.238-.265-2.339-.796-3.302a5.91 5.91 0 0 0-2.179-2.27c-.923-.573-1.972-.86-3.148-.86-1.154 0-2.203.287-3.149.86-.922.55-1.66 1.307-2.214 2.27-.53.963-.795 2.064-.795 3.302 0 1.215.265 2.316.795 3.302.554.986 1.292 1.765 2.214 2.339.946.55 1.995.826 3.149.826zm25.708 3.095c-1.868 0-3.517-.401-4.947-1.204a9.16 9.16 0 0 1-3.39-3.371c-.808-1.445-1.211-3.095-1.211-4.953 0-1.88.403-3.531 1.211-4.953.83-1.445 1.96-2.568 3.39-3.371 1.43-.825 3.079-1.238 4.947-1.238 1.845 0 3.483.413 4.913 1.238 1.43.803 2.548 1.926 3.355 3.371.831 1.422 1.246 3.072 1.246 4.953 0 1.857-.404 3.508-1.211 4.953a8.91 8.91 0 0 1-3.356 3.371c-1.43.802-3.079 1.204-4.947 1.204zm0-3.095c1.199 0 2.26-.275 3.183-.826a5.67 5.67 0 0 0 2.145-2.27c.53-.963.795-2.075.795-3.336s-.265-2.373-.795-3.336c-.508-.986-1.223-1.754-2.145-2.304s-1.984-.825-3.183-.825-2.26.275-3.183.825-1.649 1.318-2.179 2.304c-.531.963-.796 2.075-.796 3.336s.265 2.373.796 3.336a5.91 5.91 0 0 0 2.179 2.27c.923.55 1.984.826 3.183.826zm23.034 2.958c-1.153 0-2.191-.287-3.114-.86-.922-.596-1.649-1.399-2.179-2.408s-.796-2.144-.796-3.405v-8.495h-1.591c-.485 0-.877-.138-1.177-.413a1.34 1.34 0 0 1-.449-1.032c0-.459.15-.825.449-1.101s.692-.413 1.177-.413h1.591V7.476c0-.504.161-.917.484-1.238s.738-.482 1.246-.482.922.16 1.245.482.485.734.485 1.238v4.953h2.94c.484 0 .877.138 1.176.413s.45.642.45 1.101a1.34 1.34 0 0 1-.45 1.032c-.299.275-.692.413-1.176.413h-2.94v8.495c0 .917.253 1.685.761 2.304s1.13.929 1.868.929h1.176a1.31 1.31 0 0 1 1.038.482c.3.321.45.734.45 1.238s-.196.917-.589 1.238c-.369.321-.853.482-1.453.482h-.622zm22.048 0c-.507 0-.934-.172-1.28-.516s-.518-.768-.518-1.273V5.481c0-.527.173-.952.518-1.273.346-.344.773-.516 1.28-.516h6.262c1.984 0 3.783.332 5.397.997 1.638.642 3.056 1.571 4.255 2.786 1.2 1.192 2.122 2.602 2.768 4.23s.969 3.428.969 5.4-.323 3.783-.969 5.434c-.646 1.628-1.568 3.05-2.768 4.265a12.78 12.78 0 0 1-4.255 2.786c-1.614.642-3.413.963-5.397.963h-6.262zm1.799-3.164h4.463c1.938 0 3.644-.436 5.12-1.307 1.499-.894 2.676-2.109 3.529-3.646.853-1.559 1.28-3.336 1.28-5.331 0-2.018-.427-3.795-1.28-5.331a9.34 9.34 0 0 0-3.529-3.611c-1.476-.871-3.182-1.307-5.12-1.307h-4.463V27.39zm33.426 3.301c-1.914 0-3.621-.401-5.12-1.204a9.28 9.28 0 0 1-3.494-3.371c-.83-1.445-1.245-3.095-1.245-4.953 0-1.88.392-3.531 1.176-4.953.807-1.445 1.914-2.568 3.321-3.371 1.407-.825 3.022-1.238 4.844-1.238 1.798 0 3.344.401 4.635 1.204 1.292.78 2.272 1.869 2.941 3.267.692 1.376 1.038 2.969 1.038 4.781a1.49 1.49 0 0 1-.45 1.101c-.3.275-.68.413-1.142.413H274.44c.254 1.582.98 2.878 2.18 3.887 1.222.986 2.71 1.479 4.462 1.479a6.72 6.72 0 0 0 2.18-.378c.761-.275 1.372-.585 1.833-.929.346-.252.715-.378 1.108-.378.415-.023.772.092 1.072.344.392.344.6.722.623 1.135s-.162.768-.554 1.066c-.784.619-1.764 1.124-2.94 1.513-1.154.39-2.261.585-3.322.585zm-.518-16.131c-1.707 0-3.079.47-4.117 1.41s-1.695 2.155-1.972 3.646h11.52c-.208-1.467-.773-2.671-1.695-3.611-.923-.963-2.168-1.444-3.736-1.444zm14.464 15.994a1.74 1.74 0 0 1-1.28-.516c-.346-.344-.519-.768-.519-1.273V5.481c0-.527.173-.952.519-1.273a1.74 1.74 0 0 1 1.28-.516h15.637c.53 0 .957.161 1.28.482.322.298.484.699.484 1.204 0 .482-.162.871-.484 1.169s-.75.447-1.28.447h-13.838v8.358h9.928c.531 0 .957.161 1.28.482.323.298.485.688.485 1.169s-.162.883-.485 1.204c-.323.298-.749.447-1.28.447h-9.928v10.112c0 .505-.173.929-.519 1.273s-.773.516-1.28.516zm25.15 0c-.507 0-.934-.16-1.28-.482-.323-.344-.484-.768-.484-1.273V13.495c0-.527.161-.952.484-1.273.346-.321.773-.482 1.28-.482.531 0 .957.161 1.28.482s.485.745.485 1.273V28.8a1.79 1.79 0 0 1-.485 1.273c-.323.321-.749.482-1.28.482zm0-21.874c-.622 0-1.164-.218-1.626-.653-.438-.459-.657-.997-.657-1.616a2.15 2.15 0 0 1 .657-1.582c.462-.459 1.004-.688 1.626-.688a2.12 2.12 0 0 1 1.592.688c.461.436.692.963.692 1.582s-.231 1.158-.692 1.616c-.439.436-.969.653-1.592.653z" stroke="#222" mask="url(#A)"/></svg>