<svg xmlns="http://www.w3.org/2000/svg" width="468" height="72" fill="none" xmlns:v="https://vecta.io/nano"><circle cx="34.941" cy="34.941" r="34.941" fill="#fd78b0"/><path d="M51.921 49.77a1.85 1.85 0 0 1-1.36-.551c-.368-.367-.551-.821-.551-1.36V22.972c0-.564.184-1.017.551-1.36.368-.368.821-.551 1.36-.551h7.352c1.838 0 3.468.404 4.889 1.213a8.45 8.45 0 0 1 3.308 3.382c.809 1.421 1.213 3.063 1.213 4.926 0 1.789-.404 3.382-1.213 4.779a8.33 8.33 0 0 1-3.308 3.272c-1.421.784-3.051 1.176-4.889 1.176h-5.44v8.051a1.85 1.85 0 0 1-.551 1.36c-.343.368-.797.551-1.36.551zm1.912-13.491h5.441c1.666 0 3.039-.527 4.117-1.581 1.078-1.078 1.617-2.451 1.617-4.117 0-1.176-.245-2.206-.735-3.088a5.46 5.46 0 0 0-2.022-2.132c-.858-.515-1.85-.772-2.978-.772h-5.44v11.69zm27.11 13.638c-1.985 0-3.737-.429-5.257-1.287a9.77 9.77 0 0 1-3.603-3.602c-.858-1.544-1.287-3.308-1.287-5.293 0-2.01.429-3.774 1.287-5.293a9.42 9.42 0 0 1 3.603-3.603c1.519-.882 3.272-1.323 5.257-1.323 1.96 0 3.701.441 5.22 1.323a9.17 9.17 0 0 1 3.566 3.603c.882 1.52 1.323 3.284 1.323 5.293 0 1.985-.429 3.75-1.287 5.293-.858 1.52-2.046 2.72-3.566 3.602-1.519.858-3.272 1.287-5.257 1.287zm0-3.308c1.274 0 2.402-.294 3.382-.882a6.04 6.04 0 0 0 2.279-2.426c.564-1.029.846-2.218.846-3.566s-.282-2.536-.846-3.566c-.539-1.054-1.299-1.875-2.279-2.463s-2.108-.882-3.382-.882-2.402.294-3.382.882-1.752 1.409-2.316 2.463c-.564 1.029-.846 2.218-.846 3.566s.282 2.536.846 3.566a6.3 6.3 0 0 0 2.316 2.426c.98.588 2.108.882 3.382.882zm20.469 3.161c-1.079 0-2.035-.294-2.868-.882s-1.483-1.385-1.948-2.389c-.466-1.029-.698-2.206-.698-3.529V22.899c0-.539.172-.98.515-1.323s.784-.515 1.323-.515.98.172 1.323.515.515.784.515 1.323V42.97c0 .907.171 1.654.514 2.242s.784.882 1.324.882h.919c.49 0 .882.172 1.176.515.318.343.478.784.478 1.323s-.233.98-.699 1.323-1.066.515-1.801.515h-.073zm8.043 0c-.539 0-.98-.159-1.323-.478-.319-.343-.478-.784-.478-1.323V22.862c0-.539.159-.968.478-1.287.343-.343.784-.515 1.323-.515s.968.172 1.286.515c.344.319.515.747.515 1.287v14.961l8.933-7.977c.367-.343.772-.502 1.213-.478.466.024.858.221 1.176.588.343.368.503.772.478 1.213s-.22.833-.588 1.176l-6.764 6.029 7.132 8.749c.318.392.453.821.404 1.287-.025.441-.245.833-.662 1.176-.392.319-.833.453-1.323.404-.466-.025-.858-.233-1.176-.625l-6.985-8.639-1.838 1.617v5.624c0 .539-.171.98-.515 1.323-.318.319-.747.478-1.286.478zm25.678.147c-1.789 0-3.394-.441-4.816-1.323-1.421-.907-2.548-2.12-3.382-3.639-.808-1.544-1.213-3.284-1.213-5.22s.441-3.676 1.324-5.22a9.96 9.96 0 0 1 3.639-3.639c1.544-.907 3.272-1.36 5.183-1.36s3.627.453 5.147 1.36c1.519.882 2.72 2.095 3.602 3.639.907 1.544 1.36 3.284 1.36 5.22v8.198a1.85 1.85 0 0 1-.551 1.36c-.343.343-.784.515-1.324.515s-.992-.172-1.36-.515c-.343-.368-.514-.821-.514-1.36v-1.36a9.63 9.63 0 0 1-3.125 2.463c-1.201.588-2.524.882-3.97.882zm.735-3.308c1.25 0 2.365-.294 3.345-.882a6.57 6.57 0 0 0 2.316-2.463c.564-1.054.846-2.23.846-3.529 0-1.323-.282-2.5-.846-3.529-.563-1.054-1.335-1.875-2.316-2.463-.98-.613-2.095-.919-3.345-.919a6.3 6.3 0 0 0-3.345.919c-.98.588-1.764 1.409-2.353 2.463-.563 1.029-.845 2.206-.845 3.529 0 1.299.282 2.475.845 3.529a6.89 6.89 0 0 0 2.353 2.463c1.005.588 2.12.882 3.345.882zm24.806 3.308c-1.911 0-3.639-.441-5.183-1.323-1.52-.907-2.733-2.132-3.639-3.676-.883-1.544-1.324-3.284-1.324-5.22s.405-3.664 1.213-5.183c.834-1.544 1.961-2.757 3.382-3.639 1.422-.907 3.027-1.36 4.816-1.36 1.446 0 2.781.306 4.007.919 1.225.588 2.254 1.397 3.088 2.426v-9.925c0-.564.171-1.017.514-1.36.368-.343.821-.515 1.36-.515.564 0 1.017.172 1.36.515s.515.797.515 1.36v16.763c0 1.936-.453 3.676-1.36 5.22-.882 1.544-2.083 2.769-3.603 3.676-1.519.882-3.234 1.323-5.146 1.323zm0-3.308c1.25 0 2.365-.294 3.345-.882.981-.613 1.752-1.446 2.316-2.5s.846-2.23.846-3.529c0-1.323-.282-2.5-.846-3.529a6.3 6.3 0 0 0-2.316-2.426c-.98-.613-2.095-.919-3.345-.919a6.3 6.3 0 0 0-3.345.919 6.58 6.58 0 0 0-2.353 2.426c-.563 1.029-.845 2.206-.845 3.529 0 1.299.282 2.475.845 3.529.588 1.054 1.373 1.887 2.353 2.5 1.005.588 2.12.882 3.345.882zm25.847 3.308c-1.985 0-3.737-.429-5.257-1.287a9.77 9.77 0 0 1-3.602-3.602c-.858-1.544-1.287-3.308-1.287-5.293 0-2.01.429-3.774 1.287-5.293a9.42 9.42 0 0 1 3.602-3.603c1.52-.882 3.272-1.323 5.257-1.323 1.961 0 3.701.441 5.22 1.323a9.17 9.17 0 0 1 3.566 3.603c.882 1.52 1.323 3.284 1.323 5.293 0 1.985-.429 3.75-1.287 5.293a9.49 9.49 0 0 1-3.565 3.602c-1.52.858-3.272 1.287-5.257 1.287zm0-3.308c1.274 0 2.402-.294 3.382-.882a6.04 6.04 0 0 0 2.279-2.426c.564-1.029.846-2.218.846-3.566s-.282-2.536-.846-3.566c-.539-1.054-1.299-1.875-2.279-2.463s-2.108-.882-3.382-.882-2.402.294-3.382.882a6.24 6.24 0 0 0-2.316 2.463c-.563 1.029-.845 2.218-.845 3.566s.282 2.536.845 3.566 1.336 1.838 2.316 2.426 2.108.882 3.382.882zm23.005 3.161c-1.226 0-2.328-.306-3.309-.919-.98-.637-1.752-1.495-2.316-2.573s-.845-2.291-.845-3.639v-9.08h-1.691c-.515 0-.931-.147-1.25-.441a1.44 1.44 0 0 1-.478-1.103c0-.49.16-.882.478-1.176s.735-.441 1.25-.441h1.691v-5.293c0-.539.171-.98.515-1.323s.784-.515 1.323-.515.98.171 1.323.515.515.784.515 1.323v5.293h3.125c.514 0 .931.147 1.249.441s.478.686.478 1.176c0 .441-.159.809-.478 1.103s-.735.441-1.249.441h-3.125v9.08c0 .98.269 1.801.809 2.463s1.2.992 1.985.992h1.25a1.39 1.39 0 0 1 1.102.515c.319.343.478.784.478 1.323s-.208.98-.625 1.323c-.392.343-.906.515-1.544.515h-.661zm20.487 0a1.85 1.85 0 0 1-1.911-1.911V22.972c0-.564.184-1.017.551-1.36.368-.368.821-.551 1.36-.551h6.654c2.108 0 4.019.355 5.735 1.066 1.74.686 3.247 1.679 4.521 2.978 1.274 1.274 2.255 2.782 2.941 4.522s1.029 3.664 1.029 5.771-.343 4.044-1.029 5.808c-.686 1.74-1.667 3.259-2.941 4.558-1.274 1.274-2.781 2.267-4.521 2.978-1.716.686-3.627 1.029-5.735 1.029h-6.654zm1.912-3.382h4.742c2.059 0 3.872-.466 5.44-1.397a10.23 10.23 0 0 0 3.75-3.897c.907-1.666 1.36-3.566 1.36-5.698 0-2.157-.453-4.056-1.36-5.698a9.96 9.96 0 0 0-3.75-3.86c-1.568-.931-3.381-1.397-5.44-1.397h-4.742v21.946zm34.047 3.529c-2.034 0-3.847-.429-5.44-1.287-1.569-.882-2.806-2.083-3.713-3.602-.882-1.544-1.323-3.308-1.323-5.293 0-2.01.416-3.774 1.25-5.293.857-1.544 2.034-2.745 3.528-3.603 1.495-.882 3.211-1.323 5.147-1.323 1.911 0 3.553.429 4.926 1.287 1.372.833 2.414 1.997 3.124 3.492.736 1.47 1.103 3.174 1.103 5.11 0 .466-.159.858-.478 1.176-.318.294-.723.441-1.213.441h-13.969c.27 1.691 1.042 3.076 2.316 4.154 1.299 1.054 2.88 1.581 4.742 1.581.76 0 1.532-.135 2.316-.404.809-.294 1.458-.625 1.948-.992.368-.27.76-.404 1.177-.404.441-.024.821.098 1.139.368.417.368.638.772.662 1.213s-.172.821-.588 1.14c-.833.662-1.875 1.201-3.125 1.617-1.225.417-2.401.625-3.529.625zm-.551-17.241c-1.814 0-3.272.502-4.375 1.507s-1.801 2.304-2.095 3.897h12.241c-.22-1.568-.821-2.855-1.801-3.86-.98-1.029-2.304-1.544-3.97-1.544zM279.32 49.77c-.539 0-.993-.184-1.36-.551a1.85 1.85 0 0 1-.552-1.36V22.972c0-.564.184-1.017.552-1.36.367-.368.821-.551 1.36-.551h16.615c.564 0 1.017.172 1.36.515.343.319.515.747.515 1.287 0 .515-.172.931-.515 1.25s-.796.478-1.36.478h-14.704v8.933h10.55c.564 0 1.017.172 1.36.515.344.319.515.735.515 1.25s-.171.944-.515 1.287c-.343.319-.796.478-1.36.478h-10.55v10.807a1.85 1.85 0 0 1-.551 1.36c-.368.368-.821.551-1.36.551zm25.254 0c-.539 0-.993-.172-1.36-.515-.343-.368-.515-.821-.515-1.36V31.537c0-.564.172-1.017.515-1.36.367-.343.821-.515 1.36-.515.564 0 1.017.172 1.36.515s.515.796.515 1.36v16.358c0 .539-.172.993-.515 1.36-.343.343-.796.515-1.36.515zm0-23.379c-.662 0-1.238-.233-1.728-.698-.466-.49-.698-1.066-.698-1.728a2.3 2.3 0 0 1 .698-1.691c.49-.49 1.066-.735 1.728-.735s1.225.245 1.691.735c.49.466.735 1.029.735 1.691s-.245 1.238-.735 1.728a2.3 2.3 0 0 1-1.691.698z" fill="#000"/><path d="M341.296 17c-.235 0-.432-.08-.592-.24s-.24-.357-.24-.592V6.04h-3.456a.79.79 0 0 1-.56-.208.79.79 0 0 1-.208-.56c0-.224.069-.405.208-.544a.76.76 0 0 1 .56-.224h8.56c.224 0 .405.075.544.224.149.139.224.32.224.544a.76.76 0 0 1-.224.56c-.139.139-.32.208-.544.208h-3.44v10.128c0 .235-.08.432-.24.592s-.357.24-.592.24zm7.538.016c-.235 0-.432-.075-.592-.224-.149-.16-.224-.357-.224-.592V9.064c0-.245.075-.443.224-.592.16-.149.357-.224.592-.224a.8.8 0 0 1 .592.224c.149.149.224.347.224.592v.176a3.61 3.61 0 0 1 1.2-.784c.469-.192.976-.288 1.52-.288.736 0 1.392.16 1.968.48a3.29 3.29 0 0 1 1.376 1.376c.341.608.512 1.355.512 2.24V16.2c0 .235-.08.432-.24.592-.149.149-.341.224-.576.224s-.432-.075-.592-.224c-.149-.16-.224-.357-.224-.592v-3.936c0-.907-.245-1.568-.736-1.984-.48-.427-1.083-.64-1.808-.64-.448 0-.853.091-1.216.272a2.24 2.24 0 0 0-.864.736c-.213.299-.32.645-.32 1.04V16.2c0 .235-.075.432-.224.592a.8.8 0 0 1-.592.224zm0-3.2c-.235 0-.432-.075-.592-.224-.149-.16-.224-.357-.224-.592V5.32c0-.245.075-.443.224-.592.16-.149.357-.224.592-.224a.8.8 0 0 1 .592.224c.149.149.224.347.224.592V13c0 .235-.075.432-.224.592a.8.8 0 0 1-.592.224zm14.218 3.248c-.885 0-1.675-.187-2.368-.56-.683-.384-1.221-.907-1.616-1.568-.384-.672-.576-1.44-.576-2.304 0-.875.181-1.643.544-2.304.373-.672.885-1.195 1.536-1.568.651-.384 1.397-.576 2.24-.576.832 0 1.547.187 2.144.56.597.363 1.051.869 1.36 1.52.32.64.48 1.381.48 2.224 0 .203-.069.373-.208.512-.139.128-.315.192-.528.192h-6.08c.117.736.453 1.339 1.008 1.808.565.459 1.253.688 2.064.688.331 0 .667-.059 1.008-.176.352-.128.635-.272.848-.432a.85.85 0 0 1 .512-.176.68.68 0 0 1 .496.16c.181.16.277.336.288.528s-.075.357-.256.496c-.363.288-.816.523-1.36.704-.533.181-1.045.272-1.536.272zm-.24-7.504c-.789 0-1.424.219-1.904.656s-.784 1.003-.912 1.696h5.328c-.096-.683-.357-1.243-.784-1.68-.427-.448-1.003-.672-1.728-.672zM374.541 17c-.235 0-.432-.08-.592-.24-.149-.16-.224-.352-.224-.576v-6.24h-.688a.77.77 0 0 1-.544-.192c-.139-.128-.208-.288-.208-.48 0-.213.069-.384.208-.512a.77.77 0 0 1 .544-.192h.688v-.272c0-1.195.357-2.144 1.072-2.848.725-.704 1.899-1.056 3.52-1.056.768 0 1.381.128 1.84.384.469.256.704.587.704.992 0 .469-.288.704-.864.704-.224 0-.427-.048-.608-.144-.171-.096-.341-.208-.512-.336a3.57 3.57 0 0 0-.544-.336c-.192-.096-.416-.144-.672-.144-.395 0-.768.08-1.12.24-.352.149-.64.427-.864.832-.213.405-.32.976-.32 1.712v.272h1.648a.77.77 0 0 1 .544.192c.139.128.208.299.208.512 0 .192-.069.352-.208.48a.77.77 0 0 1-.544.192h-1.648v6.24c0 .224-.08.416-.24.576a.75.75 0 0 1-.576.24zm5.328 0c-.235 0-.432-.075-.592-.224-.149-.16-.224-.357-.224-.592v-7.12c0-.245.075-.443.224-.592.16-.149.357-.224.592-.224a.8.8 0 0 1 .592.224c.149.149.224.347.224.592v7.12c0 .235-.075.432-.224.592a.8.8 0 0 1-.592.224zm4.59 0c-.534 0-.8-.267-.8-.8V9.048c0-.533.266-.8.8-.8s.8.267.8.8v.304a3.41 3.41 0 0 1 1.168-.88c.469-.213.976-.32 1.52-.32.64 0 1.114.107 1.424.32.32.203.442.448.368.736-.054.224-.16.373-.32.448-.16.064-.347.075-.56.032-.683-.139-1.296-.149-1.84-.032s-.976.336-1.296.656c-.31.32-.464.725-.464 1.216V16.2c0 .533-.267.8-.8.8zm10.165.064c-.747 0-1.44-.112-2.08-.336-.629-.235-1.12-.528-1.472-.88a.71.71 0 0 1-.208-.576c.032-.224.139-.405.32-.544.213-.171.421-.24.624-.208.213.021.395.112.544.272.181.203.469.395.864.576.405.171.853.256 1.344.256.619 0 1.088-.101 1.408-.304.331-.203.501-.464.512-.784s-.144-.597-.464-.832c-.309-.235-.88-.427-1.712-.576-1.077-.213-1.861-.533-2.352-.96-.48-.427-.72-.949-.72-1.568 0-.544.16-.992.48-1.344.32-.363.731-.629 1.232-.8.501-.181 1.024-.272 1.568-.272.704 0 1.328.112 1.872.336s.976.533 1.296.928c.149.171.219.352.208.544-.011.181-.101.336-.272.464-.171.117-.373.155-.608.112s-.432-.139-.592-.288c-.267-.256-.555-.432-.864-.528s-.667-.144-1.072-.144c-.469 0-.869.08-1.2.24-.32.16-.48.395-.48.704 0 .192.048.368.144.528.107.149.309.288.608.416.299.117.736.235 1.312.352 1.205.235 2.037.571 2.496 1.008.469.427.704.955.704 1.584 0 .491-.133.933-.4 1.328-.256.395-.64.709-1.152.944-.501.235-1.131.352-1.888.352zm8.688-.064c-.534 0-1.014-.133-1.44-.4a2.92 2.92 0 0 1-1.008-1.12c-.246-.469-.368-.997-.368-1.584V9.944h-.736c-.224 0-.406-.064-.545-.192s-.207-.288-.207-.48c0-.213.069-.384.207-.512s.321-.192.545-.192h.736V6.264c0-.235.074-.427.224-.576s.341-.224.576-.224.426.075.576.224a.78.78 0 0 1 .224.576v2.304h1.36a.77.77 0 0 1 .544.192c.138.128.208.299.208.512a.63.63 0 0 1-.208.48.77.77 0 0 1-.544.192h-1.36v3.952c0 .427.117.784.352 1.072s.522.432.864.432h.544c.192 0 .352.075.48.224.138.149.208.341.208.576s-.091.427-.272.576c-.171.149-.395.224-.672.224h-.288zm8.917 0c-.235 0-.432-.08-.592-.24s-.24-.357-.24-.592V5.336c0-.245.08-.443.24-.592.16-.16.357-.24.592-.24h2.896c.917 0 1.749.155 2.496.464.757.299 1.413.731 1.968 1.296a5.71 5.71 0 0 1 1.28 1.968c.299.757.448 1.595.448 2.512s-.149 1.76-.448 2.528a5.88 5.88 0 0 1-1.28 1.984c-.555.555-1.211.987-1.968 1.296-.747.299-1.579.448-2.496.448h-2.896zm.832-1.472h2.064c.896 0 1.685-.203 2.368-.608.693-.416 1.237-.981 1.632-1.696.395-.725.592-1.552.592-2.48 0-.939-.197-1.765-.592-2.48a4.34 4.34 0 0 0-1.632-1.68c-.683-.405-1.472-.608-2.368-.608h-2.064v9.552zm14.819 1.536c-.885 0-1.675-.187-2.368-.56-.683-.384-1.221-.907-1.616-1.568-.384-.672-.576-1.44-.576-2.304 0-.875.181-1.643.544-2.304.373-.672.885-1.195 1.536-1.568.651-.384 1.397-.576 2.24-.576.832 0 1.547.187 2.144.56.597.363 1.051.869 1.36 1.52.32.64.48 1.381.48 2.224 0 .203-.069.373-.208.512-.139.128-.315.192-.528.192h-6.08c.117.736.453 1.339 1.008 1.808.565.459 1.253.688 2.064.688.331 0 .667-.059 1.008-.176.352-.128.635-.272.848-.432a.85.85 0 0 1 .512-.176.68.68 0 0 1 .496.16c.181.16.277.336.288.528s-.075.357-.256.496c-.363.288-.816.523-1.36.704-.533.181-1.045.272-1.536.272zm-.24-7.504c-.789 0-1.424.219-1.904.656s-.784 1.003-.912 1.696h5.328c-.096-.683-.357-1.243-.784-1.68-.427-.448-1.003-.672-1.728-.672zm7.042 7.44c-.235 0-.432-.08-.592-.24a.81.81 0 0 1-.224-.576v-6.24h-.688c-.224 0-.406-.064-.544-.192s-.208-.288-.208-.48c0-.213.069-.384.208-.512s.32-.192.544-.192h.688v-.272c0-1.195.357-2.144 1.072-2.848.725-.704 1.898-1.056 3.52-1.056.768 0 1.381.128 1.84.384.469.256.704.587.704.992 0 .469-.288.704-.864.704-.224 0-.427-.048-.608-.144a4.58 4.58 0 0 1-.512-.336 3.57 3.57 0 0 0-.544-.336c-.192-.096-.416-.144-.672-.144-.395 0-.768.08-1.12.24-.352.149-.64.427-.864.832-.214.405-.32.976-.32 1.712v.272h1.648a.77.77 0 0 1 .544.192c.138.128.208.299.208.512a.63.63 0 0 1-.208.48.77.77 0 0 1-.544.192h-1.648v6.24c0 .224-.08.416-.24.576-.15.16-.342.24-.576.24zm5.328 0c-.235 0-.432-.075-.592-.224a.83.83 0 0 1-.224-.592v-7.12c0-.245.074-.443.224-.592.16-.149.357-.224.592-.224.245 0 .442.075.592.224s.224.347.224.592v7.12c0 .235-.075.432-.224.592-.15.149-.347.224-.592.224zm-98.458 24.064c-.885 0-1.675-.187-2.368-.56-.683-.384-1.221-.907-1.616-1.568-.384-.672-.576-1.44-.576-2.304 0-.875.181-1.643.544-2.304.373-.672.885-1.195 1.536-1.568.651-.384 1.397-.576 2.24-.576.832 0 1.547.187 2.144.56.597.363 1.051.869 1.36 1.52.32.64.48 1.381.48 2.224 0 .203-.069.373-.208.512-.139.128-.315.192-.528.192h-6.08c.117.736.453 1.339 1.008 1.808.565.459 1.253.688 2.064.688.331 0 .667-.059 1.008-.176.352-.128.635-.272.848-.432a.85.85 0 0 1 .512-.176.68.68 0 0 1 .496.16c.181.16.277.336.288.528s-.075.357-.256.496c-.363.288-.816.523-1.36.704-.533.181-1.045.272-1.536.272zm-.24-7.504c-.789 0-1.424.219-1.904.656s-.784 1.003-.912 1.696h5.328c-.096-.683-.357-1.243-.784-1.68-.427-.448-1.003-.672-1.728-.672zm8.713 7.424c-.331 0-.587-.176-.768-.528l-3.392-7.152c-.085-.181-.096-.357-.032-.528.075-.181.213-.32.416-.416.181-.096.363-.112.544-.048.192.064.336.187.432.368l2.784 6 2.752-6c.096-.181.24-.304.432-.368.203-.064.405-.048.608.048.192.085.32.219.384.4s.053.363-.032.544l-3.392 7.152c-.16.352-.405.528-.736.528zm9.605.08c-.885 0-1.675-.187-2.368-.56-.683-.384-1.221-.907-1.616-1.568-.384-.672-.576-1.44-.576-2.304 0-.875.181-1.643.544-2.304.373-.672.885-1.195 1.536-1.568.651-.384 1.397-.576 2.24-.576.832 0 1.547.187 2.144.56.597.363 1.051.869 1.36 1.52.32.64.48 1.381.48 2.224 0 .203-.069.373-.208.512-.139.128-.315.192-.528.192h-6.08c.117.736.453 1.339 1.008 1.808.565.459 1.253.688 2.064.688.331 0 .667-.059 1.008-.176.352-.128.635-.272.848-.432a.85.85 0 0 1 .512-.176.68.68 0 0 1 .496.16c.181.16.277.336.288.528s-.075.357-.256.496c-.363.288-.816.523-1.36.704-.533.181-1.045.272-1.536.272zm-.24-7.504c-.789 0-1.424.219-1.904.656s-.784 1.003-.912 1.696h5.328c-.096-.683-.357-1.243-.784-1.68-.427-.448-1.003-.672-1.728-.672zm6.882 7.456c-.235 0-.432-.075-.592-.224a.83.83 0 0 1-.224-.592v-7.136c0-.245.074-.443.224-.592.16-.149.357-.224.592-.224.245 0 .442.075.592.224s.224.347.224.592v.176a3.59 3.59 0 0 1 1.2-.784c.469-.192.976-.288 1.52-.288.736 0 1.392.16 1.968.48.586.309 1.045.768 1.376 1.376.341.608.512 1.355.512 2.24V40.2c0 .235-.08.432-.24.592-.15.149-.342.224-.576.224s-.432-.075-.592-.224a.83.83 0 0 1-.224-.592v-3.936c0-.907-.246-1.568-.736-1.984-.48-.427-1.083-.64-1.808-.64a2.68 2.68 0 0 0-1.216.272 2.24 2.24 0 0 0-.864.736c-.214.299-.32.645-.32 1.04V40.2c0 .235-.075.432-.224.592-.15.149-.347.224-.592.224zM379.546 41c-.533 0-1.013-.133-1.44-.4a2.92 2.92 0 0 1-1.008-1.12c-.245-.469-.368-.997-.368-1.584v-3.952h-.736a.77.77 0 0 1-.544-.192c-.139-.128-.208-.288-.208-.48 0-.213.069-.384.208-.512a.77.77 0 0 1 .544-.192h.736v-2.304a.78.78 0 0 1 .224-.576c.149-.149.341-.224.576-.224s.427.075.576.224a.78.78 0 0 1 .224.576v2.304h1.36a.77.77 0 0 1 .544.192c.139.128.208.299.208.512 0 .192-.069.352-.208.48a.77.77 0 0 1-.544.192h-1.36v3.952c0 .427.117.784.352 1.072s.523.432.864.432h.544c.192 0 .352.075.48.224.139.149.208.341.208.576s-.091.427-.272.576c-.171.149-.395.224-.672.224h-.288zm8.869 0c-.202 0-.384-.075-.544-.224s-.24-.347-.24-.592v-6.24h-.688a.77.77 0 0 1-.544-.192.63.63 0 0 1-.208-.48c0-.213.07-.384.208-.512a.77.77 0 0 1 .544-.192h.688v-.272c0-.768.15-1.435.448-2a3.3 3.3 0 0 1 1.28-1.312c.544-.32 1.174-.48 1.888-.48.235 0 .427.069.576.208a.67.67 0 0 1 .24.528.7.7 0 0 1-.24.528c-.149.139-.341.208-.576.208-.597 0-1.077.197-1.44.592s-.544.917-.544 1.568v.432h1.632c.224 0 .406.064.544.192s.208.299.208.512c0 .192-.069.352-.208.48s-.32.192-.544.192h-1.632v6.24c0 .245-.074.443-.224.592s-.357.224-.624.224zm8.587.064c-.864 0-1.627-.187-2.288-.56-.662-.384-1.184-.907-1.568-1.568-.374-.672-.56-1.44-.56-2.304 0-.875.186-1.643.56-2.304.384-.672.906-1.195 1.568-1.568.661-.384 1.424-.576 2.288-.576.853 0 1.61.192 2.272.576.661.373 1.178.896 1.552 1.568.384.661.576 1.429.576 2.304 0 .864-.187 1.632-.56 2.304a4.14 4.14 0 0 1-1.552 1.568c-.662.373-1.424.56-2.288.56zm0-1.44c.554 0 1.045-.128 1.472-.384s.757-.608.992-1.056c.245-.448.368-.965.368-1.552s-.123-1.104-.368-1.552a2.61 2.61 0 0 0-.992-1.072c-.427-.256-.918-.384-1.472-.384s-1.046.128-1.472.384a2.71 2.71 0 0 0-1.008 1.072c-.246.448-.368.965-.368 1.552s.122 1.104.368 1.552.581.8 1.008 1.056.917.384 1.472.384zm10.797 1.44c-.854 0-1.616-.192-2.288-.576a4.37 4.37 0 0 1-1.568-1.584c-.374-.672-.56-1.429-.56-2.272 0-.864.186-1.632.56-2.304s.885-1.195 1.536-1.568c.65-.384 1.397-.576 2.24-.576 1.258 0 2.304.48 3.136 1.44.149.171.202.347.16.528s-.16.341-.352.48c-.15.107-.315.144-.496.112-.182-.043-.347-.139-.496-.288-.523-.555-1.174-.832-1.952-.832-.822 0-1.488.277-2 .832-.512.544-.768 1.269-.768 2.176 0 .576.117 1.088.352 1.536a2.86 2.86 0 0 0 1.008 1.072c.426.256.922.384 1.488.384.725 0 1.312-.187 1.76-.56.17-.139.346-.213.528-.224.181-.021.341.027.48.144.181.149.282.32.304.512.021.181-.043.347-.192.496-.768.715-1.728 1.072-2.88 1.072zm9.321.016c-.736 0-1.397-.155-1.984-.464-.576-.32-1.035-.784-1.376-1.392-.331-.608-.496-1.355-.496-2.24v-3.936a.78.78 0 0 1 .224-.576c.16-.16.357-.24.592-.24a.75.75 0 0 1 .576.24c.16.149.24.341.24.576v3.936c0 .907.24 1.573.72 2 .491.416 1.099.624 1.824.624.459 0 .864-.091 1.216-.272a2.24 2.24 0 0 0 .864-.736 1.79 1.79 0 0 0 .32-1.04v-4.512c0-.245.075-.443.224-.592.16-.149.357-.224.592-.224a.8.8 0 0 1 .592.224c.149.149.224.347.224.592v7.136c0 .235-.075.432-.224.592a.8.8 0 0 1-.592.224c-.235 0-.432-.075-.592-.224-.149-.16-.224-.357-.224-.592v-.176a3.61 3.61 0 0 1-1.2.784c-.469.192-.976.288-1.52.288zm10.41-.016c-.746 0-1.44-.112-2.08-.336-.629-.235-1.12-.528-1.472-.88a.71.71 0 0 1-.208-.576c.032-.224.139-.405.32-.544.214-.171.422-.24.624-.208.214.021.395.112.544.272.182.203.47.395.864.576.406.171.854.256 1.344.256.619 0 1.088-.101 1.408-.304.331-.203.502-.464.512-.784s-.144-.597-.464-.832c-.309-.235-.88-.427-1.712-.576-1.077-.213-1.861-.533-2.352-.96-.48-.427-.72-.949-.72-1.568 0-.544.16-.992.48-1.344.32-.363.731-.629 1.232-.8a4.58 4.58 0 0 1 1.568-.272c.704 0 1.328.112 1.872.336s.976.533 1.296.928c.15.171.219.352.208.544-.01.181-.101.336-.272.464-.17.117-.373.155-.608.112a1.15 1.15 0 0 1-.592-.288 2.17 2.17 0 0 0-.864-.528c-.309-.096-.666-.144-1.072-.144-.469 0-.869.08-1.2.24-.32.16-.48.395-.48.704 0 .192.048.368.144.528.107.149.31.288.608.416.299.117.736.235 1.312.352 1.206.235 2.038.571 2.496 1.008a2.05 2.05 0 0 1 .704 1.584c0 .491-.133.933-.4 1.328-.256.395-.64.709-1.152.944-.501.235-1.13.352-1.888.352zm9.616 0c-.886 0-1.675-.187-2.368-.56-.683-.384-1.222-.907-1.616-1.568-.384-.672-.576-1.44-.576-2.304 0-.875.181-1.643.544-2.304.373-.672.885-1.195 1.536-1.568.65-.384 1.397-.576 2.24-.576.832 0 1.546.187 2.144.56a3.49 3.49 0 0 1 1.36 1.52c.32.64.48 1.381.48 2.224a.7.7 0 0 1-.208.512c-.139.128-.315.192-.528.192h-6.08c.117.736.453 1.339 1.008 1.808.565.459 1.253.688 2.064.688.33 0 .666-.059 1.008-.176.352-.128.634-.272.848-.432a.85.85 0 0 1 .512-.176.68.68 0 0 1 .496.16c.181.16.277.336.288.528s-.075.357-.256.496c-.363.288-.816.523-1.36.704-.534.181-1.046.272-1.536.272zm-.24-7.504c-.79 0-1.424.219-1.904.656s-.784 1.003-.912 1.696h5.328c-.096-.683-.358-1.243-.784-1.68-.427-.448-1.003-.672-1.728-.672zm9.721 7.504c-.832 0-1.584-.192-2.256-.576-.662-.395-1.19-.928-1.584-1.6-.384-.672-.576-1.429-.576-2.272s.176-1.595.528-2.256c.362-.672.853-1.2 1.472-1.584.618-.395 1.317-.592 2.096-.592.629 0 1.21.133 1.744.4a3.85 3.85 0 0 1 1.344 1.056v-4.32c0-.245.074-.443.224-.592.16-.149.357-.224.592-.224.245 0 .442.075.592.224s.224.347.224.592v7.296c0 .843-.198 1.6-.592 2.272a4.34 4.34 0 0 1-1.568 1.6c-.662.384-1.408.576-2.24.576zm0-1.44c.544 0 1.029-.128 1.456-.384a2.84 2.84 0 0 0 1.008-1.088c.245-.459.368-.971.368-1.536 0-.576-.123-1.088-.368-1.536s-.582-.8-1.008-1.056a2.69 2.69 0 0 0-1.456-.4 2.74 2.74 0 0 0-1.456.4 2.86 2.86 0 0 0-1.024 1.056c-.246.448-.368.96-.368 1.536 0 .565.122 1.077.368 1.536.256.459.597.821 1.024 1.088.437.256.922.384 1.456.384zm-105.219 25.44c-.864 0-1.627-.187-2.288-.56-.661-.384-1.184-.907-1.568-1.568-.373-.672-.56-1.44-.56-2.304 0-.875.187-1.643.56-2.304.384-.672.907-1.195 1.568-1.568.661-.384 1.424-.576 2.288-.576.853 0 1.611.192 2.272.576a3.99 3.99 0 0 1 1.552 1.568c.384.661.576 1.429.576 2.304 0 .864-.187 1.632-.56 2.304-.373.661-.891 1.184-1.552 1.568-.661.373-1.424.56-2.288.56zm0-1.44c.555 0 1.045-.128 1.472-.384a2.63 2.63 0 0 0 .992-1.056c.245-.448.368-.965.368-1.552s-.123-1.104-.368-1.552c-.235-.459-.565-.816-.992-1.072s-.917-.384-1.472-.384-1.045.128-1.472.384a2.71 2.71 0 0 0-1.008 1.072c-.245.448-.368.965-.368 1.552s.123 1.104.368 1.552.581.8 1.008 1.056.917.384 1.472.384zm7.645 1.392c-.235 0-.432-.075-.592-.224-.149-.16-.224-.357-.224-.592v-7.136c0-.245.075-.443.224-.592.16-.149.357-.224.592-.224a.8.8 0 0 1 .592.224c.149.149.224.347.224.592v.176a3.61 3.61 0 0 1 1.2-.784c.469-.192.976-.288 1.52-.288.736 0 1.392.16 1.968.48a3.29 3.29 0 0 1 1.376 1.376c.341.608.512 1.355.512 2.24V64.2c0 .235-.08.432-.24.592-.149.149-.341.224-.576.224s-.432-.075-.592-.224c-.149-.16-.224-.357-.224-.592v-3.936c0-.907-.245-1.568-.736-1.984-.48-.427-1.083-.64-1.808-.64-.448 0-.853.091-1.216.272a2.24 2.24 0 0 0-.864.736c-.213.299-.32.645-.32 1.04V64.2c0 .235-.075.432-.224.592a.8.8 0 0 1-.592.224zm15.77-.016c-.235 0-.432-.08-.592-.24s-.24-.357-.24-.592V53.336c0-.245.08-.443.24-.592.16-.16.357-.24.592-.24h3.2c.8 0 1.509.176 2.128.528s1.098.843 1.44 1.472c.352.619.528 1.333.528 2.144 0 .779-.176 1.472-.528 2.08-.342.608-.822 1.083-1.44 1.424s-1.328.512-2.128.512h-2.368v3.504c0 .235-.08.432-.24.592-.15.16-.347.24-.592.24zm.832-5.872h2.368c.725 0 1.322-.229 1.792-.688.469-.469.704-1.067.704-1.792 0-.512-.107-.96-.32-1.344-.214-.395-.507-.704-.88-.928s-.806-.336-1.296-.336h-2.368v5.088zm11.8 5.936c-.864 0-1.627-.187-2.288-.56-.661-.384-1.184-.907-1.568-1.568-.373-.672-.56-1.44-.56-2.304 0-.875.187-1.643.56-2.304.384-.672.907-1.195 1.568-1.568.661-.384 1.424-.576 2.288-.576.853 0 1.611.192 2.272.576a3.99 3.99 0 0 1 1.552 1.568c.384.661.576 1.429.576 2.304 0 .864-.187 1.632-.56 2.304-.373.661-.891 1.184-1.552 1.568-.661.373-1.424.56-2.288.56zm0-1.44c.555 0 1.045-.128 1.472-.384a2.63 2.63 0 0 0 .992-1.056c.245-.448.368-.965.368-1.552s-.123-1.104-.368-1.552c-.235-.459-.565-.816-.992-1.072s-.917-.384-1.472-.384-1.045.128-1.472.384a2.71 2.71 0 0 0-1.008 1.072c-.245.448-.368.965-.368 1.552s.123 1.104.368 1.552.581.8 1.008 1.056.917.384 1.472.384zM386.364 65c-.47 0-.886-.128-1.248-.384s-.646-.603-.848-1.04c-.203-.448-.304-.96-.304-1.536v-8.736c0-.235.074-.427.224-.576s.341-.224.576-.224.426.075.576.224a.78.78 0 0 1 .224.576v8.736c0 .395.074.72.224.976s.341.384.576.384h.4a.64.64 0 0 1 .512.224c.138.149.208.341.208.576s-.102.427-.304.576-.464.224-.784.224h-.032zm3.501 0c-.235 0-.427-.069-.576-.208-.139-.149-.208-.341-.208-.576V53.288c0-.235.069-.421.208-.56.149-.149.341-.224.576-.224s.421.075.56.224c.149.139.224.325.224.56V59.8l3.888-3.472c.16-.149.336-.219.528-.208.202.011.373.096.512.256a.7.7 0 0 1 .208.528c-.011.192-.096.363-.256.512l-2.944 2.624 3.104 3.808c.138.171.197.357.176.56-.011.192-.107.363-.288.512a.76.76 0 0 1-.576.176c-.203-.011-.374-.101-.512-.272l-3.04-3.76-.8.704v2.448a.78.78 0 0 1-.224.576c-.139.139-.326.208-.56.208zm11.176.064c-.779 0-1.477-.192-2.096-.576-.619-.395-1.109-.923-1.472-1.584-.352-.672-.528-1.429-.528-2.272s.192-1.6.576-2.272c.395-.672.923-1.2 1.584-1.584.672-.395 1.424-.592 2.256-.592s1.579.197 2.24.592a4.22 4.22 0 0 1 1.568 1.584c.395.672.592 1.429.592 2.272V64.2c0 .235-.08.432-.24.592-.149.149-.341.224-.576.224s-.432-.075-.592-.224c-.149-.16-.224-.357-.224-.592v-.592c-.373.448-.827.805-1.36 1.072-.523.256-1.099.384-1.728.384zm.32-1.44c.544 0 1.029-.128 1.456-.384a2.86 2.86 0 0 0 1.008-1.072c.245-.459.368-.971.368-1.536 0-.576-.123-1.088-.368-1.536a2.71 2.71 0 0 0-1.008-1.072 2.69 2.69 0 0 0-1.456-.4 2.74 2.74 0 0 0-1.456.4c-.427.256-.768.613-1.024 1.072-.245.448-.368.96-.368 1.536 0 .565.123 1.077.368 1.536a2.99 2.99 0 0 0 1.024 1.072 2.83 2.83 0 0 0 1.456.384zm10.797 1.44c-.832 0-1.584-.192-2.256-.576a4.47 4.47 0 0 1-1.584-1.6c-.384-.672-.576-1.429-.576-2.272s.176-1.595.528-2.256c.363-.672.853-1.2 1.472-1.584.619-.395 1.317-.592 2.096-.592.629 0 1.211.133 1.744.4a3.85 3.85 0 0 1 1.344 1.056v-4.32c0-.245.075-.443.224-.592.16-.149.357-.224.592-.224a.8.8 0 0 1 .592.224c.149.149.224.347.224.592v7.296c0 .843-.197 1.6-.592 2.272a4.34 4.34 0 0 1-1.568 1.6c-.661.384-1.408.576-2.24.576zm0-1.44c.544 0 1.029-.128 1.456-.384.427-.267.763-.629 1.008-1.088s.368-.971.368-1.536c0-.576-.123-1.088-.368-1.536s-.581-.8-1.008-1.056a2.69 2.69 0 0 0-1.456-.4 2.74 2.74 0 0 0-1.456.4 2.86 2.86 0 0 0-1.024 1.056c-.245.448-.368.96-.368 1.536 0 .565.123 1.077.368 1.536.256.459.597.821 1.024 1.088a2.83 2.83 0 0 0 1.456.384zm11.25 1.44c-.864 0-1.627-.187-2.288-.56-.661-.384-1.184-.907-1.568-1.568-.373-.672-.56-1.44-.56-2.304 0-.875.187-1.643.56-2.304.384-.672.907-1.195 1.568-1.568.661-.384 1.424-.576 2.288-.576.853 0 1.611.192 2.272.576a3.99 3.99 0 0 1 1.552 1.568c.384.661.576 1.429.576 2.304 0 .864-.187 1.632-.56 2.304-.373.661-.891 1.184-1.552 1.568-.661.373-1.424.56-2.288.56zm0-1.44c.555 0 1.045-.128 1.472-.384a2.63 2.63 0 0 0 .992-1.056c.245-.448.368-.965.368-1.552s-.123-1.104-.368-1.552c-.235-.459-.565-.816-.992-1.072s-.917-.384-1.472-.384-1.045.128-1.472.384a2.71 2.71 0 0 0-1.008 1.072c-.245.448-.368.965-.368 1.552s.123 1.104.368 1.552.581.8 1.008 1.056.917.384 1.472.384zM433.421 65c-.533 0-1.013-.133-1.44-.4a2.92 2.92 0 0 1-1.008-1.12c-.245-.469-.368-.997-.368-1.584v-3.952h-.736a.77.77 0 0 1-.544-.192c-.139-.128-.208-.288-.208-.48 0-.213.069-.384.208-.512a.77.77 0 0 1 .544-.192h.736v-2.304a.78.78 0 0 1 .224-.576c.149-.149.341-.224.576-.224s.427.075.576.224a.78.78 0 0 1 .224.576v2.304h1.36a.77.77 0 0 1 .544.192c.139.128.208.299.208.512 0 .192-.069.352-.208.48a.77.77 0 0 1-.544.192h-1.36v3.952c0 .427.117.784.352 1.072s.523.432.864.432h.544c.192 0 .352.075.48.224.139.149.208.341.208.576s-.091.427-.272.576c-.171.149-.395.224-.672.224h-.288z" fill="#7a7a7a"/></svg>