<svg width="467" height="72" viewBox="0 0 467 72" fill="none" xmlns="http://www.w3.org/2000/svg">
<path d="M337.432 17C337.197 17 337 16.92 336.84 16.76C336.68 16.6 336.6 16.4027 336.6 16.168V5.336C336.6 5.09067 336.68 4.89333 336.84 4.744C337 4.584 337.197 4.504 337.432 4.504H340.632C341.432 4.504 342.141 4.68 342.76 5.032C343.379 5.384 343.859 5.87467 344.2 6.504C344.552 7.12267 344.728 7.83733 344.728 8.648C344.728 9.42667 344.552 10.12 344.2 10.728C343.859 11.336 343.379 11.8107 342.76 12.152C342.141 12.4933 341.432 12.664 340.632 12.664H338.264V16.168C338.264 16.4027 338.184 16.6 338.024 16.76C337.875 16.92 337.677 17 337.432 17ZM338.264 11.128H340.632C341.357 11.128 341.955 10.8987 342.424 10.44C342.893 9.97067 343.128 9.37333 343.128 8.648C343.128 8.136 343.021 7.688 342.808 7.304C342.595 6.90933 342.301 6.6 341.928 6.376C341.555 6.152 341.123 6.04 340.632 6.04H338.264V11.128ZM350.064 17.064C349.2 17.064 348.438 16.8773 347.776 16.504C347.115 16.12 346.592 15.5973 346.208 14.936C345.835 14.264 345.648 13.496 345.648 12.632C345.648 11.7573 345.835 10.9893 346.208 10.328C346.592 9.656 347.115 9.13333 347.776 8.76C348.438 8.376 349.2 8.184 350.064 8.184C350.918 8.184 351.675 8.376 352.336 8.76C352.998 9.13333 353.515 9.656 353.888 10.328C354.272 10.9893 354.464 11.7573 354.464 12.632C354.464 13.496 354.278 14.264 353.904 14.936C353.531 15.5973 353.014 16.12 352.352 16.504C351.691 16.8773 350.928 17.064 350.064 17.064ZM350.064 15.624C350.619 15.624 351.11 15.496 351.536 15.24C351.963 14.984 352.294 14.632 352.528 14.184C352.774 13.736 352.896 13.2187 352.896 12.632C352.896 12.0453 352.774 11.528 352.528 11.08C352.294 10.6213 351.963 10.264 351.536 10.008C351.11 9.752 350.619 9.624 350.064 9.624C349.51 9.624 349.019 9.752 348.592 10.008C348.166 10.264 347.83 10.6213 347.584 11.08C347.339 11.528 347.216 12.0453 347.216 12.632C347.216 13.2187 347.339 13.736 347.584 14.184C347.83 14.632 348.166 14.984 348.592 15.24C349.019 15.496 349.51 15.624 350.064 15.624ZM358.973 17C358.504 17 358.088 16.872 357.725 16.616C357.362 16.36 357.08 16.0133 356.877 15.576C356.674 15.128 356.573 14.616 356.573 14.04V5.304C356.573 5.06933 356.648 4.87733 356.797 4.728C356.946 4.57867 357.138 4.504 357.373 4.504C357.608 4.504 357.8 4.57867 357.949 4.728C358.098 4.87733 358.173 5.06933 358.173 5.304V14.04C358.173 14.4347 358.248 14.76 358.397 15.016C358.546 15.272 358.738 15.4 358.973 15.4H359.373C359.586 15.4 359.757 15.4747 359.885 15.624C360.024 15.7733 360.093 15.9653 360.093 16.2C360.093 16.4347 359.992 16.6267 359.789 16.776C359.586 16.9253 359.325 17 359.005 17H358.973ZM362.474 17C362.239 17 362.047 16.9307 361.898 16.792C361.759 16.6427 361.69 16.4507 361.69 16.216V5.288C361.69 5.05333 361.759 4.86667 361.898 4.728C362.047 4.57867 362.239 4.504 362.474 4.504C362.709 4.504 362.895 4.57867 363.034 4.728C363.183 4.86667 363.258 5.05333 363.258 5.288V11.8L367.146 8.328C367.306 8.17867 367.482 8.10933 367.674 8.12C367.877 8.13067 368.047 8.216 368.186 8.376C368.335 8.536 368.405 8.712 368.394 8.904C368.383 9.096 368.298 9.26667 368.138 9.416L365.194 12.04L368.298 15.848C368.437 16.0187 368.495 16.2053 368.474 16.408C368.463 16.6 368.367 16.7707 368.186 16.92C368.015 17.0587 367.823 17.1173 367.61 17.096C367.407 17.0853 367.237 16.9947 367.098 16.824L364.058 13.064L363.258 13.768V16.216C363.258 16.4507 363.183 16.6427 363.034 16.792C362.895 16.9307 362.709 17 362.474 17ZM373.651 17.064C372.872 17.064 372.173 16.872 371.555 16.488C370.936 16.0933 370.445 15.5653 370.083 14.904C369.731 14.232 369.555 13.4747 369.555 12.632C369.555 11.7893 369.747 11.032 370.131 10.36C370.525 9.688 371.053 9.16 371.715 8.776C372.387 8.38133 373.139 8.184 373.971 8.184C374.803 8.184 375.549 8.38133 376.211 8.776C376.872 9.16 377.395 9.688 377.779 10.36C378.173 11.032 378.371 11.7893 378.371 12.632V16.2C378.371 16.4347 378.291 16.632 378.131 16.792C377.981 16.9413 377.789 17.016 377.555 17.016C377.32 17.016 377.123 16.9413 376.963 16.792C376.813 16.632 376.739 16.4347 376.739 16.2V15.608C376.365 16.056 375.912 16.4133 375.379 16.68C374.856 16.936 374.28 17.064 373.651 17.064ZM373.971 15.624C374.515 15.624 375 15.496 375.427 15.24C375.853 14.9733 376.189 14.616 376.435 14.168C376.68 13.7093 376.803 13.1973 376.803 12.632C376.803 12.056 376.68 11.544 376.435 11.096C376.189 10.6373 375.853 10.28 375.427 10.024C375 9.75733 374.515 9.624 373.971 9.624C373.437 9.624 372.952 9.75733 372.515 10.024C372.088 10.28 371.747 10.6373 371.491 11.096C371.245 11.544 371.123 12.056 371.123 12.632C371.123 13.1973 371.245 13.7093 371.491 14.168C371.747 14.616 372.088 14.9733 372.515 15.24C372.952 15.496 373.437 15.624 373.971 15.624ZM384.767 17.064C383.935 17.064 383.183 16.872 382.511 16.488C381.85 16.0933 381.322 15.56 380.927 14.888C380.543 14.216 380.351 13.4587 380.351 12.616C380.351 11.7733 380.527 11.0213 380.879 10.36C381.242 9.688 381.733 9.16 382.351 8.776C382.97 8.38133 383.669 8.184 384.447 8.184C385.077 8.184 385.658 8.31733 386.191 8.584C386.725 8.84 387.173 9.192 387.535 9.64V5.32C387.535 5.07467 387.61 4.87733 387.759 4.728C387.919 4.57867 388.117 4.504 388.351 4.504C388.597 4.504 388.794 4.57867 388.943 4.728C389.093 4.87733 389.167 5.07467 389.167 5.32V12.616C389.167 13.4587 388.97 14.216 388.575 14.888C388.191 15.56 387.669 16.0933 387.007 16.488C386.346 16.872 385.599 17.064 384.767 17.064ZM384.767 15.624C385.311 15.624 385.797 15.496 386.223 15.24C386.65 14.9733 386.986 14.6107 387.231 14.152C387.477 13.6933 387.599 13.1813 387.599 12.616C387.599 12.04 387.477 11.528 387.231 11.08C386.986 10.632 386.65 10.28 386.223 10.024C385.797 9.75733 385.311 9.624 384.767 9.624C384.234 9.624 383.749 9.75733 383.311 10.024C382.885 10.28 382.543 10.632 382.287 11.08C382.042 11.528 381.919 12.04 381.919 12.616C381.919 13.1813 382.042 13.6933 382.287 14.152C382.543 14.6107 382.885 14.9733 383.311 15.24C383.749 15.496 384.234 15.624 384.767 15.624ZM396.017 17.064C395.153 17.064 394.391 16.8773 393.729 16.504C393.068 16.12 392.545 15.5973 392.161 14.936C391.788 14.264 391.601 13.496 391.601 12.632C391.601 11.7573 391.788 10.9893 392.161 10.328C392.545 9.656 393.068 9.13333 393.729 8.76C394.391 8.376 395.153 8.184 396.017 8.184C396.871 8.184 397.628 8.376 398.289 8.76C398.951 9.13333 399.468 9.656 399.841 10.328C400.225 10.9893 400.417 11.7573 400.417 12.632C400.417 13.496 400.231 14.264 399.857 14.936C399.484 15.5973 398.967 16.12 398.305 16.504C397.644 16.8773 396.881 17.064 396.017 17.064ZM396.017 15.624C396.572 15.624 397.063 15.496 397.489 15.24C397.916 14.984 398.247 14.632 398.481 14.184C398.727 13.736 398.849 13.2187 398.849 12.632C398.849 12.0453 398.727 11.528 398.481 11.08C398.247 10.6213 397.916 10.264 397.489 10.008C397.063 9.752 396.572 9.624 396.017 9.624C395.463 9.624 394.972 9.752 394.545 10.008C394.119 10.264 393.783 10.6213 393.537 11.08C393.292 11.528 393.169 12.0453 393.169 12.632C393.169 13.2187 393.292 13.736 393.537 14.184C393.783 14.632 394.119 14.984 394.545 15.24C394.972 15.496 395.463 15.624 396.017 15.624ZM406.03 17C405.497 17 405.017 16.8667 404.59 16.6C404.164 16.3227 403.828 15.9493 403.582 15.48C403.337 15.0107 403.214 14.4827 403.214 13.896V9.944H402.478C402.254 9.944 402.073 9.88 401.934 9.752C401.796 9.624 401.726 9.464 401.726 9.272C401.726 9.05867 401.796 8.888 401.934 8.76C402.073 8.632 402.254 8.568 402.478 8.568H403.214V6.264C403.214 6.02933 403.289 5.83733 403.438 5.688C403.588 5.53867 403.78 5.464 404.014 5.464C404.249 5.464 404.441 5.53867 404.59 5.688C404.74 5.83733 404.814 6.02933 404.814 6.264V8.568H406.174C406.398 8.568 406.58 8.632 406.718 8.76C406.857 8.888 406.926 9.05867 406.926 9.272C406.926 9.464 406.857 9.624 406.718 9.752C406.58 9.88 406.398 9.944 406.174 9.944H404.814V13.896C404.814 14.3227 404.932 14.68 405.166 14.968C405.401 15.256 405.689 15.4 406.03 15.4H406.574C406.766 15.4 406.926 15.4747 407.054 15.624C407.193 15.7733 407.262 15.9653 407.262 16.2C407.262 16.4347 407.172 16.6267 406.99 16.776C406.82 16.9253 406.596 17 406.318 17H406.03ZM408.171 8.216C407.99 8.216 407.835 8.152 407.707 8.024C407.579 7.896 407.51 7.74133 407.499 7.56L407.355 5.336C407.355 5.112 407.435 4.92 407.595 4.76C407.755 4.6 407.947 4.52 408.171 4.52C408.384 4.52 408.571 4.6 408.731 4.76C408.891 4.92 408.971 5.112 408.971 5.336L408.827 7.56C408.827 7.74133 408.763 7.896 408.635 8.024C408.507 8.152 408.352 8.216 408.171 8.216ZM413.046 17.064C412.299 17.064 411.606 16.952 410.966 16.728C410.337 16.4933 409.846 16.2 409.494 15.848C409.334 15.6773 409.265 15.4853 409.286 15.272C409.318 15.048 409.425 14.8667 409.606 14.728C409.819 14.5573 410.027 14.488 410.23 14.52C410.443 14.5413 410.625 14.632 410.774 14.792C410.955 14.9947 411.243 15.1867 411.638 15.368C412.043 15.5387 412.491 15.624 412.982 15.624C413.601 15.624 414.07 15.5227 414.39 15.32C414.721 15.1173 414.891 14.856 414.902 14.536C414.913 14.216 414.758 13.9387 414.438 13.704C414.129 13.4693 413.558 13.2773 412.726 13.128C411.649 12.9147 410.865 12.5947 410.374 12.168C409.894 11.7413 409.654 11.2187 409.654 10.6C409.654 10.056 409.814 9.608 410.134 9.256C410.454 8.89333 410.865 8.62667 411.366 8.456C411.867 8.27467 412.39 8.184 412.934 8.184C413.638 8.184 414.262 8.296 414.806 8.52C415.35 8.744 415.782 9.05333 416.102 9.448C416.251 9.61867 416.321 9.8 416.31 9.992C416.299 10.1733 416.209 10.328 416.038 10.456C415.867 10.5733 415.665 10.6107 415.43 10.568C415.195 10.5253 414.998 10.4293 414.838 10.28C414.571 10.024 414.283 9.848 413.974 9.752C413.665 9.656 413.307 9.608 412.902 9.608C412.433 9.608 412.033 9.688 411.702 9.848C411.382 10.008 411.222 10.2427 411.222 10.552C411.222 10.744 411.27 10.92 411.366 11.08C411.473 11.2293 411.675 11.368 411.974 11.496C412.273 11.6133 412.71 11.7307 413.286 11.848C414.491 12.0827 415.323 12.4187 415.782 12.856C416.251 13.2827 416.486 13.8107 416.486 14.44C416.486 14.9307 416.353 15.3733 416.086 15.768C415.83 16.1627 415.446 16.4773 414.934 16.712C414.433 16.9467 413.803 17.064 413.046 17.064ZM423.221 17C422.986 17 422.789 16.92 422.629 16.76C422.469 16.6 422.389 16.4027 422.389 16.168V5.336C422.389 5.09067 422.469 4.89333 422.629 4.744C422.789 4.584 422.986 4.504 423.221 4.504H430.453C430.698 4.504 430.896 4.57867 431.045 4.728C431.194 4.86667 431.269 5.05333 431.269 5.288C431.269 5.512 431.194 5.69333 431.045 5.832C430.896 5.97067 430.698 6.04 430.453 6.04H424.053V9.928H428.645C428.89 9.928 429.088 10.0027 429.237 10.152C429.386 10.2907 429.461 10.472 429.461 10.696C429.461 10.92 429.386 11.1067 429.237 11.256C429.088 11.3947 428.89 11.464 428.645 11.464H424.053V16.168C424.053 16.4027 423.973 16.6 423.813 16.76C423.653 16.92 423.456 17 423.221 17ZM434.213 17C433.978 17 433.781 16.9253 433.621 16.776C433.472 16.616 433.397 16.4187 433.397 16.184V9.064C433.397 8.81867 433.472 8.62133 433.621 8.472C433.781 8.32267 433.978 8.248 434.213 8.248C434.458 8.248 434.656 8.32267 434.805 8.472C434.954 8.62133 435.029 8.81867 435.029 9.064V16.184C435.029 16.4187 434.954 16.616 434.805 16.776C434.656 16.9253 434.458 17 434.213 17ZM434.213 6.824C433.925 6.824 433.674 6.72267 433.461 6.52C433.258 6.30667 433.157 6.056 433.157 5.768C433.157 5.48 433.258 5.23467 433.461 5.032C433.674 4.81867 433.925 4.712 434.213 4.712C434.501 4.712 434.746 4.81867 434.949 5.032C435.162 5.23467 435.269 5.48 435.269 5.768C435.269 6.056 435.162 6.30667 434.949 6.52C434.746 6.72267 434.501 6.824 434.213 6.824ZM438.865 17C438.332 17 438.065 16.7333 438.065 16.2V9.048C438.065 8.51467 438.332 8.248 438.865 8.248C439.398 8.248 439.665 8.51467 439.665 9.048V9.352C439.985 8.97867 440.374 8.68533 440.833 8.472C441.302 8.25867 441.809 8.152 442.353 8.152C442.993 8.152 443.468 8.25867 443.777 8.472C444.097 8.67467 444.22 8.92 444.145 9.208C444.092 9.432 443.985 9.58133 443.825 9.656C443.665 9.72 443.478 9.73067 443.265 9.688C442.582 9.54933 441.969 9.53867 441.425 9.656C440.881 9.77333 440.449 9.992 440.129 10.312C439.82 10.632 439.665 11.0373 439.665 11.528V16.2C439.665 16.7333 439.398 17 438.865 17ZM449.03 17.064C448.284 17.064 447.59 16.952 446.95 16.728C446.321 16.4933 445.83 16.2 445.478 15.848C445.318 15.6773 445.249 15.4853 445.27 15.272C445.302 15.048 445.409 14.8667 445.59 14.728C445.804 14.5573 446.012 14.488 446.214 14.52C446.428 14.5413 446.609 14.632 446.758 14.792C446.94 14.9947 447.228 15.1867 447.622 15.368C448.028 15.5387 448.476 15.624 448.966 15.624C449.585 15.624 450.054 15.5227 450.374 15.32C450.705 15.1173 450.876 14.856 450.886 14.536C450.897 14.216 450.742 13.9387 450.422 13.704C450.113 13.4693 449.542 13.2773 448.71 13.128C447.633 12.9147 446.849 12.5947 446.358 12.168C445.878 11.7413 445.638 11.2187 445.638 10.6C445.638 10.056 445.798 9.608 446.118 9.256C446.438 8.89333 446.849 8.62667 447.35 8.456C447.852 8.27467 448.374 8.184 448.918 8.184C449.622 8.184 450.246 8.296 450.79 8.52C451.334 8.744 451.766 9.05333 452.086 9.448C452.236 9.61867 452.305 9.8 452.294 9.992C452.284 10.1733 452.193 10.328 452.022 10.456C451.852 10.5733 451.649 10.6107 451.414 10.568C451.18 10.5253 450.982 10.4293 450.822 10.28C450.556 10.024 450.268 9.848 449.958 9.752C449.649 9.656 449.292 9.608 448.886 9.608C448.417 9.608 448.017 9.688 447.686 9.848C447.366 10.008 447.206 10.2427 447.206 10.552C447.206 10.744 447.254 10.92 447.35 11.08C447.457 11.2293 447.66 11.368 447.958 11.496C448.257 11.6133 448.694 11.7307 449.27 11.848C450.476 12.0827 451.308 12.4187 451.766 12.856C452.236 13.2827 452.47 13.8107 452.47 14.44C452.47 14.9307 452.337 15.3733 452.07 15.768C451.814 16.1627 451.43 16.4773 450.918 16.712C450.417 16.9467 449.788 17.064 449.03 17.064ZM457.718 17C457.184 17 456.704 16.8667 456.278 16.6C455.851 16.3227 455.515 15.9493 455.27 15.48C455.024 15.0107 454.902 14.4827 454.902 13.896V9.944H454.166C453.942 9.944 453.76 9.88 453.622 9.752C453.483 9.624 453.414 9.464 453.414 9.272C453.414 9.05867 453.483 8.888 453.622 8.76C453.76 8.632 453.942 8.568 454.166 8.568H454.902V6.264C454.902 6.02933 454.976 5.83733 455.126 5.688C455.275 5.53867 455.467 5.464 455.702 5.464C455.936 5.464 456.128 5.53867 456.278 5.688C456.427 5.83733 456.502 6.02933 456.502 6.264V8.568H457.862C458.086 8.568 458.267 8.632 458.406 8.76C458.544 8.888 458.614 9.05867 458.614 9.272C458.614 9.464 458.544 9.624 458.406 9.752C458.267 9.88 458.086 9.944 457.862 9.944H456.502V13.896C456.502 14.3227 456.619 14.68 456.854 14.968C457.088 15.256 457.376 15.4 457.718 15.4H458.262C458.454 15.4 458.614 15.4747 458.742 15.624C458.88 15.7733 458.95 15.9653 458.95 16.2C458.95 16.4347 458.859 16.6267 458.678 16.776C458.507 16.9253 458.283 17 458.006 17H457.718ZM337.432 41C337.197 41 337 40.92 336.84 40.76C336.68 40.6 336.6 40.4027 336.6 40.168V29.336C336.6 29.0907 336.68 28.8933 336.84 28.744C337 28.584 337.197 28.504 337.432 28.504H344.664C344.909 28.504 345.107 28.5787 345.256 28.728C345.405 28.8667 345.48 29.0533 345.48 29.288C345.48 29.512 345.405 29.6933 345.256 29.832C345.107 29.9707 344.909 30.04 344.664 30.04H338.264V33.928H342.856C343.101 33.928 343.299 34.0027 343.448 34.152C343.597 34.2907 343.672 34.472 343.672 34.696C343.672 34.92 343.597 35.1067 343.448 35.256C343.299 35.3947 343.101 35.464 342.856 35.464H338.264V39.464H344.664C344.909 39.464 345.107 39.5333 345.256 39.672C345.405 39.8107 345.48 39.992 345.48 40.216C345.48 40.4507 345.405 40.6427 345.256 40.792C345.107 40.9307 344.909 41 344.664 41H337.432ZM350.603 40.984C350.272 40.984 350.016 40.808 349.835 40.456L346.443 33.304C346.358 33.1227 346.347 32.9467 346.411 32.776C346.486 32.5947 346.624 32.456 346.827 32.36C347.008 32.264 347.19 32.248 347.371 32.312C347.563 32.376 347.707 32.4987 347.803 32.68L350.587 38.68L353.339 32.68C353.435 32.4987 353.579 32.376 353.771 32.312C353.974 32.248 354.176 32.264 354.379 32.36C354.571 32.4453 354.699 32.5787 354.763 32.76C354.827 32.9413 354.816 33.1227 354.731 33.304L351.339 40.456C351.179 40.808 350.934 40.984 350.603 40.984ZM360.208 41.064C359.323 41.064 358.534 40.8773 357.84 40.504C357.158 40.12 356.619 39.5973 356.224 38.936C355.84 38.264 355.648 37.496 355.648 36.632C355.648 35.7573 355.83 34.9893 356.192 34.328C356.566 33.656 357.078 33.1333 357.728 32.76C358.379 32.376 359.126 32.184 359.968 32.184C360.8 32.184 361.515 32.3707 362.112 32.744C362.71 33.1067 363.163 33.6133 363.472 34.264C363.792 34.904 363.952 35.6453 363.952 36.488C363.952 36.6907 363.883 36.8613 363.744 37C363.606 37.128 363.43 37.192 363.216 37.192H357.136C357.254 37.928 357.59 38.5307 358.144 39C358.71 39.4587 359.398 39.688 360.208 39.688C360.539 39.688 360.875 39.6293 361.216 39.512C361.568 39.384 361.851 39.24 362.064 39.08C362.224 38.9627 362.395 38.904 362.576 38.904C362.768 38.8933 362.934 38.9467 363.072 39.064C363.254 39.224 363.35 39.4 363.36 39.592C363.371 39.784 363.286 39.9493 363.104 40.088C362.742 40.376 362.288 40.6107 361.744 40.792C361.211 40.9733 360.699 41.064 360.208 41.064ZM359.968 33.56C359.179 33.56 358.544 33.7787 358.064 34.216C357.584 34.6533 357.28 35.2187 357.152 35.912H362.48C362.384 35.2293 362.123 34.6693 361.696 34.232C361.27 33.784 360.694 33.56 359.968 33.56ZM366.834 41C366.3 41 366.034 40.7333 366.034 40.2V33.048C366.034 32.5147 366.3 32.248 366.834 32.248C367.367 32.248 367.634 32.5147 367.634 33.048V33.352C367.954 32.9787 368.343 32.6853 368.802 32.472C369.271 32.2587 369.778 32.152 370.322 32.152C370.962 32.152 371.436 32.2587 371.746 32.472C372.066 32.6747 372.188 32.92 372.114 33.208C372.06 33.432 371.954 33.5813 371.794 33.656C371.634 33.72 371.447 33.7307 371.234 33.688C370.551 33.5493 369.938 33.5387 369.394 33.656C368.85 33.7733 368.418 33.992 368.098 34.312C367.788 34.632 367.634 35.0373 367.634 35.528V40.2C367.634 40.7333 367.367 41 366.834 41ZM379.495 41C379.26 41 379.063 40.92 378.903 40.76C378.743 40.6 378.663 40.4027 378.663 40.168V29.336C378.663 29.0907 378.743 28.8933 378.903 28.744C379.063 28.584 379.26 28.504 379.495 28.504H382.391C383.308 28.504 384.14 28.6587 384.887 28.968C385.644 29.2667 386.3 29.6987 386.855 30.264C387.409 30.8187 387.836 31.4747 388.135 32.232C388.433 32.9893 388.583 33.8267 388.583 34.744C388.583 35.6613 388.433 36.504 388.135 37.272C387.836 38.0293 387.409 38.6907 386.855 39.256C386.3 39.8107 385.644 40.2427 384.887 40.552C384.14 40.8507 383.308 41 382.391 41H379.495ZM380.327 39.528H382.391C383.287 39.528 384.076 39.3253 384.759 38.92C385.452 38.504 385.996 37.9387 386.391 37.224C386.785 36.4987 386.983 35.672 386.983 34.744C386.983 33.8053 386.785 32.9787 386.391 32.264C385.996 31.5493 385.452 30.9893 384.759 30.584C384.076 30.1787 383.287 29.976 382.391 29.976H380.327V39.528ZM395.146 41.064C394.26 41.064 393.471 40.8773 392.778 40.504C392.095 40.12 391.556 39.5973 391.162 38.936C390.778 38.264 390.586 37.496 390.586 36.632C390.586 35.7573 390.767 34.9893 391.13 34.328C391.503 33.656 392.015 33.1333 392.666 32.76C393.316 32.376 394.063 32.184 394.906 32.184C395.738 32.184 396.452 32.3707 397.05 32.744C397.647 33.1067 398.1 33.6133 398.41 34.264C398.73 34.904 398.89 35.6453 398.89 36.488C398.89 36.6907 398.82 36.8613 398.682 37C398.543 37.128 398.367 37.192 398.154 37.192H392.074C392.191 37.928 392.527 38.5307 393.082 39C393.647 39.4587 394.335 39.688 395.146 39.688C395.476 39.688 395.812 39.6293 396.154 39.512C396.506 39.384 396.788 39.24 397.002 39.08C397.162 38.9627 397.332 38.904 397.514 38.904C397.706 38.8933 397.871 38.9467 398.01 39.064C398.191 39.224 398.287 39.4 398.298 39.592C398.308 39.784 398.223 39.9493 398.042 40.088C397.679 40.376 397.226 40.6107 396.682 40.792C396.148 40.9733 395.636 41.064 395.146 41.064ZM394.906 33.56C394.116 33.56 393.482 33.7787 393.002 34.216C392.522 34.6533 392.218 35.2187 392.09 35.912H397.418C397.322 35.2293 397.06 34.6693 396.634 34.232C396.207 33.784 395.631 33.56 394.906 33.56ZM400.955 41C400.721 41 400.523 40.92 400.363 40.76C400.203 40.6 400.123 40.4027 400.123 40.168V29.336C400.123 29.0907 400.203 28.8933 400.363 28.744C400.523 28.584 400.721 28.504 400.955 28.504H408.187C408.433 28.504 408.63 28.5787 408.779 28.728C408.929 28.8667 409.003 29.0533 409.003 29.288C409.003 29.512 408.929 29.6933 408.779 29.832C408.63 29.9707 408.433 30.04 408.187 30.04H401.787V33.928H406.379C406.625 33.928 406.822 34.0027 406.971 34.152C407.121 34.2907 407.195 34.472 407.195 34.696C407.195 34.92 407.121 35.1067 406.971 35.256C406.822 35.3947 406.625 35.464 406.379 35.464H401.787V40.168C401.787 40.4027 401.707 40.6 401.547 40.76C401.387 40.92 401.19 41 400.955 41ZM411.947 41C411.713 41 411.515 40.9253 411.355 40.776C411.206 40.616 411.131 40.4187 411.131 40.184V33.064C411.131 32.8187 411.206 32.6213 411.355 32.472C411.515 32.3227 411.713 32.248 411.947 32.248C412.193 32.248 412.39 32.3227 412.539 32.472C412.689 32.6213 412.763 32.8187 412.763 33.064V40.184C412.763 40.4187 412.689 40.616 412.539 40.776C412.39 40.9253 412.193 41 411.947 41ZM411.947 30.824C411.659 30.824 411.409 30.7227 411.195 30.52C410.993 30.3067 410.891 30.056 410.891 29.768C410.891 29.48 410.993 29.2347 411.195 29.032C411.409 28.8187 411.659 28.712 411.947 28.712C412.235 28.712 412.481 28.8187 412.683 29.032C412.897 29.2347 413.003 29.48 413.003 29.768C413.003 30.056 412.897 30.3067 412.683 30.52C412.481 30.7227 412.235 30.824 411.947 30.824ZM421.479 41C421.244 41 421.047 40.92 420.887 40.76C420.727 40.6 420.647 40.4027 420.647 40.168V29.336C420.647 29.0907 420.727 28.8933 420.887 28.744C421.047 28.584 421.244 28.504 421.479 28.504H424.679C425.479 28.504 426.188 28.68 426.807 29.032C427.426 29.384 427.906 29.8747 428.247 30.504C428.599 31.1227 428.775 31.8373 428.775 32.648C428.775 33.4267 428.599 34.12 428.247 34.728C427.906 35.336 427.426 35.8107 426.807 36.152C426.188 36.4933 425.479 36.664 424.679 36.664H422.311V40.168C422.311 40.4027 422.231 40.6 422.071 40.76C421.922 40.92 421.724 41 421.479 41ZM422.311 35.128H424.679C425.404 35.128 426.002 34.8987 426.471 34.44C426.94 33.9707 427.175 33.3733 427.175 32.648C427.175 32.136 427.068 31.688 426.855 31.304C426.642 30.9093 426.348 30.6 425.975 30.376C425.602 30.152 425.17 30.04 424.679 30.04H422.311V35.128ZM433.791 41.064C433.012 41.064 432.314 40.872 431.695 40.488C431.076 40.0933 430.586 39.5653 430.223 38.904C429.871 38.232 429.695 37.4747 429.695 36.632C429.695 35.7893 429.887 35.032 430.271 34.36C430.666 33.688 431.194 33.16 431.855 32.776C432.527 32.3813 433.279 32.184 434.111 32.184C434.943 32.184 435.69 32.3813 436.351 32.776C437.012 33.16 437.535 33.688 437.919 34.36C438.314 35.032 438.511 35.7893 438.511 36.632V40.2C438.511 40.4347 438.431 40.632 438.271 40.792C438.122 40.9413 437.93 41.016 437.695 41.016C437.46 41.016 437.263 40.9413 437.103 40.792C436.954 40.632 436.879 40.4347 436.879 40.2V39.608C436.506 40.056 436.052 40.4133 435.519 40.68C434.996 40.936 434.42 41.064 433.791 41.064ZM434.111 39.624C434.655 39.624 435.14 39.496 435.567 39.24C435.994 38.9733 436.33 38.616 436.575 38.168C436.82 37.7093 436.943 37.1973 436.943 36.632C436.943 36.056 436.82 35.544 436.575 35.096C436.33 34.6373 435.994 34.28 435.567 34.024C435.14 33.7573 434.655 33.624 434.111 33.624C433.578 33.624 433.092 33.7573 432.655 34.024C432.228 34.28 431.887 34.6373 431.631 35.096C431.386 35.544 431.263 36.056 431.263 36.632C431.263 37.1973 431.386 37.7093 431.631 38.168C431.887 38.616 432.228 38.9733 432.655 39.24C433.092 39.496 433.578 39.624 434.111 39.624ZM441.756 41.016C441.521 41.016 441.324 40.9413 441.164 40.792C441.015 40.632 440.94 40.4347 440.94 40.2V33.064C440.94 32.8187 441.015 32.6213 441.164 32.472C441.324 32.3227 441.521 32.248 441.756 32.248C442.001 32.248 442.199 32.3227 442.348 32.472C442.497 32.6213 442.572 32.8187 442.572 33.064V33.24C442.903 32.9093 443.303 32.648 443.772 32.456C444.241 32.264 444.748 32.168 445.292 32.168C446.028 32.168 446.684 32.328 447.26 32.648C447.847 32.9573 448.305 33.416 448.636 34.024C448.977 34.632 449.148 35.3787 449.148 36.264V40.2C449.148 40.4347 449.068 40.632 448.908 40.792C448.759 40.9413 448.567 41.016 448.332 41.016C448.097 41.016 447.9 40.9413 447.74 40.792C447.591 40.632 447.516 40.4347 447.516 40.2V36.264C447.516 35.3573 447.271 34.696 446.78 34.28C446.3 33.8533 445.697 33.64 444.972 33.64C444.524 33.64 444.119 33.7307 443.756 33.912C443.393 34.0933 443.105 34.3387 442.892 34.648C442.679 34.9467 442.572 35.2933 442.572 35.688V40.2C442.572 40.4347 442.497 40.632 442.348 40.792C442.199 40.9413 442.001 41.016 441.756 41.016ZM455.958 41.064C455.073 41.064 454.284 40.8773 453.59 40.504C452.908 40.12 452.369 39.5973 451.974 38.936C451.59 38.264 451.398 37.496 451.398 36.632C451.398 35.7573 451.58 34.9893 451.942 34.328C452.316 33.656 452.828 33.1333 453.478 32.76C454.129 32.376 454.876 32.184 455.718 32.184C456.55 32.184 457.265 32.3707 457.862 32.744C458.46 33.1067 458.913 33.6133 459.222 34.264C459.542 34.904 459.702 35.6453 459.702 36.488C459.702 36.6907 459.633 36.8613 459.494 37C459.356 37.128 459.18 37.192 458.966 37.192H452.886C453.004 37.928 453.34 38.5307 453.894 39C454.46 39.4587 455.148 39.688 455.958 39.688C456.289 39.688 456.625 39.6293 456.966 39.512C457.318 39.384 457.601 39.24 457.814 39.08C457.974 38.9627 458.145 38.904 458.326 38.904C458.518 38.8933 458.684 38.9467 458.822 39.064C459.004 39.224 459.1 39.4 459.11 39.592C459.121 39.784 459.036 39.9493 458.854 40.088C458.492 40.376 458.038 40.6107 457.494 40.792C456.961 40.9733 456.449 41.064 455.958 41.064ZM455.718 33.56C454.929 33.56 454.294 33.7787 453.814 34.216C453.334 34.6533 453.03 35.2187 452.902 35.912H458.23C458.134 35.2293 457.873 34.6693 457.446 34.232C457.02 33.784 456.444 33.56 455.718 33.56ZM463.864 41C463.394 41 462.978 40.872 462.616 40.616C462.253 40.36 461.97 40.0133 461.768 39.576C461.565 39.128 461.464 38.616 461.464 38.04V29.304C461.464 29.0693 461.538 28.8773 461.688 28.728C461.837 28.5787 462.029 28.504 462.264 28.504C462.498 28.504 462.69 28.5787 462.84 28.728C462.989 28.8773 463.064 29.0693 463.064 29.304V38.04C463.064 38.4347 463.138 38.76 463.288 39.016C463.437 39.272 463.629 39.4 463.864 39.4H464.264C464.477 39.4 464.648 39.4747 464.776 39.624C464.914 39.7733 464.984 39.9653 464.984 40.2C464.984 40.4347 464.882 40.6267 464.68 40.776C464.477 40.9253 464.216 41 463.896 41H463.864ZM340.568 65.16C339.885 65.16 339.235 65.0533 338.616 64.84C337.997 64.6267 337.459 64.328 337 63.944C336.541 63.56 336.205 63.1173 335.992 62.616C335.885 62.392 335.885 62.184 335.992 61.992C336.109 61.8 336.301 61.6773 336.568 61.624C336.76 61.5813 336.947 61.6133 337.128 61.72C337.32 61.816 337.464 61.9653 337.56 62.168C337.688 62.4347 337.896 62.68 338.184 62.904C338.483 63.128 338.84 63.3093 339.256 63.448C339.672 63.5867 340.109 63.656 340.568 63.656C341.08 63.656 341.549 63.576 341.976 63.416C342.413 63.256 342.765 63.0267 343.032 62.728C343.299 62.4187 343.432 62.04 343.432 61.592C343.432 61.0267 343.208 60.52 342.76 60.072C342.323 59.624 341.597 59.3467 340.584 59.24C339.261 59.112 338.221 58.7227 337.464 58.072C336.707 57.4213 336.328 56.616 336.328 55.656C336.328 54.952 336.525 54.3547 336.92 53.864C337.315 53.3733 337.848 53 338.52 52.744C339.203 52.488 339.96 52.36 340.792 52.36C341.763 52.36 342.557 52.5573 343.176 52.952C343.795 53.3467 344.307 53.8693 344.712 54.52C344.861 54.7547 344.92 54.9787 344.888 55.192C344.867 55.3947 344.765 55.5547 344.584 55.672C344.381 55.8 344.163 55.8267 343.928 55.752C343.693 55.6773 343.517 55.5387 343.4 55.336C343.133 54.8773 342.787 54.52 342.36 54.264C341.944 54.008 341.405 53.8747 340.744 53.864C339.955 53.8533 339.293 54.0027 338.76 54.312C338.227 54.6107 337.96 55.0747 337.96 55.704C337.96 56.024 338.04 56.3333 338.2 56.632C338.371 56.92 338.675 57.1707 339.112 57.384C339.56 57.5973 340.2 57.7467 341.032 57.832C342.301 57.96 343.288 58.3493 343.992 59C344.707 59.64 345.064 60.488 345.064 61.544C345.064 62.152 344.936 62.68 344.68 63.128C344.435 63.576 344.099 63.9547 343.672 64.264C343.256 64.5627 342.776 64.7867 342.232 64.936C341.699 65.0853 341.144 65.16 340.568 65.16ZM351.568 65.064C350.682 65.064 349.893 64.8773 349.2 64.504C348.517 64.12 347.978 63.5973 347.584 62.936C347.2 62.264 347.008 61.496 347.008 60.632C347.008 59.7573 347.189 58.9893 347.552 58.328C347.925 57.656 348.437 57.1333 349.088 56.76C349.738 56.376 350.485 56.184 351.328 56.184C352.16 56.184 352.874 56.3707 353.472 56.744C354.069 57.1067 354.522 57.6133 354.832 58.264C355.152 58.904 355.312 59.6453 355.312 60.488C355.312 60.6907 355.242 60.8613 355.104 61C354.965 61.128 354.789 61.192 354.576 61.192H348.496C348.613 61.928 348.949 62.5307 349.504 63C350.069 63.4587 350.757 63.688 351.568 63.688C351.898 63.688 352.234 63.6293 352.576 63.512C352.928 63.384 353.21 63.24 353.424 63.08C353.584 62.9627 353.754 62.904 353.936 62.904C354.128 62.8933 354.293 62.9467 354.432 63.064C354.613 63.224 354.709 63.4 354.72 63.592C354.73 63.784 354.645 63.9493 354.464 64.088C354.101 64.376 353.648 64.6107 353.104 64.792C352.57 64.9733 352.058 65.064 351.568 65.064ZM351.328 57.56C350.538 57.56 349.904 57.7787 349.424 58.216C348.944 58.6533 348.64 59.2187 348.512 59.912H353.84C353.744 59.2293 353.482 58.6693 353.056 58.232C352.629 57.784 352.053 57.56 351.328 57.56ZM358.193 65C357.66 65 357.393 64.7333 357.393 64.2V57.048C357.393 56.5147 357.66 56.248 358.193 56.248C358.726 56.248 358.993 56.5147 358.993 57.048V57.352C359.313 56.9787 359.702 56.6853 360.161 56.472C360.63 56.2587 361.137 56.152 361.681 56.152C362.321 56.152 362.796 56.2587 363.105 56.472C363.425 56.6747 363.548 56.92 363.473 57.208C363.42 57.432 363.313 57.5813 363.153 57.656C362.993 57.72 362.806 57.7307 362.593 57.688C361.91 57.5493 361.297 57.5387 360.753 57.656C360.209 57.7733 359.777 57.992 359.457 58.312C359.148 58.632 358.993 59.0373 358.993 59.528V64.2C358.993 64.7333 358.726 65 358.193 65ZM366.15 65C365.916 65 365.718 64.9253 365.558 64.776C365.409 64.616 365.334 64.4187 365.334 64.184V57.064C365.334 56.8187 365.409 56.6213 365.558 56.472C365.718 56.3227 365.916 56.248 366.15 56.248C366.396 56.248 366.593 56.3227 366.742 56.472C366.892 56.6213 366.966 56.8187 366.966 57.064V64.184C366.966 64.4187 366.892 64.616 366.742 64.776C366.593 64.9253 366.396 65 366.15 65ZM366.15 54.824C365.862 54.824 365.612 54.7227 365.398 54.52C365.196 54.3067 365.094 54.056 365.094 53.768C365.094 53.48 365.196 53.2347 365.398 53.032C365.612 52.8187 365.862 52.712 366.15 52.712C366.438 52.712 366.684 52.8187 366.886 53.032C367.1 53.2347 367.206 53.48 367.206 53.768C367.206 54.056 367.1 54.3067 366.886 54.52C366.684 54.7227 366.438 54.824 366.15 54.824ZM374.115 65.064C373.229 65.064 372.44 64.8773 371.747 64.504C371.064 64.12 370.525 63.5973 370.131 62.936C369.747 62.264 369.555 61.496 369.555 60.632C369.555 59.7573 369.736 58.9893 370.099 58.328C370.472 57.656 370.984 57.1333 371.635 56.76C372.285 56.376 373.032 56.184 373.875 56.184C374.707 56.184 375.421 56.3707 376.019 56.744C376.616 57.1067 377.069 57.6133 377.378 58.264C377.699 58.904 377.859 59.6453 377.859 60.488C377.859 60.6907 377.789 60.8613 377.651 61C377.512 61.128 377.336 61.192 377.123 61.192H371.043C371.16 61.928 371.496 62.5307 372.051 63C372.616 63.4587 373.304 63.688 374.115 63.688C374.445 63.688 374.781 63.6293 375.123 63.512C375.475 63.384 375.757 63.24 375.971 63.08C376.131 62.9627 376.301 62.904 376.483 62.904C376.675 62.8933 376.84 62.9467 376.979 63.064C377.16 63.224 377.256 63.4 377.267 63.592C377.277 63.784 377.192 63.9493 377.01 64.088C376.648 64.376 376.195 64.6107 375.651 64.792C375.117 64.9733 374.605 65.064 374.115 65.064ZM373.875 57.56C373.085 57.56 372.451 57.7787 371.971 58.216C371.491 58.6533 371.187 59.2187 371.059 59.912H376.387C376.291 59.2293 376.029 58.6693 375.603 58.232C375.176 57.784 374.6 57.56 373.875 57.56ZM383.124 65.064C382.377 65.064 381.684 64.952 381.044 64.728C380.415 64.4933 379.924 64.2 379.572 63.848C379.412 63.6773 379.343 63.4853 379.364 63.272C379.396 63.048 379.503 62.8667 379.684 62.728C379.897 62.5573 380.105 62.488 380.308 62.52C380.521 62.5413 380.703 62.632 380.852 62.792C381.033 62.9947 381.321 63.1867 381.716 63.368C382.121 63.5387 382.569 63.624 383.06 63.624C383.679 63.624 384.148 63.5227 384.468 63.32C384.799 63.1173 384.969 62.856 384.98 62.536C384.991 62.216 384.836 61.9387 384.516 61.704C384.207 61.4693 383.636 61.2773 382.804 61.128C381.727 60.9147 380.943 60.5947 380.452 60.168C379.972 59.7413 379.732 59.2187 379.732 58.6C379.732 58.056 379.892 57.608 380.212 57.256C380.532 56.8933 380.943 56.6267 381.444 56.456C381.945 56.2747 382.468 56.184 383.012 56.184C383.716 56.184 384.34 56.296 384.884 56.52C385.428 56.744 385.86 57.0533 386.18 57.448C386.329 57.6187 386.399 57.8 386.388 57.992C386.377 58.1733 386.287 58.328 386.116 58.456C385.945 58.5733 385.743 58.6107 385.508 58.568C385.273 58.5253 385.076 58.4293 384.916 58.28C384.649 58.024 384.361 57.848 384.052 57.752C383.743 57.656 383.385 57.608 382.98 57.608C382.511 57.608 382.111 57.688 381.78 57.848C381.46 58.008 381.3 58.2427 381.3 58.552C381.3 58.744 381.348 58.92 381.444 59.08C381.551 59.2293 381.753 59.368 382.052 59.496C382.351 59.6133 382.788 59.7307 383.364 59.848C384.569 60.0827 385.401 60.4187 385.86 60.856C386.329 61.2827 386.564 61.8107 386.564 62.44C386.564 62.9307 386.431 63.3733 386.164 63.768C385.908 64.1627 385.524 64.4773 385.012 64.712C384.511 64.9467 383.881 65.064 383.124 65.064Z" fill="#7A7A7A"/>
<circle cx="15.3846" cy="36.5" r="14.5" fill="#FD78B0"/>
<path d="M34.1101 50.8639C41.1743 49.892 46.6154 43.8314 46.6154 36.5C46.6154 29.1686 41.1743 23.108 34.1101 22.1361C33.0158 21.9855 32.1154 22.8954 32.1154 24V49C32.1154 50.1046 33.0158 51.0145 34.1101 50.8639Z" fill="#FD78B0"/>
<mask id="path-4-outside-1" maskUnits="userSpaceOnUse" x="57.8846" y="24.3462" width="236" height="27" fill="black">
<rect fill="white" x="57.8846" y="24.3462" width="236" height="27"/>
<path d="M60.5149 49.6893C60.0551 49.6893 59.6684 49.5335 59.3549 49.2218C59.0414 48.9101 58.8846 48.5257 58.8846 48.0685V26.967C58.8846 26.4891 59.0414 26.1046 59.3549 25.8137C59.6684 25.502 60.0551 25.3462 60.5149 25.3462H66.7853C68.3529 25.3462 69.7428 25.6891 70.9551 26.3748C72.1674 27.0605 73.1079 28.0164 73.7768 29.2423C74.4665 30.4475 74.8114 31.8398 74.8114 33.419C74.8114 34.9359 74.4665 36.2866 73.7768 37.471C73.1079 38.6554 72.1674 39.5801 70.9551 40.2451C69.7428 40.91 68.3529 41.2425 66.7853 41.2425H62.1452V48.0685C62.1452 48.5257 61.9885 48.9101 61.6749 49.2218C61.3823 49.5335 60.9956 49.6893 60.5149 49.6893ZM62.1452 38.2502H66.7853C68.2066 38.2502 69.377 37.8035 70.2967 36.91C71.2164 35.9957 71.6762 34.832 71.6762 33.419C71.6762 32.4216 71.4672 31.5489 71.0492 30.8008C70.6311 30.032 70.0563 29.4294 69.3248 28.993C68.5933 28.5566 67.7468 28.3384 66.7853 28.3384H62.1452V38.2502Z"/>
<path d="M86.5218 49.814C84.8288 49.814 83.3344 49.4504 82.0385 48.7231C80.7426 47.975 79.7184 46.9568 78.966 45.6685C78.2344 44.3594 77.8687 42.8633 77.8687 41.1801C77.8687 39.4762 78.2344 37.9801 78.966 36.6918C79.7184 35.3827 80.7426 34.3645 82.0385 33.6372C83.3344 32.8891 84.8288 32.5151 86.5218 32.5151C88.1939 32.5151 89.6779 32.8891 90.9738 33.6372C92.2696 34.3645 93.2834 35.3827 94.0149 36.6918C94.7673 37.9801 95.1436 39.4762 95.1436 41.1801C95.1436 42.8633 94.7778 44.3594 94.0463 45.6685C93.3147 46.9568 92.301 47.975 91.0051 48.7231C89.7092 49.4504 88.2148 49.814 86.5218 49.814ZM86.5218 47.0088C87.6087 47.0088 88.5701 46.7594 89.4062 46.2607C90.2422 45.762 90.8902 45.0763 91.35 44.2035C91.8307 43.3308 92.0711 42.323 92.0711 41.1801C92.0711 40.0373 91.8307 39.0295 91.35 38.1567C90.8902 37.2632 90.2422 36.5671 89.4062 36.0684C88.5701 35.5697 87.6087 35.3203 86.5218 35.3203C85.4349 35.3203 84.4735 35.5697 83.6374 36.0684C82.8014 36.5671 82.143 37.2632 81.6623 38.1567C81.1815 39.0295 80.9412 40.0373 80.9412 41.1801C80.9412 42.323 81.1815 43.3308 81.6623 44.2035C82.143 45.0763 82.8014 45.762 83.6374 46.2607C84.4735 46.7594 85.4349 47.0088 86.5218 47.0088Z"/>
<path d="M105.233 49.6893C104.313 49.6893 103.498 49.44 102.787 48.9413C102.077 48.4426 101.523 47.7672 101.126 46.9153C100.729 46.0425 100.53 45.0451 100.53 43.923V26.9047C100.53 26.4475 100.676 26.0735 100.969 25.7826C101.262 25.4916 101.638 25.3462 102.098 25.3462C102.557 25.3462 102.934 25.4916 103.226 25.7826C103.519 26.0735 103.665 26.4475 103.665 26.9047V43.923C103.665 44.6919 103.811 45.3256 104.104 45.8243C104.397 46.3231 104.773 46.5724 105.233 46.5724H106.017C106.435 46.5724 106.769 46.7179 107.02 47.0088C107.292 47.2997 107.427 47.6737 107.427 48.1309C107.427 48.588 107.229 48.962 106.832 49.253C106.435 49.5439 105.923 49.6893 105.295 49.6893H105.233Z"/>
<path d="M113.347 49.6893C112.887 49.6893 112.511 49.5543 112.218 49.2841C111.946 48.9932 111.811 48.6192 111.811 48.162V26.8735C111.811 26.4163 111.946 26.0527 112.218 25.7826C112.511 25.4916 112.887 25.3462 113.347 25.3462C113.807 25.3462 114.172 25.4916 114.444 25.7826C114.737 26.0527 114.883 26.4163 114.883 26.8735V39.5593L122.502 32.7956C122.815 32.5047 123.16 32.3696 123.536 32.3904C123.933 32.4112 124.268 32.5774 124.539 32.8891C124.832 33.2008 124.968 33.5437 124.947 33.9177C124.926 34.2917 124.759 34.6242 124.445 34.9151L118.677 40.0269L124.759 47.4451C125.031 47.7776 125.146 48.1413 125.104 48.5361C125.083 48.9101 124.895 49.2426 124.539 49.5335C124.205 49.8036 123.829 49.9179 123.411 49.8763C123.014 49.8556 122.679 49.6789 122.407 49.3465L116.451 42.0217L114.883 43.3931V48.162C114.883 48.6192 114.737 48.9932 114.444 49.2841C114.172 49.5543 113.807 49.6893 113.347 49.6893Z"/>
<path d="M136.501 49.814C134.975 49.814 133.606 49.44 132.394 48.6919C131.182 47.9231 130.22 46.8945 129.51 45.6062C128.82 44.2971 128.475 42.8217 128.475 41.1801C128.475 39.5386 128.851 38.0632 129.604 36.7541C130.377 35.445 131.412 34.4164 132.708 33.6684C134.024 32.8995 135.498 32.5151 137.128 32.5151C138.758 32.5151 140.222 32.8995 141.517 33.6684C142.813 34.4164 143.837 35.445 144.59 36.7541C145.363 38.0632 145.75 39.5386 145.75 41.1801V48.1309C145.75 48.588 145.593 48.9724 145.28 49.2841C144.987 49.575 144.611 49.7205 144.151 49.7205C143.691 49.7205 143.305 49.575 142.991 49.2841C142.698 48.9724 142.552 48.588 142.552 48.1309V46.9776C141.821 47.8503 140.932 48.5465 139.887 49.0659C138.863 49.5646 137.734 49.814 136.501 49.814ZM137.128 47.0088C138.194 47.0088 139.145 46.7594 139.981 46.2607C140.817 45.7412 141.476 45.0451 141.956 44.1724C142.437 43.2789 142.677 42.2814 142.677 41.1801C142.677 40.058 142.437 39.0606 141.956 38.1879C141.476 37.2944 140.817 36.5983 139.981 36.0996C139.145 35.5801 138.194 35.3203 137.128 35.3203C136.083 35.3203 135.132 35.5801 134.275 36.0996C133.439 36.5983 132.77 37.2944 132.269 38.1879C131.788 39.0606 131.548 40.058 131.548 41.1801C131.548 42.2814 131.788 43.2789 132.269 44.1724C132.77 45.0451 133.439 45.7412 134.275 46.2607C135.132 46.7594 136.083 47.0088 137.128 47.0088Z"/>
<path d="M159.539 49.814C157.908 49.814 156.435 49.44 155.118 48.6919C153.822 47.9231 152.788 46.8841 152.014 45.575C151.262 44.2659 150.886 42.7905 150.886 41.149C150.886 39.5074 151.23 38.0424 151.92 36.7541C152.631 35.445 153.592 34.4164 154.805 33.6684C156.017 32.8995 157.386 32.5151 158.912 32.5151C160.145 32.5151 161.284 32.7748 162.329 33.2943C163.374 33.793 164.252 34.4788 164.963 35.3515V26.9358C164.963 26.4579 165.109 26.0735 165.401 25.7826C165.715 25.4916 166.102 25.3462 166.561 25.3462C167.042 25.3462 167.429 25.4916 167.722 25.7826C168.014 26.0735 168.16 26.4579 168.16 26.9358V41.149C168.16 42.7905 167.774 44.2659 167 45.575C166.248 46.8841 165.224 47.9231 163.928 48.6919C162.632 49.44 161.169 49.814 159.539 49.814ZM159.539 47.0088C160.605 47.0088 161.556 46.7594 162.392 46.2607C163.228 45.7412 163.886 45.0347 164.367 44.1412C164.848 43.2477 165.088 42.2503 165.088 41.149C165.088 40.0269 164.848 39.0295 164.367 38.1567C163.886 37.284 163.228 36.5983 162.392 36.0996C161.556 35.5801 160.605 35.3203 159.539 35.3203C158.494 35.3203 157.543 35.5801 156.686 36.0996C155.85 36.5983 155.181 37.284 154.679 38.1567C154.198 39.0295 153.958 40.0269 153.958 41.149C153.958 42.2503 154.198 43.2477 154.679 44.1412C155.181 45.0347 155.85 45.7412 156.686 46.2607C157.543 46.7594 158.494 47.0088 159.539 47.0088Z"/>
<path d="M182.837 49.814C181.144 49.814 179.65 49.4504 178.354 48.7231C177.058 47.975 176.034 46.9568 175.281 45.6685C174.55 44.3594 174.184 42.8633 174.184 41.1801C174.184 39.4762 174.55 37.9801 175.281 36.6918C176.034 35.3827 177.058 34.3645 178.354 33.6372C179.65 32.8891 181.144 32.5151 182.837 32.5151C184.509 32.5151 185.993 32.8891 187.289 33.6372C188.585 34.3645 189.599 35.3827 190.33 36.6918C191.083 37.9801 191.459 39.4762 191.459 41.1801C191.459 42.8633 191.093 44.3594 190.361 45.6685C189.63 46.9568 188.616 47.975 187.32 48.7231C186.024 49.4504 184.53 49.814 182.837 49.814ZM182.837 47.0088C183.924 47.0088 184.885 46.7594 185.721 46.2607C186.557 45.762 187.205 45.0763 187.665 44.2035C188.146 43.3308 188.386 42.323 188.386 41.1801C188.386 40.0373 188.146 39.0295 187.665 38.1567C187.205 37.2632 186.557 36.5671 185.721 36.0684C184.885 35.5697 183.924 35.3203 182.837 35.3203C181.75 35.3203 180.789 35.5697 179.953 36.0684C179.117 36.5671 178.458 37.2632 177.978 38.1567C177.497 39.0295 177.256 40.0373 177.256 41.1801C177.256 42.323 177.497 43.3308 177.978 44.2035C178.458 45.0763 179.117 45.762 179.953 46.2607C180.789 46.7594 181.75 47.0088 182.837 47.0088Z"/>
<path d="M203.711 49.6893C202.666 49.6893 201.726 49.4296 200.89 48.9101C200.054 48.3698 199.395 47.6425 198.914 46.7283C198.434 45.814 198.193 44.7854 198.193 43.6425V35.9437H196.751C196.312 35.9437 195.957 35.819 195.685 35.5697C195.413 35.3203 195.278 35.0086 195.278 34.6346C195.278 34.219 195.413 33.8865 195.685 33.6372C195.957 33.3878 196.312 33.2632 196.751 33.2632H198.193V28.7748C198.193 28.3177 198.34 27.9436 198.632 27.6527C198.925 27.3618 199.301 27.2163 199.761 27.2163C200.221 27.2163 200.597 27.3618 200.89 27.6527C201.182 27.9436 201.329 28.3177 201.329 28.7748V33.2632H203.993C204.432 33.2632 204.788 33.3878 205.059 33.6372C205.331 33.8865 205.467 34.219 205.467 34.6346C205.467 35.0086 205.331 35.3203 205.059 35.5697C204.788 35.819 204.432 35.9437 203.993 35.9437H201.329V43.6425C201.329 44.4737 201.558 45.1698 202.018 45.7308C202.478 46.2919 203.042 46.5724 203.711 46.5724H204.777C205.153 46.5724 205.467 46.7179 205.718 47.0088C205.99 47.2997 206.125 47.6737 206.125 48.1309C206.125 48.588 205.948 48.962 205.592 49.253C205.258 49.5439 204.819 49.6893 204.276 49.6893H203.711Z"/>
<path d="M223.693 49.6893C223.233 49.6893 222.846 49.5335 222.533 49.2218C222.219 48.9101 222.063 48.5257 222.063 48.0685V26.967C222.063 26.4891 222.219 26.1046 222.533 25.8137C222.846 25.502 223.233 25.3462 223.693 25.3462H229.368C231.165 25.3462 232.795 25.6475 234.259 26.2501C235.743 26.8319 237.028 27.6735 238.115 28.7748C239.202 29.8553 240.038 31.1333 240.623 32.6086C241.208 34.084 241.501 35.7151 241.501 37.5022C241.501 39.2892 241.208 40.9308 240.623 42.4269C240.038 43.9022 239.202 45.1906 238.115 46.2919C237.028 47.3724 235.743 48.214 234.259 48.8166C232.795 49.3984 231.165 49.6893 229.368 49.6893H223.693ZM225.323 46.8218H229.368C231.123 46.8218 232.67 46.4269 234.008 45.6373C235.366 44.8269 236.432 43.7256 237.206 42.3334C237.979 40.9204 238.366 39.31 238.366 37.5022C238.366 35.6736 237.979 34.0632 237.206 32.6709C236.432 31.2787 235.366 30.1878 234.008 29.3982C232.67 28.6086 231.123 28.2138 229.368 28.2138H225.323V46.8218Z"/>
<path d="M255.616 49.814C253.881 49.814 252.334 49.4504 250.975 48.7231C249.638 47.975 248.582 46.9568 247.809 45.6685C247.056 44.3594 246.68 42.8633 246.68 41.1801C246.68 39.4762 247.036 37.9801 247.746 36.6918C248.478 35.3827 249.481 34.3645 250.756 33.6372C252.031 32.8891 253.494 32.5151 255.145 32.5151C256.776 32.5151 258.176 32.8787 259.346 33.606C260.517 34.3125 261.405 35.2996 262.011 36.5671C262.638 37.8139 262.952 39.258 262.952 40.8996C262.952 41.2944 262.816 41.6269 262.544 41.897C262.273 42.1464 261.928 42.2711 261.51 42.2711H249.596C249.826 43.7048 250.484 44.8789 251.571 45.7932C252.679 46.6867 254.027 47.1335 255.616 47.1335C256.264 47.1335 256.922 47.0192 257.591 46.7906C258.28 46.5412 258.834 46.2607 259.252 45.949C259.566 45.7204 259.9 45.6062 260.256 45.6062C260.632 45.5854 260.956 45.6893 261.228 45.9179C261.583 46.2295 261.771 46.5724 261.792 46.9464C261.813 47.3205 261.646 47.6425 261.29 47.9127C260.58 48.4737 259.691 48.9309 258.625 49.2841C257.58 49.6374 256.577 49.814 255.616 49.814ZM255.145 35.1957C253.599 35.1957 252.355 35.6216 251.414 36.4736C250.474 37.3255 249.878 38.4269 249.627 39.7775H260.068C259.879 38.4476 259.367 37.3567 258.531 36.5048C257.695 35.632 256.567 35.1957 255.145 35.1957Z"/>
<path d="M268.253 49.6893C267.794 49.6893 267.407 49.5335 267.093 49.2218C266.78 48.9101 266.623 48.5257 266.623 48.0685V26.967C266.623 26.4891 266.78 26.1046 267.093 25.8137C267.407 25.502 267.794 25.3462 268.253 25.3462H282.424C282.905 25.3462 283.292 25.4916 283.584 25.7826C283.877 26.0527 284.023 26.4163 284.023 26.8735C284.023 27.3098 283.877 27.6631 283.584 27.9332C283.292 28.2034 282.905 28.3384 282.424 28.3384H269.884V35.9125H278.882C279.362 35.9125 279.749 36.058 280.042 36.3489C280.334 36.619 280.481 36.9723 280.481 37.4087C280.481 37.845 280.334 38.2087 280.042 38.4996C279.749 38.7697 279.362 38.9048 278.882 38.9048H269.884V48.0685C269.884 48.5257 269.727 48.9101 269.413 49.2218C269.1 49.5335 268.713 49.6893 268.253 49.6893Z"/>
<path d="M291.046 49.6893C290.586 49.6893 290.2 49.5439 289.886 49.253C289.594 48.9413 289.447 48.5568 289.447 48.0997V34.2294C289.447 33.7515 289.594 33.3671 289.886 33.0761C290.2 32.7852 290.586 32.6398 291.046 32.6398C291.527 32.6398 291.914 32.7852 292.206 33.0761C292.499 33.3671 292.645 33.7515 292.645 34.2294V48.0997C292.645 48.5568 292.499 48.9413 292.206 49.253C291.914 49.5439 291.527 49.6893 291.046 49.6893ZM291.046 29.8657C290.482 29.8657 289.991 29.6683 289.573 29.2735C289.176 28.8579 288.977 28.3696 288.977 27.8086C288.977 27.2475 289.176 26.7696 289.573 26.3748C289.991 25.9592 290.482 25.7514 291.046 25.7514C291.61 25.7514 292.091 25.9592 292.488 26.3748C292.906 26.7696 293.115 27.2475 293.115 27.8086C293.115 28.3696 292.906 28.8579 292.488 29.2735C292.091 29.6683 291.61 29.8657 291.046 29.8657Z"/>
</mask>
<path d="M60.5149 49.6893C60.0551 49.6893 59.6684 49.5335 59.3549 49.2218C59.0414 48.9101 58.8846 48.5257 58.8846 48.0685V26.967C58.8846 26.4891 59.0414 26.1046 59.3549 25.8137C59.6684 25.502 60.0551 25.3462 60.5149 25.3462H66.7853C68.3529 25.3462 69.7428 25.6891 70.9551 26.3748C72.1674 27.0605 73.1079 28.0164 73.7768 29.2423C74.4665 30.4475 74.8114 31.8398 74.8114 33.419C74.8114 34.9359 74.4665 36.2866 73.7768 37.471C73.1079 38.6554 72.1674 39.5801 70.9551 40.2451C69.7428 40.91 68.3529 41.2425 66.7853 41.2425H62.1452V48.0685C62.1452 48.5257 61.9885 48.9101 61.6749 49.2218C61.3823 49.5335 60.9956 49.6893 60.5149 49.6893ZM62.1452 38.2502H66.7853C68.2066 38.2502 69.377 37.8035 70.2967 36.91C71.2164 35.9957 71.6762 34.832 71.6762 33.419C71.6762 32.4216 71.4672 31.5489 71.0492 30.8008C70.6311 30.032 70.0563 29.4294 69.3248 28.993C68.5933 28.5566 67.7468 28.3384 66.7853 28.3384H62.1452V38.2502Z" fill="#222222"/>
<path d="M86.5218 49.814C84.8288 49.814 83.3344 49.4504 82.0385 48.7231C80.7426 47.975 79.7184 46.9568 78.966 45.6685C78.2344 44.3594 77.8687 42.8633 77.8687 41.1801C77.8687 39.4762 78.2344 37.9801 78.966 36.6918C79.7184 35.3827 80.7426 34.3645 82.0385 33.6372C83.3344 32.8891 84.8288 32.5151 86.5218 32.5151C88.1939 32.5151 89.6779 32.8891 90.9738 33.6372C92.2696 34.3645 93.2834 35.3827 94.0149 36.6918C94.7673 37.9801 95.1436 39.4762 95.1436 41.1801C95.1436 42.8633 94.7778 44.3594 94.0463 45.6685C93.3147 46.9568 92.301 47.975 91.0051 48.7231C89.7092 49.4504 88.2148 49.814 86.5218 49.814ZM86.5218 47.0088C87.6087 47.0088 88.5701 46.7594 89.4062 46.2607C90.2422 45.762 90.8902 45.0763 91.35 44.2035C91.8307 43.3308 92.0711 42.323 92.0711 41.1801C92.0711 40.0373 91.8307 39.0295 91.35 38.1567C90.8902 37.2632 90.2422 36.5671 89.4062 36.0684C88.5701 35.5697 87.6087 35.3203 86.5218 35.3203C85.4349 35.3203 84.4735 35.5697 83.6374 36.0684C82.8014 36.5671 82.143 37.2632 81.6623 38.1567C81.1815 39.0295 80.9412 40.0373 80.9412 41.1801C80.9412 42.323 81.1815 43.3308 81.6623 44.2035C82.143 45.0763 82.8014 45.762 83.6374 46.2607C84.4735 46.7594 85.4349 47.0088 86.5218 47.0088Z" fill="#222222"/>
<path d="M105.233 49.6893C104.313 49.6893 103.498 49.44 102.787 48.9413C102.077 48.4426 101.523 47.7672 101.126 46.9153C100.729 46.0425 100.53 45.0451 100.53 43.923V26.9047C100.53 26.4475 100.676 26.0735 100.969 25.7826C101.262 25.4916 101.638 25.3462 102.098 25.3462C102.557 25.3462 102.934 25.4916 103.226 25.7826C103.519 26.0735 103.665 26.4475 103.665 26.9047V43.923C103.665 44.6919 103.811 45.3256 104.104 45.8243C104.397 46.3231 104.773 46.5724 105.233 46.5724H106.017C106.435 46.5724 106.769 46.7179 107.02 47.0088C107.292 47.2997 107.427 47.6737 107.427 48.1309C107.427 48.588 107.229 48.962 106.832 49.253C106.435 49.5439 105.923 49.6893 105.295 49.6893H105.233Z" fill="#222222"/>
<path d="M113.347 49.6893C112.887 49.6893 112.511 49.5543 112.218 49.2841C111.946 48.9932 111.811 48.6192 111.811 48.162V26.8735C111.811 26.4163 111.946 26.0527 112.218 25.7826C112.511 25.4916 112.887 25.3462 113.347 25.3462C113.807 25.3462 114.172 25.4916 114.444 25.7826C114.737 26.0527 114.883 26.4163 114.883 26.8735V39.5593L122.502 32.7956C122.815 32.5047 123.16 32.3696 123.536 32.3904C123.933 32.4112 124.268 32.5774 124.539 32.8891C124.832 33.2008 124.968 33.5437 124.947 33.9177C124.926 34.2917 124.759 34.6242 124.445 34.9151L118.677 40.0269L124.759 47.4451C125.031 47.7776 125.146 48.1413 125.104 48.5361C125.083 48.9101 124.895 49.2426 124.539 49.5335C124.205 49.8036 123.829 49.9179 123.411 49.8763C123.014 49.8556 122.679 49.6789 122.407 49.3465L116.451 42.0217L114.883 43.3931V48.162C114.883 48.6192 114.737 48.9932 114.444 49.2841C114.172 49.5543 113.807 49.6893 113.347 49.6893Z" fill="#222222"/>
<path d="M136.501 49.814C134.975 49.814 133.606 49.44 132.394 48.6919C131.182 47.9231 130.22 46.8945 129.51 45.6062C128.82 44.2971 128.475 42.8217 128.475 41.1801C128.475 39.5386 128.851 38.0632 129.604 36.7541C130.377 35.445 131.412 34.4164 132.708 33.6684C134.024 32.8995 135.498 32.5151 137.128 32.5151C138.758 32.5151 140.222 32.8995 141.517 33.6684C142.813 34.4164 143.837 35.445 144.59 36.7541C145.363 38.0632 145.75 39.5386 145.75 41.1801V48.1309C145.75 48.588 145.593 48.9724 145.28 49.2841C144.987 49.575 144.611 49.7205 144.151 49.7205C143.691 49.7205 143.305 49.575 142.991 49.2841C142.698 48.9724 142.552 48.588 142.552 48.1309V46.9776C141.821 47.8503 140.932 48.5465 139.887 49.0659C138.863 49.5646 137.734 49.814 136.501 49.814ZM137.128 47.0088C138.194 47.0088 139.145 46.7594 139.981 46.2607C140.817 45.7412 141.476 45.0451 141.956 44.1724C142.437 43.2789 142.677 42.2814 142.677 41.1801C142.677 40.058 142.437 39.0606 141.956 38.1879C141.476 37.2944 140.817 36.5983 139.981 36.0996C139.145 35.5801 138.194 35.3203 137.128 35.3203C136.083 35.3203 135.132 35.5801 134.275 36.0996C133.439 36.5983 132.77 37.2944 132.269 38.1879C131.788 39.0606 131.548 40.058 131.548 41.1801C131.548 42.2814 131.788 43.2789 132.269 44.1724C132.77 45.0451 133.439 45.7412 134.275 46.2607C135.132 46.7594 136.083 47.0088 137.128 47.0088Z" fill="#222222"/>
<path d="M159.539 49.814C157.908 49.814 156.435 49.44 155.118 48.6919C153.822 47.9231 152.788 46.8841 152.014 45.575C151.262 44.2659 150.886 42.7905 150.886 41.149C150.886 39.5074 151.23 38.0424 151.92 36.7541C152.631 35.445 153.592 34.4164 154.805 33.6684C156.017 32.8995 157.386 32.5151 158.912 32.5151C160.145 32.5151 161.284 32.7748 162.329 33.2943C163.374 33.793 164.252 34.4788 164.963 35.3515V26.9358C164.963 26.4579 165.109 26.0735 165.401 25.7826C165.715 25.4916 166.102 25.3462 166.561 25.3462C167.042 25.3462 167.429 25.4916 167.722 25.7826C168.014 26.0735 168.16 26.4579 168.16 26.9358V41.149C168.16 42.7905 167.774 44.2659 167 45.575C166.248 46.8841 165.224 47.9231 163.928 48.6919C162.632 49.44 161.169 49.814 159.539 49.814ZM159.539 47.0088C160.605 47.0088 161.556 46.7594 162.392 46.2607C163.228 45.7412 163.886 45.0347 164.367 44.1412C164.848 43.2477 165.088 42.2503 165.088 41.149C165.088 40.0269 164.848 39.0295 164.367 38.1567C163.886 37.284 163.228 36.5983 162.392 36.0996C161.556 35.5801 160.605 35.3203 159.539 35.3203C158.494 35.3203 157.543 35.5801 156.686 36.0996C155.85 36.5983 155.181 37.284 154.679 38.1567C154.198 39.0295 153.958 40.0269 153.958 41.149C153.958 42.2503 154.198 43.2477 154.679 44.1412C155.181 45.0347 155.85 45.7412 156.686 46.2607C157.543 46.7594 158.494 47.0088 159.539 47.0088Z" fill="#222222"/>
<path d="M182.837 49.814C181.144 49.814 179.65 49.4504 178.354 48.7231C177.058 47.975 176.034 46.9568 175.281 45.6685C174.55 44.3594 174.184 42.8633 174.184 41.1801C174.184 39.4762 174.55 37.9801 175.281 36.6918C176.034 35.3827 177.058 34.3645 178.354 33.6372C179.65 32.8891 181.144 32.5151 182.837 32.5151C184.509 32.5151 185.993 32.8891 187.289 33.6372C188.585 34.3645 189.599 35.3827 190.33 36.6918C191.083 37.9801 191.459 39.4762 191.459 41.1801C191.459 42.8633 191.093 44.3594 190.361 45.6685C189.63 46.9568 188.616 47.975 187.32 48.7231C186.024 49.4504 184.53 49.814 182.837 49.814ZM182.837 47.0088C183.924 47.0088 184.885 46.7594 185.721 46.2607C186.557 45.762 187.205 45.0763 187.665 44.2035C188.146 43.3308 188.386 42.323 188.386 41.1801C188.386 40.0373 188.146 39.0295 187.665 38.1567C187.205 37.2632 186.557 36.5671 185.721 36.0684C184.885 35.5697 183.924 35.3203 182.837 35.3203C181.75 35.3203 180.789 35.5697 179.953 36.0684C179.117 36.5671 178.458 37.2632 177.978 38.1567C177.497 39.0295 177.256 40.0373 177.256 41.1801C177.256 42.323 177.497 43.3308 177.978 44.2035C178.458 45.0763 179.117 45.762 179.953 46.2607C180.789 46.7594 181.75 47.0088 182.837 47.0088Z" fill="#222222"/>
<path d="M203.711 49.6893C202.666 49.6893 201.726 49.4296 200.89 48.9101C200.054 48.3698 199.395 47.6425 198.914 46.7283C198.434 45.814 198.193 44.7854 198.193 43.6425V35.9437H196.751C196.312 35.9437 195.957 35.819 195.685 35.5697C195.413 35.3203 195.278 35.0086 195.278 34.6346C195.278 34.219 195.413 33.8865 195.685 33.6372C195.957 33.3878 196.312 33.2632 196.751 33.2632H198.193V28.7748C198.193 28.3177 198.34 27.9436 198.632 27.6527C198.925 27.3618 199.301 27.2163 199.761 27.2163C200.221 27.2163 200.597 27.3618 200.89 27.6527C201.182 27.9436 201.329 28.3177 201.329 28.7748V33.2632H203.993C204.432 33.2632 204.788 33.3878 205.059 33.6372C205.331 33.8865 205.467 34.219 205.467 34.6346C205.467 35.0086 205.331 35.3203 205.059 35.5697C204.788 35.819 204.432 35.9437 203.993 35.9437H201.329V43.6425C201.329 44.4737 201.558 45.1698 202.018 45.7308C202.478 46.2919 203.042 46.5724 203.711 46.5724H204.777C205.153 46.5724 205.467 46.7179 205.718 47.0088C205.99 47.2997 206.125 47.6737 206.125 48.1309C206.125 48.588 205.948 48.962 205.592 49.253C205.258 49.5439 204.819 49.6893 204.276 49.6893H203.711Z" fill="#222222"/>
<path d="M223.693 49.6893C223.233 49.6893 222.846 49.5335 222.533 49.2218C222.219 48.9101 222.063 48.5257 222.063 48.0685V26.967C222.063 26.4891 222.219 26.1046 222.533 25.8137C222.846 25.502 223.233 25.3462 223.693 25.3462H229.368C231.165 25.3462 232.795 25.6475 234.259 26.2501C235.743 26.8319 237.028 27.6735 238.115 28.7748C239.202 29.8553 240.038 31.1333 240.623 32.6086C241.208 34.084 241.501 35.7151 241.501 37.5022C241.501 39.2892 241.208 40.9308 240.623 42.4269C240.038 43.9022 239.202 45.1906 238.115 46.2919C237.028 47.3724 235.743 48.214 234.259 48.8166C232.795 49.3984 231.165 49.6893 229.368 49.6893H223.693ZM225.323 46.8218H229.368C231.123 46.8218 232.67 46.4269 234.008 45.6373C235.366 44.8269 236.432 43.7256 237.206 42.3334C237.979 40.9204 238.366 39.31 238.366 37.5022C238.366 35.6736 237.979 34.0632 237.206 32.6709C236.432 31.2787 235.366 30.1878 234.008 29.3982C232.67 28.6086 231.123 28.2138 229.368 28.2138H225.323V46.8218Z" fill="#222222"/>
<path d="M255.616 49.814C253.881 49.814 252.334 49.4504 250.975 48.7231C249.638 47.975 248.582 46.9568 247.809 45.6685C247.056 44.3594 246.68 42.8633 246.68 41.1801C246.68 39.4762 247.036 37.9801 247.746 36.6918C248.478 35.3827 249.481 34.3645 250.756 33.6372C252.031 32.8891 253.494 32.5151 255.145 32.5151C256.776 32.5151 258.176 32.8787 259.346 33.606C260.517 34.3125 261.405 35.2996 262.011 36.5671C262.638 37.8139 262.952 39.258 262.952 40.8996C262.952 41.2944 262.816 41.6269 262.544 41.897C262.273 42.1464 261.928 42.2711 261.51 42.2711H249.596C249.826 43.7048 250.484 44.8789 251.571 45.7932C252.679 46.6867 254.027 47.1335 255.616 47.1335C256.264 47.1335 256.922 47.0192 257.591 46.7906C258.28 46.5412 258.834 46.2607 259.252 45.949C259.566 45.7204 259.9 45.6062 260.256 45.6062C260.632 45.5854 260.956 45.6893 261.228 45.9179C261.583 46.2295 261.771 46.5724 261.792 46.9464C261.813 47.3205 261.646 47.6425 261.29 47.9127C260.58 48.4737 259.691 48.9309 258.625 49.2841C257.58 49.6374 256.577 49.814 255.616 49.814ZM255.145 35.1957C253.599 35.1957 252.355 35.6216 251.414 36.4736C250.474 37.3255 249.878 38.4269 249.627 39.7775H260.068C259.879 38.4476 259.367 37.3567 258.531 36.5048C257.695 35.632 256.567 35.1957 255.145 35.1957Z" fill="#222222"/>
<path d="M268.253 49.6893C267.794 49.6893 267.407 49.5335 267.093 49.2218C266.78 48.9101 266.623 48.5257 266.623 48.0685V26.967C266.623 26.4891 266.78 26.1046 267.093 25.8137C267.407 25.502 267.794 25.3462 268.253 25.3462H282.424C282.905 25.3462 283.292 25.4916 283.584 25.7826C283.877 26.0527 284.023 26.4163 284.023 26.8735C284.023 27.3098 283.877 27.6631 283.584 27.9332C283.292 28.2034 282.905 28.3384 282.424 28.3384H269.884V35.9125H278.882C279.362 35.9125 279.749 36.058 280.042 36.3489C280.334 36.619 280.481 36.9723 280.481 37.4087C280.481 37.845 280.334 38.2087 280.042 38.4996C279.749 38.7697 279.362 38.9048 278.882 38.9048H269.884V48.0685C269.884 48.5257 269.727 48.9101 269.413 49.2218C269.1 49.5335 268.713 49.6893 268.253 49.6893Z" fill="#222222"/>
<path d="M291.046 49.6893C290.586 49.6893 290.2 49.5439 289.886 49.253C289.594 48.9413 289.447 48.5568 289.447 48.0997V34.2294C289.447 33.7515 289.594 33.3671 289.886 33.0761C290.2 32.7852 290.586 32.6398 291.046 32.6398C291.527 32.6398 291.914 32.7852 292.206 33.0761C292.499 33.3671 292.645 33.7515 292.645 34.2294V48.0997C292.645 48.5568 292.499 48.9413 292.206 49.253C291.914 49.5439 291.527 49.6893 291.046 49.6893ZM291.046 29.8657C290.482 29.8657 289.991 29.6683 289.573 29.2735C289.176 28.8579 288.977 28.3696 288.977 27.8086C288.977 27.2475 289.176 26.7696 289.573 26.3748C289.991 25.9592 290.482 25.7514 291.046 25.7514C291.61 25.7514 292.091 25.9592 292.488 26.3748C292.906 26.7696 293.115 27.2475 293.115 27.8086C293.115 28.3696 292.906 28.8579 292.488 29.2735C292.091 29.6683 291.61 29.8657 291.046 29.8657Z" fill="#222222"/>
<path d="M60.5149 49.6893C60.0551 49.6893 59.6684 49.5335 59.3549 49.2218C59.0414 48.9101 58.8846 48.5257 58.8846 48.0685V26.967C58.8846 26.4891 59.0414 26.1046 59.3549 25.8137C59.6684 25.502 60.0551 25.3462 60.5149 25.3462H66.7853C68.3529 25.3462 69.7428 25.6891 70.9551 26.3748C72.1674 27.0605 73.1079 28.0164 73.7768 29.2423C74.4665 30.4475 74.8114 31.8398 74.8114 33.419C74.8114 34.9359 74.4665 36.2866 73.7768 37.471C73.1079 38.6554 72.1674 39.5801 70.9551 40.2451C69.7428 40.91 68.3529 41.2425 66.7853 41.2425H62.1452V48.0685C62.1452 48.5257 61.9885 48.9101 61.6749 49.2218C61.3823 49.5335 60.9956 49.6893 60.5149 49.6893ZM62.1452 38.2502H66.7853C68.2066 38.2502 69.377 37.8035 70.2967 36.91C71.2164 35.9957 71.6762 34.832 71.6762 33.419C71.6762 32.4216 71.4672 31.5489 71.0492 30.8008C70.6311 30.032 70.0563 29.4294 69.3248 28.993C68.5933 28.5566 67.7468 28.3384 66.7853 28.3384H62.1452V38.2502Z" stroke="#222222" mask="url(#path-4-outside-1)"/>
<path d="M86.5218 49.814C84.8288 49.814 83.3344 49.4504 82.0385 48.7231C80.7426 47.975 79.7184 46.9568 78.966 45.6685C78.2344 44.3594 77.8687 42.8633 77.8687 41.1801C77.8687 39.4762 78.2344 37.9801 78.966 36.6918C79.7184 35.3827 80.7426 34.3645 82.0385 33.6372C83.3344 32.8891 84.8288 32.5151 86.5218 32.5151C88.1939 32.5151 89.6779 32.8891 90.9738 33.6372C92.2696 34.3645 93.2834 35.3827 94.0149 36.6918C94.7673 37.9801 95.1436 39.4762 95.1436 41.1801C95.1436 42.8633 94.7778 44.3594 94.0463 45.6685C93.3147 46.9568 92.301 47.975 91.0051 48.7231C89.7092 49.4504 88.2148 49.814 86.5218 49.814ZM86.5218 47.0088C87.6087 47.0088 88.5701 46.7594 89.4062 46.2607C90.2422 45.762 90.8902 45.0763 91.35 44.2035C91.8307 43.3308 92.0711 42.323 92.0711 41.1801C92.0711 40.0373 91.8307 39.0295 91.35 38.1567C90.8902 37.2632 90.2422 36.5671 89.4062 36.0684C88.5701 35.5697 87.6087 35.3203 86.5218 35.3203C85.4349 35.3203 84.4735 35.5697 83.6374 36.0684C82.8014 36.5671 82.143 37.2632 81.6623 38.1567C81.1815 39.0295 80.9412 40.0373 80.9412 41.1801C80.9412 42.323 81.1815 43.3308 81.6623 44.2035C82.143 45.0763 82.8014 45.762 83.6374 46.2607C84.4735 46.7594 85.4349 47.0088 86.5218 47.0088Z" stroke="#222222" mask="url(#path-4-outside-1)"/>
<path d="M105.233 49.6893C104.313 49.6893 103.498 49.44 102.787 48.9413C102.077 48.4426 101.523 47.7672 101.126 46.9153C100.729 46.0425 100.53 45.0451 100.53 43.923V26.9047C100.53 26.4475 100.676 26.0735 100.969 25.7826C101.262 25.4916 101.638 25.3462 102.098 25.3462C102.557 25.3462 102.934 25.4916 103.226 25.7826C103.519 26.0735 103.665 26.4475 103.665 26.9047V43.923C103.665 44.6919 103.811 45.3256 104.104 45.8243C104.397 46.3231 104.773 46.5724 105.233 46.5724H106.017C106.435 46.5724 106.769 46.7179 107.02 47.0088C107.292 47.2997 107.427 47.6737 107.427 48.1309C107.427 48.588 107.229 48.962 106.832 49.253C106.435 49.5439 105.923 49.6893 105.295 49.6893H105.233Z" stroke="#222222" mask="url(#path-4-outside-1)"/>
<path d="M113.347 49.6893C112.887 49.6893 112.511 49.5543 112.218 49.2841C111.946 48.9932 111.811 48.6192 111.811 48.162V26.8735C111.811 26.4163 111.946 26.0527 112.218 25.7826C112.511 25.4916 112.887 25.3462 113.347 25.3462C113.807 25.3462 114.172 25.4916 114.444 25.7826C114.737 26.0527 114.883 26.4163 114.883 26.8735V39.5593L122.502 32.7956C122.815 32.5047 123.16 32.3696 123.536 32.3904C123.933 32.4112 124.268 32.5774 124.539 32.8891C124.832 33.2008 124.968 33.5437 124.947 33.9177C124.926 34.2917 124.759 34.6242 124.445 34.9151L118.677 40.0269L124.759 47.4451C125.031 47.7776 125.146 48.1413 125.104 48.5361C125.083 48.9101 124.895 49.2426 124.539 49.5335C124.205 49.8036 123.829 49.9179 123.411 49.8763C123.014 49.8556 122.679 49.6789 122.407 49.3465L116.451 42.0217L114.883 43.3931V48.162C114.883 48.6192 114.737 48.9932 114.444 49.2841C114.172 49.5543 113.807 49.6893 113.347 49.6893Z" stroke="#222222" mask="url(#path-4-outside-1)"/>
<path d="M136.501 49.814C134.975 49.814 133.606 49.44 132.394 48.6919C131.182 47.9231 130.22 46.8945 129.51 45.6062C128.82 44.2971 128.475 42.8217 128.475 41.1801C128.475 39.5386 128.851 38.0632 129.604 36.7541C130.377 35.445 131.412 34.4164 132.708 33.6684C134.024 32.8995 135.498 32.5151 137.128 32.5151C138.758 32.5151 140.222 32.8995 141.517 33.6684C142.813 34.4164 143.837 35.445 144.59 36.7541C145.363 38.0632 145.75 39.5386 145.75 41.1801V48.1309C145.75 48.588 145.593 48.9724 145.28 49.2841C144.987 49.575 144.611 49.7205 144.151 49.7205C143.691 49.7205 143.305 49.575 142.991 49.2841C142.698 48.9724 142.552 48.588 142.552 48.1309V46.9776C141.821 47.8503 140.932 48.5465 139.887 49.0659C138.863 49.5646 137.734 49.814 136.501 49.814ZM137.128 47.0088C138.194 47.0088 139.145 46.7594 139.981 46.2607C140.817 45.7412 141.476 45.0451 141.956 44.1724C142.437 43.2789 142.677 42.2814 142.677 41.1801C142.677 40.058 142.437 39.0606 141.956 38.1879C141.476 37.2944 140.817 36.5983 139.981 36.0996C139.145 35.5801 138.194 35.3203 137.128 35.3203C136.083 35.3203 135.132 35.5801 134.275 36.0996C133.439 36.5983 132.77 37.2944 132.269 38.1879C131.788 39.0606 131.548 40.058 131.548 41.1801C131.548 42.2814 131.788 43.2789 132.269 44.1724C132.77 45.0451 133.439 45.7412 134.275 46.2607C135.132 46.7594 136.083 47.0088 137.128 47.0088Z" stroke="#222222" mask="url(#path-4-outside-1)"/>
<path d="M159.539 49.814C157.908 49.814 156.435 49.44 155.118 48.6919C153.822 47.9231 152.788 46.8841 152.014 45.575C151.262 44.2659 150.886 42.7905 150.886 41.149C150.886 39.5074 151.23 38.0424 151.92 36.7541C152.631 35.445 153.592 34.4164 154.805 33.6684C156.017 32.8995 157.386 32.5151 158.912 32.5151C160.145 32.5151 161.284 32.7748 162.329 33.2943C163.374 33.793 164.252 34.4788 164.963 35.3515V26.9358C164.963 26.4579 165.109 26.0735 165.401 25.7826C165.715 25.4916 166.102 25.3462 166.561 25.3462C167.042 25.3462 167.429 25.4916 167.722 25.7826C168.014 26.0735 168.16 26.4579 168.16 26.9358V41.149C168.16 42.7905 167.774 44.2659 167 45.575C166.248 46.8841 165.224 47.9231 163.928 48.6919C162.632 49.44 161.169 49.814 159.539 49.814ZM159.539 47.0088C160.605 47.0088 161.556 46.7594 162.392 46.2607C163.228 45.7412 163.886 45.0347 164.367 44.1412C164.848 43.2477 165.088 42.2503 165.088 41.149C165.088 40.0269 164.848 39.0295 164.367 38.1567C163.886 37.284 163.228 36.5983 162.392 36.0996C161.556 35.5801 160.605 35.3203 159.539 35.3203C158.494 35.3203 157.543 35.5801 156.686 36.0996C155.85 36.5983 155.181 37.284 154.679 38.1567C154.198 39.0295 153.958 40.0269 153.958 41.149C153.958 42.2503 154.198 43.2477 154.679 44.1412C155.181 45.0347 155.85 45.7412 156.686 46.2607C157.543 46.7594 158.494 47.0088 159.539 47.0088Z" stroke="#222222" mask="url(#path-4-outside-1)"/>
<path d="M182.837 49.814C181.144 49.814 179.65 49.4504 178.354 48.7231C177.058 47.975 176.034 46.9568 175.281 45.6685C174.55 44.3594 174.184 42.8633 174.184 41.1801C174.184 39.4762 174.55 37.9801 175.281 36.6918C176.034 35.3827 177.058 34.3645 178.354 33.6372C179.65 32.8891 181.144 32.5151 182.837 32.5151C184.509 32.5151 185.993 32.8891 187.289 33.6372C188.585 34.3645 189.599 35.3827 190.33 36.6918C191.083 37.9801 191.459 39.4762 191.459 41.1801C191.459 42.8633 191.093 44.3594 190.361 45.6685C189.63 46.9568 188.616 47.975 187.32 48.7231C186.024 49.4504 184.53 49.814 182.837 49.814ZM182.837 47.0088C183.924 47.0088 184.885 46.7594 185.721 46.2607C186.557 45.762 187.205 45.0763 187.665 44.2035C188.146 43.3308 188.386 42.323 188.386 41.1801C188.386 40.0373 188.146 39.0295 187.665 38.1567C187.205 37.2632 186.557 36.5671 185.721 36.0684C184.885 35.5697 183.924 35.3203 182.837 35.3203C181.75 35.3203 180.789 35.5697 179.953 36.0684C179.117 36.5671 178.458 37.2632 177.978 38.1567C177.497 39.0295 177.256 40.0373 177.256 41.1801C177.256 42.323 177.497 43.3308 177.978 44.2035C178.458 45.0763 179.117 45.762 179.953 46.2607C180.789 46.7594 181.75 47.0088 182.837 47.0088Z" stroke="#222222" mask="url(#path-4-outside-1)"/>
<path d="M203.711 49.6893C202.666 49.6893 201.726 49.4296 200.89 48.9101C200.054 48.3698 199.395 47.6425 198.914 46.7283C198.434 45.814 198.193 44.7854 198.193 43.6425V35.9437H196.751C196.312 35.9437 195.957 35.819 195.685 35.5697C195.413 35.3203 195.278 35.0086 195.278 34.6346C195.278 34.219 195.413 33.8865 195.685 33.6372C195.957 33.3878 196.312 33.2632 196.751 33.2632H198.193V28.7748C198.193 28.3177 198.34 27.9436 198.632 27.6527C198.925 27.3618 199.301 27.2163 199.761 27.2163C200.221 27.2163 200.597 27.3618 200.89 27.6527C201.182 27.9436 201.329 28.3177 201.329 28.7748V33.2632H203.993C204.432 33.2632 204.788 33.3878 205.059 33.6372C205.331 33.8865 205.467 34.219 205.467 34.6346C205.467 35.0086 205.331 35.3203 205.059 35.5697C204.788 35.819 204.432 35.9437 203.993 35.9437H201.329V43.6425C201.329 44.4737 201.558 45.1698 202.018 45.7308C202.478 46.2919 203.042 46.5724 203.711 46.5724H204.777C205.153 46.5724 205.467 46.7179 205.718 47.0088C205.99 47.2997 206.125 47.6737 206.125 48.1309C206.125 48.588 205.948 48.962 205.592 49.253C205.258 49.5439 204.819 49.6893 204.276 49.6893H203.711Z" stroke="#222222" mask="url(#path-4-outside-1)"/>
<path d="M223.693 49.6893C223.233 49.6893 222.846 49.5335 222.533 49.2218C222.219 48.9101 222.063 48.5257 222.063 48.0685V26.967C222.063 26.4891 222.219 26.1046 222.533 25.8137C222.846 25.502 223.233 25.3462 223.693 25.3462H229.368C231.165 25.3462 232.795 25.6475 234.259 26.2501C235.743 26.8319 237.028 27.6735 238.115 28.7748C239.202 29.8553 240.038 31.1333 240.623 32.6086C241.208 34.084 241.501 35.7151 241.501 37.5022C241.501 39.2892 241.208 40.9308 240.623 42.4269C240.038 43.9022 239.202 45.1906 238.115 46.2919C237.028 47.3724 235.743 48.214 234.259 48.8166C232.795 49.3984 231.165 49.6893 229.368 49.6893H223.693ZM225.323 46.8218H229.368C231.123 46.8218 232.67 46.4269 234.008 45.6373C235.366 44.8269 236.432 43.7256 237.206 42.3334C237.979 40.9204 238.366 39.31 238.366 37.5022C238.366 35.6736 237.979 34.0632 237.206 32.6709C236.432 31.2787 235.366 30.1878 234.008 29.3982C232.67 28.6086 231.123 28.2138 229.368 28.2138H225.323V46.8218Z" stroke="#222222" mask="url(#path-4-outside-1)"/>
<path d="M255.616 49.814C253.881 49.814 252.334 49.4504 250.975 48.7231C249.638 47.975 248.582 46.9568 247.809 45.6685C247.056 44.3594 246.68 42.8633 246.68 41.1801C246.68 39.4762 247.036 37.9801 247.746 36.6918C248.478 35.3827 249.481 34.3645 250.756 33.6372C252.031 32.8891 253.494 32.5151 255.145 32.5151C256.776 32.5151 258.176 32.8787 259.346 33.606C260.517 34.3125 261.405 35.2996 262.011 36.5671C262.638 37.8139 262.952 39.258 262.952 40.8996C262.952 41.2944 262.816 41.6269 262.544 41.897C262.273 42.1464 261.928 42.2711 261.51 42.2711H249.596C249.826 43.7048 250.484 44.8789 251.571 45.7932C252.679 46.6867 254.027 47.1335 255.616 47.1335C256.264 47.1335 256.922 47.0192 257.591 46.7906C258.28 46.5412 258.834 46.2607 259.252 45.949C259.566 45.7204 259.9 45.6062 260.256 45.6062C260.632 45.5854 260.956 45.6893 261.228 45.9179C261.583 46.2295 261.771 46.5724 261.792 46.9464C261.813 47.3205 261.646 47.6425 261.29 47.9127C260.58 48.4737 259.691 48.9309 258.625 49.2841C257.58 49.6374 256.577 49.814 255.616 49.814ZM255.145 35.1957C253.599 35.1957 252.355 35.6216 251.414 36.4736C250.474 37.3255 249.878 38.4269 249.627 39.7775H260.068C259.879 38.4476 259.367 37.3567 258.531 36.5048C257.695 35.632 256.567 35.1957 255.145 35.1957Z" stroke="#222222" mask="url(#path-4-outside-1)"/>
<path d="M268.253 49.6893C267.794 49.6893 267.407 49.5335 267.093 49.2218C266.78 48.9101 266.623 48.5257 266.623 48.0685V26.967C266.623 26.4891 266.78 26.1046 267.093 25.8137C267.407 25.502 267.794 25.3462 268.253 25.3462H282.424C282.905 25.3462 283.292 25.4916 283.584 25.7826C283.877 26.0527 284.023 26.4163 284.023 26.8735C284.023 27.3098 283.877 27.6631 283.584 27.9332C283.292 28.2034 282.905 28.3384 282.424 28.3384H269.884V35.9125H278.882C279.362 35.9125 279.749 36.058 280.042 36.3489C280.334 36.619 280.481 36.9723 280.481 37.4087C280.481 37.845 280.334 38.2087 280.042 38.4996C279.749 38.7697 279.362 38.9048 278.882 38.9048H269.884V48.0685C269.884 48.5257 269.727 48.9101 269.413 49.2218C269.1 49.5335 268.713 49.6893 268.253 49.6893Z" stroke="#222222" mask="url(#path-4-outside-1)"/>
<path d="M291.046 49.6893C290.586 49.6893 290.2 49.5439 289.886 49.253C289.594 48.9413 289.447 48.5568 289.447 48.0997V34.2294C289.447 33.7515 289.594 33.3671 289.886 33.0761C290.2 32.7852 290.586 32.6398 291.046 32.6398C291.527 32.6398 291.914 32.7852 292.206 33.0761C292.499 33.3671 292.645 33.7515 292.645 34.2294V48.0997C292.645 48.5568 292.499 48.9413 292.206 49.253C291.914 49.5439 291.527 49.6893 291.046 49.6893ZM291.046 29.8657C290.482 29.8657 289.991 29.6683 289.573 29.2735C289.176 28.8579 288.977 28.3696 288.977 27.8086C288.977 27.2475 289.176 26.7696 289.573 26.3748C289.991 25.9592 290.482 25.7514 291.046 25.7514C291.61 25.7514 292.091 25.9592 292.488 26.3748C292.906 26.7696 293.115 27.2475 293.115 27.8086C293.115 28.3696 292.906 28.8579 292.488 29.2735C292.091 29.6683 291.61 29.8657 291.046 29.8657Z" stroke="#222222" mask="url(#path-4-outside-1)"/>
</svg>
